<svg width="468" height="452" viewBox="0 0 468 452" fill="none" xmlns="http://www.w3.org/2000/svg">
<path d="M462.463 342.256C462.463 402.59 366.035 451.5 247.085 451.5C128.136 451.5 31.7076 402.59 31.7076 342.256C-9.51169 290.235 128.136 233.011 247.085 233.011C366.035 233.011 496.661 310.138 462.463 342.256Z" fill="#AF8B54"/>
<path d="M462.463 328.685C462.463 389.019 366.035 437.929 247.085 437.929C128.136 437.929 31.7076 389.019 31.7076 328.685C-9.51169 276.664 128.136 219.441 247.085 219.441C366.035 219.441 496.661 296.568 462.463 328.685Z" fill="#E2BE87"/>
<path fill-rule="evenodd" clip-rule="evenodd" d="M101.753 283.39C110.316 285.936 117.035 292.767 119.421 301.395C123.359 299.004 127.98 297.627 132.924 297.627C138.286 297.627 143.269 299.247 147.411 302.023V282.786C147.411 265.27 161.611 251.07 179.127 251.07C196.643 251.07 210.843 236.87 210.843 219.354V194.869C210.843 188.015 205.287 182.459 198.432 182.459C191.578 182.459 186.022 188.015 186.022 194.869V208.486C186.022 219.148 177.379 227.791 166.717 227.791C156.055 227.791 147.411 219.148 147.411 208.486V99.3085C147.411 86.7002 137.19 76.4793 124.582 76.4793C111.974 76.4793 101.753 86.7002 101.753 99.3085V131.454C101.753 139.323 95.3733 145.703 87.5037 145.703C79.6342 145.703 73.2546 139.323 73.2546 131.454V64.8465C73.2546 56.3846 66.3949 49.5249 57.933 49.5249C49.4711 49.5249 42.6113 56.3846 42.6113 64.8465V146.149C42.6113 162.481 55.8506 175.72 72.1821 175.72C88.5136 175.72 101.753 188.96 101.753 205.291V257.196V283.39Z" fill="#AF8B54"/>
<path fill-rule="evenodd" clip-rule="evenodd" d="M118.21 296.338C116.132 291.861 112.725 288.126 108.495 285.639V246.169V194.264C108.495 177.933 95.2558 164.693 78.9243 164.693C62.5928 164.693 49.3535 151.454 49.3535 135.123V53.8197C49.3535 45.3578 56.2133 38.498 64.6752 38.498C73.1371 38.498 79.9968 45.3578 79.9968 53.8197V120.427C79.9968 128.297 86.3763 134.676 94.2459 134.676C102.115 134.676 108.495 128.297 108.495 120.427V88.2816C108.495 75.6734 118.716 65.4524 131.324 65.4524C143.933 65.4524 154.154 75.6734 154.154 88.2816V197.459C154.154 208.121 162.797 216.764 173.459 216.764C184.121 216.764 192.764 208.121 192.764 197.459V183.843C192.764 176.988 198.32 171.432 205.175 171.432C212.029 171.432 217.585 176.988 217.585 183.843V208.327C217.585 225.843 203.385 240.043 185.869 240.043C168.353 240.043 154.154 254.243 154.154 271.759V295.876C151.696 297.273 149.507 299.088 147.684 301.223C143.515 297.826 138.194 295.79 132.397 295.79C128.719 295.79 125.233 296.609 122.111 298.076C122.07 298.096 122.028 298.115 121.986 298.135C121.103 298.556 120.25 299.029 119.43 299.55C119.134 298.566 118.778 297.608 118.365 296.681C118.314 296.566 118.262 296.452 118.21 296.338Z" fill="#B3C961"/>
<path d="M123.837 295.403L133.15 304.296C134.489 305.575 136.027 306.629 137.703 307.417L183.253 328.834C193.39 333.6 188.776 348.903 177.694 347.273C167.655 345.796 162.338 358.743 170.516 364.749L215.807 398.006C217.51 399.257 219.568 399.931 221.681 399.931C231.354 399.931 235.313 387.506 227.423 381.91L223.368 379.034C215.745 373.627 219.57 361.622 228.916 361.622C230.169 361.622 231.41 361.868 232.569 362.345L282.578 382.952C284.063 383.564 285.654 383.879 287.26 383.879C300.031 383.879 304.326 366.812 293.076 360.767L248.786 336.968C244.085 334.442 245.879 327.311 251.216 327.311C252.268 327.311 253.295 327.635 254.157 328.237L276.516 343.865C277.895 344.829 279.537 345.346 281.22 345.346C289.174 345.346 292.48 335.165 286.043 330.492L262.309 313.259C259.28 311.06 255.633 309.875 251.889 309.875H207.292C193.965 309.875 181.213 304.447 171.975 294.841L148.608 270.544C145.299 267.104 140.732 265.16 135.958 265.16C120.127 265.16 112.388 284.469 123.837 295.403Z" fill="black" fill-opacity="0.2"/>
<path fill-rule="evenodd" clip-rule="evenodd" d="M108.609 285.621L136.355 65.9231C146.542 68.2147 154.153 77.3166 154.153 88.196V197.373C154.153 208.035 162.796 216.679 173.458 216.679C184.12 216.679 192.763 208.035 192.763 197.373V183.757C192.763 177.895 196.827 172.982 202.292 171.683L205.397 233.234C200.014 237.446 193.234 239.957 185.868 239.957C168.352 239.957 154.153 254.157 154.153 271.673V295.79C151.695 297.187 149.506 299.002 147.683 301.138C143.515 297.741 138.193 295.704 132.396 295.704C127.625 295.704 123.177 297.083 119.429 299.465C117.673 293.61 113.758 288.688 108.609 285.621Z" fill="#A0B550"/>
<path fill-rule="evenodd" clip-rule="evenodd" d="M168.255 292.737C167.547 292.675 166.831 292.643 166.107 292.643C158.733 292.644 152.128 295.941 147.688 301.141C143.52 297.743 138.198 295.706 132.4 295.706C128.721 295.707 125.235 296.527 122.113 297.994C121.185 298.43 120.289 298.924 119.431 299.47C119.136 298.485 118.78 297.527 118.367 296.6C115.2 289.48 108.693 284.172 100.834 282.664L100.834 285.727C108.348 287.385 114.369 293.029 116.556 300.33L117.558 303.676L118.403 303.676L121.04 302.001C124.322 299.915 128.215 298.706 132.399 298.706C137.482 298.705 142.139 300.488 145.791 303.465L146.047 303.674L149.469 303.673L149.969 303.088C153.864 298.528 159.647 295.643 166.107 295.643C166.832 295.643 167.549 295.679 168.255 295.75L168.255 292.737Z" fill="#A0B550"/>
<ellipse cx="11.9484" cy="14.0925" rx="11.9484" ry="14.0925" transform="matrix(0.866132 0.499815 -0.500185 0.865919 140.688 56.0173)" fill="#F5368A" fill-opacity="0.4"/>
<ellipse cx="11.9477" cy="14.0933" rx="11.9477" ry="14.0933" transform="matrix(0.50006 0.865802 -0.866248 0.49994 151.16 59.9392)" fill="#F5368A" fill-opacity="0.4"/>
<ellipse cx="11.9479" cy="14.0929" rx="11.9479" ry="14.0929" transform="matrix(0.989678 0.144208 -0.144432 0.989384 128.695 57.1758)" fill="#F5368A" fill-opacity="0.4"/>
<path d="M385.008 299.015C391.517 306.296 351.417 308.636 339.96 316.698C315.081 316.698 294.912 308.781 294.912 299.015C294.912 289.249 315.081 281.332 339.96 281.332C364.839 281.332 385.008 289.249 385.008 299.015Z" fill="black" fill-opacity="0.2"/>
<ellipse cx="319.909" cy="265.209" rx="42.7042" ry="34.846" fill="#B3C961" fill-opacity="0.7"/>
<path d="M351.198 265.209C351.198 283.99 337.337 299.055 320.43 299.055C303.522 299.055 289.662 283.99 289.662 265.209C289.662 246.427 303.522 231.363 320.43 231.363C337.337 231.363 351.198 246.427 351.198 265.209Z" fill="#B3C961" fill-opacity="0.8" stroke="#B3C961" stroke-width="2"/>
<path d="M342.345 265.209C342.345 274.664 339.822 283.178 335.798 289.299C331.767 295.428 326.313 299.055 320.43 299.055C314.547 299.055 309.093 295.428 305.063 289.299C301.038 283.178 298.516 274.664 298.516 265.209C298.516 255.754 301.038 247.239 305.063 241.118C309.093 234.989 314.547 231.363 320.43 231.363C326.313 231.363 331.767 234.989 335.798 241.118C339.822 247.239 342.345 255.754 342.345 265.209Z" fill="#A8BE59" fill-opacity="0.7" stroke="#B3C961" stroke-width="2"/>
<ellipse cx="320.169" cy="228.803" rx="7.03057" ry="8.32143" fill="#F5368A" fill-opacity="0.4"/>
<ellipse cx="7.0723" cy="8.33613" rx="7.0723" ry="8.33613" transform="matrix(0.866314 0.4995 -0.5005 0.865737 319.746 219.441)" fill="#F5368A" fill-opacity="0.4"/>
<ellipse cx="7.07336" cy="8.33487" rx="7.07336" ry="8.33487" transform="matrix(0.929288 -0.369355 0.370206 0.92895 307.41 224.666)" fill="#F5368A" fill-opacity="0.4"/>
<ellipse cx="4.12357" cy="4.88676" rx="4.12357" ry="4.88676" transform="matrix(0.866352 0.499434 -0.500566 0.865698 330.396 228.409)" fill="#F5368A" fill-opacity="0.4"/>
<ellipse cx="4.14873" cy="4.89457" rx="4.14873" ry="4.89457" transform="matrix(0.500183 0.865343 -0.866708 0.499817 334.059 229.817)" fill="#F5368A" fill-opacity="0.4"/>
<ellipse cx="4.14899" cy="4.89416" rx="4.14899" ry="4.89416" transform="matrix(0.989982 0.143977 -0.144663 0.98908 326.256 228.858)" fill="#F5368A" fill-opacity="0.4"/>
<path fill-rule="evenodd" clip-rule="evenodd" d="M263.77 79.1282C266.86 92.4069 275.443 104.341 288.418 111.289C301.67 118.385 316.724 118.792 329.695 113.681L324.199 66.974L307.793 58.1889L263.77 79.1282Z" fill="#B5B5B5" fill-opacity="0.2"/>
<path fill-rule="evenodd" clip-rule="evenodd" d="M274.409 75.6065C276.859 86.1355 283.664 95.598 293.953 101.107C304.461 106.734 316.397 107.057 326.682 103.004L322.324 65.9692L309.315 59.0033L274.409 75.6065Z" fill="#B5B5B5" fill-opacity="0.3"/>
<path fill-rule="evenodd" clip-rule="evenodd" d="M289.187 70.7135C290.748 77.4219 295.084 83.4507 301.639 86.9609C308.334 90.5458 315.939 90.7515 322.492 88.1695L319.715 64.5733L311.427 60.1352L289.187 70.7135Z" fill="#B5B5B5" fill-opacity="0.4"/>
<path d="M274.397 21.2669L304.9 38.6891L307.162 49.9478L296.285 53.7016L265.782 36.2795L274.397 21.2669Z" fill="#524F62"/>
<path d="M312.738 66.8359C318.44 70.0926 325.714 68.1117 328.985 62.4115C332.256 56.7113 330.286 49.4503 324.584 46.1936C318.882 42.9369 311.608 44.9178 308.337 50.618C305.066 56.3182 307.037 63.5792 312.738 66.8359Z" fill="#413B67" stroke="#37325B" stroke-width="5"/>
<path d="M362.926 91.7631L332.423 74.3408L330.161 63.082L341.038 59.3281L371.541 76.7505L362.926 91.7631Z" fill="#524F62"/>
<path fill-rule="evenodd" clip-rule="evenodd" d="M334.961 75.7915L362.923 91.7625L371.538 76.7502L366.271 73.7415L334.961 75.7915Z" fill="#ACA8C0" fill-opacity="0.7"/>
<path fill-rule="evenodd" clip-rule="evenodd" d="M278.886 43.8253L305.137 39.3346L307.298 50.0865L296.42 53.8403L278.886 43.8253Z" fill="#ACA8C0" fill-opacity="0.7"/>
<path fill-rule="evenodd" clip-rule="evenodd" d="M305.701 59.311L331.352 52.6693C332.368 56.0318 332.048 59.7903 330.159 63.0819C326.516 69.4296 318.416 71.6357 312.066 68.009C308.67 66.0694 306.462 62.8538 305.701 59.311Z" fill="#A6A0CD" fill-opacity="0.5"/>
<path fill-rule="evenodd" clip-rule="evenodd" d="M208.619 401.001L208.122 400.83L207.626 401.006L201.285 403.268L201.547 404.003H214.932L215.187 403.263L208.619 401.001Z" fill="#AF8B54"/>
<path fill-rule="evenodd" clip-rule="evenodd" d="M267.847 235.479L267.35 235.308L266.855 235.484L260.514 237.746L260.776 238.481H274.16L274.415 237.741L267.847 235.479Z" fill="#AF8B54"/>
<path fill-rule="evenodd" clip-rule="evenodd" d="M385.16 355.354L384.663 355.182L384.167 355.359L377.826 357.621L378.088 358.355H391.473L391.728 357.615L385.16 355.354Z" fill="#AF8B54"/>
<path fill-rule="evenodd" clip-rule="evenodd" d="M243.839 315.999L243.342 315.827L242.847 316.004L236.506 318.266L236.768 319H250.153L250.407 318.26L243.839 315.999Z" fill="#AF8B54"/>
<path fill-rule="evenodd" clip-rule="evenodd" d="M92.1012 318.26L91.6041 318.089L91.1089 318.266L84.7676 320.528L85.0295 321.262H98.4142L98.669 320.522L92.1012 318.26Z" fill="#AF8B54"/>
<path fill-rule="evenodd" clip-rule="evenodd" d="M195.375 258.097L194.878 257.926L194.382 258.102L188.041 260.364L188.303 261.098H201.688L201.942 260.359L195.375 258.097Z" fill="#AF8B54"/>
<path fill-rule="evenodd" clip-rule="evenodd" d="M319.482 375.71L318.985 375.539L318.49 375.715L312.148 377.977L312.41 378.711H325.795L326.05 377.972L319.482 375.71Z" fill="#AF8B54"/>
<path fill-rule="evenodd" clip-rule="evenodd" d="M414.15 272.572L413.653 272.401L413.158 272.578L406.816 274.84L407.078 275.574H420.463L420.718 274.834L414.15 272.572Z" fill="#AF8B54"/>
</svg>
