<svg width="18" height="18" viewBox="0 0 18 18" fill="none" xmlns="http://www.w3.org/2000/svg">
<path d="M12.75 2.25V0.75C12.75 0.336 13.0852 0 13.5 0C13.9148 0 14.25 0.336 14.25 0.75V2.25C14.25 2.664 13.9148 3 13.5 3C13.0852 3 12.75 2.664 12.75 2.25ZM3.75 3C4.16475 3 4.5 2.664 4.5 2.25V0.75C4.5 0.336 4.16475 0 3.75 0C3.33525 0 3 0.336 3 0.75V2.25C3 2.664 3.33525 3 3.75 3ZM13.5 12.75V10.5H12.75V13.5H15V12.75H13.5ZM9.75 13.125C9.75 14.9858 11.2642 16.5 13.125 16.5C14.9858 16.5 16.5 14.9858 16.5 13.125C16.5 11.2642 14.9858 9.75 13.125 9.75C11.2642 9.75 9.75 11.2642 9.75 13.125ZM18 13.125C18 15.8175 15.8175 18 13.125 18C10.4325 18 8.25 15.8175 8.25 13.125C8.25 10.4325 10.4325 8.25 13.125 8.25C15.8175 8.25 18 10.4325 18 13.125ZM7.32225 15.75H1.5V6H15.75V7.32225C16.2952 7.56975 16.7992 7.89 17.25 8.27325V1.5H15V2.25C15 3.237 14.0415 4.00425 13.0065 3.6705C12.3832 3.4695 12 2.83725 12 2.1825V1.5H5.25V2.25C5.25 3.237 4.2915 4.00425 3.2565 3.6705C2.63325 3.4695 2.25 2.83725 2.25 2.1825V1.5H0V17.25H8.27325C7.89 16.7992 7.56975 16.2952 7.32225 15.75Z" fill="#444444"/>
</svg>
