<svg width="12" height="12" viewBox="0 0 12 12" fill="none" xmlns="http://www.w3.org/2000/svg">
<path fill-rule="evenodd" clip-rule="evenodd" d="M6 5.09057L10.902 0.187714C11.0271 0.0625713 11.1926 0 11.3571 0C11.7034 0 12 0.277714 12 0.642C12 0.807428 11.9374 0.972 11.8123 1.098L6.90943 6L11.8114 10.902C11.9374 11.028 12 11.1926 12 11.3571C12 11.7231 11.7009 12 11.3571 12C11.1926 12 11.0271 11.9374 10.902 11.8123L6 6.91029L1.098 11.8123C0.972857 11.9374 0.807429 12 0.642857 12C0.299143 12 0 11.7231 0 11.3571C0 11.1926 0.0625713 11.028 0.188571 10.902L5.09057 6L0.187714 1.098C0.0625713 0.972 0 0.807428 0 0.642C0 0.277714 0.296571 0 0.642857 0C0.807429 0 0.972857 0.0625713 1.098 0.187714L6 5.09057Z" fill="black"/>
</svg>
