<svg width="42" height="42" viewBox="0 0 42 42" fill="none" xmlns="http://www.w3.org/2000/svg">
<path d="M33.25 0H8.75C3.91825 0 0 3.91825 0 8.75V33.25C0 38.0817 3.91825 42 8.75 42H33.25C38.0835 42 42 38.0817 42 33.25V8.75C42 3.91825 38.0835 0 33.25 0ZM25.4345 34.2825C24.7257 34.419 24.5 33.9832 24.5 33.6105V29.7692C24.5 28.462 24.0415 27.6115 23.5375 27.1775C26.656 26.831 29.932 25.6462 29.932 20.2703C29.932 18.7407 29.386 17.4912 28.4918 16.513C28.6353 16.1595 29.1147 14.735 28.3535 12.8082C28.3535 12.8082 27.1792 12.432 24.507 14.2432C23.387 13.9283 22.19 13.776 21 13.769C19.81 13.7743 18.613 13.9283 17.4947 14.2397C14.8207 12.4285 13.6447 12.8047 13.6447 12.8047C12.8853 14.7332 13.3647 16.156 13.51 16.5113C12.614 17.4913 12.068 18.739 12.068 20.2685C12.068 25.6305 15.3353 26.8328 18.4468 27.188C18.046 27.538 17.6838 28.154 17.5578 29.0605C16.758 29.4175 14.7332 30.0352 13.4837 27.895C13.4837 27.895 12.7435 26.551 11.3365 26.4513C11.3365 26.4513 9.9715 26.4338 11.2402 27.3035C11.2402 27.3035 12.159 27.734 12.796 29.351C12.796 29.351 13.6062 31.85 17.5 31.003V33.6087C17.5 33.978 17.2743 34.412 16.576 34.2825C11.011 32.4328 7 27.1845 7 21C7 13.2667 13.2685 7 21 7C28.7315 7 35 13.2667 35 21C35 27.1828 30.9943 32.4292 25.4345 34.2825Z" fill="#567129"/>
</svg>
