<svg width="54" height="54" viewBox="0 0 54 54" fill="none" xmlns="http://www.w3.org/2000/svg">
<rect width="54" height="54" rx="8" fill="white"/>
<path d="M25.1304 20.3996C25.9002 19.6762 27.0998 19.6762 27.8696 20.3996L37.4946 29.4441C37.8969 29.8221 38.125 30.3496 38.125 30.9016V40C38.125 41.1046 37.2296 42 36.125 42H32.375C31.2704 42 30.375 41.1046 30.375 40V36.1739C30.375 35.0693 29.4796 34.1739 28.375 34.1739H24.625C23.5204 34.1739 22.625 35.0693 22.625 36.1739V40C22.625 41.1046 21.7296 42 20.625 42H16.875C15.7704 42 14.875 41.1046 14.875 40V30.9016C14.875 30.3496 15.1031 29.8221 15.5054 29.4441L25.1304 20.3996ZM41.1296 27.487C41.6117 26.963 41.5817 26.1484 41.0624 25.6613L27.8674 13.2828C27.0984 12.5613 25.9013 12.5609 25.1317 13.2819L11.9389 25.6417C11.419 26.1288 11.3887 26.9438 11.8711 27.4681V27.4681C12.3596 27.9992 13.1874 28.0299 13.714 27.5367L25.1317 16.8424C25.9013 16.1216 27.0983 16.1221 27.8673 16.8435L39.286 27.5549C39.8125 28.0488 40.6408 28.0183 41.1296 27.487V27.487Z" fill="black"/>
</svg>
