<svg width="42" height="42" viewBox="0 0 42 42" fill="none" xmlns="http://www.w3.org/2000/svg">
<path fill-rule="evenodd" clip-rule="evenodd" d="M6 0C2.68629 0 0 2.68629 0 6V36C0 39.3137 2.68629 42 6 42H36C39.3137 42 42 39.3137 42 36V6C42 2.68629 39.3137 0 36 0H6ZM8.83657 21.9479C8.83657 22.0303 10.444 25.3487 13.1459 30.8433L13.1478 30.8424C13.9802 32.5369 14.2472 33 14.3895 33C15.0608 33 18.3202 32.3004 20.3359 31.7235C24.0887 30.65 26.8063 29.3176 29.1444 27.4043C30.5511 26.2524 31.3914 25.2388 32.1517 23.7739C33.3894 21.3896 33.2708 18.9238 31.8086 16.6445C30.9604 15.3229 28.657 13.1034 28.1904 13.1584C27.9768 13.1829 27.9531 13.2241 27.9808 13.5116C27.9986 13.6902 28.1844 14.1994 28.396 14.6429C28.9308 15.7654 29.0554 16.2491 29.0485 17.1665C29.0406 18.131 28.8211 18.7041 28.138 19.5361C27.5834 20.2112 26.9062 20.7096 25.7802 21.2718C23.6517 22.3345 20.9123 22.8633 17.5481 22.8623C15.0054 22.8614 13.48 22.7044 10.6249 22.148C9.00167 21.8321 8.83657 21.8134 8.83657 21.9479ZM14.6371 31.2356C14.8171 31.6025 14.9422 31.8574 14.959 31.8913C14.9866 31.9491 14.9688 31.9962 14.9184 31.9962C14.8057 31.9962 9.94677 22.5925 9.94677 22.3747C9.94677 22.356 10.0041 22.3786 10.0733 22.4237C10.1425 22.4689 10.5389 22.5749 10.9551 22.6573C11.3713 22.7397 11.658 22.8231 11.5938 22.8408C11.5127 22.8633 11.5503 23.0125 11.7134 23.3196C12.0525 23.9583 12.3639 24.8522 12.4074 25.3134C12.4351 25.6136 12.5231 25.7843 12.7682 26.0169C13.3209 26.5398 13.6856 27.521 13.3841 27.6761C13.3337 27.7016 13.3169 27.7977 13.3456 27.89C13.3742 27.9822 13.3505 28.0577 13.2912 28.0577C13.133 28.0577 13.3663 28.6455 14.1888 30.3223C14.3532 30.6571 14.509 30.9747 14.6371 31.2356ZM9.00266 21.3297C9.07087 21.3513 11.2735 21.6447 13.8982 21.9822C16.5229 22.3197 18.7512 22.5994 18.8501 22.6043C19.0824 22.6151 19.1793 22.3992 19.0458 22.1667C18.9885 22.0656 18.7374 21.5691 18.4883 21.0619C16.1878 16.3767 15.9159 13.1289 17.6994 11.6473C18.8708 10.674 21.1436 10.2619 24.1292 10.4797C26.0392 10.619 27.1444 10.621 27.3075 10.4856C27.528 10.3021 27.0515 10.0078 25.8513 9.58389C19.0142 7.17213 12.9541 7.53615 10.1237 10.5288C8.45201 12.2979 7.8282 14.2652 8.03976 17.1106C8.08722 17.7484 8.17421 18.5019 8.23353 18.7865C8.46881 19.9109 8.886 21.2924 9.00266 21.3297ZM17.9949 21.9685C18.0681 21.9449 18.1551 21.9479 18.1887 21.9753C18.2223 22.0038 18.163 22.0234 18.0562 22.0195C17.9386 22.0146 17.9149 21.995 17.9949 21.9685ZM9.20829 20.7479C9.28935 20.7096 17.3949 21.8056 17.6381 21.887L17.6371 21.888C17.7053 21.9106 17.6479 21.9282 17.5095 21.9263C17.1299 21.9214 9.24585 20.8872 9.18159 20.8332C9.15095 20.8077 9.16281 20.7695 9.20829 20.7479ZM14.1572 21.0491C14.2264 21.0256 14.3401 21.0256 14.4093 21.0491H14.4103C14.4795 21.0726 14.4222 21.0913 14.2837 21.0913C14.1444 21.0913 14.088 21.0726 14.1572 21.0491ZM10.0051 20.374C10.2226 20.4103 11.2171 20.5673 12.2156 20.7224C14.4745 21.0736 14.0742 21.0854 11.4504 20.7459C10.2898 20.5958 9.47521 20.4525 9.47422 20.3996C9.47323 20.3495 9.44357 20.1758 9.40798 20.0149L9.34274 19.7215L9.4762 20.0149C9.58791 20.2583 9.67688 20.3191 10.0051 20.374ZM18.1175 16.2952C18.7255 17.77 20.6088 19.0592 22.7036 19.4331C23.6725 19.6058 25.2048 19.3811 25.9937 18.9503C27.184 18.2998 27.6466 16.9369 27.091 15.7154C26.658 14.7636 25.4935 13.7402 24.1796 13.1584C22.7956 12.5451 20.8965 12.3842 19.812 12.7875C19.1605 13.0298 18.4329 13.6087 18.1511 14.1091C17.8397 14.6625 17.8259 15.5868 18.1175 16.2952ZM20.8648 18.2066C20.8945 18.1821 21.2306 18.2939 21.6103 18.4558C21.9899 18.6177 22.2558 18.7521 22.2004 18.7541C22.0363 18.761 20.8055 18.2557 20.8648 18.2066ZM19.5026 16.7348C19.7655 16.9811 20.2302 17.3657 20.5356 17.5904H20.5347C20.8401 17.8151 21.0596 17.9996 21.023 18.0015C20.7729 18.0113 19.0201 16.5837 19.0231 16.3718C19.0241 16.3257 19.2396 16.4885 19.5026 16.7348Z" fill="#567129"/>
</svg>
