<svg width="42" height="42" viewBox="0 0 42 42" fill="none" xmlns="http://www.w3.org/2000/svg">
<path d="M33.25 0H8.75C3.91825 0 0 3.91825 0 8.75V33.25C0 38.0817 3.91825 42 8.75 42H33.25C38.0835 42 42 38.0817 42 33.25V8.75C42 3.91825 38.0835 0 33.25 0ZM14 33.25H8.75V14H14V33.25ZM11.375 11.781C9.6845 11.781 8.3125 10.3985 8.3125 8.694C8.3125 6.9895 9.6845 5.607 11.375 5.607C13.0655 5.607 14.4375 6.9895 14.4375 8.694C14.4375 10.3985 13.0673 11.781 11.375 11.781ZM35 33.25H29.75V23.443C29.75 17.549 22.75 17.9953 22.75 23.443V33.25H17.5V14H22.75V17.0888C25.193 12.5633 35 12.229 35 21.4218V33.25Z" fill="#567129"/>
</svg>
