<svg width="140" height="267" viewBox="0 0 140 267" fill="none" xmlns="http://www.w3.org/2000/svg">
<path d="M38.1312 267C33.5202 267 29.8696 266.172 27.1768 264.518C24.484 262.865 22.5547 260.502 21.3887 257.425C20.2228 254.351 19.6426 250.67 19.6426 246.379V222.973C19.6426 218.685 20.2256 215.015 21.3887 211.969C22.5547 208.922 24.484 206.595 27.1768 204.994C29.8696 203.394 33.5202 202.59 38.1312 202.59C42.7423 202.59 46.4816 203.405 49.2022 205.03C51.9199 206.659 53.8632 208.983 55.0291 212.005C56.1951 215.026 56.7753 218.682 56.7753 222.973V246.379C56.7753 250.67 56.1923 254.351 55.0291 257.425C53.8632 260.499 51.9227 262.865 49.2022 264.518C46.4816 266.172 42.7922 267 38.1312 267ZM38.1312 257.777C39.7885 257.777 41.0044 257.403 41.7817 256.652C42.559 255.904 43.0754 254.896 43.3363 253.631C43.5945 252.365 43.725 251.008 43.725 249.562V219.876C43.725 218.43 43.5945 217.084 43.3363 215.846C43.0754 214.605 42.559 213.611 41.7817 212.863C41.0044 212.115 39.7857 211.739 38.1312 211.739C36.5766 211.739 35.4107 212.115 34.6361 212.863C33.8588 213.611 33.3397 214.605 33.0815 215.846C32.8206 217.087 32.6929 218.43 32.6929 219.876V249.562C32.6929 251.008 32.8095 252.365 33.0427 253.631C33.2759 254.896 33.7811 255.904 34.5584 256.652C35.3357 257.403 36.5266 257.777 38.1312 257.777Z" fill="white"/>
<path d="M81.0387 267C76.3776 267 72.6883 266.122 69.9677 264.363C67.2472 262.607 65.3455 260.167 64.2573 257.04C63.1691 253.913 62.625 250.285 62.625 246.15V223.593C62.625 219.253 63.1691 215.522 64.2573 212.395C65.3455 209.268 67.2472 206.853 69.9677 205.147C72.6855 203.441 76.3776 202.59 81.0387 202.59C85.6997 202.59 89.0782 203.338 91.6433 204.837C94.2056 206.335 96.0183 208.454 97.0816 211.193C98.142 213.932 98.675 217.112 98.675 220.726V225.997H86.2466V220.106C86.2466 218.66 86.1688 217.303 86.0134 216.037C85.8579 214.772 85.4304 213.738 84.7308 212.938C84.0313 212.138 82.8292 211.736 81.1192 211.736C79.4091 211.736 78.1682 212.151 77.3909 212.977C76.6136 213.805 76.1223 214.877 75.914 216.192C75.7058 217.511 75.6031 218.97 75.6031 220.571V249.094C75.6031 250.85 75.7447 252.387 76.0306 253.705C76.3138 255.024 76.8579 256.029 77.663 256.727C78.4653 257.425 79.6173 257.774 81.1192 257.774C82.7765 257.774 83.9535 257.375 84.6531 256.572C85.3527 255.772 85.7913 254.7 85.9745 253.354C86.155 252.01 86.2466 250.592 86.2466 249.091V242.967H98.675V248.16C98.675 251.83 98.1559 255.071 97.1204 257.888C96.0822 260.704 94.2972 262.926 91.7598 264.554C89.2225 266.183 85.6469 266.997 81.0387 266.997V267Z" fill="white"/>
<path d="M101.473 266.186L113.671 203.405H127.887L140.007 266.186H128.123L125.869 252.39H115.925L113.515 266.186H101.473ZM117.085 244.563H124.622L120.816 219.22L117.088 244.563H117.085Z" fill="white"/>
<path d="M129.414 8.43945H49.9043V180.236H129.414V8.43945Z" fill="#b1b1b1"/>
<path d="M110.439 154.087L107.06 138.452L103.685 154.087L88.0137 157.458L103.685 160.826L107.06 176.461L110.439 160.826L126.11 157.458L110.439 154.087Z" fill="white"/>
<path d="M64.1039 144.473C63.3239 144.609 62.8242 145.376 63.0296 146.138C63.3377 147.29 63.8763 148.262 64.7757 148.811C66.5635 149.908 68.6817 148.678 69.6311 149.874C70.2224 150.619 69.942 151.777 69.6311 153.065C69.2424 154.677 68.5845 155.696 67.9738 156.727C65.3893 161.092 66.211 161.371 64.8951 162.634C63.3794 164.088 62.7936 163.235 58.2631 165.232C55.7341 166.349 55.5203 166.789 52.6971 167.949C50.6039 168.811 49.5573 169.24 48.0805 169.484C45.2405 169.955 42.9503 169.484 41.3318 169.129C40.6184 168.971 38.1449 168.393 35.0551 166.767C30.4913 164.365 29.9277 162.493 27.5958 162.632C25.4222 162.759 25.2251 164.429 22.7405 164.521C20.5557 164.601 17.9879 163.418 17.5298 161.684C17.1217 160.139 18.668 159.189 18.2405 158.258C17.3105 156.236 9.52639 159.748 7.46655 157.314C5.57327 155.076 9.2127 148.645 12.7938 142.31C16.4277 135.887 19.2093 132.683 17.8851 130.143C17.1051 128.644 15.1479 127.863 13.8598 127.661C11.4835 127.29 10.3231 128.725 6.40054 128.725C5.34286 128.725 3.82712 128.711 3.55784 128.016C3.44958 127.739 3.54952 127.381 5.21516 125.299C6.38666 123.836 6.98074 123.102 7.34718 122.936C8.99061 122.197 10.101 123.875 12.2025 123.764C14.8453 123.623 17.899 120.718 17.6492 117.856C17.4299 115.353 14.7704 113.89 14.4511 113.721C10.9422 111.857 7.0196 113.813 6.75588 113.131C6.39221 112.195 14.5677 110.547 17.4132 104.39C18.5625 101.903 18.0545 100.382 19.9006 96.8288C20.8833 94.9343 22.0187 93.4608 22.9709 92.3973C23.3762 91.9458 24.0286 91.8267 24.5727 92.1037C25.7969 92.7241 27.1989 93.3057 28.7812 93.76C36.0129 95.8372 42.3923 93.9372 45.3571 92.8155C51.409 91.0318 53.8491 88.6415 54.9429 86.736C55.376 85.9799 56.3393 84.1241 57.5607 84.0577C57.9633 84.0355 58.4185 84.3817 59.0931 85.2542C60.0897 86.5476 63.149 89.6663 64.0234 91.054C64.9923 92.5911 66.3109 92.8792 67.7906 91.8461C70.8081 89.7356 74.0561 87.9214 76.785 85.4398C78.062 84.2793 79.4389 83.5259 80.8908 83.1575C81.9291 82.8944 83.1728 82.7808 85.4658 83.1686C89.058 83.7752 92.864 84.415 95.5624 87.3813C96.0287 87.8937 96.8199 89.6137 98.4051 93.0509C98.4051 93.0509 99.6015 95.6489 101.364 101.438C101.556 102.069 101.839 103.033 101.72 104.274C101.575 105.756 100.926 106.883 100.654 107.345C99.7181 108.935 99.113 108.797 98.7604 109.827C98.3551 111.007 98.827 112.137 99.5904 113.962C100.701 116.624 101.722 117.278 101.367 118.333C101.256 118.66 100.543 119.186 99.1185 120.222C97.4501 121.438 96.6145 122.044 96.5146 122.111C94.3742 123.545 93.3082 124.285 92.4893 124.473C89.8492 125.077 88.2141 123.238 87.2786 124.119C86.7039 124.662 86.8733 125.781 87.2008 127.938C87.5062 129.949 87.8782 130.243 87.6755 131.087C87.2841 132.716 84.397 133.699 84.0833 133.804C79.1669 135.461 77.6567 140.009 69.5201 143.019C68.2625 143.485 66.4414 144.063 64.115 144.468L64.1039 144.473Z" fill="white"/>
<path d="M77.4053 3.57834C83.918 9.60523 91.033 14.9092 97.865 20.5511C98.4729 21.0524 99.3002 21.3516 100.072 21.5787C102.257 22.2213 102.498 23.5895 101.521 25.3538C99.2558 29.4419 97.1349 33.6269 94.5975 37.5405C89.3341 45.6641 86.5691 54.3471 87.624 64.0965C87.9044 66.6945 86.9606 67.5586 84.3566 67.3371C79.8621 66.9548 75.1956 65.5644 72.8248 65.0548C71.3618 64.7418 69.1854 64.3818 66.4315 64.3458C61.5734 52.6077 60.3297 46.8052 60.1548 43.6727C60.1049 42.7919 60.0438 40.3545 59.0888 37.294C58.3448 34.9093 57.6508 34.0341 56.7208 31.7407C56.1989 30.4528 55.8186 29.2452 54.7082 23.8249C53.6144 18.4821 53.1147 15.4078 52.2347 10.7547C51.6156 7.4864 51.0715 4.8164 50.7051 3.05487C51.0715 2.20734 51.8072 1.80296 52.6428 1.76695C57.3704 1.55369 62.0148 0.670149 66.698 0.0802009C70.7955 -0.434965 74.1129 1.562 77.4053 3.57557V3.57834Z" fill="white"/>
<path d="M122.373 85.9606C117.354 85.1242 112.332 84.296 107.313 83.4429C104.62 82.9859 102.132 83.1383 99.9143 85.0715C99.0982 85.7806 98.5291 85.9246 98.3236 85.9911C97.0661 86.3955 95.8751 85.4316 94.3761 84.5481C91.6888 82.9666 89.2625 82.3766 87.5081 81.9501C86.1561 81.6205 84.5793 81.2521 82.5028 81.3906C79.8655 81.5679 77.9584 82.468 77.5642 82.6591C75.1018 83.8529 74.4328 85.2128 69.5136 89.0378C68.7807 89.6083 67.8479 90.3118 66.6709 90.2204C65.6743 90.1401 64.8831 89.5197 63.8282 88.3315C61.2742 85.4482 59.6197 83.5814 59.8029 81.2438C60.0139 78.5322 62.429 78.5738 63.5922 75.1006C64.8192 71.4307 62.7927 69.3867 64.0669 67.7775C65.5188 65.9412 69.2221 67.2457 75.4849 68.373C85.748 70.2204 90.5562 69.8049 95.6281 69.3063C100.006 68.877 103.398 66.4065 106.991 64.2766C109.528 62.7698 109.569 62.8169 110.197 65.6088C110.935 68.8854 111.64 72.1702 112.39 75.4468C112.523 76.0257 112.343 76.9175 113.276 76.9591C113.945 76.9895 114.228 76.3663 114.392 75.8096C115.607 71.6938 118.536 69.2676 122.353 67.7027C125.951 66.9466 129.574 66.2846 133.136 65.39C134.662 65.0078 135.115 65.2376 135.279 66.8468C135.517 69.1623 134.976 70.9848 133.161 72.4998C131.531 73.8598 130.01 75.3499 128.461 76.8067C126.059 79.064 127.006 80.6816 124.363 83.9C123.597 84.8333 122.872 85.5258 122.376 85.9689L122.373 85.9606Z" fill="white"/>
<path d="M122.917 46.8606C119.097 45.1517 118.947 45.221 117.037 48.7357C116.334 50.0292 115.59 51.3282 114.669 52.4638C113.028 54.4856 109.861 54.7792 107.748 53.3141C106.701 52.5884 106.904 51.6384 107.118 50.6718C107.718 47.9658 108.342 45.2653 109.1 41.925C105.511 44.3485 102.24 46.2652 99.3504 48.744C97.1351 50.6441 94.6922 50.9543 91.98 50.0929C90.8585 49.7356 90.5725 49.2343 91.1638 48.1292C95.3862 40.2549 99.5836 32.364 103.753 24.462C104.436 23.1658 105.352 23.4151 106.454 23.7225C111.904 25.2458 117.367 26.7221 122.828 28.215C126.131 29.1733 129.418 30.1981 132.749 31.0594C134.545 31.5248 135.328 32.4166 135.281 34.3277C135.195 37.848 135.228 41.3738 135.384 44.8914C135.475 46.952 134.529 47.6306 132.658 47.7802C129.346 48.0461 126.101 47.8051 122.917 46.8551V46.8606Z" fill="white"/>
<path d="M122.333 66.1156C118.466 66.5864 115.418 68.1624 114.205 72.918C112.764 69.996 112.598 67.4672 112.095 65.0659C110.996 59.8228 111.043 59.7923 106.485 62.4374C102.093 64.9883 97.915 67.9519 92.3851 67.5891C90.4446 67.4617 89.5063 67.1515 89.5868 65.0105C89.7228 61.4016 89.6756 57.7871 89.6618 54.1754C89.6534 52.4166 90.0782 51.4306 92.1241 52.2587C94.7614 53.3306 97.1322 52.4526 99.3475 51.0096C100.999 49.935 102.579 48.7495 104.214 47.6472C104.594 47.3896 105.019 46.9271 105.527 47.2594C106.021 47.5835 105.866 48.118 105.724 48.6C103.781 55.2611 104.88 54.6933 111.015 55.8261C114.596 56.4881 115.188 56.0893 117.075 52.4055C118.203 50.2092 119.094 47.7247 122.372 48.2981C124.873 49.8131 127.572 50.018 130.42 49.6801C134.926 49.1428 135.309 49.561 135.239 54.1505C135.214 55.8649 135.234 57.5794 135.256 59.2938C135.3 62.7919 135.298 62.7642 131.8 63.6367C128.635 64.4261 125.49 65.2847 122.336 66.1156H122.333Z" fill="white"/>
<path d="M122.298 91.1952C121.737 92.8986 121.237 94.6269 120.596 96.297C119.969 97.9256 118.75 98.5626 117.048 97.9007C111.149 95.6073 105.708 92.3557 100.003 89.6608C99.0564 89.2149 98.5678 88.3064 99.6366 87.5503C101.605 86.1571 103.404 84.5922 106.294 85.1988C111.582 86.3094 116.959 87.0129 122.298 87.8882C123.244 88.9905 122.034 90.0929 122.298 91.1952Z" fill="white"/>
<path d="M100.066 91.8657C101.685 92.6551 102.679 93.1343 103.667 93.6245C107.851 95.6962 112.026 97.7791 116.215 99.8453C117.55 100.504 118.511 101.249 117.314 102.831C113.458 107.922 109.599 113.01 105.766 118.117C104.997 119.142 104.511 118.796 103.961 117.931C102.54 115.702 101.593 113.267 100.835 110.752C100.411 109.337 101.307 108.382 102.237 107.584C104.644 105.515 105.041 103.263 103.561 100.391C102.271 97.8871 101.399 95.1672 100.069 91.8657H100.066Z" fill="white"/>
<path d="M10.7613 160.929L14.6839 160.233C15.5778 160.075 16.3773 160.812 16.2885 161.712L16.0941 163.704C16.0331 164.327 16.4023 164.911 16.9936 165.125C18.6759 165.726 21.9155 166.858 22.2653 166.77C22.6373 166.676 25.7909 165.343 27.1235 164.776C27.4982 164.615 27.923 164.632 28.2839 164.817L31.629 166.526C32.1815 166.809 32.4757 167.426 32.3452 168.033L31.6568 171.207C31.6318 171.318 31.6235 171.431 31.6262 171.545C31.6707 172.761 31.9066 180.128 31.146 180.236C30.3159 180.355 26.174 181.419 25.2246 181.89C24.5972 182.203 23.3508 185.77 22.5762 188.149C22.2626 189.119 21.0355 189.415 20.3082 188.698C17.9846 186.399 13.9399 182.377 13.8566 182.125C13.7372 181.771 14.6867 175.746 13.6206 176.456C12.9072 176.929 12.0327 177.616 11.5358 178.018C11.2776 178.225 11.1055 178.522 11.0472 178.849L10.8751 179.843C10.7197 180.749 9.72582 181.247 8.9041 180.832C8.6265 180.69 8.39331 180.591 8.29059 180.591C7.93526 180.591 5.80323 182.718 5.4479 182.718C5.09256 182.718 0.475955 181.535 0.947887 181.419C1.41982 181.303 11.8412 171.14 11.8412 169.606C11.8412 168.534 10.5142 164.873 9.71472 162.759C9.41212 161.956 9.91182 161.078 10.7585 160.929H10.7613Z" fill="white"/>
<path d="M62.9732 59.9754L60.6163 53.3641C60.5969 53.3087 60.5803 53.256 60.5664 53.2006C60.2804 52.054 57.1268 39.3798 57.4294 38.4769C57.7015 37.6653 54.72 31.8739 53.8649 30.2398C53.7178 29.9572 53.6484 29.6415 53.6678 29.3258L53.7872 27.2042C53.7955 27.0546 53.7872 26.9023 53.7539 26.7555L49.1678 4.16572C49.0124 3.40128 48.3739 2.82795 47.5938 2.7587L46.7332 2.68115C46.1447 3.51207 45.5534 4.34298 44.9649 5.17389L49.3483 14.7349C49.5232 15.1144 49.5565 15.5409 49.4427 15.9425L47.9741 21.2022C47.7576 21.9805 48.0963 22.8086 48.8014 23.2075C49.3455 23.5177 49.6842 24.091 49.6925 24.7142L50.0034 46.5866C50.009 46.9439 49.9063 47.2929 49.7064 47.592L44.7678 54.9843C44.4791 55.4136 44.0377 55.6768 43.5657 55.7488C42.8134 55.8651 42.2749 55.4497 42.1888 55.3832C41.4698 55.0647 40.5176 54.5495 39.5515 53.7103C38.2357 52.5664 37.4778 51.3339 37.0642 50.5196C34.971 50.6387 32.8806 50.755 30.7875 50.8741C31.2067 52.1149 33.744 59.6818 34.091 62.6204C34.1188 62.8448 34.1576 63.2769 33.9716 63.7477C33.6052 64.6756 32.5281 65.3237 29.6021 65.8776C28.1447 66.1546 20.3966 67.5145 19.6554 68.1211C19.6471 68.1266 19.5833 68.182 19.4889 68.2568C19.1252 68.5421 18.806 68.7498 18.5755 68.891L13.0872 76.192C13.1844 76.7459 13.3066 77.5824 13.3649 78.6017C13.4287 79.7262 13.412 80.8867 13.0262 84.4236C12.9207 85.3847 12.7736 86.6809 12.5709 88.2236C11.8047 89.8217 10.9025 90.8493 10.2418 91.4753C9.45893 92.2203 8.46787 92.838 6.51074 94.1093C5.75842 94.5967 5.10882 94.9956 4.61746 95.2919C4.23714 95.7406 3.68192 96.494 3.31548 97.5354C2.67421 99.3579 3.30993 100.059 2.72418 101.435C1.89413 103.382 0.0480477 103.324 0.000854544 104.626C-0.0380104 105.734 1.25564 106.986 2.48821 107.224C3.38211 107.398 3.80685 106.95 5.09217 107.224C5.76953 107.368 6.25257 107.642 6.63011 107.814C7.59896 108.257 8.25134 108.894 8.64276 109.348C12.6986 107.252 14.5613 104.825 15.5108 102.97C16.4491 101.133 16.3935 99.8509 18.1564 96.1201C19.636 92.9875 19.561 94.0788 20.4855 91.9406C20.8852 91.0127 21.21 90.0932 22.1095 89.6694C22.7841 89.3509 23.4975 89.4478 23.9833 89.5697C25.252 90.1652 26.9482 90.8521 29.008 91.3922C29.616 91.5528 32.3865 92.2591 35.4013 92.3366C36.7227 92.3699 42.719 92.5278 48.4266 89.0296C48.4266 89.0296 53.4541 85.9469 60.4609 74.2255C60.4831 74.1867 60.5109 74.1341 60.5553 74.0676C61.0661 73.2866 62.4597 70.9019 61.8461 68.0601C61.7046 67.4037 61.563 67.448 61.5019 66.9412C61.3437 65.6145 62.0516 64.4374 62.7012 63.6286L63.0593 60.7786C63.0926 60.5044 63.0621 60.2274 62.9705 59.967L62.9732 59.9754Z" fill="white"/>
</svg>
