<svg width="266" height="473" viewBox="0 0 266 473" fill="none" xmlns="http://www.w3.org/2000/svg">
<path d="M241.509 14.8533H101.719V317.155H241.509V14.8533Z" fill="#E2C9B5"/>
<path d="M208.148 271.142L202.208 243.63L196.273 271.142L168.721 277.074L196.273 283L202.208 310.512L208.148 283L235.7 277.074L208.148 271.142Z" fill="#C0A38B"/>
<path d="M126.685 254.226C125.313 254.465 124.435 255.815 124.796 257.155C125.338 259.182 126.285 260.893 127.866 261.858C131.009 263.788 134.733 261.624 136.403 263.73C137.442 265.041 136.949 267.078 136.403 269.344C135.719 272.181 134.562 273.974 133.489 275.787C128.945 283.468 130.389 283.96 128.076 286.183C125.411 288.742 124.381 287.24 116.416 290.754C111.969 292.718 111.594 293.493 106.63 295.535C102.95 297.051 101.11 297.807 98.5131 298.236C93.5201 299.064 89.4934 298.236 86.6479 297.612C85.3936 297.334 81.0448 296.315 75.6125 293.454C67.5885 289.229 66.5977 285.934 62.4979 286.178C58.6762 286.402 58.3297 289.341 53.9614 289.502C50.1202 289.643 45.6055 287.562 44.8002 284.511C44.0827 281.792 46.8013 280.12 46.0497 278.482C44.4146 274.925 30.7289 281.104 27.1074 276.82C23.7787 272.882 30.1774 261.566 36.4736 250.419C42.8625 239.117 47.7531 233.478 45.4249 229.009C44.0534 226.373 40.6125 224.998 38.3478 224.642C34.1699 223.989 32.1297 226.514 25.2332 226.514C23.3736 226.514 20.7087 226.49 20.2353 225.266C20.0449 224.779 20.2206 224.15 23.1491 220.485C25.2088 217.912 26.2533 216.62 26.8975 216.328C29.7869 215.027 31.7392 217.98 35.434 217.785C40.0805 217.537 45.4493 212.424 45.0101 207.389C44.6245 202.984 39.9487 200.41 39.3874 200.113C33.2181 196.833 26.3216 200.274 25.8579 199.075C25.2185 197.428 39.5924 194.528 44.5952 183.693C46.6158 179.317 45.7227 176.641 48.9684 170.388C50.6962 167.055 52.6924 164.462 54.3665 162.59C55.0791 161.796 56.2261 161.586 57.1827 162.074C59.3351 163.165 61.7999 164.189 64.582 164.988C77.2964 168.643 88.5124 165.3 93.725 163.326C104.365 160.188 108.655 155.982 110.578 152.628C111.34 151.298 113.033 148.032 115.181 147.916C115.889 147.877 116.689 148.486 117.875 150.021C119.627 152.297 125.006 157.785 126.543 160.227C128.247 162.931 130.565 163.438 133.167 161.62C138.472 157.907 144.182 154.714 148.98 150.348C151.225 148.305 153.646 146.98 156.199 146.332C158.024 145.869 160.211 145.669 164.242 146.351C170.558 147.418 177.25 148.544 181.994 153.764C182.814 154.666 184.205 157.692 186.992 163.74C186.992 163.74 189.095 168.312 192.195 178.498C192.531 179.609 193.029 181.305 192.819 183.489C192.566 186.096 191.423 188.08 190.945 188.894C189.3 191.691 188.236 191.448 187.616 193.261C186.904 195.337 187.734 197.325 189.076 200.537C191.028 205.221 192.824 206.371 192.199 208.228C192.004 208.803 190.75 209.729 188.246 211.552C185.313 213.691 183.844 214.759 183.668 214.875C179.905 217.4 178.031 218.701 176.591 219.033C171.949 220.095 169.074 216.859 167.43 218.409C166.419 219.364 166.717 221.333 167.293 225.13C167.83 228.668 168.484 229.185 168.128 230.671C167.439 233.537 162.363 235.267 161.812 235.452C153.168 238.367 150.513 246.369 136.207 251.667C133.996 252.486 130.795 253.505 126.704 254.216L126.685 254.226Z" fill="#778C61"/>
<path d="M150.072 6.30006C161.522 16.9053 174.032 26.2384 186.043 36.1662C187.112 37.0483 188.567 37.5747 189.924 37.9743C193.765 39.105 194.189 41.5127 192.471 44.6172C188.489 51.8108 184.76 59.175 180.299 66.0616C171.045 80.3562 166.184 95.6353 168.038 112.791C168.531 117.362 166.872 118.883 162.294 118.493C154.392 117.82 146.187 115.374 142.019 114.477C139.447 113.926 135.62 113.293 130.778 113.229C122.237 92.5746 120.051 82.3641 119.743 76.852C119.655 75.3021 119.548 71.0133 117.869 65.6278C116.561 61.4315 115.341 59.8914 113.706 55.856C112.788 53.5897 112.119 51.4648 110.167 41.9269C108.244 32.5255 107.365 27.1157 105.818 18.9279C104.73 13.1769 103.773 8.47861 103.129 5.37893C103.773 3.88757 105.067 3.17601 106.536 3.11265C114.848 2.73738 123.013 1.18266 131.247 0.144562C138.451 -0.761949 144.284 2.752 150.072 6.29519V6.30006Z" fill="#778C61"/>
<path d="M229.132 151.264C220.307 149.792 211.478 148.335 202.653 146.833C197.919 146.029 193.546 146.297 189.646 149.699C188.211 150.947 187.211 151.2 186.849 151.317C184.639 152.029 182.545 150.333 179.909 148.778C175.184 145.995 170.919 144.957 167.834 144.207C165.457 143.627 162.685 142.978 159.034 143.222C154.397 143.534 151.044 145.118 150.351 145.454C146.022 147.555 144.846 149.948 136.197 156.678C134.908 157.682 133.268 158.92 131.199 158.759C129.447 158.618 128.056 157.526 126.201 155.436C121.711 150.362 118.802 147.077 119.124 142.964C119.495 138.192 123.741 138.266 125.786 132.154C127.943 125.696 124.38 122.099 126.621 119.268C129.173 116.037 135.684 118.332 146.695 120.316C164.74 123.566 173.193 122.835 182.11 121.958C189.807 121.203 195.772 116.855 202.087 113.107C206.548 110.456 206.621 110.539 207.725 115.452C209.023 121.217 210.263 126.997 211.58 132.763C211.815 133.782 211.497 135.351 213.137 135.424C214.314 135.478 214.811 134.381 215.099 133.402C217.237 126.159 222.386 121.89 229.097 119.136C235.423 117.806 241.792 116.641 248.054 115.067C250.739 114.394 251.534 114.799 251.822 117.63C252.242 121.705 251.29 124.912 248.098 127.577C245.233 129.97 242.559 132.593 239.835 135.156C235.613 139.128 237.278 141.974 232.631 147.638C231.284 149.28 230.01 150.499 229.136 151.278L229.132 151.264Z" fill="#778C61"/>
<path d="M230.089 82.4616C223.373 79.4545 223.11 79.5764 219.752 85.7611C218.517 88.0371 217.209 90.3229 215.588 92.3211C212.704 95.8789 207.135 96.3956 203.42 93.8174C201.58 92.5404 201.937 90.8688 202.313 89.1678C203.367 84.4062 204.465 79.6543 205.797 73.7766C199.487 78.0411 193.737 81.4138 188.656 85.7757C184.761 89.1191 180.466 89.665 175.698 88.1492C173.726 87.5205 173.223 86.6384 174.263 84.6938C181.686 70.8378 189.066 56.9526 196.397 43.0479C197.598 40.767 199.208 41.2056 201.146 41.7466C210.727 44.4271 220.332 47.0248 229.933 49.6518C235.741 51.3381 241.52 53.1413 247.377 54.6571C250.535 55.4758 251.911 57.0452 251.828 60.408C251.677 66.6025 251.735 72.8068 252.009 78.9964C252.17 82.6224 250.505 83.8165 247.216 84.0797C241.393 84.5475 235.687 84.1235 230.089 82.4519V82.4616Z" fill="#778C61"/>
<path d="M229.062 116.344C222.264 117.172 216.904 119.945 214.772 128.313C212.238 123.172 211.946 118.722 211.062 114.496C209.129 105.271 209.212 105.217 201.198 109.871C193.477 114.36 186.131 119.575 176.409 118.936C172.997 118.712 171.347 118.166 171.489 114.399C171.728 108.049 171.645 101.688 171.621 95.333C171.606 92.2382 172.353 90.5032 175.95 91.9604C180.587 93.8465 184.755 92.3016 188.65 89.7624C191.554 87.8714 194.331 85.7854 197.206 83.8457C197.874 83.3924 198.621 82.5785 199.514 83.1633C200.383 83.7336 200.11 84.6742 199.861 85.5222C196.444 97.2435 198.377 96.2444 209.164 98.2377C215.46 99.4026 216.499 98.7008 219.818 92.2187C221.8 88.3539 223.367 83.9821 229.131 84.991C233.528 87.6569 238.272 88.0176 243.28 87.423C251.202 86.4775 251.875 87.2134 251.753 95.2891C251.709 98.306 251.743 101.323 251.782 104.34C251.861 110.495 251.856 110.446 245.706 111.982C240.142 113.371 234.612 114.881 229.067 116.344H229.062Z" fill="#778C61"/>
<path d="M229 160.475C228.014 163.473 227.135 166.514 226.008 169.453C224.905 172.318 222.762 173.439 219.77 172.274C209.399 168.239 199.832 162.517 189.802 157.775C188.138 156.99 187.279 155.392 189.158 154.061C192.619 151.61 195.781 148.856 200.862 149.924C210.16 151.878 219.614 153.116 229 154.656C230.664 156.596 228.536 158.535 229 160.475Z" fill="#778C61"/>
<path d="M189.914 161.655C192.76 163.044 194.507 163.887 196.244 164.749C203.6 168.395 210.94 172.06 218.306 175.696C220.653 176.856 222.342 178.167 220.238 180.95C213.459 189.907 206.675 198.86 199.934 207.848C198.582 209.651 197.728 209.042 196.762 207.521C194.263 203.598 192.598 199.314 191.266 194.888C190.519 192.398 192.096 190.717 193.731 189.313C197.962 185.672 198.66 181.71 196.059 176.656C193.789 172.25 192.257 167.464 189.919 161.655H189.914Z" fill="#778C61"/>
<path d="M32.9009 283.181L39.7974 281.957C41.369 281.68 42.7747 282.976 42.6185 284.56L42.2768 288.064C42.1695 289.161 42.8186 290.189 43.8582 290.564C46.816 291.622 52.5118 293.615 53.1268 293.459C53.7808 293.294 59.3254 290.949 61.6681 289.95C62.3271 289.668 63.0738 289.697 63.7083 290.023L69.5896 293.03C70.5609 293.528 71.0783 294.614 70.8489 295.682L69.6384 301.267C69.5945 301.462 69.5799 301.662 69.5848 301.862C69.6629 304.001 70.0777 316.965 68.7404 317.155C67.281 317.365 59.9989 319.236 58.3297 320.065C57.2266 320.616 55.0352 326.893 53.6734 331.08C53.1219 332.785 50.9646 333.307 49.6859 332.045C45.6006 327.999 38.4894 320.923 38.3429 320.479C38.1331 319.855 39.8023 309.255 37.9281 310.503C36.6737 311.336 35.1363 312.545 34.2626 313.251C33.8087 313.617 33.5061 314.139 33.4036 314.714L33.101 316.463C32.8277 318.057 31.0804 318.934 29.6356 318.203C29.1476 317.955 28.7376 317.779 28.557 317.779C27.9323 317.779 24.1838 321.522 23.5591 321.522C22.9344 321.522 14.8176 319.441 15.6474 319.236C16.4771 319.032 34.7995 301.15 34.7995 298.45C34.7995 296.564 32.4665 290.121 31.0608 286.402C30.5288 284.989 31.4074 283.444 32.896 283.181H32.9009Z" fill="#778C61"/>
<path d="M124.697 105.539L120.554 93.9051C120.519 93.8076 120.49 93.715 120.466 93.6175C119.963 91.5998 114.418 69.2977 114.95 67.7088C115.429 66.2808 110.187 56.0899 108.684 53.2144C108.425 52.7173 108.303 52.1617 108.337 51.6061L108.547 47.8728C108.562 47.6096 108.547 47.3416 108.488 47.0833L100.425 7.33326C100.152 5.98811 99.0294 4.97925 97.6579 4.85741L96.1449 4.72095C95.1101 6.18306 94.0705 7.64518 93.0358 9.10729L100.743 25.9314C101.05 26.5991 101.109 27.3496 100.909 28.0563L98.3266 37.3115C97.9459 38.681 98.5413 40.1382 99.781 40.84C100.738 41.3859 101.333 42.3948 101.348 43.4913L101.894 81.9791C101.904 82.6078 101.724 83.2219 101.372 83.7482L92.6893 96.7562C92.1817 97.5116 91.4056 97.9746 90.5759 98.1013C89.2532 98.306 88.3064 97.575 88.1551 97.458C86.8909 96.8975 85.2168 95.991 83.5183 94.5143C81.2048 92.5014 79.8724 90.3326 79.1451 88.8997C75.465 89.1093 71.7898 89.314 68.1097 89.5236C68.8467 91.707 73.3077 105.022 73.9178 110.193C73.9666 110.588 74.035 111.348 73.708 112.177C73.0637 113.809 71.17 114.95 66.0256 115.924C63.4632 116.412 49.841 118.805 48.5378 119.872C48.5232 119.882 48.4109 119.979 48.245 120.111C47.6056 120.613 47.0443 120.979 46.6392 121.227L36.9899 134.074C37.1608 135.049 37.3755 136.521 37.478 138.314C37.5903 140.293 37.561 142.335 36.8825 148.559C36.6971 150.25 36.4384 152.531 36.0821 155.246C34.735 158.058 33.1488 159.866 31.9871 160.967C30.6108 162.278 28.8683 163.365 25.4274 165.602C24.1047 166.46 22.9626 167.162 22.0987 167.683C21.43 168.473 20.4539 169.799 19.8096 171.631C18.6822 174.838 19.7999 176.071 18.77 178.493C17.3107 181.919 14.0649 181.817 13.982 184.108C13.9136 186.057 16.1881 188.26 18.3551 188.679C19.9268 188.986 20.6735 188.197 22.9333 188.679C24.1242 188.933 24.9735 189.415 25.6373 189.717C27.3406 190.497 28.4876 191.618 29.1758 192.417C36.3066 188.728 39.5816 184.459 41.2508 181.193C42.9005 177.962 42.8029 175.705 45.9022 169.141C48.5037 163.628 48.3719 165.549 49.9972 161.786C50.7 160.153 51.2711 158.535 52.8524 157.79C54.0385 157.229 55.2928 157.4 56.1469 157.614C58.3775 158.662 61.3596 159.871 64.9811 160.821C66.05 161.104 70.921 162.347 76.2216 162.483C78.5448 162.542 89.0873 162.819 99.1221 156.664C99.1221 156.664 107.961 151.239 120.28 130.614C120.319 130.546 120.368 130.453 120.446 130.336C121.344 128.962 123.794 124.765 122.716 119.765C122.467 118.61 122.218 118.688 122.111 117.796C121.832 115.462 123.077 113.39 124.219 111.967L124.849 106.952C124.907 106.469 124.854 105.982 124.693 105.524L124.697 105.539Z" fill="#778C61"/>
<path d="M59.6954 472.082C51.5884 472.082 45.1702 470.625 40.4359 467.715C35.7015 464.805 32.3094 460.648 30.2595 455.233C28.2095 449.824 27.1895 443.346 27.1895 435.797V394.609C27.1895 387.065 28.2144 380.607 30.2595 375.246C32.3094 369.885 35.7015 365.791 40.4359 362.974C45.1702 360.157 51.5884 358.744 59.6954 358.744C67.8023 358.744 74.3768 360.177 79.1599 363.037C83.9382 365.903 87.3547 369.992 89.4046 375.309C91.4546 380.627 92.4747 387.06 92.4747 394.609V435.797C92.4747 443.346 91.4497 449.824 89.4046 455.233C87.3547 460.643 83.9431 464.805 79.1599 467.715C74.3768 470.625 67.8902 472.082 59.6954 472.082ZM59.6954 455.852C62.6092 455.852 64.747 455.194 66.1136 453.874C67.4802 452.558 68.388 450.784 68.8468 448.556C69.3007 446.329 69.5301 443.941 69.5301 441.397V389.16C69.5301 386.616 69.3007 384.248 68.8468 382.069C68.388 379.886 67.4802 378.136 66.1136 376.82C64.747 375.504 62.6043 374.842 59.6954 374.842C56.9622 374.842 54.9122 375.504 53.5505 376.82C52.1839 378.136 51.2712 379.886 50.8173 382.069C50.3585 384.253 50.134 386.616 50.134 389.16V441.397C50.134 443.941 50.339 446.329 50.7489 448.556C51.1589 450.784 52.0472 452.558 53.4138 453.874C54.7805 455.194 56.8743 455.852 59.6954 455.852Z" fill="#778C61"/>
<path d="M135.132 472.082C126.937 472.082 120.451 470.537 115.667 467.442C110.884 464.352 107.541 460.058 105.628 454.556C103.714 449.054 102.758 442.669 102.758 435.393V395.701C102.758 388.064 103.714 381.499 105.628 375.997C107.541 370.494 110.884 366.244 115.667 363.242C120.446 360.24 126.937 358.744 135.132 358.744C143.327 358.744 149.267 360.06 153.777 362.696C158.281 365.333 161.469 369.061 163.338 373.881C165.202 378.702 166.139 384.297 166.139 390.657V399.931H144.288V389.565C144.288 387.021 144.152 384.633 143.878 382.406C143.605 380.178 142.853 378.36 141.623 376.952C140.393 375.543 138.28 374.837 135.274 374.837C132.267 374.837 130.085 375.568 128.719 377.02C127.352 378.477 126.488 380.363 126.122 382.678C125.756 384.998 125.575 387.567 125.575 390.384V440.573C125.575 443.663 125.824 446.368 126.327 448.688C126.825 451.008 127.782 452.777 129.197 454.005C130.607 455.233 132.633 455.848 135.274 455.848C138.187 455.848 140.257 455.146 141.487 453.732C142.717 452.324 143.488 450.438 143.81 448.069C144.127 445.705 144.288 443.21 144.288 440.568V429.793H166.139V438.931C166.139 445.389 165.227 451.091 163.406 456.047C161.581 461.004 158.443 464.913 153.981 467.778C149.52 470.644 143.234 472.077 135.132 472.077V472.082Z" fill="#C0A38B"/>
<path d="M171.061 470.649L192.507 360.177H217.501L238.811 470.649H217.916L213.953 446.373H196.47L192.233 470.649H171.061ZM198.51 432.6H211.761L205.07 388.005L198.515 432.6H198.51Z" fill="#778C61"/>
</svg>
