<svg width="322" height="458" viewBox="0 0 322 458" fill="none" xmlns="http://www.w3.org/2000/svg">
<path fill-rule="evenodd" clip-rule="evenodd" d="M161.435 0H122.438L119.757 1.62342L121.136 1.46864L127.865 61.7252L139.376 118.119L177.982 125.005L181.27 93.9048L181.315 93.4818L181.549 93.1268L212.553 46.0331L215.463 47.9564L185.725 93.1264L196.068 96.1534L217.428 83.8428L221.355 81.5799L219.955 85.8962L214.848 101.642L227.793 105.374L237.544 90.7185L238.361 89.4912L239.704 90.0924L251.61 95.4181L267.855 96.2948L267.836 96.6546L270.366 67.674L206.751 43.6606L161.435 0ZM267.563 99.7768L251.101 98.8887L250.778 98.8717L250.484 98.7394L239.628 93.8834L229.987 108.374L229.28 109.437L228.055 109.083L212.151 104.499L210.418 104L210.975 102.281L215.239 89.1336L197.162 99.5523L196.518 99.9239L195.804 99.7148L184.511 96.4101L181.445 125.398L197.036 126.16L219.521 115.646L221.697 114.628L221.988 117.017L224.696 139.268L231.019 129.996L231.439 129.38L232.175 129.259L265.286 123.801L265.403 124.513L267.563 99.7768ZM265.154 127.363L233.477 132.584L224.965 145.065L222.356 148.891L221.796 144.291L218.818 119.829L198.118 129.508L197.728 129.691L197.297 129.67L181.077 128.877L181.054 129.1L179.212 128.772L138.883 121.578L125.126 149.146L134.837 166.128L165.125 148.251L165.948 147.765L166.799 148.199L192.58 161.328L203.551 155.628L204.137 155.323L204.778 155.485L240.321 164.437L239.859 166.279L245.748 152.376L264.266 137.531L265.154 127.363ZM239.23 167.764L204.569 159.033L194.682 164.17L195.561 167.037L195.935 166.425L230.747 187.79L239.23 167.764ZM230.607 188.123L228.972 190.797L196.79 171.045L203.624 193.34L203.921 194.307L203.231 195.046L194.575 204.323L200.698 222.326L229.844 189.924L230.607 188.123ZM198.04 224.91L197.91 224.954L190.938 204.459L190.601 203.468L191.315 202.703L199.995 193.399L191.141 164.512L166.071 151.746L135.086 170.035L133.566 170.932L132.689 169.398L122.649 151.84L101.701 167.658L101.414 167.874L101.066 167.96L85.5979 171.754L85.2973 171.828L84.9892 171.794L52.2542 168.113L72.3297 189.924L64.2688 296.674L51.6328 321.342L64.2688 323.744L89.5408 306.934L110.673 311.737L139.213 296.674L148.364 258.689L168.625 233.148H189.104L198.04 224.91ZM54.0642 164.802L85.0698 168.288L99.8888 164.653L121.716 148.172L136.078 119.389L124.434 62.3483L124.418 62.271L124.409 62.1924L117.78 2.82003L80.6085 25.3232L67.5367 150.193L54.0642 164.802Z" fill="#738F44"/>
<path d="M12.3815 370.195C12.3815 375.672 13.5156 380.609 15.7837 385.005C18.0889 389.401 21.2494 392.903 25.265 395.511C29.2806 398.082 33.8912 399.367 39.0966 399.367C44.3393 399.367 48.9497 398.082 52.9283 395.511C56.9439 392.903 60.0859 389.401 62.3538 385.005C64.6218 380.609 65.756 375.672 65.756 370.195C65.756 364.718 64.6218 359.8 62.3538 355.441C60.0859 351.045 56.9439 347.561 52.9283 344.991C48.9497 342.42 44.3393 341.134 39.0966 341.134C33.8912 341.134 29.2806 342.42 25.265 344.991C21.2494 347.561 18.0889 351.045 15.7837 355.441C13.5156 359.8 12.3815 364.718 12.3815 370.195ZM2.50977 370.195C2.50977 364.83 3.42072 359.837 5.24263 355.218C7.10173 350.56 9.68583 346.5 12.995 343.035C16.3042 339.57 20.1711 336.868 24.5957 334.931C29.0576 332.994 33.8912 332.025 39.0966 332.025C44.3393 332.025 49.1728 332.994 53.5975 334.931C58.0593 336.868 61.9264 339.57 65.1982 343.035C68.5076 346.5 71.0731 350.56 72.8949 355.218C74.7166 359.837 75.6277 364.83 75.6277 370.195C75.6277 375.597 74.7166 380.627 72.8949 385.284C71.1102 389.904 68.5633 393.965 65.254 397.467C61.9822 400.932 58.1339 403.633 53.7091 405.571C49.2843 407.508 44.4138 408.477 39.0966 408.477C33.7796 408.477 28.8716 407.508 24.3727 405.571C19.9108 403.633 16.0439 400.932 12.7719 397.467C9.49995 393.965 6.97158 389.904 5.18685 385.284C3.40213 380.627 2.50977 375.597 2.50977 370.195ZM96.8388 408.477C94.7939 408.477 93.0275 407.75 91.5404 406.297C90.0903 404.807 89.3652 403.037 89.3652 400.988C89.3652 398.864 90.0903 397.076 91.5404 395.623C93.0275 394.133 94.7939 393.388 96.8388 393.388C98.9581 393.388 100.743 394.133 102.193 395.623C103.643 397.076 104.368 398.864 104.368 400.988C104.368 403.037 103.643 404.807 102.193 406.297C100.743 407.75 98.9581 408.477 96.8388 408.477ZM157.025 399.032C161.599 399.032 165.559 398.398 168.905 397.132C172.288 395.865 174.687 394.636 176.1 393.443L180.283 401.659C178.609 403.149 175.69 404.658 171.526 406.185C167.399 407.713 162.435 408.477 156.635 408.477C151.206 408.477 146.168 407.508 141.521 405.571C136.873 403.633 132.801 400.932 129.306 397.467C125.848 394.002 123.134 389.96 121.163 385.34C119.23 380.72 118.263 375.728 118.263 370.363C118.263 364.998 119.23 359.987 121.163 355.329C123.097 350.672 125.793 346.611 129.251 343.146C132.745 339.644 136.817 336.924 141.465 334.987C146.15 333.012 151.206 332.025 156.635 332.025C162.435 332.025 167.399 332.789 171.526 334.316C175.69 335.844 178.609 337.353 180.283 338.843L176.1 347.058C174.687 345.829 172.288 344.599 168.905 343.37C165.559 342.103 161.599 341.47 157.025 341.47C152.861 341.47 149.05 342.178 145.592 343.593C142.134 345.009 139.122 347.021 136.557 349.629C134.028 352.2 132.058 355.236 130.645 358.738C129.269 362.24 128.581 366.059 128.581 370.195C128.581 374.368 129.269 378.224 130.645 381.763C132.058 385.265 134.028 388.321 136.557 390.929C139.122 393.499 142.134 395.492 145.592 396.908C149.05 398.324 152.861 399.032 157.025 399.032ZM201.848 408.477C199.803 408.477 198.037 407.75 196.55 406.297C195.1 404.807 194.375 403.037 194.375 400.988C194.375 398.864 195.1 397.076 196.55 395.623C198.037 394.133 199.803 393.388 201.848 393.388C203.968 393.388 205.752 394.133 207.202 395.623C208.653 397.076 209.378 398.864 209.378 400.988C209.378 403.037 208.653 404.807 207.202 406.297C205.752 407.75 203.968 408.477 201.848 408.477ZM248.594 333.366H258.521L285.738 407.135H275.532L269.174 389.364H237.941L231.471 407.135H221.265L248.594 333.366ZM241.008 380.757H266.162L253.669 345.102H253.502L241.008 380.757ZM303.699 408.477C301.654 408.477 299.887 407.75 298.4 406.297C296.95 404.807 296.225 403.037 296.225 400.988C296.225 398.864 296.95 397.076 298.4 395.623C299.887 394.133 301.654 393.388 303.699 393.388C305.818 393.388 307.603 394.133 309.053 395.623C310.503 397.076 311.228 398.864 311.228 400.988C311.228 403.037 310.503 404.807 309.053 406.297C307.603 407.75 305.818 408.477 303.699 408.477Z" fill="#738F44"/>
<path d="M13.3351 442.435C13.3351 443.802 13.6187 445.037 14.1857 446.137C14.762 447.238 15.5521 448.111 16.556 448.761C17.5599 449.408 18.7125 449.726 20.0139 449.726C21.3246 449.726 22.4772 449.408 23.4718 448.761C24.4757 448.111 25.2612 447.238 25.8282 446.137C26.3952 445.037 26.6787 443.802 26.6787 442.435C26.6787 441.064 26.3952 439.837 25.8282 438.746C25.2612 437.645 24.4757 436.777 23.4718 436.133C22.4772 435.49 21.3246 435.169 20.0139 435.169C18.7125 435.169 17.5599 435.49 16.556 436.133C15.5521 436.777 14.762 437.645 14.1857 438.746C13.6187 439.837 13.3351 441.064 13.3351 442.435ZM10.8672 442.435C10.8672 441.095 11.0949 439.846 11.5504 438.689C12.0152 437.528 12.6612 436.51 13.4885 435.644C14.3158 434.778 15.2825 434.102 16.3887 433.618C17.5041 433.134 18.7125 432.892 20.0139 432.892C21.3246 432.892 22.533 433.134 23.6391 433.618C24.7546 434.102 25.7213 434.778 26.5393 435.644C27.3666 436.51 28.008 437.528 28.4635 438.689C28.9189 439.846 29.1467 441.095 29.1467 442.435C29.1467 443.784 28.9189 445.042 28.4635 446.207C28.0173 447.36 27.3806 448.377 26.5532 449.25C25.7353 450.119 24.7732 450.792 23.667 451.276C22.5608 451.761 21.3432 452.005 20.0139 452.005C18.6846 452.005 17.4576 451.761 16.3329 451.276C15.2175 450.792 14.2507 450.119 13.4327 449.25C12.6147 448.377 11.9826 447.36 11.5365 446.207C11.0903 445.042 10.8672 443.784 10.8672 442.435ZM31.8002 451.669V432.445H34.2542V442.352C34.31 442.06 34.5284 441.723 34.9096 441.33C35.2907 440.937 35.8019 440.601 36.4433 440.309C37.0847 440.012 37.8237 439.863 38.6603 439.863C39.7292 439.863 40.6774 440.121 41.5047 440.632C42.332 441.134 42.9827 441.841 43.4567 442.754C43.9399 443.658 44.1818 444.723 44.1818 445.941C44.1818 447.159 43.9399 448.229 43.4567 449.141C42.9827 450.045 42.332 450.748 41.5047 451.25C40.6774 451.752 39.7292 452.005 38.6603 452.005C37.8702 452.005 37.1544 451.857 36.513 451.556C35.8809 451.259 35.365 450.91 34.9653 450.508C34.5657 450.111 34.3147 449.753 34.2124 449.434V451.669H31.8002ZM41.7696 445.941C41.7696 445.111 41.6023 444.395 41.2677 443.788C40.933 443.186 40.4868 442.714 39.9291 442.378C39.3807 442.042 38.7765 441.876 38.1165 441.876C37.4007 441.876 36.7501 442.046 36.1644 442.391C35.5788 442.728 35.1141 443.203 34.7701 443.819C34.4262 444.422 34.2542 445.129 34.2542 445.941C34.2542 446.753 34.4262 447.465 34.7701 448.08C35.1141 448.683 35.5788 449.154 36.1644 449.491C36.7501 449.827 37.4007 449.993 38.1165 449.993C38.7765 449.993 39.3807 449.831 39.9291 449.504C40.4868 449.167 40.933 448.696 41.2677 448.093C41.6023 447.487 41.7696 446.77 41.7696 445.941ZM50.7747 439.863C51.3695 439.863 51.9224 439.925 52.4339 440.047C52.9542 440.165 53.4004 440.309 53.7725 440.479C54.1533 440.645 54.423 440.793 54.5812 440.924L53.6191 442.461C53.4331 442.295 53.0984 442.108 52.6152 441.902C52.1316 441.688 51.5926 441.584 50.9978 441.584C50.3468 441.584 49.7939 441.71 49.3386 441.972C48.8828 442.225 48.6553 442.592 48.6553 443.077C48.6553 443.561 48.8876 443.946 49.3525 444.238C49.8266 444.518 50.4584 444.749 51.2488 444.937C51.8806 445.085 52.471 445.286 53.0196 445.535C53.5773 445.788 54.0278 446.137 54.372 446.583C54.7158 447.019 54.8879 447.609 54.8879 448.342C54.8879 449.015 54.7485 449.587 54.4696 450.062C54.1908 450.53 53.8143 450.905 53.3402 451.193C52.8662 451.473 52.3363 451.678 51.7507 451.809C51.1651 451.94 50.5699 452.005 49.966 452.005C49.2593 452.005 48.6227 451.931 48.0558 451.783C47.4885 451.643 47.0101 451.473 46.6196 451.276C46.2384 451.071 45.9595 450.896 45.7831 450.748L46.7451 449.015C46.9865 449.246 47.3817 449.495 47.9303 449.757C48.488 450.014 49.1198 450.145 49.8266 450.145C50.6074 450.145 51.2392 449.984 51.7228 449.656C52.2061 449.32 52.4479 448.888 52.4479 448.36C52.4479 447.958 52.3316 447.635 52.0993 447.395C51.8666 447.15 51.5555 446.958 51.1651 446.805C50.7747 446.657 50.3468 446.526 49.8824 446.417C49.4362 446.312 48.9991 446.177 48.5717 446.011C48.1534 445.845 47.7673 445.631 47.4144 445.369C47.0702 445.098 46.7961 444.771 46.5918 444.391C46.387 443.998 46.285 443.544 46.285 443.02C46.285 442.361 46.4942 441.798 46.9125 441.33C47.3307 440.854 47.8789 440.492 48.5578 440.239C49.2362 439.99 49.9752 439.863 50.7747 439.863ZM59.2199 446.43C59.2291 447.12 59.3776 447.748 59.6661 448.316C59.9541 448.884 60.3815 449.338 60.9489 449.67C61.5249 450.006 62.2316 450.176 63.0682 450.176C63.7745 450.176 64.3741 450.071 64.8669 449.866C65.3688 449.652 65.7776 449.403 66.0939 449.111C66.4098 448.814 66.6377 448.547 66.7771 448.316L67.9623 449.783C67.6555 450.228 67.2791 450.621 66.8329 450.958C66.3958 451.294 65.8612 451.547 65.2294 451.726C64.5972 451.909 63.8255 452.005 62.9148 452.005C61.6879 452.005 60.6234 451.743 59.7214 451.224C58.8295 450.691 58.1415 449.962 57.6583 449.028C57.1746 448.089 56.9332 447.011 56.9332 445.801C56.9332 444.684 57.1607 443.679 57.6165 442.784C58.0718 441.881 58.7319 441.169 59.5964 440.645C60.47 440.125 61.5205 439.863 62.7475 439.863C63.8721 439.863 64.8482 440.099 65.6756 440.575C66.5122 441.042 67.1579 441.702 67.6137 442.562C68.0782 443.417 68.3109 444.443 68.3109 445.635C68.3109 445.71 68.3061 445.845 68.2969 446.037C68.2873 446.225 68.2782 446.356 68.269 446.43H59.2199ZM65.9963 444.601C65.9867 444.216 65.8752 443.797 65.6617 443.343C65.4569 442.885 65.1222 442.496 64.6577 442.169C64.1928 441.841 63.5654 441.68 62.7754 441.68C61.9571 441.68 61.2974 441.837 60.7955 442.156C60.3027 442.47 59.9402 442.858 59.7079 443.313C59.4752 443.762 59.3406 444.19 59.3036 444.601H65.9963ZM73.374 451.669H70.9618V440.2H73.374V442.182H73.3042C73.3504 441.942 73.5225 441.636 73.8201 441.274C74.1173 440.911 74.5265 440.584 75.0471 440.296C75.5674 440.007 76.1905 439.863 76.9155 439.863C77.4454 439.863 77.9099 439.938 78.3099 440.086C78.7186 440.226 79.007 440.365 79.1743 440.505L78.1844 442.518C78.0541 442.387 77.8262 442.256 77.5011 442.125C77.1757 441.985 76.7713 441.915 76.2881 441.915C75.6746 441.915 75.1491 442.108 74.7125 442.492C74.2755 442.872 73.9408 443.334 73.7086 443.871C73.4855 444.404 73.374 444.897 73.374 445.356V451.669ZM79.5957 440.2H82.203L85.9398 449.421L89.6766 440.2H92.27L87.376 451.669H84.5176L79.5957 440.2ZM103.748 451.669V449.434C103.674 449.665 103.455 449.988 103.093 450.399C102.74 450.809 102.252 451.18 101.629 451.516C101.015 451.84 100.29 452.005 99.4538 452.005C98.3941 452.005 97.432 451.752 96.5676 451.25C95.7122 450.748 95.029 450.045 94.5179 449.141C94.016 448.229 93.765 447.159 93.765 445.941C93.765 444.723 94.016 443.658 94.5179 442.754C95.029 441.841 95.7122 441.134 96.5676 440.632C97.432 440.121 98.3941 439.863 99.4538 439.863C100.281 439.863 100.997 440.012 101.601 440.309C102.215 440.61 102.703 440.955 103.065 441.343C103.437 441.736 103.655 442.073 103.72 442.352V440.2H106.119V451.669H103.748ZM96.1632 445.941C96.1632 446.77 96.3445 447.487 96.707 448.093C97.0695 448.696 97.5388 449.167 98.1152 449.504C98.7009 449.831 99.3235 449.993 99.9836 449.993C100.69 449.993 101.322 449.827 101.88 449.491C102.438 449.154 102.879 448.683 103.204 448.08C103.53 447.465 103.693 446.753 103.693 445.941C103.693 445.129 103.53 444.422 103.204 443.819C102.879 443.203 102.438 442.728 101.88 442.391C101.322 442.046 100.69 441.876 99.9836 441.876C99.3235 441.876 98.7009 442.042 98.1152 442.378C97.5388 442.714 97.0695 443.186 96.707 443.788C96.3445 444.395 96.1632 445.111 96.1632 445.941ZM108.384 440.2H110.629V435.49H113.041V440.2H115.983V442.282H113.041V447.954C113.041 448.622 113.158 449.115 113.39 449.434C113.632 449.753 113.953 449.91 114.352 449.91C114.705 449.91 114.98 449.844 115.175 449.713C115.37 449.582 115.486 449.495 115.523 449.447L116.485 451.237C116.43 451.281 116.281 451.372 116.039 451.503C115.797 451.63 115.486 451.748 115.105 451.853C114.724 451.953 114.278 452.005 113.766 452.005C112.874 452.005 112.126 451.735 111.522 451.193C110.927 450.643 110.629 449.779 110.629 448.595V442.282H108.384V440.2ZM123.891 452.005C122.71 452.005 121.66 451.739 120.74 451.206C119.829 450.678 119.113 449.962 118.593 449.058C118.072 448.146 117.812 447.115 117.812 445.967C117.812 444.823 118.072 443.788 118.593 442.867C119.113 441.946 119.829 441.213 120.74 440.675C121.66 440.134 122.71 439.863 123.891 439.863C125.062 439.863 126.098 440.134 127 440.675C127.911 441.213 128.622 441.946 129.134 442.867C129.645 443.788 129.9 444.823 129.9 445.967C129.9 447.115 129.645 448.146 129.134 449.058C128.622 449.962 127.911 450.678 127 451.206C126.098 451.739 125.062 452.005 123.891 452.005ZM123.891 449.923C124.634 449.923 125.28 449.752 125.829 449.408C126.387 449.063 126.819 448.591 127.126 447.993C127.433 447.39 127.586 446.709 127.586 445.954C127.586 445.199 127.433 444.522 127.126 443.915C126.819 443.308 126.387 442.828 125.829 442.474C125.28 442.121 124.634 441.946 123.891 441.946C123.138 441.946 122.483 442.121 121.925 442.474C121.367 442.828 120.93 443.308 120.614 443.915C120.308 444.522 120.154 445.199 120.154 445.954C120.154 446.709 120.308 447.39 120.614 447.993C120.93 448.591 121.367 449.063 121.925 449.408C122.483 449.752 123.138 449.923 123.891 449.923ZM122.134 438.619L121.284 437.462L125.508 433.953L126.903 435.686L122.134 438.619ZM134.974 451.669H132.562V440.2H134.974V442.182H134.905C134.951 441.942 135.123 441.636 135.421 441.274C135.718 440.911 136.127 440.584 136.648 440.296C137.168 440.007 137.791 439.863 138.516 439.863C139.046 439.863 139.51 439.938 139.91 440.086C140.319 440.226 140.607 440.365 140.775 440.505L139.785 442.518C139.655 442.387 139.427 442.256 139.102 442.125C138.776 441.985 138.372 441.915 137.889 441.915C137.275 441.915 136.75 442.108 136.313 442.492C135.876 442.872 135.541 443.334 135.309 443.871C135.086 444.404 134.974 444.897 134.974 445.356V451.669ZM142.604 451.669V440.2H145.031V451.669H142.604ZM143.845 436.273C143.408 436.273 143.032 436.119 142.716 435.812C142.409 435.495 142.256 435.118 142.256 434.68C142.256 434.242 142.409 433.865 142.716 433.548C143.032 433.232 143.408 433.073 143.845 433.073C144.133 433.073 144.398 433.148 144.64 433.297C144.891 433.446 145.091 433.641 145.24 433.884C145.388 434.116 145.463 434.382 145.463 434.68C145.463 435.118 145.305 435.495 144.989 435.812C144.672 436.119 144.292 436.273 143.845 436.273ZM154.037 452.005C152.857 452.005 151.806 451.739 150.886 451.206C149.975 450.678 149.26 449.962 148.739 449.058C148.218 448.146 147.958 447.115 147.958 445.967C147.958 444.823 148.218 443.788 148.739 442.867C149.26 441.946 149.975 441.213 150.886 440.675C151.806 440.134 152.857 439.863 154.037 439.863C155.209 439.863 156.245 440.134 157.147 440.675C158.058 441.213 158.769 441.946 159.28 442.867C159.791 443.788 160.047 444.823 160.047 445.967C160.047 447.115 159.791 448.146 159.28 449.058C158.769 449.962 158.058 450.678 157.147 451.206C156.245 451.739 155.209 452.005 154.037 452.005ZM154.037 449.923C154.781 449.923 155.427 449.752 155.975 449.408C156.533 449.063 156.965 448.591 157.272 447.993C157.579 447.39 157.732 446.709 157.732 445.954C157.732 445.199 157.579 444.522 157.272 443.915C156.965 443.308 156.533 442.828 155.975 442.474C155.427 442.121 154.781 441.946 154.037 441.946C153.284 441.946 152.629 442.121 152.071 442.474C151.514 442.828 151.077 443.308 150.761 443.915C150.454 444.522 150.301 445.199 150.301 445.954C150.301 446.709 150.454 447.39 150.761 447.993C151.077 448.591 151.514 449.063 152.071 449.408C152.629 449.752 153.284 449.923 154.037 449.923ZM174.729 452.005C173.678 452.005 172.735 451.752 171.898 451.25C171.071 450.748 170.415 450.045 169.932 449.141C169.458 448.229 169.221 447.159 169.221 445.941C169.221 444.723 169.458 443.658 169.932 442.754C170.415 441.841 171.071 441.134 171.898 440.632C172.735 440.121 173.678 439.863 174.729 439.863C175.574 439.863 176.318 440.012 176.96 440.309C177.601 440.601 178.112 440.937 178.493 441.33C178.874 441.723 179.093 442.06 179.149 442.352V432.445H181.589V451.669H179.19V449.434C179.088 449.753 178.832 450.111 178.424 450.508C178.024 450.91 177.508 451.259 176.876 451.556C176.244 451.857 175.528 452.005 174.729 452.005ZM175.286 449.993C175.993 449.993 176.639 449.827 177.224 449.491C177.81 449.154 178.275 448.683 178.619 448.08C178.972 447.465 179.149 446.753 179.149 445.941C179.149 445.129 178.972 444.422 178.619 443.819C178.275 443.203 177.81 442.728 177.224 442.391C176.639 442.046 175.993 441.876 175.286 441.876C174.635 441.876 174.031 442.042 173.474 442.378C172.916 442.714 172.465 443.186 172.121 443.788C171.787 444.395 171.619 445.111 171.619 445.941C171.619 446.77 171.787 447.487 172.121 448.093C172.465 448.696 172.916 449.167 173.474 449.504C174.031 449.831 174.635 449.993 175.286 449.993ZM193.507 451.669V449.434C193.433 449.665 193.215 449.988 192.852 450.399C192.499 450.809 192.011 451.18 191.388 451.516C190.775 451.84 190.05 452.005 189.213 452.005C188.153 452.005 187.191 451.752 186.327 451.25C185.471 450.748 184.788 450.045 184.277 449.141C183.775 448.229 183.524 447.159 183.524 445.941C183.524 444.723 183.775 443.658 184.277 442.754C184.788 441.841 185.471 441.134 186.327 440.632C187.191 440.121 188.153 439.863 189.213 439.863C190.04 439.863 190.756 440.012 191.36 440.309C191.974 440.61 192.462 440.955 192.824 441.343C193.196 441.736 193.415 442.073 193.48 442.352V440.2H195.878V451.669H193.507ZM185.922 445.941C185.922 446.77 186.104 447.487 186.466 448.093C186.829 448.696 187.298 449.167 187.874 449.504C188.46 449.831 189.083 449.993 189.743 449.993C190.449 449.993 191.081 449.827 191.639 449.491C192.197 449.154 192.638 448.683 192.964 448.08C193.289 447.465 193.452 446.753 193.452 445.941C193.452 445.129 193.289 444.422 192.964 443.819C192.638 443.203 192.197 442.728 191.639 442.391C191.081 442.046 190.449 441.876 189.743 441.876C189.083 441.876 188.46 442.042 187.874 442.378C187.298 442.714 186.829 443.186 186.466 443.788C186.104 444.395 185.922 445.111 185.922 445.941ZM215.071 449.643C216.215 449.643 217.205 449.486 218.041 449.167C218.887 448.853 219.487 448.543 219.84 448.246L220.886 450.298C220.467 450.674 219.738 451.049 218.697 451.433C217.665 451.813 216.424 452.005 214.974 452.005C213.617 452.005 212.357 451.761 211.195 451.276C210.033 450.792 209.015 450.119 208.142 449.25C207.277 448.386 206.598 447.377 206.106 446.22C205.622 445.063 205.381 443.819 205.381 442.474C205.381 441.134 205.622 439.881 206.106 438.719C206.589 437.554 207.263 436.538 208.128 435.672C209.001 434.797 210.019 434.116 211.181 433.632C212.352 433.138 213.617 432.892 214.974 432.892C216.424 432.892 217.665 433.082 218.697 433.464C219.738 433.847 220.467 434.224 220.886 434.596L219.84 436.65C219.487 436.343 218.887 436.035 218.041 435.728C217.205 435.411 216.215 435.253 215.071 435.253C214.03 435.253 213.078 435.43 212.213 435.784C211.349 436.138 210.596 436.641 209.954 437.292C209.322 437.934 208.829 438.693 208.476 439.571C208.132 440.444 207.96 441.4 207.96 442.435C207.96 443.478 208.132 444.443 208.476 445.325C208.829 446.203 209.322 446.967 209.954 447.617C210.596 448.259 211.349 448.757 212.213 449.111C213.078 449.464 214.03 449.643 215.071 449.643ZM232.886 451.669V449.434C232.811 449.665 232.593 449.988 232.231 450.399C231.877 450.809 231.389 451.18 230.767 451.516C230.153 451.84 229.428 452.005 228.591 452.005C227.532 452.005 226.57 451.752 225.705 451.25C224.85 450.748 224.167 450.045 223.656 449.141C223.154 448.229 222.903 447.159 222.903 445.941C222.903 444.723 223.154 443.658 223.656 442.754C224.167 441.841 224.85 441.134 225.705 440.632C226.57 440.121 227.532 439.863 228.591 439.863C229.419 439.863 230.134 440.012 230.739 440.309C231.352 440.61 231.84 440.955 232.203 441.343C232.574 441.736 232.793 442.073 232.858 442.352V440.2H235.256V451.669H232.886ZM225.301 445.941C225.301 446.77 225.482 447.487 225.845 448.093C226.207 448.696 226.676 449.167 227.253 449.504C227.839 449.831 228.461 449.993 229.121 449.993C229.828 449.993 230.46 449.827 231.018 449.491C231.575 449.154 232.017 448.683 232.342 448.08C232.668 447.465 232.83 446.753 232.83 445.941C232.83 445.129 232.668 444.422 232.342 443.819C232.017 443.203 231.575 442.728 231.018 442.391C230.46 442.046 229.828 441.876 229.121 441.876C228.461 441.876 227.839 442.042 227.253 442.378C226.676 442.714 226.207 443.186 225.845 443.788C225.482 444.395 225.301 445.111 225.301 445.941ZM247.701 451.669V449.434C247.626 449.665 247.408 449.988 247.045 450.399C246.692 450.809 246.204 451.18 245.581 451.516C244.968 451.84 244.243 452.005 243.406 452.005C242.346 452.005 241.384 451.752 240.52 451.25C239.665 450.748 238.981 450.045 238.47 449.141C237.968 448.229 237.717 447.159 237.717 445.941C237.717 444.723 237.968 443.658 238.47 442.754C238.981 441.841 239.665 441.134 240.52 440.632C241.384 440.121 242.346 439.863 243.406 439.863C244.234 439.863 244.949 440.012 245.553 440.309C246.167 440.61 246.655 440.955 247.017 441.343C247.389 441.736 247.608 442.073 247.673 442.352V440.2H250.071V451.669H247.701ZM240.116 445.941C240.116 446.77 240.297 447.487 240.659 448.093C241.022 448.696 241.491 449.167 242.068 449.504C242.653 449.831 243.276 449.993 243.936 449.993C244.642 449.993 245.274 449.827 245.832 449.491C246.39 449.154 246.831 448.683 247.157 448.08C247.482 447.465 247.645 446.753 247.645 445.941C247.645 445.129 247.482 444.422 247.157 443.819C246.831 443.203 246.39 442.728 245.832 442.391C245.274 442.046 244.642 441.876 243.936 441.876C243.276 441.876 242.653 442.042 242.068 442.378C241.491 442.714 241.022 443.186 240.659 443.788C240.297 444.395 240.116 445.111 240.116 445.941ZM252.337 440.2H254.582V435.49H256.994V440.2H259.936V442.282H256.994V447.954C256.994 448.622 257.11 449.115 257.342 449.434C257.584 449.753 257.905 449.91 258.304 449.91C258.658 449.91 258.932 449.844 259.127 449.713C259.322 449.582 259.439 449.495 259.476 449.447L260.438 451.237C260.382 451.281 260.233 451.372 259.992 451.503C259.75 451.63 259.439 451.748 259.057 451.853C258.676 451.953 258.23 452.005 257.719 452.005C256.826 452.005 256.078 451.735 255.474 451.193C254.879 450.643 254.582 449.779 254.582 448.595V442.282H252.337V440.2ZM262.81 451.669V440.2H265.236V451.669H262.81ZM264.051 436.273C263.614 436.273 263.237 436.119 262.921 435.812C262.615 435.495 262.461 435.118 262.461 434.68C262.461 434.242 262.615 433.865 262.921 433.548C263.237 433.232 263.614 433.073 264.051 433.073C264.339 433.073 264.604 433.148 264.845 433.297C265.096 433.446 265.296 433.641 265.445 433.884C265.594 434.116 265.668 434.382 265.668 434.68C265.668 435.118 265.51 435.495 265.194 435.812C264.878 436.119 264.497 436.273 264.051 436.273ZM275.344 439.863C276.097 439.863 276.827 440.021 277.533 440.339C278.249 440.654 278.835 441.16 279.29 441.846C279.755 442.527 279.987 443.417 279.987 444.518V451.669H277.533V444.989C277.533 443.854 277.268 443.029 276.739 442.518C276.209 441.998 275.525 441.736 274.689 441.736C274.14 441.736 273.61 441.894 273.099 442.212C272.597 442.518 272.184 442.946 271.858 443.496C271.533 444.037 271.37 444.653 271.37 445.338V451.669H268.944V440.2H271.37V442.239C271.454 441.92 271.682 441.579 272.054 441.204C272.425 440.833 272.899 440.514 273.476 440.256C274.052 439.994 274.675 439.863 275.344 439.863ZM288.626 457.804C287.724 457.804 286.906 457.708 286.172 457.524C285.447 457.336 284.81 457.07 284.261 456.725C283.722 456.393 283.29 455.996 282.965 455.538L284.554 454.018C284.731 454.258 284.968 454.516 285.265 454.787C285.572 455.066 285.985 455.302 286.506 455.498C287.027 455.695 287.705 455.791 288.542 455.791C289.36 455.791 290.053 455.612 290.619 455.258C291.186 454.913 291.618 454.446 291.916 453.848C292.214 453.254 292.362 452.582 292.362 451.835V451.46H294.733V451.992C294.733 453.258 294.459 454.319 293.91 455.175C293.371 456.044 292.641 456.695 291.721 457.131C290.801 457.581 289.769 457.804 288.626 457.804ZM292.362 451.669V449.434C292.288 449.665 292.07 449.988 291.707 450.399C291.354 450.809 290.866 451.18 290.243 451.516C289.629 451.84 288.904 452.005 288.068 452.005C287.008 452.005 286.046 451.752 285.182 451.25C284.326 450.748 283.643 450.045 283.132 449.141C282.63 448.229 282.379 447.159 282.379 445.941C282.379 444.723 282.63 443.658 283.132 442.754C283.643 441.841 284.326 441.134 285.182 440.632C286.046 440.121 287.008 439.863 288.068 439.863C288.895 439.863 289.611 440.012 290.215 440.309C290.829 440.61 291.317 440.955 291.679 441.343C292.051 441.736 292.27 442.073 292.334 442.352V440.2H294.733V451.669H292.362ZM284.777 445.941C284.777 446.77 284.958 447.487 285.321 448.093C285.684 448.696 286.153 449.167 286.729 449.504C287.315 449.831 287.938 449.993 288.598 449.993C289.304 449.993 289.936 449.827 290.494 449.491C291.052 449.154 291.493 448.683 291.819 448.08C292.144 447.465 292.307 446.753 292.307 445.941C292.307 445.129 292.144 444.422 291.819 443.819C291.493 443.203 291.052 442.728 290.494 442.391C289.936 442.046 289.304 441.876 288.598 441.876C287.938 441.876 287.315 442.042 286.729 442.378C286.153 442.714 285.684 443.186 285.321 443.788C284.958 444.395 284.777 445.111 284.777 445.941ZM307.286 451.669V449.434C307.211 449.665 306.993 449.988 306.631 450.399C306.277 450.809 305.789 451.18 305.167 451.516C304.553 451.84 303.828 452.005 302.991 452.005C301.932 452.005 300.97 451.752 300.105 451.25C299.25 450.748 298.567 450.045 298.055 449.141C297.554 448.229 297.303 447.159 297.303 445.941C297.303 444.723 297.554 443.658 298.055 442.754C298.567 441.841 299.25 441.134 300.105 440.632C300.97 440.121 301.932 439.863 302.991 439.863C303.819 439.863 304.534 440.012 305.139 440.309C305.752 440.61 306.24 440.955 306.603 441.343C306.974 441.736 307.193 442.073 307.258 442.352V440.2H309.656V451.669H307.286ZM299.701 445.941C299.701 446.77 299.882 447.487 300.245 448.093C300.607 448.696 301.076 449.167 301.653 449.504C302.238 449.831 302.861 449.993 303.521 449.993C304.228 449.993 304.86 449.827 305.417 449.491C305.975 449.154 306.417 448.683 306.742 448.08C307.068 447.465 307.23 446.753 307.23 445.941C307.23 445.129 307.068 444.422 306.742 443.819C306.417 443.203 305.975 442.728 305.417 442.391C304.86 442.046 304.228 441.876 303.521 441.876C302.861 441.876 302.238 442.042 301.653 442.378C301.076 442.714 300.607 443.186 300.245 443.788C299.882 444.395 299.701 445.111 299.701 445.941Z" fill="#738F44"/>
</svg>
