<svg width="96" height="100" viewBox="0 0 96 100" fill="none" xmlns="http://www.w3.org/2000/svg">
<path d="M86.7119 33.772C84.69 33.772 83.0892 33.4089 81.9095 32.6836C80.7287 31.9583 79.8823 30.921 79.3714 29.5706C78.8604 28.2212 78.6055 26.6058 78.6055 24.7231V14.4491C78.6055 12.5665 78.8604 10.9573 79.3714 9.61838C79.8823 8.28052 80.7277 7.2599 81.9095 6.55652C83.0902 5.85419 84.691 5.50146 86.7119 5.50146C88.7327 5.50146 90.3732 5.85837 91.5655 6.57322C92.7577 7.28703 93.6093 8.30765 94.1203 9.63508C94.6312 10.9615 94.8862 12.5665 94.8862 14.4491V24.7231C94.8862 26.6058 94.6312 28.2223 94.1203 29.5706C93.6093 30.9199 92.7577 31.9572 91.5655 32.6836C90.3732 33.4089 88.7557 33.772 86.7119 33.772ZM86.7119 29.7229C87.4381 29.7229 87.972 29.5591 88.3127 29.2293C88.6533 28.9006 88.88 28.4592 88.9939 27.9029C89.1078 27.3467 89.1643 26.7519 89.1643 26.1163V13.0872C89.1643 12.4527 89.1078 11.8621 88.9939 11.3184C88.88 10.7736 88.6533 10.3374 88.3127 10.0087C87.972 9.67995 87.4381 9.51507 86.7119 9.51507C86.0306 9.51507 85.5196 9.67995 85.179 10.0087C84.8383 10.3374 84.6106 10.7736 84.4977 11.3184C84.3838 11.8631 84.3274 12.4527 84.3274 13.0872V26.1163C84.3274 26.7519 84.3786 27.3467 84.481 27.9029C84.5834 28.4592 84.8049 28.9006 85.1455 29.2293C85.4862 29.5591 86.0086 29.7229 86.7129 29.7229H86.7119Z" fill="#778C61"/>
<path d="M86.9137 64.4782C84.8699 64.4782 83.2513 64.0931 82.0601 63.3209C80.8679 62.5497 80.033 61.4789 79.5565 60.1066C79.08 58.7343 78.8418 57.1418 78.8418 55.327V45.4277C78.8418 43.5231 79.08 41.8847 79.5565 40.5124C80.033 39.1401 80.8679 38.0798 82.0601 37.3316C83.2524 36.5833 84.8699 36.2097 86.9137 36.2097C88.9576 36.2097 90.4392 36.5384 91.5636 37.1959C92.6868 37.8544 93.482 38.7842 93.947 39.9854C94.412 41.1876 94.645 42.5829 94.645 44.1701V46.4838H89.1947V43.8988C89.1947 43.2643 89.1603 42.6695 89.0923 42.1132C89.0244 41.557 88.8374 41.1041 88.5302 40.7524C88.224 40.4007 87.6953 40.2254 86.9461 40.2254C86.1969 40.2254 85.6515 40.407 85.3108 40.7702C84.9702 41.1333 84.7539 41.604 84.663 42.1821C84.5721 42.7603 84.5271 43.4021 84.5271 44.1044V56.6232C84.5271 57.3944 84.5888 58.0685 84.7142 58.6467C84.8385 59.2248 85.0768 59.6673 85.4289 59.9731C85.781 60.2788 86.2857 60.4322 86.9451 60.4322C87.6713 60.4322 88.1885 60.2569 88.4947 59.9052C88.8008 59.5535 88.9941 59.0839 89.0735 58.4933C89.1529 57.9036 89.1927 57.2806 89.1927 56.6221V53.9349H94.6429V56.2141C94.6429 57.8243 94.4151 59.2478 93.9616 60.4834C93.5071 61.72 92.7234 62.6947 91.6116 63.4096C90.4988 64.1234 88.9314 64.4813 86.9106 64.4813L86.9137 64.4782Z" fill="#C0A38B"/>
<path d="M78.2979 94.8274L83.6458 67.2717H89.8786L95.192 94.8274H89.981L88.9926 88.7715H84.6332L83.5768 94.8274H78.2969H78.2979ZM85.1442 85.3361H88.4482L86.7794 74.2126L85.1442 85.3361Z" fill="#778C61"/>
<path d="M67.2963 5.71313H26.0684V94.8859H67.2963V5.71313Z" fill="#E2C9B5"/>
<path d="M57.4559 81.3132L55.7046 73.1973L53.9544 81.3132L45.8281 83.0612L53.9544 84.8102L55.7046 92.9261L57.4559 84.8102L65.5832 83.0612L57.4559 81.3132Z" fill="#C0A38B"/>
<path d="M33.8629 76.4C33.4512 76.472 33.1869 76.878 33.2945 77.2808C33.4575 77.8913 33.7417 78.4037 34.2161 78.6949C35.1596 79.2751 36.2798 78.6239 36.7803 79.2574C37.0917 79.6508 36.9443 80.2634 36.7803 80.9438C36.5744 81.7964 36.2265 82.3359 35.9047 82.8807C34.539 85.1891 34.9736 85.3372 34.2788 86.0041C33.4784 86.7732 33.1691 86.3213 30.7763 87.3785C29.4398 87.9681 29.327 88.2019 27.8359 88.8155C26.7304 89.2705 26.1776 89.498 25.396 89.6274C23.8955 89.8768 22.6855 89.6274 21.8308 89.4396C21.4536 89.3571 20.1474 89.0503 18.5153 88.1904C16.1037 86.9204 15.8059 85.931 14.575 86.0041C13.4266 86.0719 13.3221 86.9548 12.0107 87.0038C10.8561 87.0466 9.49983 86.4205 9.25846 85.5042C9.04216 84.6861 9.85928 84.1841 9.63358 83.6926C9.14248 82.6229 5.02972 84.4805 3.94092 83.1927C2.94095 82.0103 4.86358 78.6082 6.75591 75.2584C8.6754 71.8615 10.1445 70.1667 9.4455 68.8237C9.03276 68.0316 8.00039 67.6183 7.31911 67.5119C6.06313 67.3157 5.45082 68.0744 3.37876 68.0744C2.82078 68.0744 2.02038 68.0671 1.87723 67.6997C1.8208 67.5536 1.87201 67.3637 2.75286 66.2627C3.37145 65.4894 3.68492 65.1002 3.87927 65.0135C4.74759 64.6222 5.33379 65.5092 6.44348 65.4508C7.83948 65.3767 9.45281 63.8395 9.32116 62.3274C9.20621 61.0031 7.80081 60.2308 7.63258 60.1411C5.77996 59.1559 3.70582 60.1891 3.56685 59.829C3.37563 59.3344 7.69319 58.462 9.19681 55.206C9.8039 53.89 9.53641 53.0865 10.5103 51.208C11.0296 50.2062 11.6283 49.4277 12.133 48.8642C12.3472 48.6252 12.692 48.5636 12.9783 48.7087C13.6251 49.0364 14.366 49.3442 15.2019 49.5842C19.0221 50.6821 22.393 49.6782 23.9593 49.0844C27.1567 48.141 28.4461 46.8772 29.0229 45.8691C29.2517 45.4694 29.7616 44.4874 30.4064 44.453C30.6195 44.4415 30.8598 44.6241 31.2162 45.0864C31.7428 45.77 33.3593 47.4209 33.8201 48.1535C34.3321 48.9664 35.029 49.1188 35.8106 48.572C37.4041 47.4564 39.1198 46.4963 40.5618 45.1845C41.2358 44.5709 41.963 44.1722 42.731 43.9771C43.2786 43.8372 43.9358 43.7788 45.1479 43.9833C47.0455 44.3037 49.0559 44.6429 50.4822 46.2114C50.7277 46.4817 51.1467 47.3917 51.9837 49.2096C51.9837 49.2096 52.6159 50.5829 53.5479 53.6448C53.6493 53.9787 53.7998 54.4891 53.736 55.1444C53.6597 55.9281 53.317 56.524 53.1728 56.7682C52.6775 57.6094 52.3578 57.5363 52.1718 58.08C51.9586 58.7041 52.2073 59.301 52.6096 60.2663C53.1968 61.6741 53.735 62.0195 53.5479 62.5778C53.4894 62.7511 53.1122 63.0287 52.3599 63.5776C51.478 64.2204 51.036 64.5419 50.9837 64.5773C49.8531 65.336 49.2899 65.7274 48.8573 65.8265C47.4624 66.1458 46.5993 65.1732 46.1051 65.6387C45.801 65.9256 45.8909 66.5184 46.0633 67.659C46.2242 68.7224 46.4206 68.8779 46.313 69.3246C46.1061 70.1866 44.5816 70.7052 44.4154 70.7616C41.8188 71.6371 41.0205 74.0426 36.7218 75.6341C36.0572 75.8803 35.0949 76.1861 33.866 76.4H33.8629Z" fill="#778C61"/>
<path d="M40.8884 1.8916C44.3283 5.07869 48.0878 7.88279 51.6969 10.8674C52.0177 11.1325 52.4545 11.2911 52.8631 11.4111C54.0177 11.7513 54.1441 12.4745 53.6279 13.4075C52.4315 15.5687 51.3103 17.7822 49.9697 19.8526C47.1892 24.1491 45.7284 28.7408 46.2864 33.8961C46.4348 35.2694 45.9353 35.7276 44.5613 35.6107C42.1872 35.4082 39.7223 34.6725 38.4684 34.4033C37.6952 34.2373 36.5458 34.0474 35.0902 34.0286C32.5239 27.8214 31.8667 24.7533 31.7747 23.0961C31.7486 22.6306 31.7162 21.3418 31.2115 19.7222C30.8186 18.4615 30.4508 17.9982 29.9608 16.7856C29.6849 16.1041 29.4832 15.4665 28.8971 12.5998C28.3192 9.7748 28.0559 8.1489 27.5909 5.68814C27.2649 3.95893 26.9765 2.54697 26.7832 1.6161C26.9776 1.16736 27.3652 0.95447 27.8072 0.934642C30.3056 0.821935 32.759 0.354412 35.2313 0.0434253C37.3953 -0.228949 39.1486 0.827153 40.8874 1.89265L40.8884 1.8916Z" fill="#778C61"/>
<path d="M64.6479 45.4569C61.9959 45.0145 59.3429 44.5762 56.692 44.1264C55.2688 43.8843 53.9554 43.9657 52.783 44.9873C52.3525 45.363 52.0505 45.4381 51.9418 45.4726C51.2783 45.6865 50.6482 45.1773 49.8562 44.7097C48.4362 43.8728 47.1551 43.5607 46.2283 43.3353C45.5146 43.1611 44.6808 42.9659 43.5836 43.04C42.1897 43.1339 41.1824 43.6088 40.9745 43.71C39.6725 44.3413 39.3193 45.0604 36.7207 47.0839C36.333 47.3855 35.8408 47.758 35.2191 47.709C34.6925 47.6672 34.2745 47.3385 33.7176 46.7092C32.3686 45.1846 31.4951 44.1963 31.5912 42.9607C31.703 41.5279 32.9788 41.5487 33.5932 39.712C34.2411 37.772 33.1711 36.6898 33.843 35.8383C34.6099 34.8677 36.567 35.5565 39.8752 36.1534C45.2962 37.1302 47.8374 36.91 50.5166 36.647C52.829 36.4195 54.622 35.113 56.5185 33.987C57.8591 33.1907 57.88 33.2147 58.2123 34.6914C58.6021 36.4248 58.9741 38.1623 59.3711 39.8936C59.4411 40.1994 59.346 40.6711 59.8392 40.693C60.1924 40.7086 60.3418 40.3789 60.4286 40.0846C61.0701 37.9087 62.6177 36.6241 64.6343 35.7976C66.535 35.3979 68.4482 35.0483 70.3312 34.5745C71.1368 34.372 71.3761 34.4941 71.4638 35.3447C71.5903 36.5688 71.304 37.533 70.3447 38.3335C69.4837 39.0525 68.6802 39.8414 67.862 40.6106C66.5935 41.8044 67.093 42.6601 65.698 44.3612C65.2926 44.8558 64.9102 45.2211 64.6479 45.4559V45.4569Z" fill="#778C61"/>
<path d="M64.9323 24.7793C62.9146 23.8755 62.8362 23.9131 61.8268 25.7717C61.4559 26.4553 61.063 27.1419 60.5761 27.743C59.7098 28.8117 58.0359 28.9672 56.9189 28.1928C56.3651 27.8088 56.4738 27.3068 56.5866 26.7955C56.9032 25.3637 57.2334 23.9361 57.6336 22.1703C55.7371 23.4518 54.0088 24.4652 52.4833 25.7769C51.313 26.7819 50.0225 26.9457 48.5899 26.4907C47.9975 26.3029 47.846 26.0368 48.1594 25.4524C50.3903 21.2885 52.6066 17.1152 54.8103 12.9367C55.1718 12.2522 55.6556 12.3836 56.2376 12.5464C59.1163 13.3531 62.0034 14.1327 64.8874 14.9227C66.6334 15.4288 68.369 15.9715 70.1286 16.4265C71.0774 16.6717 71.4912 17.1434 71.4661 18.1546C71.4212 20.0153 71.4379 21.8813 71.5204 23.7409C71.5685 24.8304 71.069 25.1904 70.0806 25.2687C68.3303 25.4085 66.6167 25.2823 64.9333 24.7793H64.9323Z" fill="#778C61"/>
<path d="M64.6243 34.9615C62.5805 35.2098 60.9713 36.0447 60.3297 38.5587C59.569 37.0131 59.4813 35.6763 59.2148 34.4063C58.6339 31.6335 58.6589 31.6168 56.2515 33.0152C53.9307 34.3635 51.7249 35.932 48.8034 35.7389C47.7783 35.6711 47.282 35.5072 47.3248 34.375C47.3959 32.4673 47.3718 30.5555 47.3645 28.6447C47.3603 27.7148 47.585 27.1931 48.6644 27.6314C50.0573 28.198 51.3101 27.7336 52.4804 26.9718C53.3529 26.4031 54.1878 25.7769 55.0509 25.1936C55.2515 25.0579 55.4761 24.8127 55.7447 24.989C56.0059 25.1602 55.9234 25.443 55.8492 25.6987C54.8231 29.2207 55.404 28.9212 58.6443 29.5202C60.5366 29.8698 60.848 29.659 61.8459 27.7107C62.4405 26.5481 62.9128 25.2353 64.6442 25.539C65.966 26.3405 67.3912 26.449 68.8959 26.2695C71.2762 25.9856 71.4789 26.2069 71.4413 28.6342C71.4277 29.5411 71.4392 30.448 71.4497 31.3548C71.4726 33.2051 71.4716 33.1905 69.6232 33.6518C67.9513 34.0692 66.2899 34.5242 64.6233 34.9625L64.6243 34.9615Z" fill="#778C61"/>
<path d="M64.606 48.2244C64.3092 49.125 64.0459 50.0392 63.7063 50.9231C63.3751 51.7851 62.7314 52.1211 61.8328 51.7705C58.7158 50.5579 55.8423 48.8391 52.8278 47.4125C52.3283 47.1767 52.0692 46.6966 52.6345 46.2959C53.6741 45.5591 54.624 44.7316 56.1516 45.053C58.9457 45.6405 61.7858 46.0131 64.606 46.4743C65.1065 47.0577 64.467 47.641 64.606 48.2234V48.2244Z" fill="#778C61"/>
<path d="M52.8604 48.5793C53.7162 48.9968 54.2407 49.2504 54.7632 49.5092C56.9732 50.6049 59.18 51.707 61.391 52.7985C62.0964 53.1471 62.6042 53.5416 61.971 54.3775C59.9334 57.0689 57.8948 59.7602 55.8698 62.461C55.4633 63.0037 55.2073 62.82 54.9158 62.3629C54.1645 61.1837 53.664 59.8959 53.2648 58.5674C53.0401 57.8181 53.5145 57.3141 54.0056 56.8915C55.2773 55.7967 55.4863 54.606 54.7047 53.0876C54.0234 51.7633 53.5616 50.3253 52.8594 48.5793H52.8604Z" fill="#778C61"/>
<path d="M5.68114 85.1016L7.75319 84.7342C8.22549 84.6508 8.64763 85.04 8.60061 85.5169L8.49821 86.5699C8.46582 86.8997 8.66122 87.2086 8.97365 87.3213C9.86286 87.6396 11.5744 88.2375 11.7583 88.1916C11.9548 88.1426 13.6214 87.4371 14.3246 87.1376C14.5221 87.0531 14.7468 87.0614 14.938 87.1595L16.7049 88.0633C16.9975 88.2125 17.1521 88.5391 17.0832 88.8606L16.7195 90.5397C16.707 90.5981 16.7018 90.6576 16.7039 90.7181C16.7269 91.361 16.8523 95.2566 16.45 95.314C16.0121 95.3767 13.8231 95.9391 13.3226 96.1886C12.9913 96.3534 12.332 98.2402 11.9234 99.4998C11.7573 100.012 11.1084 100.17 10.726 99.79C9.49819 98.5752 7.3624 96.4474 7.31747 96.3138C7.25477 96.1259 7.75528 92.9399 7.19208 93.3156C6.81487 93.5671 6.35406 93.9292 6.09074 94.1421C5.95386 94.2527 5.86295 94.4082 5.83265 94.5815L5.74174 95.1064C5.6592 95.5854 5.13465 95.8494 4.70102 95.6292C4.55368 95.5551 4.43143 95.5019 4.37709 95.5019C4.18901 95.5019 3.06365 96.6269 2.87556 96.6269C2.68748 96.6269 0.248663 96.0018 0.498396 95.9392C0.748129 95.8765 6.25375 90.5042 6.25375 89.6923C6.25375 89.1256 5.55262 87.1898 5.12943 86.0721C4.96851 85.6484 5.23392 85.183 5.68009 85.1037L5.68114 85.1016Z" fill="#778C61"/>
<path d="M33.2662 31.715L32.0217 28.2179C32.0112 28.1898 32.0029 28.1605 31.9956 28.1313C31.844 27.525 30.1795 20.8221 30.3383 20.3452C30.4815 19.9163 28.9068 16.8534 28.4554 15.9903C28.377 15.8411 28.3415 15.6752 28.3509 15.5072L28.4136 14.3853C28.4178 14.306 28.4126 14.2267 28.3969 14.1484L25.9737 2.20256C25.8912 1.7987 25.5537 1.49606 25.142 1.45849L24.6875 1.41675C24.3761 1.85609 24.0647 2.29544 23.7533 2.73479L26.0688 7.79093C26.1608 7.99129 26.1785 8.21775 26.119 8.4296L25.3426 11.2118C25.2277 11.624 25.4074 12.0613 25.7794 12.2731C26.0667 12.4369 26.2454 12.7396 26.2506 13.0704L26.4157 24.6374C26.4189 24.8263 26.3635 25.011 26.259 25.1686L23.6499 29.0779C23.4973 29.3054 23.2643 29.4441 23.0156 29.4828C22.6175 29.5443 22.3333 29.3252 22.2884 29.2897C21.9091 29.1217 21.4054 28.8483 20.8955 28.4058C20.1996 27.8016 19.7994 27.1483 19.582 26.7194C18.4765 26.782 17.3721 26.8446 16.2665 26.9072C16.487 27.5626 17.8287 31.5657 18.0115 33.1196C18.0251 33.2386 18.0471 33.4661 17.9489 33.7155C17.7555 34.206 17.1861 34.5493 15.6406 34.8426C14.8706 34.9887 10.7766 35.7077 10.3858 36.0291C10.3816 36.0323 10.3471 36.0615 10.297 36.1001C10.1047 36.2514 9.93545 36.361 9.81424 36.4351L6.91462 40.2963C6.96582 40.5896 7.03061 41.032 7.06091 41.5716C7.09435 42.1654 7.08599 42.779 6.88223 44.6501C6.82685 45.1584 6.74848 45.844 6.6419 46.6601C6.23648 47.5054 5.76 48.048 5.41205 48.3799C4.99826 48.7744 4.47476 49.101 3.44135 49.7731C3.04428 50.0319 2.70051 50.2416 2.44033 50.3982C2.23866 50.6361 1.94609 51.0337 1.75173 51.5847C1.41214 52.549 1.7486 52.9184 1.43931 53.6468C1.00149 54.6768 0.0255446 54.6466 0.000466838 55.3332C-0.0204313 55.9187 0.663983 56.5814 1.31392 56.7076C1.78621 56.7995 2.01087 56.5626 2.69006 56.7076C3.04742 56.7838 3.30342 56.9289 3.503 57.0197C4.01396 57.2545 4.35878 57.5916 4.56671 57.8316C6.70982 56.7233 7.69308 55.4407 8.19464 54.4577C8.68992 53.4872 8.66066 52.8088 9.59272 50.8354C10.3754 49.1793 10.3346 49.7553 10.8226 48.6241C11.0337 48.1336 11.205 47.6473 11.6804 47.4229C12.0368 47.2549 12.414 47.305 12.67 47.3707C13.3408 47.6859 14.2363 48.048 15.3251 48.335C15.6459 48.4195 17.1098 48.7931 18.7033 48.8349C19.4023 48.8526 22.5694 48.9361 25.584 47.0858C25.584 47.0858 28.2402 45.4558 31.9423 39.2569C31.9538 39.2371 31.9684 39.2079 31.9914 39.1734C32.261 38.7602 32.9976 37.4995 32.6737 35.9968C32.5985 35.6493 32.5243 35.6733 32.4919 35.4051C32.4072 34.7038 32.7824 34.0808 33.1251 33.6529L33.3142 32.1449C33.332 32.0009 33.3163 31.8538 33.2672 31.716L33.2662 31.715Z" fill="#778C61"/>
</svg>
