<svg width="189" height="89" viewBox="0 0 189 89" fill="none" xmlns="http://www.w3.org/2000/svg">
<path fill-rule="evenodd" clip-rule="evenodd" d="M30.1195 0H19.4223L18.6868 0.446291L19.0653 0.403743L20.911 16.9688L24.0686 32.4719L34.6584 34.3649L35.5604 25.8153L35.5727 25.699L35.6368 25.6014L44.1416 12.6549L44.9398 13.1836L36.7823 25.6013L39.6195 26.4334L45.4787 23.0491L46.5558 22.427L46.1718 23.6136L44.7709 27.9423L48.322 28.9681L50.9967 24.9393L51.2206 24.6019L51.5892 24.7672L54.8551 26.2313L59.3111 26.4723L59.3058 26.5712L60 18.6042L42.5498 12.0027L30.1195 0ZM59.231 27.4295L54.7153 27.1854L54.6269 27.1807L54.5461 27.1443L51.5682 25.8094L48.9237 29.793L48.7297 30.0851L48.3937 29.988L44.0312 28.7277L43.5557 28.5904L43.7086 28.118L44.8783 24.5036L39.9196 27.3678L39.7429 27.47L39.5472 27.4125L36.4493 26.504L35.6084 34.4731L39.8849 34.6826L46.0529 31.7921L46.6498 31.5124L46.7296 32.1691L47.4724 38.2861L49.2068 35.7372L49.3221 35.5677L49.524 35.5343L58.6065 34.0341L58.6385 34.2298L59.231 27.4295ZM58.5703 35.0132L49.8809 36.4485L47.5462 39.8797L46.8304 40.9316L46.6768 39.667L45.8601 32.9421L40.1819 35.603L40.0747 35.6533L39.9565 35.6475L35.5075 35.4294L35.501 35.4908L34.9959 35.4005L23.9332 33.423L20.1598 41.0017L22.8234 45.6701L31.1316 40.7556L31.3573 40.622L31.591 40.7412L38.6628 44.3504L41.6721 42.7835L41.833 42.6997L42.0088 42.7441L51.7584 45.2053L51.6315 45.7115L53.247 41.8894L58.3267 37.8085L58.5703 35.0132ZM51.4591 46.1199L41.9514 43.7197L39.2394 45.1318L39.4804 45.9199L39.583 45.7516L49.1322 51.6253L51.4591 46.1199ZM49.0937 51.7166L48.6454 52.4518L39.8175 47.0219L41.6921 53.1509L41.7735 53.4168L41.5844 53.6198L39.21 56.1702L40.8896 61.1193L48.8845 52.2117L49.0937 51.7166ZM40.1603 61.8299L40.1248 61.842L38.2123 56.2075L38.12 55.9351L38.3156 55.7248L40.6969 53.1671L38.2679 45.2259L31.3912 41.7164L22.8918 46.7441L22.4749 46.9907L22.2343 46.5691L19.4802 41.7423L13.7339 46.0907L13.6554 46.1501L13.5599 46.1737L9.31685 47.2168L9.23438 47.2371L9.14988 47.2276L0.170439 46.2158L5.67729 52.2117L3.46614 81.5583L0 88.3398L3.46614 89L10.3984 84.379L16.1952 85.6993L24.0239 81.5583L26.5339 71.116L32.0916 64.0944H37.7092L40.1603 61.8299ZM0.666932 45.3055L9.17199 46.2639L13.2369 45.2644L19.2241 40.7337L23.1638 32.821L19.9698 17.1401L19.9655 17.1188L19.963 17.0972L18.1446 0.775252L7.94821 6.96156L4.36255 41.2893L0.666932 45.3055Z" fill="#738F44"/>
<path d="M76.7093 44.4788C76.7093 46.5563 77.1354 48.4289 77.9876 50.0965C78.8538 51.7641 80.0414 53.0926 81.5502 54.0819C83.0591 55.057 84.7915 55.5446 86.7474 55.5446C88.7173 55.5446 90.4497 55.057 91.9446 54.0819C93.4535 53.0926 94.6341 51.7641 95.4862 50.0965C96.3384 48.4289 96.7646 46.5563 96.7646 44.4788C96.7646 42.4013 96.3384 40.5358 95.4862 38.8823C94.6341 37.2147 93.4535 35.8933 91.9446 34.9181C90.4497 33.943 88.7173 33.4554 86.7474 33.4554C84.7915 33.4554 83.0591 33.943 81.5502 34.9181C80.0414 35.8933 78.8538 37.2147 77.9876 38.8823C77.1354 40.5358 76.7093 42.4013 76.7093 44.4788ZM73 44.4788C73 42.4437 73.3423 40.5499 74.0269 38.7975C74.7254 37.0309 75.6964 35.4905 76.9398 34.1762C78.1832 32.8618 79.6362 31.8372 81.2987 31.1023C82.9753 30.3674 84.7915 30 86.7474 30C88.7173 30 90.5335 30.3674 92.1961 31.1023C93.8726 31.8372 95.3256 32.8618 96.555 34.1762C97.7985 35.4905 98.7625 37.0309 99.447 38.7975C100.132 40.5499 100.474 42.4437 100.474 44.4788C100.474 46.528 100.132 48.4359 99.447 50.2025C98.7764 51.9549 97.8194 53.4954 96.576 54.8238C95.3466 56.1382 93.9006 57.1628 92.238 57.8977C90.5754 58.6325 88.7453 59 86.7474 59C84.7496 59 82.9054 58.6325 81.2149 57.8977C79.5384 57.1628 78.0854 56.1382 76.856 54.8238C75.6265 53.4954 74.6765 51.9549 74.0059 50.2025C73.3353 48.4359 73 46.528 73 44.4788ZM108.444 59C107.676 59 107.012 58.7244 106.453 58.1732C105.908 57.608 105.636 56.9366 105.636 56.1594C105.636 55.3538 105.908 54.6754 106.453 54.1243C107.012 53.559 107.676 53.2763 108.444 53.2763C109.24 53.2763 109.911 53.559 110.456 54.1243C111.001 54.6754 111.273 55.3538 111.273 56.1594C111.273 56.9366 111.001 57.608 110.456 58.1732C109.911 58.7244 109.24 59 108.444 59ZM131.059 55.4174C132.777 55.4174 134.265 55.1771 135.522 54.6966C136.794 54.2162 137.695 53.7498 138.226 53.2975L139.798 56.4137C139.169 56.979 138.072 57.5514 136.507 58.1308C134.957 58.7103 133.092 59 130.912 59C128.872 59 126.979 58.6325 125.233 57.8977C123.486 57.1628 121.957 56.1382 120.643 54.8238C119.344 53.5095 118.324 51.9761 117.584 50.2237C116.857 48.4713 116.494 46.5775 116.494 44.5424C116.494 42.5073 116.857 40.6065 117.584 38.8399C118.31 37.0733 119.323 35.5329 120.622 34.2186C121.936 32.8901 123.466 31.8584 125.212 31.1235C126.972 30.3745 128.872 30 130.912 30C133.092 30 134.957 30.2897 136.507 30.8692C138.072 31.4486 139.169 32.021 139.798 32.5863L138.226 35.7025C137.695 35.2361 136.794 34.7697 135.522 34.3034C134.265 33.8229 132.777 33.5826 131.059 33.5826C129.494 33.5826 128.062 33.8511 126.763 34.3882C125.463 34.9252 124.332 35.6884 123.368 36.6776C122.418 37.6528 121.677 38.8046 121.146 40.133C120.63 41.4615 120.371 42.9101 120.371 44.4788C120.371 46.0616 120.63 47.5243 121.146 48.867C121.677 50.1954 122.418 51.3543 123.368 52.3436C124.332 53.3187 125.463 54.0747 126.763 54.6118C128.062 55.1489 129.494 55.4174 131.059 55.4174ZM147.901 59C147.133 59 146.469 58.7244 145.91 58.1732C145.365 57.608 145.093 56.9366 145.093 56.1594C145.093 55.3538 145.365 54.6754 145.91 54.1243C146.469 53.559 147.133 53.2763 147.901 53.2763C148.697 53.2763 149.368 53.559 149.913 54.1243C150.458 54.6754 150.73 55.3538 150.73 56.1594C150.73 56.9366 150.458 57.608 149.913 58.1732C149.368 58.7244 148.697 59 147.901 59ZM165.465 30.5088H169.196L179.422 58.4912H175.587L173.198 51.75H161.463L159.032 58.4912H155.197L165.465 30.5088ZM162.615 48.4854H172.067L167.372 34.9605H167.309L162.615 48.4854ZM186.171 59C185.403 59 184.739 58.7244 184.18 58.1732C183.635 57.608 183.363 56.9366 183.363 56.1594C183.363 55.3538 183.635 54.6754 184.18 54.1243C184.739 53.559 185.403 53.2763 186.171 53.2763C186.967 53.2763 187.638 53.559 188.183 54.1243C188.728 54.6754 189 55.3538 189 56.1594C189 56.9366 188.728 57.608 188.183 58.1732C187.638 58.7244 186.967 59 186.171 59Z" fill="#738F44"/>
</svg>
