<svg width="20" height="21" viewBox="0 0 20 21" fill="none" xmlns="http://www.w3.org/2000/svg">
<path d="M10 2.16667C14.595 2.16667 18.3333 5.905 18.3333 10.5C18.3333 15.095 14.595 18.8333 10 18.8333C5.405 18.8333 1.66667 15.095 1.66667 10.5C1.66667 5.905 5.405 2.16667 10 2.16667ZM10 0.5C4.4775 0.5 0 4.9775 0 10.5C0 16.0225 4.4775 20.5 10 20.5C15.5225 20.5 20 16.0225 20 10.5C20 4.9775 15.5225 0.5 10 0.5ZM11.0417 14.6667C11.0417 15.2417 10.5758 15.7083 10 15.7083C9.42583 15.7083 8.95833 15.2417 8.95833 14.6667C8.95833 14.0917 9.42583 13.625 10 13.625C10.5758 13.625 11.0417 14.0917 11.0417 14.6667ZM12.2025 6.335C11.6958 5.82167 10.94 5.53917 10.0767 5.53917C8.26 5.53917 7.085 6.83083 7.085 8.83083H8.76083C8.76083 7.5925 9.45167 7.15333 10.0425 7.15333C10.5708 7.15333 11.1317 7.50417 11.1792 8.175C11.2308 8.88083 10.8542 9.23917 10.3775 9.6925C9.20083 10.8117 9.17917 11.3533 9.18417 12.5825H10.855C10.8442 12.0292 10.88 11.58 11.6342 10.7675C12.1983 10.1592 12.9 9.4025 12.9142 8.24917C12.9233 7.47917 12.6775 6.81667 12.2025 6.335Z" fill="#444444"/>
</svg>
