<svg width="25" height="21" viewBox="0 0 25 21" fill="none" xmlns="http://www.w3.org/2000/svg">
<path fill-rule="evenodd" clip-rule="evenodd" d="M23.4012 21C23.0708 21 22.7341 20.8971 22.4355 20.6703L10.7927 11.76C10.4031 11.4618 10.1765 11.0019 10.1765 10.5189C10.1765 10.0317 10.4009 9.5739 10.7906 9.2757C11.6684 8.60157 12.8364 7.70442 14.1269 6.71314C16.8808 4.59791 20.1927 2.05406 22.4334 0.333899C22.732 0.104998 23.0687 0 23.4012 0C24.2228 0 25 0.640499 25 1.575L25 19.4271C25 20.3574 24.2249 21 23.4012 21ZM23.0588 18.6952L23.0588 2.31741L15.7362 8.00888V13.0154L23.0588 18.6952ZM13.795 11.5097V9.51765L12.5122 10.5147L13.795 11.5097ZM15.7362 1.575V5.00338L13.795 6.49438V2.31741L3.24845 10.5147L13.795 18.6952V14.5297L15.7362 16.0153V19.4271C15.7362 20.3574 14.9612 21 14.1374 21C13.807 21 13.4703 20.8971 13.1717 20.6703L1.52892 11.76C1.13927 11.4618 0.912685 11.0019 0.912685 10.5189C0.912685 10.0317 1.13715 9.5739 1.5268 9.2757L4.86316 6.71314L4.86925 6.70847C7.6219 4.59416 10.9305 2.0528 13.1696 0.333899C13.4682 0.104998 13.8049 0 14.1374 0C14.959 0 15.7362 0.640499 15.7362 1.575Z" fill="#738F44"/>
</svg>
