<svg width="54" height="54" viewBox="0 0 54 54" fill="none" xmlns="http://www.w3.org/2000/svg">
<rect width="54" height="54" rx="8" fill="white"/>
<path d="M32.955 34.5465C30.7365 36.4035 27.879 37.524 24.7635 37.524C17.718 37.524 12 31.806 12 24.762C12 17.718 17.718 12 24.7635 12C31.806 12 37.5255 17.718 37.5255 24.762C37.5255 27.879 36.405 30.738 34.548 32.9535L41.6715 40.0785C41.8905 40.2975 42 40.5855 42 40.875C42 41.7555 41.1945 42 40.875 42C40.587 42 40.299 41.8905 40.0785 41.67L32.955 34.5465ZM24.7635 14.2515C18.9615 14.2515 14.253 18.9615 14.253 24.762C14.253 30.5625 18.9615 35.2725 24.7635 35.2725C30.5625 35.2725 35.274 30.5625 35.274 24.762C35.274 18.9615 30.5625 14.2515 24.7635 14.2515Z" fill="black"/>
</svg>
