<!-- sprite.svg -->
<svg xmlns="http://www.w3.org/2000/svg" xmlns:xlink="http://www.w3.org/1999/xlink">
    <defs>
        <symbol id="loading" viewBox="0 0 24 24" stroke-width="1.5" stroke="currentColor" fill="none" stroke-linecap="round" stroke-linejoin="round">
            <path stroke="none" d="M0 0h24v24H0z" fill="none"/>
            <path d="M12 3a9 9 0 1 0 9 9" />
          </symbol>
        <symbol viewBox="0 0 157 76" id="logo-oca-full">
            <path d="M63.1286 25.2654C62.3401 25.2654 61.7146 25.1235 61.2533 24.8397C60.7921 24.5558 60.4622 24.1511 60.2625 23.6228C60.0628 23.0958 59.9629 22.4638 59.9629 21.7279V17.712C59.9629 16.9761 60.0628 16.3466 60.2625 15.8236C60.4622 15.3006 60.7921 14.9025 61.2533 14.6265C61.7146 14.3518 62.3388 14.2139 63.1286 14.2139C63.9183 14.2139 64.5583 14.3532 65.0235 14.6331C65.4887 14.9117 65.8211 15.3111 66.0209 15.8302C66.2206 16.3493 66.3205 16.9761 66.3205 17.712V21.7279C66.3205 22.4638 66.2206 23.0958 66.0209 23.6228C65.8211 24.1498 65.4887 24.5558 65.0235 24.8397C64.5583 25.1235 63.9262 25.2654 63.1286 25.2654ZM63.1286 23.6833C63.4124 23.6833 63.62 23.6189 63.7527 23.4901C63.8855 23.3613 63.9748 23.1891 64.0182 22.971C64.0629 22.7542 64.0852 22.5216 64.0852 22.2732V17.1811C64.0852 16.9327 64.0629 16.7028 64.0182 16.4899C63.9735 16.277 63.8855 16.1062 63.7527 15.9774C63.62 15.8486 63.4111 15.7842 63.1286 15.7842C62.8631 15.7842 62.6634 15.8486 62.5306 15.9774C62.3979 16.1062 62.3086 16.277 62.2652 16.4899C62.2205 16.7028 62.1982 16.9327 62.1982 17.1811V22.2732C62.1982 22.5216 62.2179 22.7542 62.2586 22.971C62.298 23.1878 62.3848 23.3613 62.5175 23.4901C62.6502 23.6189 62.8539 23.6833 63.1286 23.6833Z" fill="#778C61"/>
            <path d="M67.7826 25.1194V14.3503H70.508C70.9771 14.3503 71.4121 14.3898 71.8116 14.4699C72.2111 14.5501 72.5633 14.692 72.8681 14.8957C73.1743 15.0994 73.4082 15.3806 73.5725 15.7393C73.7367 16.0981 73.8182 16.5659 73.8182 17.1415C73.8182 17.5764 73.7565 17.9457 73.6316 18.2519C73.5068 18.5581 73.3307 18.7999 73.0994 18.976C72.8681 19.1534 72.5856 19.2729 72.2479 19.3347C72.6644 19.3965 73.014 19.5384 73.2978 19.7605C73.5817 19.9826 73.7946 20.2743 73.9365 20.6383C74.0784 21.0023 74.1494 21.4412 74.1494 21.955C74.1494 22.4964 74.081 22.9656 73.9431 23.3637C73.8051 23.7632 73.604 24.0904 73.3386 24.348C73.0731 24.6056 72.7446 24.7974 72.3543 24.9262C71.964 25.055 71.512 25.1194 70.9982 25.1194H67.7812H67.7826ZM69.9771 18.6974H70.5225C70.9035 18.6974 71.1913 18.6422 71.3871 18.5318C71.5816 18.4214 71.717 18.2532 71.7932 18.0259C71.8681 17.7998 71.9062 17.5226 71.9062 17.1954C71.9062 16.8682 71.851 16.604 71.7406 16.4043C71.6302 16.2045 71.462 16.0613 71.236 15.9719C71.01 15.8839 70.7235 15.8392 70.3779 15.8392H69.9784V18.6974H69.9771ZM69.9771 23.5766H70.5882C71.1375 23.5766 71.5159 23.44 71.7249 23.164C71.9325 22.8893 72.0376 22.4767 72.0376 21.9274C72.0376 21.5017 71.989 21.1626 71.8917 20.9103C71.7945 20.658 71.6368 20.4714 71.42 20.3518C71.2032 20.2322 70.9127 20.1718 70.5487 20.1718H69.9771V23.5753V23.5766Z" fill="#778C61"/>
            <path d="M78.2063 25.2654C77.5414 25.2654 76.9869 25.1432 76.544 24.9001C76.1012 24.6556 75.7661 24.289 75.54 23.7962C75.314 23.3048 75.1826 22.6779 75.1484 21.9144L77.0368 21.5951C77.0539 22.038 77.1012 22.4085 77.1761 22.7055C77.251 23.0025 77.3666 23.2246 77.5217 23.3705C77.6768 23.5163 77.8699 23.5899 78.0999 23.5899C78.3837 23.5899 78.5769 23.5019 78.6781 23.3245C78.7793 23.1471 78.8305 22.9434 78.8305 22.7134C78.8305 22.2614 78.7215 21.8829 78.5046 21.5767C78.2878 21.2705 78.0013 20.963 77.6465 20.6529L76.5296 19.6818C76.1301 19.3454 75.8055 18.9643 75.5519 18.5385C75.2996 18.1128 75.1734 17.5897 75.1734 16.9695C75.1734 16.0838 75.4323 15.4031 75.9513 14.9287C76.4704 14.4543 77.1813 14.2178 78.0854 14.2178C78.6255 14.2178 79.0697 14.3058 79.4153 14.4832C79.7609 14.6606 80.029 14.8972 80.2195 15.1941C80.4101 15.4911 80.5428 15.8144 80.619 16.1653C80.6939 16.5161 80.7412 16.8631 80.7583 17.2087L78.8831 17.4872C78.8647 17.16 78.8371 16.8709 78.7964 16.6226C78.7569 16.3742 78.6768 16.1797 78.5572 16.0378C78.4376 15.8959 78.2576 15.8249 78.0184 15.8249C77.7609 15.8249 77.5703 15.9208 77.4468 16.1114C77.322 16.3019 77.2602 16.5122 77.2602 16.7435C77.2602 17.1246 77.3469 17.4373 77.5191 17.6804C77.6925 17.9248 77.9291 18.1785 78.23 18.4452L79.3207 19.4019C79.7727 19.7922 80.1604 20.2377 80.4837 20.7383C80.8069 21.239 80.9686 21.8579 80.9686 22.5925C80.9686 23.0971 80.8529 23.5544 80.623 23.9618C80.393 24.3692 80.071 24.6885 79.6584 24.9185C79.2458 25.1484 78.7609 25.2641 78.2024 25.2641L78.2063 25.2654Z" fill="#778C61"/>
            <path d="M81.9551 25.1194V14.3503H86.649V15.8655H84.1496V18.7237H86.0774V20.2533H84.1496V23.6305H86.6753V25.1194H81.9551Z" fill="#778C61"/>
            <path d="M87.7793 25.1194V14.3503H90.5718C91.2984 14.3503 91.9213 14.4318 92.4404 14.5961C92.9595 14.7603 93.3576 15.0508 93.6375 15.4673C93.9161 15.8839 94.0567 16.4608 94.0567 17.1954C94.0567 17.6382 94.0186 18.0311 93.9437 18.3715C93.8688 18.7131 93.7348 19.0101 93.5442 19.2624C93.3537 19.5147 93.0856 19.7171 92.74 19.8669L94.2289 25.1194H91.9818L90.7452 20.2401H89.9738V25.1194H87.7806H87.7793ZM89.9738 18.9365H90.6125C90.9673 18.9365 91.2459 18.8787 91.4496 18.7631C91.6533 18.6474 91.7978 18.4727 91.8819 18.2374C91.966 18.0022 92.0081 17.7118 92.0081 17.3662C92.0081 16.8695 91.9174 16.491 91.736 16.2295C91.5547 15.968 91.2157 15.8379 90.7189 15.8379H89.9738V18.9352V18.9365Z" fill="#778C61"/>
            <path d="M96.979 25.1194L94.9316 14.3503H96.8331L98.1091 21.796L99.3063 14.3503H101.288L99.2406 25.1194H96.9803H96.979Z" fill="#778C61"/>
            <path d="M101.459 25.1194L103.547 14.3503H105.979L108.053 25.1194H106.019L105.634 22.7527H103.932L103.519 25.1194H101.459ZM104.132 21.4097H105.421L104.769 17.0626L104.131 21.4097H104.132Z" fill="#778C61"/>
            <path d="M109.612 25.1194V15.9851H107.949V14.3503H113.454V15.9851H111.819V25.1194H109.612Z" fill="#778C61"/>
            <path d="M117.347 25.2653C116.559 25.2653 115.933 25.1234 115.472 24.8395C115.011 24.5557 114.681 24.1509 114.481 23.6227C114.282 23.0957 114.182 22.4636 114.182 21.7278V17.7119C114.182 16.976 114.282 16.3465 114.481 15.8235C114.681 15.3005 115.011 14.9023 115.472 14.6264C115.933 14.3517 116.558 14.2137 117.347 14.2137C118.137 14.2137 118.777 14.353 119.242 14.6329C119.707 14.9115 120.04 15.311 120.24 15.8301C120.439 16.3492 120.539 16.976 120.539 17.7119V21.7278C120.539 22.4636 120.439 23.0957 120.24 23.6227C120.04 24.1496 119.707 24.5557 119.242 24.8395C118.777 25.1234 118.145 25.2653 117.347 25.2653ZM117.347 23.6831C117.631 23.6831 117.839 23.6187 117.972 23.49C118.104 23.3612 118.194 23.189 118.237 22.9709C118.282 22.7541 118.304 22.5215 118.304 22.2731V17.181C118.304 16.9326 118.282 16.7026 118.237 16.4898C118.192 16.2769 118.104 16.106 117.972 15.9773C117.839 15.8485 117.63 15.7841 117.347 15.7841C117.082 15.7841 116.882 15.8485 116.749 15.9773C116.617 16.106 116.527 16.2769 116.484 16.4898C116.439 16.7026 116.417 16.9326 116.417 17.181V22.2731C116.417 22.5215 116.437 22.7541 116.477 22.9709C116.517 23.1877 116.604 23.3612 116.736 23.49C116.869 23.6187 117.073 23.6831 117.347 23.6831ZM116.722 13.5396L117.546 10.8799H119.58L117.945 13.5396H116.722Z" fill="#778C61"/>
            <path d="M122.002 25.1194V14.3503H124.794C125.521 14.3503 126.144 14.4318 126.663 14.5961C127.182 14.7603 127.58 15.0508 127.86 15.4673C128.139 15.8839 128.279 16.4608 128.279 17.1954C128.279 17.6382 128.241 18.0311 128.166 18.3715C128.091 18.7131 127.957 19.0101 127.767 19.2624C127.576 19.5147 127.308 19.7171 126.963 19.8669L128.452 25.1194H126.204L124.968 20.2401H124.196V25.1194H122.003H122.002ZM124.196 18.9365H124.835C125.19 18.9365 125.469 18.8787 125.672 18.7631C125.876 18.6474 126.02 18.4727 126.105 18.2374C126.189 18.0022 126.231 17.7118 126.231 17.3662C126.231 16.8695 126.14 16.491 125.959 16.2295C125.777 15.968 125.438 15.8379 124.942 15.8379H124.196V18.9352V18.9365Z" fill="#778C61"/>
            <path d="M129.74 25.1194V14.3503H131.92V25.1194H129.74Z" fill="#778C61"/>
            <path d="M136.574 25.2654C135.785 25.2654 135.16 25.1235 134.699 24.8397C134.237 24.5558 133.908 24.1511 133.708 23.6228C133.508 23.0958 133.408 22.4638 133.408 21.7279V17.712C133.408 16.9761 133.508 16.3466 133.708 15.8236C133.908 15.3006 134.237 14.9025 134.699 14.6265C135.16 14.3518 135.784 14.2139 136.574 14.2139C137.364 14.2139 138.004 14.3532 138.469 14.6331C138.934 14.9117 139.266 15.3111 139.466 15.8302C139.666 16.3493 139.766 16.9761 139.766 17.712V21.7279C139.766 22.4638 139.666 23.0958 139.466 23.6228C139.266 24.1498 138.934 24.5558 138.469 24.8397C138.004 25.1235 137.372 25.2654 136.574 25.2654ZM136.574 23.6833C136.858 23.6833 137.065 23.6189 137.198 23.4901C137.331 23.3613 137.42 23.1891 137.463 22.971C137.508 22.7542 137.531 22.5216 137.531 22.2732V17.1811C137.531 16.9327 137.508 16.7028 137.463 16.4899C137.419 16.277 137.331 16.1062 137.198 15.9774C137.065 15.8486 136.856 15.7842 136.574 15.7842C136.308 15.7842 136.109 15.8486 135.976 15.9774C135.843 16.1062 135.754 16.277 135.71 16.4899C135.666 16.7028 135.643 16.9327 135.643 17.1811V22.2732C135.643 22.5216 135.663 22.7542 135.704 22.971C135.743 23.1878 135.83 23.3613 135.963 23.4901C136.096 23.6189 136.299 23.6833 136.574 23.6833Z" fill="#778C61"/>
            <path d="M60.1244 41.4931V30.7241H62.7565C63.6698 30.7241 64.3807 30.8411 64.8906 31.0763C65.4005 31.3115 65.7618 31.6795 65.9747 32.1801C66.1876 32.6808 66.294 33.3221 66.294 34.1014V38.0239C66.294 38.8216 66.1876 39.4773 65.9747 39.9911C65.7618 40.5049 65.4044 40.8847 64.9037 41.1278C64.4031 41.3723 63.7053 41.4931 62.8091 41.4931H60.123H60.1244ZM62.3176 39.9635H62.7828C63.1901 39.9635 63.4806 39.8991 63.654 39.7704C63.8275 39.6416 63.9352 39.451 63.9799 39.1987C64.0246 38.9464 64.0469 38.6337 64.0469 38.2618V33.8214C64.0469 33.4496 64.018 33.1499 63.9602 32.9239C63.9024 32.6979 63.7868 32.5323 63.6146 32.4259C63.4411 32.3194 63.1599 32.2669 62.771 32.2669H62.3189V39.9649L62.3176 39.9635Z" fill="#778C61"/>
            <path d="M67.0918 41.4931L69.1799 30.7241H71.6123L73.6859 41.4931H71.6517L71.2667 39.1265H69.5649L69.1523 41.4931H67.0918ZM69.7634 37.7835H71.0525L70.4007 33.4364L69.762 37.7835H69.7634Z" fill="#778C61"/>
            <path d="M81.0125 41.639C80.2149 41.639 79.5828 41.4879 79.1176 41.187C78.6524 40.886 78.3265 40.4668 78.1399 39.9307C77.9533 39.3945 77.8613 38.7717 77.8613 38.062V34.1933C77.8613 33.4482 77.9546 32.8083 78.1399 32.2721C78.3265 31.736 78.6524 31.322 79.1176 31.029C79.5828 30.736 80.2149 30.5901 81.0125 30.5901C81.8102 30.5901 82.3884 30.7189 82.8273 30.9751C83.2662 31.2327 83.5763 31.5954 83.7577 32.0658C83.939 32.5363 84.0297 33.0803 84.0297 33.7006V34.6047H81.9022V33.5941C81.9022 33.3457 81.889 33.1132 81.8628 32.8963C81.8365 32.6795 81.7629 32.5021 81.6433 32.3641C81.5237 32.2275 81.3174 32.1578 81.0257 32.1578C80.7339 32.1578 80.5211 32.2288 80.387 32.3707C80.2543 32.5126 80.1702 32.6966 80.1347 32.9226C80.0992 33.1486 80.0821 33.3996 80.0821 33.6743V38.5667C80.0821 38.8676 80.1058 39.1317 80.1557 39.3577C80.2044 39.5838 80.2977 39.7572 80.4343 39.8768C80.571 39.9964 80.7681 40.0568 81.0257 40.0568C81.3095 40.0568 81.5106 39.9885 81.6302 39.8505C81.7497 39.7139 81.8246 39.5299 81.8562 39.2986C81.8877 39.0686 81.9022 38.8242 81.9022 38.568V37.518H84.0297V38.409C84.0297 39.0384 83.9417 39.5943 83.7642 40.0779C83.5868 40.5615 83.2807 40.9425 82.847 41.2211C82.412 41.4997 81.801 41.6403 81.0125 41.6403V41.639Z" fill="#778C61"/>
            <path d="M84.8418 41.4931L86.9299 30.7241H89.3623L91.4359 41.4931H89.4017L89.0167 39.1265H87.3149L86.9023 41.4931H84.8418ZM87.5134 37.7835H88.8025L88.1507 33.4364L87.512 37.7835H87.5134Z" fill="#778C61"/>
            <path d="M91.9941 41.4931L94.0822 30.7241H96.5146L98.5883 41.4931H96.5541L96.169 39.1265H94.4673L94.0546 41.4931H91.9941ZM94.667 37.7835H95.9561L95.3044 33.4364L94.6657 37.7835H94.667Z" fill="#778C61"/>
            <path d="M100.145 41.4931V32.3589H98.4824V30.7241H103.987V32.3589H102.352V41.4931H100.145Z" fill="#778C61"/>
            <path d="M104.984 41.4931V30.7241H107.164V41.4931H104.984Z" fill="#778C61"/>
            <path d="M108.812 41.4931V30.7241H110.342L112.735 36.3353V30.7241H114.543V41.4931H113.081L110.688 35.5363V41.4931H108.812Z" fill="#778C61"/>
            <path d="M118.93 41.6521C118.204 41.6521 117.627 41.4996 117.202 41.1934C116.776 40.8873 116.473 40.4536 116.292 39.8912C116.11 39.3287 116.02 38.6743 116.02 37.9305V34.3273C116.02 33.5559 116.113 32.891 116.298 32.3325C116.485 31.774 116.811 31.3443 117.276 31.0434C117.741 30.7424 118.373 30.5913 119.171 30.5913C119.968 30.5913 120.552 30.7201 120.999 30.9763C121.445 31.2339 121.767 31.5966 121.962 32.067C122.156 32.5375 122.255 33.096 122.255 33.7425V34.368H120.114V33.6098C120.114 33.3259 120.096 33.0763 120.062 32.8581C120.026 32.6413 119.945 32.4705 119.816 32.3456C119.687 32.2221 119.481 32.159 119.198 32.159C118.916 32.159 118.692 32.2339 118.56 32.3851C118.427 32.5362 118.343 32.728 118.307 32.9633C118.272 33.1985 118.253 33.4482 118.253 33.7149V38.4877C118.253 38.7886 118.28 39.0593 118.334 39.2985C118.386 39.5377 118.486 39.7243 118.633 39.857C118.78 39.9897 118.989 40.0567 119.265 40.0567C119.541 40.0567 119.753 39.9858 119.904 39.8439C120.055 39.7019 120.159 39.5088 120.217 39.2657C120.275 39.0226 120.303 38.7453 120.303 38.4352V37.2919H119.254V35.962H122.285V41.4931H120.849L120.716 40.5219C120.574 40.8505 120.361 41.1199 120.077 41.3327C119.794 41.5456 119.413 41.6521 118.934 41.6521H118.93Z" fill="#778C61"/>
            <path d="M123.252 41.4931L125.34 30.7241H127.772L129.846 41.4931H127.812L127.427 39.1265H125.725L125.312 41.4931H123.252ZM125.925 37.7835H127.214L126.562 33.4364L125.924 37.7835H125.925Z" fill="#778C61"/>
            <path d="M60.123 57.8655V47.0964H64.817V48.6116H62.3176V51.4698H64.2454V52.9994H62.3176V56.3766H64.8433V57.8655H60.123Z" fill="#E2C9B5"/>
            <path d="M69.2708 57.8655V47.0964H71.903C72.8163 47.0964 73.5272 47.2134 74.0371 47.4486C74.5469 47.6838 74.9083 48.0518 75.1212 48.5525C75.3341 49.0531 75.4405 49.6944 75.4405 50.4737V54.3962C75.4405 55.1939 75.3341 55.8496 75.1212 56.3635C74.9083 56.8773 74.5509 57.257 74.0502 57.5001C73.5495 57.7446 72.8518 57.8655 71.9555 57.8655H69.2695H69.2708ZM71.4641 56.3372H71.9293C72.3366 56.3372 72.627 56.2728 72.8005 56.144C72.974 56.0152 73.0817 55.8247 73.1264 55.5724C73.1711 55.3201 73.1934 55.0073 73.1934 54.6354V50.1951C73.1934 49.8232 73.1645 49.5236 73.1067 49.2975C73.0489 49.0715 72.9332 48.9059 72.7611 48.7995C72.5876 48.6931 72.3064 48.6405 71.9174 48.6405H71.4654V56.3385L71.4641 56.3372Z" fill="#E2C9B5"/>
            <path d="M76.8887 57.8655V47.0964H81.5826V48.6116H79.0832V51.4698H81.011V52.9994H79.0832V56.3766H81.6089V57.8655H76.8887Z" fill="#E2C9B5"/>
            <path d="M85.5032 58.0112C84.8383 58.0112 84.2837 57.889 83.8409 57.6459C83.398 57.4015 83.0629 57.0349 82.8369 56.5421C82.6109 56.0506 82.4795 55.4238 82.4453 54.6603L84.3337 54.341C84.3508 54.7838 84.3981 55.1544 84.473 55.4514C84.5479 55.7484 84.6635 55.9704 84.8186 56.1163C84.9736 56.2622 85.1668 56.3358 85.3968 56.3358C85.6806 56.3358 85.8738 56.2477 85.975 56.0703C86.0762 55.8929 86.1274 55.6892 86.1274 55.4593C86.1274 55.0072 86.0183 54.6288 85.8015 54.3226C85.5847 54.0164 85.2982 53.7089 84.9434 53.3988L83.8264 52.4276C83.4269 52.0912 83.1024 51.7101 82.8487 51.2844C82.5964 50.8586 82.4703 50.3356 82.4703 49.7153C82.4703 48.8296 82.7292 48.1489 83.2482 47.6745C83.7673 47.2002 84.4782 46.9636 85.3823 46.9636C85.9224 46.9636 86.3666 47.0517 86.7122 47.2291C87.0578 47.4065 87.3259 47.643 87.5164 47.94C87.707 48.237 87.8397 48.5602 87.9159 48.9111C87.9908 49.262 88.0381 49.6089 88.0552 49.9545L86.18 50.2331C86.1616 49.9059 86.134 49.6168 86.0932 49.3684C86.0538 49.1201 85.9737 48.9256 85.8541 48.7836C85.7345 48.6417 85.5545 48.5708 85.3153 48.5708C85.0577 48.5708 84.8672 48.6667 84.7437 48.8572C84.6188 49.0478 84.5571 49.258 84.5571 49.4893C84.5571 49.8704 84.6438 50.1832 84.8159 50.4263C84.9894 50.6707 85.2259 50.9243 85.5269 51.1911L86.6176 52.1477C87.0696 52.538 87.4573 52.9835 87.7806 53.4842C88.1038 53.9848 88.2655 54.6038 88.2655 55.3384C88.2655 55.843 88.1498 56.3003 87.9198 56.7077C87.6899 57.115 87.3679 57.4343 86.9553 57.6643C86.5427 57.8943 86.0578 58.0099 85.4993 58.0099L85.5032 58.0112Z" fill="#E2C9B5"/>
            <path d="M89.252 57.8655V47.0964H93.9459V48.6116H91.4465V51.4698H93.3743V52.9994H91.4465V56.3766H93.9722V57.8655H89.252Z" fill="#E2C9B5"/>
            <path d="M95.0762 57.8655V47.0964H97.8686C98.5953 47.0964 99.2182 47.1779 99.7373 47.3422C100.256 47.5064 100.655 47.7968 100.934 48.2134C101.213 48.63 101.354 49.2069 101.354 49.9415C101.354 50.3843 101.316 50.7772 101.241 51.1176C101.166 51.4592 101.032 51.7562 100.841 52.0085C100.651 52.2608 100.382 52.4632 100.037 52.613L101.526 57.8655H99.2787L98.0421 52.9862H97.2707V57.8655H95.0775H95.0762ZM97.2694 51.6826H97.908C98.2629 51.6826 98.5414 51.6248 98.7451 51.5092C98.9488 51.3935 99.0934 51.2188 99.1775 50.9835C99.2616 50.7483 99.3036 50.4579 99.3036 50.1123C99.3036 49.6156 99.2129 49.2371 99.0316 48.9756C98.8503 48.7141 98.5112 48.584 98.0145 48.584H97.2694V51.6813V51.6826Z" fill="#E2C9B5"/>
            <path d="M103.758 57.8655V48.7312H102.096V47.0964H107.6V48.7312H105.966V57.8655H103.758Z" fill="#E2C9B5"/>
            <path d="M108.598 57.8655V47.0964H110.778V57.8655H108.598Z" fill="#E2C9B5"/>
            <path d="M112.426 57.8655V47.0964H116.973V48.5853H114.619V51.4973H116.614V53.027H114.619V57.8668H112.426V57.8655Z" fill="#E2C9B5"/>
            <path d="M118.051 57.8655V47.0964H120.231V57.8655H118.051Z" fill="#E2C9B5"/>
            <path d="M124.872 58.0113C124.074 58.0113 123.442 57.8602 122.977 57.5593C122.512 57.2584 122.186 56.8392 121.999 56.303C121.813 55.7669 121.721 55.144 121.721 54.4344V50.5657C121.721 49.8206 121.814 49.1806 121.999 48.6444C122.186 48.1083 122.512 47.6944 122.977 47.4013C123.442 47.1083 124.074 46.9624 124.872 46.9624C125.67 46.9624 126.248 47.0912 126.687 47.3474C127.126 47.605 127.436 47.9677 127.617 48.4381C127.798 48.9086 127.889 49.4526 127.889 50.0729V50.977H125.762V49.9664C125.762 49.7181 125.748 49.4855 125.722 49.2686C125.696 49.0518 125.622 48.8744 125.503 48.7364C125.383 48.5998 125.177 48.5301 124.885 48.5301C124.593 48.5301 124.38 48.6011 124.246 48.743C124.114 48.8849 124.03 49.0689 123.994 49.2949C123.959 49.5209 123.942 49.7719 123.942 50.0466V54.939C123.942 55.2399 123.965 55.504 124.015 55.7301C124.064 55.9561 124.157 56.1295 124.294 56.2491C124.43 56.3687 124.627 56.4292 124.885 56.4292C125.169 56.4292 125.37 56.3608 125.49 56.2228C125.609 56.0862 125.684 55.9022 125.716 55.6709C125.747 55.441 125.762 55.1965 125.762 54.9403V53.8903H127.889V54.7813C127.889 55.4107 127.801 55.9666 127.624 56.4502C127.446 56.9338 127.14 57.3149 126.706 57.5934C126.271 57.872 125.66 58.0126 124.872 58.0126V58.0113Z" fill="#E2C9B5"/>
            <path d="M128.701 57.8655L130.789 47.0964H133.222L135.295 57.8655H133.261L132.876 55.4988H131.174L130.762 57.8655H128.701ZM131.374 54.1558H132.663L132.011 49.8087L131.373 54.1558H131.374Z" fill="#E2C9B5"/>
            <path d="M139.337 58.0113C138.539 58.0113 137.907 57.8602 137.442 57.5593C136.977 57.2584 136.651 56.8392 136.464 56.303C136.278 55.7669 136.186 55.144 136.186 54.4344V50.5657C136.186 49.8206 136.279 49.1806 136.464 48.6444C136.651 48.1083 136.977 47.6944 137.442 47.4013C137.907 47.1083 138.539 46.9624 139.337 46.9624C140.134 46.9624 140.713 47.0912 141.152 47.3474C141.59 47.605 141.901 47.9677 142.082 48.4381C142.263 48.9086 142.354 49.4526 142.354 50.0729V50.977H140.226V49.9664C140.226 49.7181 140.213 49.4855 140.187 49.2686C140.161 49.0518 140.087 48.8744 139.968 48.7364C139.848 48.5998 139.642 48.5301 139.35 48.5301C139.058 48.5301 138.845 48.6011 138.711 48.743C138.579 48.8849 138.494 49.0689 138.459 49.2949C138.423 49.5209 138.406 49.7719 138.406 50.0466V54.939C138.406 55.2399 138.43 55.504 138.48 55.7301C138.529 55.9561 138.622 56.1295 138.759 56.2491C138.895 56.3687 139.092 56.4292 139.35 56.4292C139.634 56.4292 139.835 56.3608 139.954 56.2228C140.074 56.0862 140.149 55.9022 140.18 55.6709C140.212 55.441 140.226 55.1965 140.226 54.9403V53.8903H142.354V54.7813C142.354 55.4107 142.266 55.9666 142.088 56.4502C141.911 56.9338 141.605 57.3149 141.171 57.5934C140.736 57.872 140.125 58.0126 139.337 58.0126V58.0113ZM139.471 61.4293C139.303 61.4293 139.134 61.4162 138.966 61.3899C138.798 61.3636 138.634 61.3229 138.475 61.2703V60.3925C138.581 60.4188 138.698 60.4437 138.827 60.4661C138.956 60.4884 139.086 60.4989 139.218 60.4989C139.448 60.4989 139.644 60.4608 139.803 60.3859C139.962 60.311 140.042 60.1888 140.042 60.0206C140.042 59.8524 139.982 59.7197 139.862 59.6211C139.743 59.5239 139.592 59.4529 139.41 59.4082C139.229 59.3635 139.036 59.3333 138.832 59.3149V57.8655H139.604V58.717C140.136 58.717 140.56 58.8274 140.879 59.0495C141.199 59.2715 141.358 59.604 141.358 60.0469C141.358 60.3741 141.271 60.6408 141.099 60.8445C140.925 61.0482 140.696 61.1967 140.408 61.29C140.12 61.3833 139.807 61.4293 139.471 61.4293Z" fill="#E2C9B5"/>
            <path d="M143.166 57.8654L145.254 47.0963H147.687L149.76 57.8654H147.726L147.341 55.4987H145.639L145.227 57.8654H143.166ZM147.541 45.8059C147.309 45.8059 147.102 45.7533 146.915 45.6469C146.729 45.5404 146.551 45.4366 146.383 45.3341C146.215 45.2329 146.041 45.1817 145.864 45.1817C145.677 45.1817 145.551 45.2329 145.485 45.3341C145.418 45.4366 145.386 45.5667 145.386 45.7257H144.401C144.401 45.3801 144.434 45.0726 144.501 44.8019C144.568 44.5312 144.688 44.3183 144.86 44.1633C145.033 44.0082 145.27 43.9307 145.571 43.9307C145.793 43.9307 145.99 43.9793 146.162 44.0765C146.336 44.1738 146.505 44.2736 146.675 44.3761C146.843 44.4786 147.02 44.5286 147.207 44.5286C147.358 44.5286 147.466 44.4826 147.533 44.3893C147.6 44.296 147.633 44.1698 147.633 44.0108H148.55C148.55 44.2947 148.53 44.5733 148.489 44.8479C148.45 45.1226 148.357 45.3512 148.211 45.5325C148.065 45.7139 147.84 45.8046 147.539 45.8046L147.541 45.8059ZM145.839 54.1557H147.128L146.476 49.8086L145.838 54.1557H145.839Z" fill="#E2C9B5"/>
            <path d="M153.711 58.0113C152.922 58.0113 152.297 57.8694 151.835 57.5855C151.374 57.3017 151.044 56.8969 150.845 56.3687C150.645 55.8417 150.545 55.2096 150.545 54.4737V50.4578C150.545 49.722 150.645 49.0925 150.845 48.5695C151.044 48.0465 151.374 47.6483 151.835 47.3723C152.297 47.0977 152.921 46.9597 153.711 46.9597C154.5 46.9597 155.14 47.099 155.606 47.3789C156.071 47.6575 156.403 48.057 156.603 48.5761C156.803 49.0951 156.903 49.722 156.903 50.4578V54.4737C156.903 55.2096 156.803 55.8417 156.603 56.3687C156.403 56.8956 156.071 57.3017 155.606 57.5855C155.14 57.8694 154.508 58.0113 153.711 58.0113ZM153.711 56.4291C153.994 56.4291 154.202 56.3647 154.335 56.2359C154.467 56.1071 154.557 55.935 154.6 55.7169C154.645 55.5 154.667 55.2674 154.667 55.0191V49.927C154.667 49.6786 154.645 49.4486 154.6 49.2357C154.556 49.0229 154.467 48.852 154.335 48.7232C154.202 48.5945 153.993 48.5301 153.711 48.5301C153.445 48.5301 153.245 48.5945 153.113 48.7232C152.98 48.852 152.891 49.0229 152.847 49.2357C152.803 49.4486 152.78 49.6786 152.78 49.927V55.0191C152.78 55.2674 152.8 55.5 152.841 55.7169C152.88 55.9337 152.967 56.1071 153.1 56.2359C153.232 56.3647 153.436 56.4291 153.711 56.4291Z" fill="#E2C9B5"/>
            <path d="M51.5274 3.90698H19.9746V72.24H51.5274V3.90698Z" fill="#E2C9B5"/>
            <path d="M43.9967 61.839L42.6577 55.6194L41.3173 61.839L35.0977 63.1781L41.3173 64.5185L42.6577 70.7381L43.9967 64.5185L50.2163 63.1781L43.9967 61.839Z" fill="#C0A38B"/>
            <path d="M25.7036 58.0636C25.3908 58.1175 25.1911 58.4263 25.2726 58.7325C25.3961 59.1964 25.6129 59.5853 25.9717 59.8074C26.6878 60.249 27.5381 59.7535 27.9178 60.2345C28.1544 60.5341 28.0427 60.9993 27.9178 61.5171C27.7615 62.1649 27.4973 62.5749 27.2529 62.9889C26.2161 64.7432 26.5459 64.8562 26.019 65.3634C25.4119 65.9482 25.1766 65.6052 23.3606 66.4081C22.3461 66.8562 22.2606 67.0336 21.1292 67.5001C20.2908 67.8458 19.8703 68.0192 19.2776 68.1178C18.1383 68.307 17.2211 68.1178 16.5719 67.9759C16.2855 67.9128 15.2946 67.6802 14.0554 67.0258C12.2249 66.0599 11.9989 65.3082 11.0645 65.3634C10.1933 65.4147 10.1131 66.0862 9.11837 66.123C8.24186 66.1558 7.21293 65.6801 7.02895 64.9837C6.86469 64.3621 7.48494 63.9797 7.31411 63.6065C6.94091 62.7931 3.81993 64.2044 2.99336 63.2267C2.23513 62.3279 3.69377 59.743 5.13008 57.1963C6.58741 54.6141 7.70177 53.3263 7.17219 52.3066C6.85943 51.7047 6.07492 51.3906 5.55848 51.3092C4.60576 51.1594 4.14057 51.7362 2.56759 51.7362C2.14314 51.7362 1.53603 51.731 1.42827 51.4511C1.3849 51.3407 1.42433 51.1961 2.0932 50.3591C2.56234 49.7717 2.80019 49.476 2.94737 49.409C3.60704 49.112 4.05121 49.7861 4.89354 49.7414C5.95271 49.6849 7.17744 48.5167 7.07757 47.3669C6.98953 46.3603 5.9238 45.7729 5.79501 45.7045C4.38893 44.9555 2.81464 45.7413 2.7082 45.4667C2.56234 45.0909 5.84101 44.4272 6.98164 41.9528C7.44289 40.9528 7.23921 40.3417 7.97904 38.9146C8.37327 38.1524 8.82795 37.5611 9.21035 37.1327C9.37199 36.9513 9.63481 36.904 9.85163 37.0144C10.3418 37.2641 10.9055 37.498 11.5389 37.6793C14.4378 38.5138 16.9977 37.7503 18.1856 37.2996C20.6128 36.5834 21.5905 35.6228 22.0294 34.8553C22.2028 34.5518 22.5892 33.8054 23.0793 33.7791C23.241 33.7699 23.4236 33.9092 23.6943 34.2601C24.0938 34.7791 25.3212 36.0341 25.6707 36.5913C26.0584 37.2089 26.588 37.3245 27.1819 36.9093C28.3922 36.0617 29.6945 35.3324 30.7878 34.335C31.3003 33.8685 31.8522 33.5662 32.4344 33.4177C32.851 33.3113 33.349 33.2666 34.2689 33.4217C35.7091 33.6648 37.2348 33.9223 38.3176 35.1155C38.5042 35.3205 38.8222 36.0118 39.4569 37.3942C39.4569 37.3942 39.9366 38.4376 40.6436 40.7648C40.7211 41.0185 40.8341 41.4061 40.7855 41.9042C40.7277 42.4995 40.4675 42.9528 40.3584 43.1381C39.9826 43.7781 39.7395 43.7216 39.5988 44.1355C39.4372 44.6099 39.6251 45.0633 39.9313 45.7978C40.3768 46.8675 40.7855 47.1303 40.6436 47.5548C40.5989 47.6862 40.3124 47.8978 39.7421 48.3143C39.0732 48.8019 38.7381 49.0476 38.6974 49.0739C37.8393 49.6508 37.4122 49.9478 37.0837 50.024C36.0245 50.2671 35.3688 49.5272 34.9942 49.8821C34.7643 50.1002 34.8313 50.5509 34.9627 51.4169C35.0849 52.2251 35.2347 52.3434 35.1533 52.6824C34.9956 53.3381 33.8392 53.7324 33.713 53.7744C31.7419 54.4407 31.1361 56.2686 27.8732 57.4775C27.3685 57.6641 26.6379 57.8967 25.7062 58.0597L25.7036 58.0636Z" fill="#778C61"/>
            <path d="M31.036 1.43795C33.6471 3.85983 36.5 5.99129 39.2399 8.25942C39.483 8.46048 39.8155 8.58138 40.1256 8.67205C41.0021 8.93093 41.0981 9.48022 40.7065 10.1898C39.7984 11.8325 38.9469 13.5145 37.9298 15.0888C35.8193 18.3543 34.7102 21.8432 35.1334 25.7619C35.2464 26.8053 34.8679 27.1535 33.8232 27.0642C32.0216 26.9104 30.1503 26.3519 29.1989 26.1469C28.6128 26.0208 27.739 25.8762 26.6351 25.8618C24.6876 21.1441 24.1883 18.8116 24.1186 17.5527C24.0989 17.1992 24.0739 16.2202 23.6915 14.9889C23.3932 14.0309 23.1146 13.6788 22.7414 12.7576C22.5325 12.2398 22.3788 11.7549 21.9346 9.57615C21.4957 7.42891 21.2959 6.19366 20.9438 4.3237C20.6954 3.00961 20.4773 1.93599 20.3301 1.229C20.4773 0.888653 20.7716 0.725705 21.108 0.71125C23.0043 0.625834 24.8663 0.269714 26.7429 0.0331761C28.3855 -0.174451 29.7167 0.628462 31.036 1.43795Z" fill="#778C61"/>
            <path d="M49.0676 34.5479C47.0544 34.2115 45.0412 33.8791 43.0294 33.5361C41.9492 33.3521 40.9518 33.4139 40.0621 34.1905C39.7349 34.4757 39.5063 34.5335 39.4235 34.5598C38.9202 34.7227 38.4418 34.3351 37.84 33.9802C36.7624 33.3442 35.79 33.1077 35.0856 32.9355C34.5442 32.8041 33.9108 32.6543 33.0777 32.7108C32.0198 32.7818 31.255 33.1432 31.0974 33.2207C30.1091 33.7003 29.8411 34.247 27.8686 35.7845C27.5743 36.0132 27.2011 36.297 26.7293 36.2589C26.3298 36.2274 26.0118 35.9777 25.59 35.4993C24.5663 34.3403 23.9027 33.59 23.9763 32.6504C24.0604 31.561 25.0302 31.5781 25.4954 30.1812C25.9868 28.7068 25.1747 27.8842 25.6859 27.2376C26.268 26.5004 27.753 27.0234 30.2642 27.4768C34.3787 28.2192 36.3077 28.0524 38.342 27.8513C40.0976 27.6792 41.4577 26.6857 42.8979 25.8302C43.9164 25.2244 43.9321 25.2428 44.1844 26.3664C44.4801 27.6831 44.7626 29.0038 45.0636 30.3205C45.1161 30.5531 45.0439 30.9118 45.4197 30.9276C45.6878 30.9394 45.8008 30.6884 45.8665 30.465C46.354 28.8106 47.5275 27.8355 49.0584 27.2074C50.5013 26.9038 51.9534 26.6371 53.3818 26.2783C53.9942 26.1246 54.1755 26.2166 54.2412 26.8631C54.3372 27.7935 54.1203 28.5254 53.3923 29.1352C52.7392 29.6818 52.1282 30.2811 51.5079 30.8658C50.5447 31.7726 50.9244 32.423 49.8653 33.7161C49.5578 34.0919 49.2674 34.3705 49.0689 34.5479H49.0676Z" fill="#778C61"/>
            <path d="M49.2847 18.8327C47.7525 18.1454 47.6933 18.1743 46.9272 19.587C46.646 20.1061 46.3477 20.6291 45.9771 21.0851C45.3201 21.8972 44.0494 22.0154 43.2018 21.4267C42.7813 21.135 42.864 20.7526 42.9495 20.3649C43.1899 19.2769 43.4396 18.1914 43.7445 16.8497C42.3042 17.8235 40.9941 18.5935 39.835 19.5909C38.9467 20.3544 37.9664 20.4793 36.8796 20.1336C36.4302 19.9904 36.3146 19.788 36.5524 19.3439C38.2463 16.1795 39.9283 13.0086 41.5999 9.83244C41.8745 9.31206 42.2412 9.41193 42.6827 9.53545C44.868 10.1478 47.0586 10.7418 49.2479 11.341C50.5725 11.7261 51.8906 12.1387 53.2257 12.4843C53.9458 12.6709 54.2599 13.0296 54.2415 13.7971C54.2073 15.211 54.2205 16.6289 54.2822 18.0429C54.319 18.8708 53.9393 19.1441 53.1902 19.2046C51.8617 19.311 50.562 19.2151 49.2834 18.8327H49.2847Z" fill="#778C61"/>
            <path d="M49.0517 26.5714C47.5011 26.7606 46.279 27.394 45.7914 29.306C45.2132 28.1312 45.1475 27.1154 44.9452 26.1495C44.5036 24.043 44.5233 24.0299 42.6954 25.093C40.9345 26.118 39.2591 27.3099 37.0422 27.1627C36.2642 27.1115 35.8871 26.9866 35.9199 26.1259C35.9738 24.6764 35.9554 23.223 35.9502 21.771C35.9475 21.064 36.1171 20.6671 36.9371 21.0009C37.9936 21.4306 38.945 21.0784 39.8333 20.4989C40.4956 20.0666 41.129 19.5909 41.7848 19.148C41.9372 19.0442 42.108 18.8589 42.3117 18.993C42.5101 19.1231 42.4471 19.3373 42.3906 19.5317C41.6113 22.2086 42.0528 21.9812 44.5128 22.4359C45.9491 22.7013 46.1857 22.541 46.9426 21.0614C47.3946 20.1783 47.7521 19.1809 49.0675 19.4108C50.0701 20.0193 51.153 20.1021 52.2949 19.9654C54.1018 19.7499 54.2555 19.9181 54.2266 21.7631C54.2161 22.4517 54.2253 23.1416 54.2332 23.8302C54.2503 25.2362 54.2503 25.2244 52.8468 25.5753C51.5787 25.892 50.3159 26.2376 49.0517 26.5714Z" fill="#778C61"/>
            <path d="M49.0367 36.6505C48.8119 37.3352 48.6122 38.029 48.3546 38.7018C48.1036 39.3563 47.6148 39.6125 46.9328 39.3457C44.5674 38.4246 42.386 37.117 40.0968 36.0342C39.7171 35.8542 39.5213 35.4902 39.9497 35.1853C40.7381 34.6255 41.4596 33.9961 42.6186 34.2405C44.7395 34.6873 46.8947 34.9698 49.0353 35.3207C49.4151 35.7635 48.9302 36.2077 49.0353 36.6505H49.0367Z" fill="#778C61"/>
            <path d="M40.123 36.9199C40.7722 37.2379 41.1704 37.4298 41.5672 37.6269C43.244 38.46 44.9195 39.2971 46.5989 40.1263C47.1338 40.3905 47.5201 40.6901 47.0391 41.3261C45.4924 43.3721 43.9458 45.4169 42.4083 47.4695C42.0995 47.8821 41.905 47.7428 41.6842 47.3946C41.1139 46.4984 40.7341 45.5194 40.4319 44.5101C40.261 43.9411 40.6211 43.5574 40.9943 43.2368C41.9588 42.405 42.1178 41.4996 41.5252 40.3458C41.0074 39.3392 40.6579 38.2472 40.1244 36.9199H40.123Z" fill="#778C61"/>
            <path d="M4.31121 64.6775L5.88419 64.3989C6.24293 64.3358 6.56226 64.6315 6.52809 64.9942L6.45056 65.7945C6.42559 66.0455 6.57409 66.2807 6.81194 66.3648C7.48607 66.6066 8.78571 67.0613 8.92632 67.0258C9.07613 66.989 10.3403 66.4515 10.8738 66.2242C11.0236 66.1598 11.1945 66.1664 11.339 66.2413L12.6807 66.9285C12.9028 67.0416 13.0197 67.2912 12.9672 67.5343L12.6912 68.8103C12.682 68.855 12.6781 68.8997 12.6794 68.9457C12.6965 69.4345 12.7924 72.3952 12.4875 72.4386C12.1551 72.4859 10.494 72.9129 10.1129 73.1035C9.86196 73.2296 9.36129 74.6633 9.05116 75.62C8.92501 76.009 8.43222 76.1285 8.1418 75.8408C7.21011 74.9169 5.58851 73.3006 5.55435 73.1994C5.50704 73.0575 5.88681 70.6356 5.45973 70.9208C5.17326 71.1113 4.82371 71.3873 4.62397 71.5489C4.52015 71.633 4.45051 71.7513 4.42817 71.8827L4.35983 72.2822C4.29676 72.6462 3.89858 72.8459 3.57006 72.679C3.45836 72.6225 3.36506 72.5831 3.32432 72.5831C3.1824 72.5831 2.32692 73.4373 2.185 73.4373C2.04308 73.4373 0.191517 72.9629 0.380747 72.9156C0.571291 72.8683 4.74881 68.7854 4.74881 68.1677C4.74881 67.7367 4.2166 66.2662 3.89596 65.416C3.77375 65.0941 3.9748 64.7406 4.31384 64.6801L4.31121 64.6775Z" fill="#778C61"/>
            <path d="M25.2494 24.1036L24.3046 21.4465C24.2967 21.4241 24.2901 21.4031 24.2849 21.3808C24.1705 20.9195 22.9064 15.8261 23.0273 15.4634C23.1363 15.1375 21.9405 12.8089 21.5975 12.1532C21.5384 12.0402 21.5108 11.9127 21.5187 11.7852L21.566 10.9324C21.5699 10.8719 21.566 10.8115 21.5529 10.7524L19.7131 1.67326C19.6514 1.36576 19.3938 1.13579 19.0824 1.1082L18.7381 1.07666C18.5015 1.41044 18.265 1.74422 18.0284 2.078L19.7854 5.92042C19.855 6.07286 19.8682 6.245 19.8235 6.40532L19.2348 8.51971C19.1481 8.83246 19.2847 9.16493 19.5659 9.32656C19.7841 9.4514 19.9194 9.68137 19.9234 9.93236L20.0482 18.7237C20.0508 18.8669 20.0088 19.0075 19.9286 19.1271L17.9483 22.0983C17.8326 22.2717 17.6552 22.3769 17.4673 22.4058C17.1651 22.4531 16.9496 22.2862 16.9154 22.2586C16.6276 22.1311 16.2452 21.9235 15.8576 21.5871C15.3293 21.1285 15.0257 20.6317 14.8602 20.3045C14.0218 20.3518 13.1821 20.3991 12.3437 20.4465C12.5119 20.9445 13.529 23.9866 13.6683 25.168C13.6788 25.2587 13.6959 25.4321 13.621 25.6201C13.4738 25.9919 13.0415 26.2534 11.8693 26.4768C11.2845 26.5885 8.17798 27.1339 7.88099 27.3783C7.87836 27.3809 7.85208 27.4033 7.81397 27.4322C7.66811 27.5478 7.53933 27.6306 7.44734 27.6871L5.24623 30.6215C5.28565 30.8449 5.33427 31.18 5.35792 31.59C5.38421 32.042 5.37632 32.5085 5.22257 33.9291C5.18052 34.3154 5.12139 34.8358 5.03991 35.4561C4.73241 36.0987 4.37104 36.5113 4.1069 36.7636C3.79284 37.0632 3.39598 37.3116 2.61146 37.8228C2.31053 38.0186 2.04903 38.1789 1.85191 38.2971C1.69948 38.4772 1.4774 38.7807 1.33022 39.1986C1.07265 39.9319 1.32759 40.2131 1.09237 40.765C0.759899 41.5469 0.0187479 41.5246 0.000350519 42.0476C-0.0154186 42.4931 0.50365 42.9964 0.99775 43.0923C1.3565 43.1619 1.52602 42.9819 2.04246 43.0923C2.31316 43.1501 2.50765 43.2605 2.66008 43.3301C3.04774 43.5089 3.31056 43.7651 3.46694 43.9478C5.09379 43.1054 5.8402 42.1304 6.22129 41.384C6.59712 40.6467 6.57478 40.1303 7.28308 38.6309C7.87705 37.372 7.84551 37.8096 8.21609 36.9502C8.37641 36.5783 8.5065 36.2077 8.86788 36.0369C9.13858 35.9094 9.42506 35.9475 9.61954 35.9975C10.1281 36.2366 10.8075 36.5126 11.6354 36.7307C11.8785 36.7951 12.9902 37.079 14.1992 37.1105C14.7301 37.125 17.1335 37.1867 19.4214 35.7806C19.4214 35.7806 21.4372 34.5415 24.2481 29.8304C24.2573 29.8146 24.2678 29.7936 24.2849 29.7673C24.4899 29.4533 25.0484 28.4953 24.8026 27.3533C24.7461 27.0892 24.6896 27.1076 24.6646 26.9039C24.6002 26.3717 24.8854 25.8973 25.1456 25.5727L25.2888 24.4269C25.302 24.3165 25.2901 24.2061 25.2534 24.101L25.2494 24.1036Z" fill="#778C61"/>
        </symbol>
        <symbol viewBox="0 0 25 21" id="retract">
            <path fill-rule="evenodd" clip-rule="evenodd" d="M23.4012 21C23.0708 21 22.7341 20.8971 22.4355 20.6703L10.7927 11.76C10.4031 11.4618 10.1765 11.0019 10.1765 10.5189C10.1765 10.0317 10.4009 9.5739 10.7906 9.2757C11.6684 8.60157 12.8364 7.70442 14.1269 6.71314C16.8808 4.59791 20.1927 2.05406 22.4334 0.333899C22.732 0.104998 23.0687 0 23.4012 0C24.2228 0 25 0.640499 25 1.575L25 19.4271C25 20.3574 24.2249 21 23.4012 21ZM23.0588 18.6952L23.0588 2.31741L15.7362 8.00888V13.0154L23.0588 18.6952ZM13.795 11.5097V9.51765L12.5122 10.5147L13.795 11.5097ZM15.7362 1.575V5.00338L13.795 6.49438V2.31741L3.24845 10.5147L13.795 18.6952V14.5297L15.7362 16.0153V19.4271C15.7362 20.3574 14.9612 21 14.1374 21C13.807 21 13.4703 20.8971 13.1717 20.6703L1.52892 11.76C1.13927 11.4618 0.912685 11.0019 0.912685 10.5189C0.912685 10.0317 1.13715 9.5739 1.5268 9.2757L4.86316 6.71314L4.86925 6.70847C7.6219 4.59416 10.9305 2.0528 13.1696 0.333899C13.4682 0.104998 13.8049 0 14.1374 0C14.959 0 15.7362 0.640499 15.7362 1.575Z" fill="#738F44"/>
        </symbol>
        <symbol viewBox="0 0 31 31" id="modal-button">
            <path d="M25.8571 0H5C2.23858 0 0 2.23858 0 5V25.8571C0 28.6185 2.23858 30.8571 5 30.8571H25.8571C28.6185 30.8571 30.8571 28.6185 30.8571 25.8571V5C30.8571 2.23858 28.6185 0 25.8571 0Z" fill="white"/>
            <path d="M16.5307 20.6991C16.5307 20.2627 16.1604 19.9085 15.7041 19.9085H5.2347C4.7785 19.9085 4.4082 20.2627 4.4082 20.6991C4.4082 21.1355 4.7785 21.4897 5.2347 21.4897H15.7041C16.1604 21.4897 16.5307 21.1355 16.5307 20.6991ZM26.449 15.4285C26.449 14.992 26.0787 14.6379 25.6225 14.6379H5.2347C4.7785 14.6379 4.4082 14.992 4.4082 15.4285C4.4082 15.8649 4.7785 16.2191 5.2347 16.2191H25.6225C26.0787 16.2191 26.449 15.8649 26.449 15.4285ZM22.0409 10.1578C22.0409 9.72139 21.6706 9.36719 21.2143 9.36719H5.2347C4.7785 9.36719 4.4082 9.72139 4.4082 10.1578C4.4082 10.5942 4.7785 10.9484 5.2347 10.9484H21.2143C21.6706 10.9484 22.0409 10.5942 22.0409 10.1578Z" fill="black"/>
        </symbol>
        <symbol viewBox="0 0 18 18" id="calendar">
            <path d="M12.75 2.25V0.75C12.75 0.336 13.0852 0 13.5 0C13.9148 0 14.25 0.336 14.25 0.75V2.25C14.25 2.664 13.9148 3 13.5 3C13.0852 3 12.75 2.664 12.75 2.25ZM3.75 3C4.16475 3 4.5 2.664 4.5 2.25V0.75C4.5 0.336 4.16475 0 3.75 0C3.33525 0 3 0.336 3 0.75V2.25C3 2.664 3.33525 3 3.75 3ZM13.5 12.75V10.5H12.75V13.5H15V12.75H13.5ZM9.75 13.125C9.75 14.9858 11.2642 16.5 13.125 16.5C14.9858 16.5 16.5 14.9858 16.5 13.125C16.5 11.2642 14.9858 9.75 13.125 9.75C11.2642 9.75 9.75 11.2642 9.75 13.125ZM18 13.125C18 15.8175 15.8175 18 13.125 18C10.4325 18 8.25 15.8175 8.25 13.125C8.25 10.4325 10.4325 8.25 13.125 8.25C15.8175 8.25 18 10.4325 18 13.125ZM7.32225 15.75H1.5V6H15.75V7.32225C16.2952 7.56975 16.7992 7.89 17.25 8.27325V1.5H15V2.25C15 3.237 14.0415 4.00425 13.0065 3.6705C12.3832 3.4695 12 2.83725 12 2.1825V1.5H5.25V2.25C5.25 3.237 4.2915 4.00425 3.2565 3.6705C2.63325 3.4695 2.25 2.83725 2.25 2.1825V1.5H0V17.25H8.27325C7.89 16.7992 7.56975 16.2952 7.32225 15.75Z" fill="currentColor"/>
        </symbol>
        <symbol viewBox="0 0 42 42" id="github">
            <path d="M33.25 0H8.75C3.91825 0 0 3.91825 0 8.75V33.25C0 38.0817 3.91825 42 8.75 42H33.25C38.0835 42 42 38.0817 42 33.25V8.75C42 3.91825 38.0835 0 33.25 0ZM25.4345 34.2825C24.7257 34.419 24.5 33.9832 24.5 33.6105V29.7692C24.5 28.462 24.0415 27.6115 23.5375 27.1775C26.656 26.831 29.932 25.6462 29.932 20.2703C29.932 18.7407 29.386 17.4912 28.4918 16.513C28.6353 16.1595 29.1147 14.735 28.3535 12.8082C28.3535 12.8082 27.1792 12.432 24.507 14.2432C23.387 13.9283 22.19 13.776 21 13.769C19.81 13.7743 18.613 13.9283 17.4947 14.2397C14.8207 12.4285 13.6447 12.8047 13.6447 12.8047C12.8853 14.7332 13.3647 16.156 13.51 16.5113C12.614 17.4913 12.068 18.739 12.068 20.2685C12.068 25.6305 15.3353 26.8328 18.4468 27.188C18.046 27.538 17.6838 28.154 17.5578 29.0605C16.758 29.4175 14.7332 30.0352 13.4837 27.895C13.4837 27.895 12.7435 26.551 11.3365 26.4513C11.3365 26.4513 9.9715 26.4338 11.2402 27.3035C11.2402 27.3035 12.159 27.734 12.796 29.351C12.796 29.351 13.6062 31.85 17.5 31.003V33.6087C17.5 33.978 17.2743 34.412 16.576 34.2825C11.011 32.4328 7 27.1845 7 21C7 13.2667 13.2685 7 21 7C28.7315 7 35 13.2667 35 21C35 27.1828 30.9943 32.4292 25.4345 34.2825Z" fill="currentColor"/>
        </symbol>
        <symbol viewBox="0 0 42 42" id="lattes">
            <path fill-rule="evenodd" clip-rule="evenodd" d="M6 0C2.68629 0 0 2.68629 0 6V36C0 39.3137 2.68629 42 6 42H36C39.3137 42 42 39.3137 42 36V6C42 2.68629 39.3137 0 36 0H6ZM8.83657 21.9479C8.83657 22.0303 10.444 25.3487 13.1459 30.8433L13.1478 30.8424C13.9802 32.5369 14.2472 33 14.3895 33C15.0608 33 18.3202 32.3004 20.3359 31.7235C24.0887 30.65 26.8063 29.3176 29.1444 27.4043C30.5511 26.2524 31.3914 25.2388 32.1517 23.7739C33.3894 21.3896 33.2708 18.9238 31.8086 16.6445C30.9604 15.3229 28.657 13.1034 28.1904 13.1584C27.9768 13.1829 27.9531 13.2241 27.9808 13.5116C27.9986 13.6902 28.1844 14.1994 28.396 14.6429C28.9308 15.7654 29.0554 16.2491 29.0485 17.1665C29.0406 18.131 28.8211 18.7041 28.138 19.5361C27.5834 20.2112 26.9062 20.7096 25.7802 21.2718C23.6517 22.3345 20.9123 22.8633 17.5481 22.8623C15.0054 22.8614 13.48 22.7044 10.6249 22.148C9.00167 21.8321 8.83657 21.8134 8.83657 21.9479ZM14.6371 31.2356C14.8171 31.6025 14.9422 31.8574 14.959 31.8913C14.9866 31.9491 14.9688 31.9962 14.9184 31.9962C14.8057 31.9962 9.94677 22.5925 9.94677 22.3747C9.94677 22.356 10.0041 22.3786 10.0733 22.4237C10.1425 22.4689 10.5389 22.5749 10.9551 22.6573C11.3713 22.7397 11.658 22.8231 11.5938 22.8408C11.5127 22.8633 11.5503 23.0125 11.7134 23.3196C12.0525 23.9583 12.3639 24.8522 12.4074 25.3134C12.4351 25.6136 12.5231 25.7843 12.7682 26.0169C13.3209 26.5398 13.6856 27.521 13.3841 27.6761C13.3337 27.7016 13.3169 27.7977 13.3456 27.89C13.3742 27.9822 13.3505 28.0577 13.2912 28.0577C13.133 28.0577 13.3663 28.6455 14.1888 30.3223C14.3532 30.6571 14.509 30.9747 14.6371 31.2356ZM9.00266 21.3297C9.07087 21.3513 11.2735 21.6447 13.8982 21.9822C16.5229 22.3197 18.7512 22.5994 18.8501 22.6043C19.0824 22.6151 19.1793 22.3992 19.0458 22.1667C18.9885 22.0656 18.7374 21.5691 18.4883 21.0619C16.1878 16.3767 15.9159 13.1289 17.6994 11.6473C18.8708 10.674 21.1436 10.2619 24.1292 10.4797C26.0392 10.619 27.1444 10.621 27.3075 10.4856C27.528 10.3021 27.0515 10.0078 25.8513 9.58389C19.0142 7.17213 12.9541 7.53615 10.1237 10.5288C8.45201 12.2979 7.8282 14.2652 8.03976 17.1106C8.08722 17.7484 8.17421 18.5019 8.23353 18.7865C8.46881 19.9109 8.886 21.2924 9.00266 21.3297ZM17.9949 21.9685C18.0681 21.9449 18.1551 21.9479 18.1887 21.9753C18.2223 22.0038 18.163 22.0234 18.0562 22.0195C17.9386 22.0146 17.9149 21.995 17.9949 21.9685ZM9.20829 20.7479C9.28935 20.7096 17.3949 21.8056 17.6381 21.887L17.6371 21.888C17.7053 21.9106 17.6479 21.9282 17.5095 21.9263C17.1299 21.9214 9.24585 20.8872 9.18159 20.8332C9.15095 20.8077 9.16281 20.7695 9.20829 20.7479ZM14.1572 21.0491C14.2264 21.0256 14.3401 21.0256 14.4093 21.0491H14.4103C14.4795 21.0726 14.4222 21.0913 14.2837 21.0913C14.1444 21.0913 14.088 21.0726 14.1572 21.0491ZM10.0051 20.374C10.2226 20.4103 11.2171 20.5673 12.2156 20.7224C14.4745 21.0736 14.0742 21.0854 11.4504 20.7459C10.2898 20.5958 9.47521 20.4525 9.47422 20.3996C9.47323 20.3495 9.44357 20.1758 9.40798 20.0149L9.34274 19.7215L9.4762 20.0149C9.58791 20.2583 9.67688 20.3191 10.0051 20.374ZM18.1175 16.2952C18.7255 17.77 20.6088 19.0592 22.7036 19.4331C23.6725 19.6058 25.2048 19.3811 25.9937 18.9503C27.184 18.2998 27.6466 16.9369 27.091 15.7154C26.658 14.7636 25.4935 13.7402 24.1796 13.1584C22.7956 12.5451 20.8965 12.3842 19.812 12.7875C19.1605 13.0298 18.4329 13.6087 18.1511 14.1091C17.8397 14.6625 17.8259 15.5868 18.1175 16.2952ZM20.8648 18.2066C20.8945 18.1821 21.2306 18.2939 21.6103 18.4558C21.9899 18.6177 22.2558 18.7521 22.2004 18.7541C22.0363 18.761 20.8055 18.2557 20.8648 18.2066ZM19.5026 16.7348C19.7655 16.9811 20.2302 17.3657 20.5356 17.5904H20.5347C20.8401 17.8151 21.0596 17.9996 21.023 18.0015C20.7729 18.0113 19.0201 16.5837 19.0231 16.3718C19.0241 16.3257 19.2396 16.4885 19.5026 16.7348Z" fill="currentColor"/>
        </symbol>
        <symbol viewBox="0 0 40 40" id="instagram">
            <path d="M25.3883 9.14667C23.9833 9.08333 23.56 9.07 20 9.07C16.44 9.07 16.0183 9.08333 14.6133 9.14667C10.9967 9.31167 9.31167 11.025 9.14833 14.6117C9.08333 16.0183 9.06833 16.44 9.06833 20C9.06833 23.56 9.08333 23.9817 9.14667 25.3883C9.31167 28.9683 10.99 30.6883 14.6117 30.8533C16.0167 30.9167 16.44 30.9317 20 30.9317C23.5617 30.9317 23.9833 30.9183 25.3883 30.855C29.005 30.69 30.6883 28.9733 30.8533 25.39C30.9167 23.9833 30.93 23.5617 30.93 20.0017C30.93 16.4417 30.9167 16.02 30.8533 14.615C30.6883 11.0267 29.0017 9.31167 25.3883 9.14667ZM20 26.8467C16.2183 26.8467 13.1533 23.7817 13.1533 20C13.1533 16.2183 16.22 13.1533 20 13.1533C23.78 13.1533 26.8467 16.2183 26.8467 20C26.8467 23.7817 23.7817 26.8467 20 26.8467ZM27.1183 14.4833C26.235 14.4833 25.5183 13.7667 25.5183 12.8833C25.5183 12 26.235 11.2833 27.1183 11.2833C28.0017 11.2833 28.7183 12 28.7183 12.8833C28.7183 13.7667 28.0017 14.4833 27.1183 14.4833ZM24.445 20C24.445 22.455 22.455 24.445 20 24.445C17.545 24.445 15.555 22.455 15.555 20C15.555 17.545 17.545 15.555 20 15.555C22.455 15.555 24.445 17.545 24.445 20ZM31.6667 0H8.33333C3.73167 0 0 3.73167 0 8.33333V31.6667C0 36.2683 3.73167 40 8.33333 40H31.6667C36.27 40 40 36.2683 40 31.6667V8.33333C40 3.73167 36.27 0 31.6667 0ZM33.2533 25.4967C33.0333 30.345 30.335 33.0317 25.4983 33.2533C24.075 33.3183 23.6217 33.3333 20 33.3333C16.3783 33.3333 15.9267 33.3183 14.5033 33.2533C9.65667 33.0317 6.97 30.34 6.74667 25.4967C6.68167 24.075 6.66667 23.6217 6.66667 20C6.66667 16.38 6.68167 15.925 6.74667 14.5033C6.97 9.65667 9.66 6.96833 14.5033 6.74833C15.9267 6.68167 16.3783 6.66667 20 6.66667C23.6217 6.66667 24.075 6.68167 25.4983 6.74667C30.345 6.96833 33.0367 9.665 33.2533 14.5017C33.3183 15.925 33.3333 16.38 33.3333 20C33.3333 23.6217 33.3183 24.075 33.2533 25.4967Z" fill="currentColor"/>
        </symbol>
        <symbol viewBox="0 0 54 54" id="home">
            <rect width="54" height="54" rx="8" fill="white"/>
            <path d="M25.1304 20.3996C25.9002 19.6762 27.0998 19.6762 27.8696 20.3996L37.4946 29.4441C37.8969 29.8221 38.125 30.3496 38.125 30.9016V40C38.125 41.1046 37.2296 42 36.125 42H32.375C31.2704 42 30.375 41.1046 30.375 40V36.1739C30.375 35.0693 29.4796 34.1739 28.375 34.1739H24.625C23.5204 34.1739 22.625 35.0693 22.625 36.1739V40C22.625 41.1046 21.7296 42 20.625 42H16.875C15.7704 42 14.875 41.1046 14.875 40V30.9016C14.875 30.3496 15.1031 29.8221 15.5054 29.4441L25.1304 20.3996ZM41.1296 27.487C41.6117 26.963 41.5817 26.1484 41.0624 25.6613L27.8674 13.2828C27.0984 12.5613 25.9013 12.5609 25.1317 13.2819L11.9389 25.6417C11.419 26.1288 11.3887 26.9438 11.8711 27.4681V27.4681C12.3596 27.9992 13.1874 28.0299 13.714 27.5367L25.1317 16.8424C25.9013 16.1216 27.0983 16.1221 27.8673 16.8435L39.286 27.5549C39.8125 28.0488 40.6408 28.0183 41.1296 27.487V27.487Z" fill="currentColor"/>
        </symbol>
        <symbol viewBox="0 0 20 21" id="question">
            <path d="M10 2.16667C14.595 2.16667 18.3333 5.905 18.3333 10.5C18.3333 15.095 14.595 18.8333 10 18.8333C5.405 18.8333 1.66667 15.095 1.66667 10.5C1.66667 5.905 5.405 2.16667 10 2.16667ZM10 0.5C4.4775 0.5 0 4.9775 0 10.5C0 16.0225 4.4775 20.5 10 20.5C15.5225 20.5 20 16.0225 20 10.5C20 4.9775 15.5225 0.5 10 0.5ZM11.0417 14.6667C11.0417 15.2417 10.5758 15.7083 10 15.7083C9.42583 15.7083 8.95833 15.2417 8.95833 14.6667C8.95833 14.0917 9.42583 13.625 10 13.625C10.5758 13.625 11.0417 14.0917 11.0417 14.6667ZM12.2025 6.335C11.6958 5.82167 10.94 5.53917 10.0767 5.53917C8.26 5.53917 7.085 6.83083 7.085 8.83083H8.76083C8.76083 7.5925 9.45167 7.15333 10.0425 7.15333C10.5708 7.15333 11.1317 7.50417 11.1792 8.175C11.2308 8.88083 10.8542 9.23917 10.3775 9.6925C9.20083 10.8117 9.17917 11.3533 9.18417 12.5825H10.855C10.8442 12.0292 10.88 11.58 11.6342 10.7675C12.1983 10.1592 12.9 9.4025 12.9142 8.24917C12.9233 7.47917 12.6775 6.81667 12.2025 6.335Z" fill="currentColor"/>
        </symbol>
        <symbol viewBox="0 0 42 42" id="linkedin">
            <path d="M33.25 0H8.75C3.91825 0 0 3.91825 0 8.75V33.25C0 38.0817 3.91825 42 8.75 42H33.25C38.0835 42 42 38.0817 42 33.25V8.75C42 3.91825 38.0835 0 33.25 0ZM14 33.25H8.75V14H14V33.25ZM11.375 11.781C9.6845 11.781 8.3125 10.3985 8.3125 8.694C8.3125 6.9895 9.6845 5.607 11.375 5.607C13.0655 5.607 14.4375 6.9895 14.4375 8.694C14.4375 10.3985 13.0673 11.781 11.375 11.781ZM35 33.25H29.75V23.443C29.75 17.549 22.75 17.9953 22.75 23.443V33.25H17.5V14H22.75V17.0888C25.193 12.5633 35 12.229 35 21.4218V33.25Z" fill="currentColor"/>
        </symbol>
        <symbol viewBox="0 0 36 53" id="next">
            <path fill-rule="evenodd" clip-rule="evenodd" d="M18.0717 0H11.6534L11.2121 0.265769L11.4392 0.240431L12.5466 10.105L14.4412 19.3372L20.795 20.4645L21.3362 15.3731L21.3436 15.3039L21.3821 15.2458L26.485 7.53608L26.9639 7.85093L22.0694 15.2457L23.7717 15.7413L27.2872 13.7259L27.9335 13.3554L27.7031 14.062L26.8625 16.6398L28.9932 17.2507L30.598 14.8515L30.7324 14.6506L30.9535 14.749L32.913 15.6209L35.5866 15.7644L35.5835 15.8233L36 11.0789L25.5299 7.14767L18.0717 0ZM35.5386 16.3344L32.8292 16.1891L32.7761 16.1863L32.7277 16.1646L30.9409 15.3696L29.3542 17.7419L29.2378 17.9159L29.0362 17.858L26.4187 17.1075L26.1334 17.0258L26.2251 16.7444L26.927 14.592L23.9518 16.2977L23.8458 16.3585L23.7283 16.3243L21.8696 15.7833L21.3651 20.5289L23.931 20.6537L27.6317 18.9324L27.9899 18.7658L28.0378 19.1569L28.4835 22.7996L29.5241 21.2817L29.5933 21.1808L29.7144 21.1609L35.1639 20.2675L35.1831 20.384L35.5386 16.3344ZM35.1422 20.8505L29.9285 21.7053L28.5277 23.7486L28.0982 24.375L28.0061 23.6219L27.516 19.6172L24.1092 21.2018L24.0448 21.2317L23.9739 21.2283L21.3045 21.0984L21.3006 21.135L20.9975 21.0812L14.3599 19.9036L12.0959 24.4167L13.6941 27.1968L18.679 24.2702L18.8144 24.1907L18.9546 24.2616L23.1977 26.4109L25.0033 25.4778L25.0998 25.4279L25.2053 25.4544L31.055 26.92L30.9789 27.2215L31.9482 24.9454L34.996 22.5152L35.1422 20.8505ZM30.8754 27.4646L25.1708 26.0353L23.5436 26.8763L23.6882 27.3456L23.7498 27.2454L29.4793 30.7431L30.8754 27.4646ZM29.4562 30.7975L29.1872 31.2353L23.8905 28.0018L25.0153 31.6517L25.0641 31.81L24.9507 31.9309L23.526 33.4497L24.5338 36.3969L29.3307 31.0924L29.4562 30.7975ZM24.0962 36.82L24.0749 36.8272L22.9274 33.4719L22.872 33.3097L22.9894 33.1844L24.4181 31.6613L22.9608 26.9323L18.8347 24.8424L13.7351 27.8364L13.4849 27.9832L13.3406 27.7322L11.6881 24.8577L8.24034 27.4473L8.19323 27.4827L8.13593 27.4967L5.59011 28.1179L5.54063 28.13L5.48993 28.1243L0.102263 27.5218L3.40637 31.0924L2.07968 48.5684L0 52.6069L2.07968 53L6.23904 50.2481L9.71713 51.0344L14.4143 48.5684L15.9203 42.35L19.255 38.1686H22.6255L24.0962 36.82ZM0.400159 26.9797L5.50319 27.5504L7.94216 26.9552L11.5345 24.2571L13.8983 19.5451L11.9819 10.207L11.9793 10.1944L11.9778 10.1815L10.8868 0.461667L4.76892 4.14565L2.61753 24.588L0.400159 26.9797Z" fill="#738F44"/>
        </symbol>
        <symbol viewBox="0 0 18 9" id="subtract">
            <path fill-rule="evenodd" clip-rule="evenodd" d="M7.89583 7.89273L8.58706 8.5437L9.27294 7.8871L17.0352 0.456191H14.143L8.57577 5.78578L2.91654 0.456191H-0.000669479L7.89583 7.89273Z" fill="#444444"/>
        </symbol>
        <symbol viewBox="0 0 164 164" id="loading">
            <circle cx="82" cy="82" r="80" stroke="#000000" stroke-width="4" stroke-linecap="round" stroke-linejoin="round" stroke-dasharray="50 50"/>
        </symbol>
        <symbol viewBox="0 0 266 473" id="logo-oca">
            <path d="M241.509 14.8533H101.719V317.155H241.509V14.8533Z" fill="#E2C9B5"/>
            <path d="M208.148 271.142L202.208 243.63L196.273 271.142L168.721 277.074L196.273 283L202.208 310.512L208.148 283L235.7 277.074L208.148 271.142Z" fill="#C0A38B"/>
            <path d="M126.685 254.226C125.313 254.465 124.435 255.815 124.796 257.155C125.338 259.182 126.285 260.893 127.866 261.858C131.009 263.788 134.733 261.624 136.403 263.73C137.442 265.041 136.949 267.078 136.403 269.344C135.719 272.181 134.562 273.974 133.489 275.787C128.945 283.468 130.389 283.96 128.076 286.183C125.411 288.742 124.381 287.24 116.416 290.754C111.969 292.718 111.594 293.493 106.63 295.535C102.95 297.051 101.11 297.807 98.5131 298.236C93.5201 299.064 89.4934 298.236 86.6479 297.612C85.3936 297.334 81.0448 296.315 75.6125 293.454C67.5885 289.229 66.5977 285.934 62.4979 286.178C58.6762 286.402 58.3297 289.341 53.9614 289.502C50.1202 289.643 45.6055 287.562 44.8002 284.511C44.0827 281.792 46.8013 280.12 46.0497 278.482C44.4146 274.925 30.7289 281.104 27.1074 276.82C23.7787 272.882 30.1774 261.566 36.4736 250.419C42.8625 239.117 47.7531 233.478 45.4249 229.009C44.0534 226.373 40.6125 224.998 38.3478 224.642C34.1699 223.989 32.1297 226.514 25.2332 226.514C23.3736 226.514 20.7087 226.49 20.2353 225.266C20.0449 224.779 20.2206 224.15 23.1491 220.485C25.2088 217.912 26.2533 216.62 26.8975 216.328C29.7869 215.027 31.7392 217.98 35.434 217.785C40.0805 217.537 45.4493 212.424 45.0101 207.389C44.6245 202.984 39.9487 200.41 39.3874 200.113C33.2181 196.833 26.3216 200.274 25.8579 199.075C25.2185 197.428 39.5924 194.528 44.5952 183.693C46.6158 179.317 45.7227 176.641 48.9684 170.388C50.6962 167.055 52.6924 164.462 54.3665 162.59C55.0791 161.796 56.2261 161.586 57.1827 162.074C59.3351 163.165 61.7999 164.189 64.582 164.988C77.2964 168.643 88.5124 165.3 93.725 163.326C104.365 160.188 108.655 155.982 110.578 152.628C111.34 151.298 113.033 148.032 115.181 147.916C115.889 147.877 116.689 148.486 117.875 150.021C119.627 152.297 125.006 157.785 126.543 160.227C128.247 162.931 130.565 163.438 133.167 161.62C138.472 157.907 144.182 154.714 148.98 150.348C151.225 148.305 153.646 146.98 156.199 146.332C158.024 145.869 160.211 145.669 164.242 146.351C170.558 147.418 177.25 148.544 181.994 153.764C182.814 154.666 184.205 157.692 186.992 163.74C186.992 163.74 189.095 168.312 192.195 178.498C192.531 179.609 193.029 181.305 192.819 183.489C192.566 186.096 191.423 188.08 190.945 188.894C189.3 191.691 188.236 191.448 187.616 193.261C186.904 195.337 187.734 197.325 189.076 200.537C191.028 205.221 192.824 206.371 192.199 208.228C192.004 208.803 190.75 209.729 188.246 211.552C185.313 213.691 183.844 214.759 183.668 214.875C179.905 217.4 178.031 218.701 176.591 219.033C171.949 220.095 169.074 216.859 167.43 218.409C166.419 219.364 166.717 221.333 167.293 225.13C167.83 228.668 168.484 229.185 168.128 230.671C167.439 233.537 162.363 235.267 161.812 235.452C153.168 238.367 150.513 246.369 136.207 251.667C133.996 252.486 130.795 253.505 126.704 254.216L126.685 254.226Z" fill="#778C61"/>
            <path d="M150.072 6.30006C161.522 16.9053 174.032 26.2384 186.043 36.1662C187.112 37.0483 188.567 37.5747 189.924 37.9743C193.765 39.105 194.189 41.5127 192.471 44.6172C188.489 51.8108 184.76 59.175 180.299 66.0616C171.045 80.3562 166.184 95.6353 168.038 112.791C168.531 117.362 166.872 118.883 162.294 118.493C154.392 117.82 146.187 115.374 142.019 114.477C139.447 113.926 135.62 113.293 130.778 113.229C122.237 92.5746 120.051 82.3641 119.743 76.852C119.655 75.3021 119.548 71.0133 117.869 65.6278C116.561 61.4315 115.341 59.8914 113.706 55.856C112.788 53.5897 112.119 51.4648 110.167 41.9269C108.244 32.5255 107.365 27.1157 105.818 18.9279C104.73 13.1769 103.773 8.47861 103.129 5.37893C103.773 3.88757 105.067 3.17601 106.536 3.11265C114.848 2.73738 123.013 1.18266 131.247 0.144562C138.451 -0.761949 144.284 2.752 150.072 6.29519V6.30006Z" fill="#778C61"/>
            <path d="M229.132 151.264C220.307 149.792 211.478 148.335 202.653 146.833C197.919 146.029 193.546 146.297 189.646 149.699C188.211 150.947 187.211 151.2 186.849 151.317C184.639 152.029 182.545 150.333 179.909 148.778C175.184 145.995 170.919 144.957 167.834 144.207C165.457 143.627 162.685 142.978 159.034 143.222C154.397 143.534 151.044 145.118 150.351 145.454C146.022 147.555 144.846 149.948 136.197 156.678C134.908 157.682 133.268 158.92 131.199 158.759C129.447 158.618 128.056 157.526 126.201 155.436C121.711 150.362 118.802 147.077 119.124 142.964C119.495 138.192 123.741 138.266 125.786 132.154C127.943 125.696 124.38 122.099 126.621 119.268C129.173 116.037 135.684 118.332 146.695 120.316C164.74 123.566 173.193 122.835 182.11 121.958C189.807 121.203 195.772 116.855 202.087 113.107C206.548 110.456 206.621 110.539 207.725 115.452C209.023 121.217 210.263 126.997 211.58 132.763C211.815 133.782 211.497 135.351 213.137 135.424C214.314 135.478 214.811 134.381 215.099 133.402C217.237 126.159 222.386 121.89 229.097 119.136C235.423 117.806 241.792 116.641 248.054 115.067C250.739 114.394 251.534 114.799 251.822 117.63C252.242 121.705 251.29 124.912 248.098 127.577C245.233 129.97 242.559 132.593 239.835 135.156C235.613 139.128 237.278 141.974 232.631 147.638C231.284 149.28 230.01 150.499 229.136 151.278L229.132 151.264Z" fill="#778C61"/>
            <path d="M230.089 82.4616C223.373 79.4545 223.11 79.5764 219.752 85.7611C218.517 88.0371 217.209 90.3229 215.588 92.3211C212.704 95.8789 207.135 96.3956 203.42 93.8174C201.58 92.5404 201.937 90.8688 202.313 89.1678C203.367 84.4062 204.465 79.6543 205.797 73.7766C199.487 78.0411 193.737 81.4138 188.656 85.7757C184.761 89.1191 180.466 89.665 175.698 88.1492C173.726 87.5205 173.223 86.6384 174.263 84.6938C181.686 70.8378 189.066 56.9526 196.397 43.0479C197.598 40.767 199.208 41.2056 201.146 41.7466C210.727 44.4271 220.332 47.0248 229.933 49.6518C235.741 51.3381 241.52 53.1413 247.377 54.6571C250.535 55.4758 251.911 57.0452 251.828 60.408C251.677 66.6025 251.735 72.8068 252.009 78.9964C252.17 82.6224 250.505 83.8165 247.216 84.0797C241.393 84.5475 235.687 84.1235 230.089 82.4519V82.4616Z" fill="#778C61"/>
            <path d="M229.062 116.344C222.264 117.172 216.904 119.945 214.772 128.313C212.238 123.172 211.946 118.722 211.062 114.496C209.129 105.271 209.212 105.217 201.198 109.871C193.477 114.36 186.131 119.575 176.409 118.936C172.997 118.712 171.347 118.166 171.489 114.399C171.728 108.049 171.645 101.688 171.621 95.333C171.606 92.2382 172.353 90.5032 175.95 91.9604C180.587 93.8465 184.755 92.3016 188.65 89.7624C191.554 87.8714 194.331 85.7854 197.206 83.8457C197.874 83.3924 198.621 82.5785 199.514 83.1633C200.383 83.7336 200.11 84.6742 199.861 85.5222C196.444 97.2435 198.377 96.2444 209.164 98.2377C215.46 99.4026 216.499 98.7008 219.818 92.2187C221.8 88.3539 223.367 83.9821 229.131 84.991C233.528 87.6569 238.272 88.0176 243.28 87.423C251.202 86.4775 251.875 87.2134 251.753 95.2891C251.709 98.306 251.743 101.323 251.782 104.34C251.861 110.495 251.856 110.446 245.706 111.982C240.142 113.371 234.612 114.881 229.067 116.344H229.062Z" fill="#778C61"/>
            <path d="M229 160.475C228.014 163.473 227.135 166.514 226.008 169.453C224.905 172.318 222.762 173.439 219.77 172.274C209.399 168.239 199.832 162.517 189.802 157.775C188.138 156.99 187.279 155.392 189.158 154.061C192.619 151.61 195.781 148.856 200.862 149.924C210.16 151.878 219.614 153.116 229 154.656C230.664 156.596 228.536 158.535 229 160.475Z" fill="#778C61"/>
            <path d="M189.914 161.655C192.76 163.044 194.507 163.887 196.244 164.749C203.6 168.395 210.94 172.06 218.306 175.696C220.653 176.856 222.342 178.167 220.238 180.95C213.459 189.907 206.675 198.86 199.934 207.848C198.582 209.651 197.728 209.042 196.762 207.521C194.263 203.598 192.598 199.314 191.266 194.888C190.519 192.398 192.096 190.717 193.731 189.313C197.962 185.672 198.66 181.71 196.059 176.656C193.789 172.25 192.257 167.464 189.919 161.655H189.914Z" fill="#778C61"/>
            <path d="M32.9009 283.181L39.7974 281.957C41.369 281.68 42.7747 282.976 42.6185 284.56L42.2768 288.064C42.1695 289.161 42.8186 290.189 43.8582 290.564C46.816 291.622 52.5118 293.615 53.1268 293.459C53.7808 293.294 59.3254 290.949 61.6681 289.95C62.3271 289.668 63.0738 289.697 63.7083 290.023L69.5896 293.03C70.5609 293.528 71.0783 294.614 70.8489 295.682L69.6384 301.267C69.5945 301.462 69.5799 301.662 69.5848 301.862C69.6629 304.001 70.0777 316.965 68.7404 317.155C67.281 317.365 59.9989 319.236 58.3297 320.065C57.2266 320.616 55.0352 326.893 53.6734 331.08C53.1219 332.785 50.9646 333.307 49.6859 332.045C45.6006 327.999 38.4894 320.923 38.3429 320.479C38.1331 319.855 39.8023 309.255 37.9281 310.503C36.6737 311.336 35.1363 312.545 34.2626 313.251C33.8087 313.617 33.5061 314.139 33.4036 314.714L33.101 316.463C32.8277 318.057 31.0804 318.934 29.6356 318.203C29.1476 317.955 28.7376 317.779 28.557 317.779C27.9323 317.779 24.1838 321.522 23.5591 321.522C22.9344 321.522 14.8176 319.441 15.6474 319.236C16.4771 319.032 34.7995 301.15 34.7995 298.45C34.7995 296.564 32.4665 290.121 31.0608 286.402C30.5288 284.989 31.4074 283.444 32.896 283.181H32.9009Z" fill="#778C61"/>
            <path d="M124.697 105.539L120.554 93.9051C120.519 93.8076 120.49 93.715 120.466 93.6175C119.963 91.5998 114.418 69.2977 114.95 67.7088C115.429 66.2808 110.187 56.0899 108.684 53.2144C108.425 52.7173 108.303 52.1617 108.337 51.6061L108.547 47.8728C108.562 47.6096 108.547 47.3416 108.488 47.0833L100.425 7.33326C100.152 5.98811 99.0294 4.97925 97.6579 4.85741L96.1449 4.72095C95.1101 6.18306 94.0705 7.64518 93.0358 9.10729L100.743 25.9314C101.05 26.5991 101.109 27.3496 100.909 28.0563L98.3266 37.3115C97.9459 38.681 98.5413 40.1382 99.781 40.84C100.738 41.3859 101.333 42.3948 101.348 43.4913L101.894 81.9791C101.904 82.6078 101.724 83.2219 101.372 83.7482L92.6893 96.7562C92.1817 97.5116 91.4056 97.9746 90.5759 98.1013C89.2532 98.306 88.3064 97.575 88.1551 97.458C86.8909 96.8975 85.2168 95.991 83.5183 94.5143C81.2048 92.5014 79.8724 90.3326 79.1451 88.8997C75.465 89.1093 71.7898 89.314 68.1097 89.5236C68.8467 91.707 73.3077 105.022 73.9178 110.193C73.9666 110.588 74.035 111.348 73.708 112.177C73.0637 113.809 71.17 114.95 66.0256 115.924C63.4632 116.412 49.841 118.805 48.5378 119.872C48.5232 119.882 48.4109 119.979 48.245 120.111C47.6056 120.613 47.0443 120.979 46.6392 121.227L36.9899 134.074C37.1608 135.049 37.3755 136.521 37.478 138.314C37.5903 140.293 37.561 142.335 36.8825 148.559C36.6971 150.25 36.4384 152.531 36.0821 155.246C34.735 158.058 33.1488 159.866 31.9871 160.967C30.6108 162.278 28.8683 163.365 25.4274 165.602C24.1047 166.46 22.9626 167.162 22.0987 167.683C21.43 168.473 20.4539 169.799 19.8096 171.631C18.6822 174.838 19.7999 176.071 18.77 178.493C17.3107 181.919 14.0649 181.817 13.982 184.108C13.9136 186.057 16.1881 188.26 18.3551 188.679C19.9268 188.986 20.6735 188.197 22.9333 188.679C24.1242 188.933 24.9735 189.415 25.6373 189.717C27.3406 190.497 28.4876 191.618 29.1758 192.417C36.3066 188.728 39.5816 184.459 41.2508 181.193C42.9005 177.962 42.8029 175.705 45.9022 169.141C48.5037 163.628 48.3719 165.549 49.9972 161.786C50.7 160.153 51.2711 158.535 52.8524 157.79C54.0385 157.229 55.2928 157.4 56.1469 157.614C58.3775 158.662 61.3596 159.871 64.9811 160.821C66.05 161.104 70.921 162.347 76.2216 162.483C78.5448 162.542 89.0873 162.819 99.1221 156.664C99.1221 156.664 107.961 151.239 120.28 130.614C120.319 130.546 120.368 130.453 120.446 130.336C121.344 128.962 123.794 124.765 122.716 119.765C122.467 118.61 122.218 118.688 122.111 117.796C121.832 115.462 123.077 113.39 124.219 111.967L124.849 106.952C124.907 106.469 124.854 105.982 124.693 105.524L124.697 105.539Z" fill="#778C61"/>
            <path d="M59.6954 472.082C51.5884 472.082 45.1702 470.625 40.4359 467.715C35.7015 464.805 32.3094 460.648 30.2595 455.233C28.2095 449.824 27.1895 443.346 27.1895 435.797V394.609C27.1895 387.065 28.2144 380.607 30.2595 375.246C32.3094 369.885 35.7015 365.791 40.4359 362.974C45.1702 360.157 51.5884 358.744 59.6954 358.744C67.8023 358.744 74.3768 360.177 79.1599 363.037C83.9382 365.903 87.3547 369.992 89.4046 375.309C91.4546 380.627 92.4747 387.06 92.4747 394.609V435.797C92.4747 443.346 91.4497 449.824 89.4046 455.233C87.3547 460.643 83.9431 464.805 79.1599 467.715C74.3768 470.625 67.8902 472.082 59.6954 472.082ZM59.6954 455.852C62.6092 455.852 64.747 455.194 66.1136 453.874C67.4802 452.558 68.388 450.784 68.8468 448.556C69.3007 446.329 69.5301 443.941 69.5301 441.397V389.16C69.5301 386.616 69.3007 384.248 68.8468 382.069C68.388 379.886 67.4802 378.136 66.1136 376.82C64.747 375.504 62.6043 374.842 59.6954 374.842C56.9622 374.842 54.9122 375.504 53.5505 376.82C52.1839 378.136 51.2712 379.886 50.8173 382.069C50.3585 384.253 50.134 386.616 50.134 389.16V441.397C50.134 443.941 50.339 446.329 50.7489 448.556C51.1589 450.784 52.0472 452.558 53.4138 453.874C54.7805 455.194 56.8743 455.852 59.6954 455.852Z" fill="#778C61"/>
            <path d="M135.132 472.082C126.937 472.082 120.451 470.537 115.667 467.442C110.884 464.352 107.541 460.058 105.628 454.556C103.714 449.054 102.758 442.669 102.758 435.393V395.701C102.758 388.064 103.714 381.499 105.628 375.997C107.541 370.494 110.884 366.244 115.667 363.242C120.446 360.24 126.937 358.744 135.132 358.744C143.327 358.744 149.267 360.06 153.777 362.696C158.281 365.333 161.469 369.061 163.338 373.881C165.202 378.702 166.139 384.297 166.139 390.657V399.931H144.288V389.565C144.288 387.021 144.152 384.633 143.878 382.406C143.605 380.178 142.853 378.36 141.623 376.952C140.393 375.543 138.28 374.837 135.274 374.837C132.267 374.837 130.085 375.568 128.719 377.02C127.352 378.477 126.488 380.363 126.122 382.678C125.756 384.998 125.575 387.567 125.575 390.384V440.573C125.575 443.663 125.824 446.368 126.327 448.688C126.825 451.008 127.782 452.777 129.197 454.005C130.607 455.233 132.633 455.848 135.274 455.848C138.187 455.848 140.257 455.146 141.487 453.732C142.717 452.324 143.488 450.438 143.81 448.069C144.127 445.705 144.288 443.21 144.288 440.568V429.793H166.139V438.931C166.139 445.389 165.227 451.091 163.406 456.047C161.581 461.004 158.443 464.913 153.981 467.778C149.52 470.644 143.234 472.077 135.132 472.077V472.082Z" fill="#C0A38B"/>
            <path d="M171.061 470.649L192.507 360.177H217.501L238.811 470.649H217.916L213.953 446.373H196.47L192.233 470.649H171.061ZM198.51 432.6H211.761L205.07 388.005L198.515 432.6H198.51Z" fill="#778C61"/>
        </symbol>
        <symbol viewBox="0 0 140 267" id="logo-oca-white">
            <path d="M38.1312 267C33.5202 267 29.8696 266.172 27.1768 264.518C24.484 262.865 22.5547 260.502 21.3887 257.425C20.2228 254.351 19.6426 250.67 19.6426 246.379V222.973C19.6426 218.685 20.2256 215.015 21.3887 211.969C22.5547 208.922 24.484 206.595 27.1768 204.994C29.8696 203.394 33.5202 202.59 38.1312 202.59C42.7423 202.59 46.4816 203.405 49.2022 205.03C51.9199 206.659 53.8632 208.983 55.0291 212.005C56.1951 215.026 56.7753 218.682 56.7753 222.973V246.379C56.7753 250.67 56.1923 254.351 55.0291 257.425C53.8632 260.499 51.9227 262.865 49.2022 264.518C46.4816 266.172 42.7922 267 38.1312 267ZM38.1312 257.777C39.7885 257.777 41.0044 257.403 41.7817 256.652C42.559 255.904 43.0754 254.896 43.3363 253.631C43.5945 252.365 43.725 251.008 43.725 249.562V219.876C43.725 218.43 43.5945 217.084 43.3363 215.846C43.0754 214.605 42.559 213.611 41.7817 212.863C41.0044 212.115 39.7857 211.739 38.1312 211.739C36.5766 211.739 35.4107 212.115 34.6361 212.863C33.8588 213.611 33.3397 214.605 33.0815 215.846C32.8206 217.087 32.6929 218.43 32.6929 219.876V249.562C32.6929 251.008 32.8095 252.365 33.0427 253.631C33.2759 254.896 33.7811 255.904 34.5584 256.652C35.3357 257.403 36.5266 257.777 38.1312 257.777Z" fill="white"/>
            <path d="M81.0387 267C76.3776 267 72.6883 266.122 69.9677 264.363C67.2472 262.607 65.3455 260.167 64.2573 257.04C63.1691 253.913 62.625 250.285 62.625 246.15V223.593C62.625 219.253 63.1691 215.522 64.2573 212.395C65.3455 209.268 67.2472 206.853 69.9677 205.147C72.6855 203.441 76.3776 202.59 81.0387 202.59C85.6997 202.59 89.0782 203.338 91.6433 204.837C94.2056 206.335 96.0183 208.454 97.0816 211.193C98.142 213.932 98.675 217.112 98.675 220.726V225.997H86.2466V220.106C86.2466 218.66 86.1688 217.303 86.0134 216.037C85.8579 214.772 85.4304 213.738 84.7308 212.938C84.0313 212.138 82.8292 211.736 81.1192 211.736C79.4091 211.736 78.1682 212.151 77.3909 212.977C76.6136 213.805 76.1223 214.877 75.914 216.192C75.7058 217.511 75.6031 218.97 75.6031 220.571V249.094C75.6031 250.85 75.7447 252.387 76.0306 253.705C76.3138 255.024 76.8579 256.029 77.663 256.727C78.4653 257.425 79.6173 257.774 81.1192 257.774C82.7765 257.774 83.9535 257.375 84.6531 256.572C85.3527 255.772 85.7913 254.7 85.9745 253.354C86.155 252.01 86.2466 250.592 86.2466 249.091V242.967H98.675V248.16C98.675 251.83 98.1559 255.071 97.1204 257.888C96.0822 260.704 94.2972 262.926 91.7598 264.554C89.2225 266.183 85.6469 266.997 81.0387 266.997V267Z" fill="white"/>
            <path d="M101.473 266.186L113.671 203.405H127.887L140.007 266.186H128.123L125.869 252.39H115.925L113.515 266.186H101.473ZM117.085 244.563H124.622L120.816 219.22L117.088 244.563H117.085Z" fill="white"/>
            <path d="M129.414 8.43945H49.9043V180.236H129.414V8.43945Z" fill="#b1b1b1"/>
            <path d="M110.439 154.087L107.06 138.452L103.685 154.087L88.0137 157.458L103.685 160.826L107.06 176.461L110.439 160.826L126.11 157.458L110.439 154.087Z" fill="white"/>
            <path d="M64.1039 144.473C63.3239 144.609 62.8242 145.376 63.0296 146.138C63.3377 147.29 63.8763 148.262 64.7757 148.811C66.5635 149.908 68.6817 148.678 69.6311 149.874C70.2224 150.619 69.942 151.777 69.6311 153.065C69.2424 154.677 68.5845 155.696 67.9738 156.727C65.3893 161.092 66.211 161.371 64.8951 162.634C63.3794 164.088 62.7936 163.235 58.2631 165.232C55.7341 166.349 55.5203 166.789 52.6971 167.949C50.6039 168.811 49.5573 169.24 48.0805 169.484C45.2405 169.955 42.9503 169.484 41.3318 169.129C40.6184 168.971 38.1449 168.393 35.0551 166.767C30.4913 164.365 29.9277 162.493 27.5958 162.632C25.4222 162.759 25.2251 164.429 22.7405 164.521C20.5557 164.601 17.9879 163.418 17.5298 161.684C17.1217 160.139 18.668 159.189 18.2405 158.258C17.3105 156.236 9.52639 159.748 7.46655 157.314C5.57327 155.076 9.2127 148.645 12.7938 142.31C16.4277 135.887 19.2093 132.683 17.8851 130.143C17.1051 128.644 15.1479 127.863 13.8598 127.661C11.4835 127.29 10.3231 128.725 6.40054 128.725C5.34286 128.725 3.82712 128.711 3.55784 128.016C3.44958 127.739 3.54952 127.381 5.21516 125.299C6.38666 123.836 6.98074 123.102 7.34718 122.936C8.99061 122.197 10.101 123.875 12.2025 123.764C14.8453 123.623 17.899 120.718 17.6492 117.856C17.4299 115.353 14.7704 113.89 14.4511 113.721C10.9422 111.857 7.0196 113.813 6.75588 113.131C6.39221 112.195 14.5677 110.547 17.4132 104.39C18.5625 101.903 18.0545 100.382 19.9006 96.8288C20.8833 94.9343 22.0187 93.4608 22.9709 92.3973C23.3762 91.9458 24.0286 91.8267 24.5727 92.1037C25.7969 92.7241 27.1989 93.3057 28.7812 93.76C36.0129 95.8372 42.3923 93.9372 45.3571 92.8155C51.409 91.0318 53.8491 88.6415 54.9429 86.736C55.376 85.9799 56.3393 84.1241 57.5607 84.0577C57.9633 84.0355 58.4185 84.3817 59.0931 85.2542C60.0897 86.5476 63.149 89.6663 64.0234 91.054C64.9923 92.5911 66.3109 92.8792 67.7906 91.8461C70.8081 89.7356 74.0561 87.9214 76.785 85.4398C78.062 84.2793 79.4389 83.5259 80.8908 83.1575C81.9291 82.8944 83.1728 82.7808 85.4658 83.1686C89.058 83.7752 92.864 84.415 95.5624 87.3813C96.0287 87.8937 96.8199 89.6137 98.4051 93.0509C98.4051 93.0509 99.6015 95.6489 101.364 101.438C101.556 102.069 101.839 103.033 101.72 104.274C101.575 105.756 100.926 106.883 100.654 107.345C99.7181 108.935 99.113 108.797 98.7604 109.827C98.3551 111.007 98.827 112.137 99.5904 113.962C100.701 116.624 101.722 117.278 101.367 118.333C101.256 118.66 100.543 119.186 99.1185 120.222C97.4501 121.438 96.6145 122.044 96.5146 122.111C94.3742 123.545 93.3082 124.285 92.4893 124.473C89.8492 125.077 88.2141 123.238 87.2786 124.119C86.7039 124.662 86.8733 125.781 87.2008 127.938C87.5062 129.949 87.8782 130.243 87.6755 131.087C87.2841 132.716 84.397 133.699 84.0833 133.804C79.1669 135.461 77.6567 140.009 69.5201 143.019C68.2625 143.485 66.4414 144.063 64.115 144.468L64.1039 144.473Z" fill="white"/>
            <path d="M77.4053 3.57834C83.918 9.60523 91.033 14.9092 97.865 20.5511C98.4729 21.0524 99.3002 21.3516 100.072 21.5787C102.257 22.2213 102.498 23.5895 101.521 25.3538C99.2558 29.4419 97.1349 33.6269 94.5975 37.5405C89.3341 45.6641 86.5691 54.3471 87.624 64.0965C87.9044 66.6945 86.9606 67.5586 84.3566 67.3371C79.8621 66.9548 75.1956 65.5644 72.8248 65.0548C71.3618 64.7418 69.1854 64.3818 66.4315 64.3458C61.5734 52.6077 60.3297 46.8052 60.1548 43.6727C60.1049 42.7919 60.0438 40.3545 59.0888 37.294C58.3448 34.9093 57.6508 34.0341 56.7208 31.7407C56.1989 30.4528 55.8186 29.2452 54.7082 23.8249C53.6144 18.4821 53.1147 15.4078 52.2347 10.7547C51.6156 7.4864 51.0715 4.8164 50.7051 3.05487C51.0715 2.20734 51.8072 1.80296 52.6428 1.76695C57.3704 1.55369 62.0148 0.670149 66.698 0.0802009C70.7955 -0.434965 74.1129 1.562 77.4053 3.57557V3.57834Z" fill="white"/>
            <path d="M122.373 85.9606C117.354 85.1242 112.332 84.296 107.313 83.4429C104.62 82.9859 102.132 83.1383 99.9143 85.0715C99.0982 85.7806 98.5291 85.9246 98.3236 85.9911C97.0661 86.3955 95.8751 85.4316 94.3761 84.5481C91.6888 82.9666 89.2625 82.3766 87.5081 81.9501C86.1561 81.6205 84.5793 81.2521 82.5028 81.3906C79.8655 81.5679 77.9584 82.468 77.5642 82.6591C75.1018 83.8529 74.4328 85.2128 69.5136 89.0378C68.7807 89.6083 67.8479 90.3118 66.6709 90.2204C65.6743 90.1401 64.8831 89.5197 63.8282 88.3315C61.2742 85.4482 59.6197 83.5814 59.8029 81.2438C60.0139 78.5322 62.429 78.5738 63.5922 75.1006C64.8192 71.4307 62.7927 69.3867 64.0669 67.7775C65.5188 65.9412 69.2221 67.2457 75.4849 68.373C85.748 70.2204 90.5562 69.8049 95.6281 69.3063C100.006 68.877 103.398 66.4065 106.991 64.2766C109.528 62.7698 109.569 62.8169 110.197 65.6088C110.935 68.8854 111.64 72.1702 112.39 75.4468C112.523 76.0257 112.343 76.9175 113.276 76.9591C113.945 76.9895 114.228 76.3663 114.392 75.8096C115.607 71.6938 118.536 69.2676 122.353 67.7027C125.951 66.9466 129.574 66.2846 133.136 65.39C134.662 65.0078 135.115 65.2376 135.279 66.8468C135.517 69.1623 134.976 70.9848 133.161 72.4998C131.531 73.8598 130.01 75.3499 128.461 76.8067C126.059 79.064 127.006 80.6816 124.363 83.9C123.597 84.8333 122.872 85.5258 122.376 85.9689L122.373 85.9606Z" fill="white"/>
            <path d="M122.917 46.8606C119.097 45.1517 118.947 45.221 117.037 48.7357C116.334 50.0292 115.59 51.3282 114.669 52.4638C113.028 54.4856 109.861 54.7792 107.748 53.3141C106.701 52.5884 106.904 51.6384 107.118 50.6718C107.718 47.9658 108.342 45.2653 109.1 41.925C105.511 44.3485 102.24 46.2652 99.3504 48.744C97.1351 50.6441 94.6922 50.9543 91.98 50.0929C90.8585 49.7356 90.5725 49.2343 91.1638 48.1292C95.3862 40.2549 99.5836 32.364 103.753 24.462C104.436 23.1658 105.352 23.4151 106.454 23.7225C111.904 25.2458 117.367 26.7221 122.828 28.215C126.131 29.1733 129.418 30.1981 132.749 31.0594C134.545 31.5248 135.328 32.4166 135.281 34.3277C135.195 37.848 135.228 41.3738 135.384 44.8914C135.475 46.952 134.529 47.6306 132.658 47.7802C129.346 48.0461 126.101 47.8051 122.917 46.8551V46.8606Z" fill="white"/>
            <path d="M122.333 66.1156C118.466 66.5864 115.418 68.1624 114.205 72.918C112.764 69.996 112.598 67.4672 112.095 65.0659C110.996 59.8228 111.043 59.7923 106.485 62.4374C102.093 64.9883 97.915 67.9519 92.3851 67.5891C90.4446 67.4617 89.5063 67.1515 89.5868 65.0105C89.7228 61.4016 89.6756 57.7871 89.6618 54.1754C89.6534 52.4166 90.0782 51.4306 92.1241 52.2587C94.7614 53.3306 97.1322 52.4526 99.3475 51.0096C100.999 49.935 102.579 48.7495 104.214 47.6472C104.594 47.3896 105.019 46.9271 105.527 47.2594C106.021 47.5835 105.866 48.118 105.724 48.6C103.781 55.2611 104.88 54.6933 111.015 55.8261C114.596 56.4881 115.188 56.0893 117.075 52.4055C118.203 50.2092 119.094 47.7247 122.372 48.2981C124.873 49.8131 127.572 50.018 130.42 49.6801C134.926 49.1428 135.309 49.561 135.239 54.1505C135.214 55.8649 135.234 57.5794 135.256 59.2938C135.3 62.7919 135.298 62.7642 131.8 63.6367C128.635 64.4261 125.49 65.2847 122.336 66.1156H122.333Z" fill="white"/>
            <path d="M122.298 91.1952C121.737 92.8986 121.237 94.6269 120.596 96.297C119.969 97.9256 118.75 98.5626 117.048 97.9007C111.149 95.6073 105.708 92.3557 100.003 89.6608C99.0564 89.2149 98.5678 88.3064 99.6366 87.5503C101.605 86.1571 103.404 84.5922 106.294 85.1988C111.582 86.3094 116.959 87.0129 122.298 87.8882C123.244 88.9905 122.034 90.0929 122.298 91.1952Z" fill="white"/>
            <path d="M100.066 91.8657C101.685 92.6551 102.679 93.1343 103.667 93.6245C107.851 95.6962 112.026 97.7791 116.215 99.8453C117.55 100.504 118.511 101.249 117.314 102.831C113.458 107.922 109.599 113.01 105.766 118.117C104.997 119.142 104.511 118.796 103.961 117.931C102.54 115.702 101.593 113.267 100.835 110.752C100.411 109.337 101.307 108.382 102.237 107.584C104.644 105.515 105.041 103.263 103.561 100.391C102.271 97.8871 101.399 95.1672 100.069 91.8657H100.066Z" fill="white"/>
            <path d="M10.7613 160.929L14.6839 160.233C15.5778 160.075 16.3773 160.812 16.2885 161.712L16.0941 163.704C16.0331 164.327 16.4023 164.911 16.9936 165.125C18.6759 165.726 21.9155 166.858 22.2653 166.77C22.6373 166.676 25.7909 165.343 27.1235 164.776C27.4982 164.615 27.923 164.632 28.2839 164.817L31.629 166.526C32.1815 166.809 32.4757 167.426 32.3452 168.033L31.6568 171.207C31.6318 171.318 31.6235 171.431 31.6262 171.545C31.6707 172.761 31.9066 180.128 31.146 180.236C30.3159 180.355 26.174 181.419 25.2246 181.89C24.5972 182.203 23.3508 185.77 22.5762 188.149C22.2626 189.119 21.0355 189.415 20.3082 188.698C17.9846 186.399 13.9399 182.377 13.8566 182.125C13.7372 181.771 14.6867 175.746 13.6206 176.456C12.9072 176.929 12.0327 177.616 11.5358 178.018C11.2776 178.225 11.1055 178.522 11.0472 178.849L10.8751 179.843C10.7197 180.749 9.72582 181.247 8.9041 180.832C8.6265 180.69 8.39331 180.591 8.29059 180.591C7.93526 180.591 5.80323 182.718 5.4479 182.718C5.09256 182.718 0.475955 181.535 0.947887 181.419C1.41982 181.303 11.8412 171.14 11.8412 169.606C11.8412 168.534 10.5142 164.873 9.71472 162.759C9.41212 161.956 9.91182 161.078 10.7585 160.929H10.7613Z" fill="white"/>
            <path d="M62.9732 59.9754L60.6163 53.3641C60.5969 53.3087 60.5803 53.256 60.5664 53.2006C60.2804 52.054 57.1268 39.3798 57.4294 38.4769C57.7015 37.6653 54.72 31.8739 53.8649 30.2398C53.7178 29.9572 53.6484 29.6415 53.6678 29.3258L53.7872 27.2042C53.7955 27.0546 53.7872 26.9023 53.7539 26.7555L49.1678 4.16572C49.0124 3.40128 48.3739 2.82795 47.5938 2.7587L46.7332 2.68115C46.1447 3.51207 45.5534 4.34298 44.9649 5.17389L49.3483 14.7349C49.5232 15.1144 49.5565 15.5409 49.4427 15.9425L47.9741 21.2022C47.7576 21.9805 48.0963 22.8086 48.8014 23.2075C49.3455 23.5177 49.6842 24.091 49.6925 24.7142L50.0034 46.5866C50.009 46.9439 49.9063 47.2929 49.7064 47.592L44.7678 54.9843C44.4791 55.4136 44.0377 55.6768 43.5657 55.7488C42.8134 55.8651 42.2749 55.4497 42.1888 55.3832C41.4698 55.0647 40.5176 54.5495 39.5515 53.7103C38.2357 52.5664 37.4778 51.3339 37.0642 50.5196C34.971 50.6387 32.8806 50.755 30.7875 50.8741C31.2067 52.1149 33.744 59.6818 34.091 62.6204C34.1188 62.8448 34.1576 63.2769 33.9716 63.7477C33.6052 64.6756 32.5281 65.3237 29.6021 65.8776C28.1447 66.1546 20.3966 67.5145 19.6554 68.1211C19.6471 68.1266 19.5833 68.182 19.4889 68.2568C19.1252 68.5421 18.806 68.7498 18.5755 68.891L13.0872 76.192C13.1844 76.7459 13.3066 77.5824 13.3649 78.6017C13.4287 79.7262 13.412 80.8867 13.0262 84.4236C12.9207 85.3847 12.7736 86.6809 12.5709 88.2236C11.8047 89.8217 10.9025 90.8493 10.2418 91.4753C9.45893 92.2203 8.46787 92.838 6.51074 94.1093C5.75842 94.5967 5.10882 94.9956 4.61746 95.2919C4.23714 95.7406 3.68192 96.494 3.31548 97.5354C2.67421 99.3579 3.30993 100.059 2.72418 101.435C1.89413 103.382 0.0480477 103.324 0.000854544 104.626C-0.0380104 105.734 1.25564 106.986 2.48821 107.224C3.38211 107.398 3.80685 106.95 5.09217 107.224C5.76953 107.368 6.25257 107.642 6.63011 107.814C7.59896 108.257 8.25134 108.894 8.64276 109.348C12.6986 107.252 14.5613 104.825 15.5108 102.97C16.4491 101.133 16.3935 99.8509 18.1564 96.1201C19.636 92.9875 19.561 94.0788 20.4855 91.9406C20.8852 91.0127 21.21 90.0932 22.1095 89.6694C22.7841 89.3509 23.4975 89.4478 23.9833 89.5697C25.252 90.1652 26.9482 90.8521 29.008 91.3922C29.616 91.5528 32.3865 92.2591 35.4013 92.3366C36.7227 92.3699 42.719 92.5278 48.4266 89.0296C48.4266 89.0296 53.4541 85.9469 60.4609 74.2255C60.4831 74.1867 60.5109 74.1341 60.5553 74.0676C61.0661 73.2866 62.4597 70.9019 61.8461 68.0601C61.7046 67.4037 61.563 67.448 61.5019 66.9412C61.3437 65.6145 62.0516 64.4374 62.7012 63.6286L63.0593 60.7786C63.0926 60.5044 63.0621 60.2274 62.9705 59.967L62.9732 59.9754Z" fill="white"/>
        </symbol>
        <symbol viewBox="0 0 42 42" id="linkedin">
            <path d="M33.25 0H8.75C3.91825 0 0 3.91825 0 8.75V33.25C0 38.0817 3.91825 42 8.75 42H33.25C38.0835 42 42 38.0817 42 33.25V8.75C42 3.91825 38.0835 0 33.25 0ZM14 33.25H8.75V14H14V33.25ZM11.375 11.781C9.6845 11.781 8.3125 10.3985 8.3125 8.694C8.3125 6.9895 9.6845 5.607 11.375 5.607C13.0655 5.607 14.4375 6.9895 14.4375 8.694C14.4375 10.3985 13.0673 11.781 11.375 11.781ZM35 33.25H29.75V23.443C29.75 17.549 22.75 17.9953 22.75 23.443V33.25H17.5V14H22.75V17.0888C25.193 12.5633 35 12.229 35 21.4218V33.25Z" fill="currentColor"/>
        </symbol>
            

    </defs>
</svg>