<!-- sprite.svg -->
<svg xmlns="http://www.w3.org/2000/svg" xmlns:xlink="http://www.w3.org/1999/xlink">
    <defs>
        <symbol id="loading" viewBox="0 0 24 24" stroke-width="1.5" stroke="currentColor"
            fill="none" stroke-linecap="round" stroke-linejoin="round">
            <path stroke="none" d="M0 0h24v24H0z" fill="none" />
            <path d="M12 3a9 9 0 1 0 9 9" />
        </symbol>
        <symbol viewBox="0 0 157 76" id="logo-oca-full">
            <g filter="url(#filter0_d_588_1447)">
                <path
                    d="M65.1619 32.8879C64.4979 32.8879 63.9712 32.7684 63.5828 32.5293C63.1944 32.2903 62.9166 31.9495 62.7484 31.5046C62.5802 31.0609 62.4961 30.5286 62.4961 29.9089V26.5271C62.4961 25.9074 62.5802 25.3773 62.7484 24.9369C62.9166 24.4965 63.1944 24.1612 63.5828 23.9288C63.9712 23.6975 64.4968 23.5813 65.1619 23.5813C65.827 23.5813 66.3659 23.6986 66.7576 23.9343C67.1494 24.1689 67.4294 24.5053 67.5976 24.9424C67.7658 25.3795 67.8499 25.9074 67.8499 26.5271V29.9089C67.8499 30.5286 67.7658 31.0609 67.5976 31.5046C67.4294 31.9484 67.1494 32.2903 66.7576 32.5293C66.3659 32.7684 65.8336 32.8879 65.1619 32.8879ZM65.1619 31.5555C65.4009 31.5555 65.5758 31.5013 65.6876 31.3928C65.7993 31.2844 65.8746 31.1394 65.9111 30.9557C65.9487 30.7731 65.9675 30.5773 65.9675 30.3681V26.08C65.9675 25.8709 65.9487 25.6772 65.9111 25.4979C65.8735 25.3187 65.7993 25.1748 65.6876 25.0664C65.5758 24.9579 65.3998 24.9037 65.1619 24.9037C64.9384 24.9037 64.7702 24.9579 64.6584 25.0664C64.5466 25.1748 64.4714 25.3187 64.4349 25.4979C64.3972 25.6772 64.3784 25.8709 64.3784 26.08V30.3681C64.3784 30.5773 64.395 30.7731 64.4293 30.9557C64.4625 31.1383 64.5356 31.2844 64.6473 31.3928C64.7591 31.5013 64.9306 31.5555 65.1619 31.5555Z"
                    fill="#778C61" />
                <path
                    d="M69.0812 32.7649V23.6963H71.3763C71.7713 23.6963 72.1376 23.7295 72.474 23.797C72.8105 23.8645 73.107 23.984 73.3638 24.1555C73.6216 24.3271 73.8186 24.5639 73.9569 24.866C74.0952 25.1681 74.1638 25.562 74.1638 26.0467C74.1638 26.413 74.1118 26.724 74.0067 26.9818C73.9016 27.2396 73.7533 27.4433 73.5585 27.5916C73.3638 27.7409 73.1258 27.8416 72.8414 27.8937C73.1922 27.9457 73.4866 28.0652 73.7256 28.2522C73.9647 28.4392 74.1439 28.6849 74.2634 28.9914C74.3829 29.2979 74.4427 29.6675 74.4427 30.1002C74.4427 30.5562 74.3852 30.9512 74.269 31.2865C74.1528 31.6229 73.9835 31.8985 73.7599 32.1154C73.5364 32.3323 73.2597 32.4938 72.9311 32.6023C72.6024 32.7107 72.2217 32.7649 71.7891 32.7649H69.0801H69.0812ZM70.9292 27.3569H71.3885C71.7094 27.3569 71.9517 27.3105 72.1166 27.2175C72.2804 27.1246 72.3944 26.9829 72.4586 26.7915C72.5216 26.6011 72.5537 26.3676 72.5537 26.0921C72.5537 25.8166 72.5072 25.5941 72.4143 25.4259C72.3213 25.2577 72.1797 25.1371 71.9894 25.0618C71.799 24.9877 71.5578 24.9501 71.2667 24.9501H70.9303V27.3569H70.9292ZM70.9292 31.4658H71.4438C71.9064 31.4658 72.2251 31.3507 72.401 31.1183C72.5759 30.887 72.6644 30.5396 72.6644 30.077C72.6644 29.7185 72.6234 29.4329 72.5416 29.2205C72.4597 29.008 72.3269 28.8509 72.1443 28.7502C71.9617 28.6495 71.7171 28.5986 71.4106 28.5986H70.9292V31.4647V31.4658Z"
                    fill="#778C61" />
                <path
                    d="M77.8583 32.8877C77.2983 32.8877 76.8313 32.7848 76.4584 32.5801C76.0855 32.3743 75.8033 32.0655 75.613 31.6505C75.4226 31.2367 75.312 30.7088 75.2832 30.0659L76.8734 29.797C76.8878 30.1699 76.9276 30.482 76.9907 30.7321C77.0538 30.9821 77.1512 31.1692 77.2817 31.292C77.4123 31.4148 77.575 31.4768 77.7686 31.4768C78.0077 31.4768 78.1703 31.4027 78.2556 31.2533C78.3408 31.1039 78.3839 30.9324 78.3839 30.7387C78.3839 30.358 78.2921 30.0393 78.1095 29.7815C77.9269 29.5236 77.6857 29.2647 77.3869 29.0035L76.4462 28.1858C76.1098 27.9025 75.8365 27.5815 75.6229 27.223C75.4105 26.8645 75.3042 26.424 75.3042 25.9017C75.3042 25.1559 75.5222 24.5826 75.9593 24.1831C76.3964 23.7837 76.9951 23.5845 77.7565 23.5845C78.2113 23.5845 78.5853 23.6586 78.8764 23.808C79.1674 23.9574 79.3931 24.1566 79.5536 24.4067C79.7141 24.6568 79.8258 24.929 79.89 25.2245C79.9531 25.5199 79.9929 25.8121 80.0073 26.1031L78.4282 26.3377C78.4127 26.0622 78.3895 25.8187 78.3551 25.6096C78.322 25.4004 78.2544 25.2366 78.1537 25.1171C78.053 24.9976 77.9014 24.9379 77.7 24.9379C77.4831 24.9379 77.3227 25.0186 77.2187 25.1791C77.1135 25.3396 77.0615 25.5166 77.0615 25.7114C77.0615 26.0323 77.1346 26.2957 77.2795 26.5004C77.4256 26.7062 77.6248 26.9198 77.8782 27.1444L78.7967 27.95C79.1774 28.2787 79.5038 28.6538 79.776 29.0755C80.0483 29.4971 80.1844 30.0183 80.1844 30.6369C80.1844 31.0618 80.087 31.4469 79.8933 31.79C79.6997 32.133 79.4286 32.4019 79.0811 32.5956C78.7336 32.7892 78.3253 32.8866 77.855 32.8866L77.8583 32.8877Z"
                    fill="#778C61" />
                <path
                    d="M81.0176 32.7649V23.6963H84.9704V24.9722H82.8656V27.3791H84.489V28.6672H82.8656V31.5112H84.9925V32.7649H81.0176Z"
                    fill="#778C61" />
                <path
                    d="M85.918 32.7649V23.6963H88.2695C88.8815 23.6963 89.406 23.7649 89.8431 23.9032C90.2802 24.0416 90.6155 24.2861 90.8512 24.6369C91.0858 24.9877 91.2042 25.4735 91.2042 26.0921C91.2042 26.465 91.1721 26.7959 91.1091 27.0825C91.046 27.3702 90.9331 27.6203 90.7727 27.8328C90.6122 28.0453 90.3865 28.2157 90.0954 28.3418L91.3492 32.7649H89.4569L88.4156 28.6561H87.766V32.7649H85.9191H85.918ZM87.766 27.5584H88.3038C88.6026 27.5584 88.8372 27.5097 89.0087 27.4123C89.1802 27.3149 89.302 27.1677 89.3728 26.9696C89.4436 26.7716 89.479 26.527 89.479 26.236C89.479 25.8177 89.4027 25.499 89.25 25.2787C89.0973 25.0585 88.8117 24.949 88.3935 24.949H87.766V27.5572V27.5584Z"
                    fill="#778C61" />
                <path
                    d="M93.6675 32.7649L91.9434 23.6963H93.5446L94.6191 29.9663L95.6273 23.6963H97.296L95.5719 32.7649H93.6686H93.6675Z"
                    fill="#778C61" />
                <path
                    d="M97.4395 32.7649L99.1978 23.6963H101.246L102.992 32.7649H101.279L100.955 30.7719H99.5221L99.1746 32.7649H97.4395ZM99.6903 29.641H100.776L100.227 25.9803L99.6892 29.641H99.6903Z"
                    fill="#778C61" />
                <path
                    d="M104.302 32.7649V25.0729H102.902V23.6963H107.538V25.0729H106.161V32.7649H104.302Z"
                    fill="#778C61" />
                <path
                    d="M110.818 32.8877C110.154 32.8877 109.627 32.7682 109.239 32.5292C108.851 32.2902 108.573 31.9493 108.405 31.5045C108.236 31.0607 108.152 30.5284 108.152 29.9087V26.5269C108.152 25.9072 108.236 25.3772 108.405 24.9367C108.573 24.4963 108.851 24.161 109.239 23.9286C109.627 23.6973 110.153 23.5811 110.818 23.5811C111.483 23.5811 112.022 23.6984 112.414 23.9342C112.806 24.1688 113.086 24.5052 113.254 24.9423C113.422 25.3794 113.506 25.9072 113.506 26.5269V29.9087C113.506 30.5284 113.422 31.0607 113.254 31.5045C113.086 31.9482 112.806 32.2902 112.414 32.5292C112.022 32.7682 111.49 32.8877 110.818 32.8877ZM110.818 31.5554C111.057 31.5554 111.232 31.5011 111.344 31.3927C111.456 31.2842 111.531 31.1393 111.567 30.9556C111.605 30.773 111.624 30.5771 111.624 30.368V26.0799C111.624 25.8707 111.605 25.6771 111.567 25.4978C111.53 25.3185 111.456 25.1747 111.344 25.0662C111.232 24.9578 111.056 24.9035 110.818 24.9035C110.595 24.9035 110.426 24.9578 110.315 25.0662C110.203 25.1747 110.128 25.3185 110.091 25.4978C110.053 25.6771 110.035 25.8707 110.035 26.0799V30.368C110.035 30.5771 110.051 30.773 110.086 30.9556C110.119 31.1382 110.192 31.2842 110.304 31.3927C110.415 31.5011 110.587 31.5554 110.818 31.5554ZM110.291 23.0135L110.985 20.7737H112.698L111.322 23.0135H110.291Z"
                    fill="#778C61" />
                <path
                    d="M114.74 32.7649V23.6963H117.092C117.704 23.6963 118.228 23.7649 118.665 23.9032C119.102 24.0416 119.438 24.2861 119.673 24.6369C119.908 24.9877 120.027 25.4735 120.027 26.0921C120.027 26.465 119.994 26.7959 119.931 27.0825C119.868 27.3702 119.755 27.6203 119.595 27.8328C119.434 28.0453 119.209 28.2157 118.918 28.3418L120.171 32.7649H118.279L117.238 28.6561H116.588V32.7649H114.741H114.74ZM116.588 27.5584H117.126C117.425 27.5584 117.659 27.5097 117.831 27.4123C118.003 27.3149 118.124 27.1677 118.195 26.9696C118.266 26.7716 118.301 26.527 118.301 26.236C118.301 25.8177 118.225 25.499 118.072 25.2787C117.92 25.0585 117.634 24.949 117.216 24.949H116.588V27.5572V27.5584Z"
                    fill="#778C61" />
                <path d="M121.256 32.7649V23.6963H123.092V32.7649H121.256Z" fill="#778C61" />
                <path
                    d="M127.012 32.8879C126.348 32.8879 125.821 32.7684 125.432 32.5293C125.044 32.2903 124.766 31.9495 124.598 31.5046C124.43 31.0609 124.346 30.5286 124.346 29.9089V26.5271C124.346 25.9074 124.43 25.3773 124.598 24.9369C124.766 24.4965 125.044 24.1612 125.432 23.9288C125.821 23.6975 126.346 23.5813 127.012 23.5813C127.677 23.5813 128.216 23.6986 128.607 23.9343C128.999 24.1689 129.279 24.5053 129.447 24.9424C129.615 25.3795 129.699 25.9074 129.699 26.5271V29.9089C129.699 30.5286 129.615 31.0609 129.447 31.5046C129.279 31.9484 128.999 32.2903 128.607 32.5293C128.216 32.7684 127.683 32.8879 127.012 32.8879ZM127.012 31.5555C127.251 31.5555 127.425 31.5013 127.537 31.3928C127.649 31.2844 127.724 31.1394 127.761 30.9557C127.798 30.7731 127.817 30.5773 127.817 30.3681V26.08C127.817 25.8709 127.798 25.6772 127.761 25.4979C127.723 25.3187 127.649 25.1748 127.537 25.0664C127.425 24.9579 127.249 24.9037 127.012 24.9037C126.788 24.9037 126.62 24.9579 126.508 25.0664C126.396 25.1748 126.321 25.3187 126.284 25.4979C126.247 25.6772 126.228 25.8709 126.228 26.08V30.3681C126.228 30.5773 126.245 30.7731 126.279 30.9557C126.312 31.1383 126.385 31.2844 126.497 31.3928C126.609 31.5013 126.78 31.5555 127.012 31.5555Z"
                    fill="#778C61" />
                <path
                    d="M62.632 46.5533V37.4846H64.8485C65.6176 37.4846 66.2163 37.5831 66.6456 37.7812C67.075 37.9793 67.3793 38.2891 67.5586 38.7107C67.7379 39.1324 67.8275 39.6724 67.8275 40.3286V43.6318C67.8275 44.3035 67.7379 44.8557 67.5586 45.2884C67.3793 45.7211 67.0783 46.0409 66.6567 46.2456C66.2351 46.4515 65.6475 46.5533 64.8928 46.5533H62.6309H62.632ZM64.4789 45.2652H64.8706C65.2137 45.2652 65.4582 45.211 65.6043 45.1025C65.7504 44.9941 65.8411 44.8336 65.8788 44.6211C65.9164 44.4087 65.9352 44.1453 65.9352 43.8321V40.0929C65.9352 39.7797 65.9108 39.5274 65.8622 39.3371C65.8135 39.1467 65.7161 39.0073 65.5711 38.9177C65.425 38.828 65.1882 38.7838 64.8607 38.7838H64.48V45.2663L64.4789 45.2652Z"
                    fill="#778C61" />
                <path
                    d="M68.502 46.5533L70.2604 37.4846H72.3087L74.0549 46.5533H72.3419L72.0176 44.5603H70.5846L70.2371 46.5533H68.502ZM70.7517 43.4293H71.8373L71.2884 39.7687L70.7506 43.4293H70.7517Z"
                    fill="#778C61" />
                <path
                    d="M80.222 46.6759C79.5503 46.6759 79.018 46.5487 78.6263 46.2953C78.2345 46.0419 77.9601 45.6889 77.803 45.2374C77.6458 44.7859 77.5684 44.2613 77.5684 43.6638V40.4059C77.5684 39.7785 77.6469 39.2395 77.803 38.788C77.9601 38.3365 78.2345 37.988 78.6263 37.7412C79.018 37.4944 79.5503 37.3716 80.222 37.3716C80.8937 37.3716 81.3806 37.48 81.7502 37.6958C82.1198 37.9127 82.381 38.2181 82.5337 38.6143C82.6864 39.0105 82.7628 39.4686 82.7628 39.9909V40.7523H80.9712V39.9013C80.9712 39.6921 80.9601 39.4963 80.938 39.3137C80.9159 39.1311 80.8539 38.9817 80.7532 38.8655C80.6525 38.7504 80.4787 38.6918 80.2331 38.6918C79.9874 38.6918 79.8081 38.7515 79.6953 38.871C79.5835 38.9906 79.5127 39.1455 79.4828 39.3358C79.4529 39.5261 79.4385 39.7375 79.4385 39.9688V44.0887C79.4385 44.3421 79.4584 44.5645 79.5005 44.7549C79.5414 44.9452 79.62 45.0913 79.7351 45.192C79.8502 45.2927 80.0162 45.3436 80.2331 45.3436C80.4721 45.3436 80.6414 45.286 80.7421 45.1699C80.8428 45.0548 80.9059 44.8998 80.9324 44.7051C80.959 44.5114 80.9712 44.3056 80.9712 44.0898V43.2056H82.7628V43.9559C82.7628 44.486 82.6886 44.9541 82.5392 45.3613C82.3898 45.7685 82.132 46.0894 81.7668 46.324C81.4005 46.5586 80.886 46.6771 80.222 46.6771V46.6759Z"
                    fill="#778C61" />
                <path
                    d="M83.4434 46.5533L85.2018 37.4846H87.2501L88.9963 46.5533H87.2833L86.9591 44.5603H85.526L85.1785 46.5533H83.4434ZM85.6931 43.4293H86.7787L86.2298 39.7687L85.692 43.4293H85.6931Z"
                    fill="#778C61" />
                <path
                    d="M89.4707 46.5533L91.2291 37.4846H93.2774L95.0237 46.5533H93.3106L92.9864 44.5603H91.5533L91.2059 46.5533H89.4707ZM91.7215 43.4293H92.8071L92.2582 39.7687L91.7204 43.4293H91.7215Z"
                    fill="#778C61" />
                <path
                    d="M96.3335 46.5533V38.8612H94.9336V37.4846H99.5692V38.8612H98.1926V46.5533H96.3335Z"
                    fill="#778C61" />
                <path d="M100.408 46.5533V37.4846H102.244V46.5533H100.408Z" fill="#778C61" />
                <path
                    d="M103.631 46.5533V37.4846H104.919L106.934 42.2098V37.4846H108.457V46.5533H107.225L105.21 41.537V46.5533H103.631Z"
                    fill="#778C61" />
                <path
                    d="M112.15 46.6874C111.538 46.6874 111.053 46.559 110.695 46.3012C110.337 46.0433 110.081 45.6781 109.928 45.2045C109.776 44.7309 109.699 44.1798 109.699 43.5535V40.5191C109.699 39.8696 109.778 39.3096 109.934 38.8393C110.091 38.369 110.365 38.0071 110.757 37.7537C111.149 37.5003 111.681 37.373 112.353 37.373C113.025 37.373 113.516 37.4815 113.892 37.6973C114.268 37.9142 114.54 38.2196 114.703 38.6158C114.867 39.0119 114.95 39.4822 114.95 40.0267V40.5534H113.147V39.9149C113.147 39.6759 113.132 39.4656 113.103 39.2819C113.073 39.0994 113.005 38.9555 112.896 38.8504C112.788 38.7463 112.614 38.6932 112.376 38.6932C112.138 38.6932 111.95 38.7563 111.838 38.8836C111.727 39.0108 111.656 39.1724 111.626 39.3705C111.596 39.5686 111.58 39.7788 111.58 40.0035V44.0227C111.58 44.2761 111.603 44.504 111.648 44.7054C111.692 44.9068 111.776 45.064 111.9 45.1757C112.024 45.2875 112.2 45.3439 112.433 45.3439C112.665 45.3439 112.843 45.2842 112.97 45.1647C113.098 45.0452 113.185 44.8825 113.234 44.6778C113.282 44.473 113.307 44.2395 113.307 43.9784V43.0156H112.423V41.8958H114.976V46.5535H113.766L113.654 45.7357C113.535 46.0123 113.355 46.2392 113.116 46.4185C112.877 46.5977 112.556 46.6874 112.154 46.6874H112.15Z"
                    fill="#778C61" />
                <path
                    d="M115.793 46.5533L117.551 37.4846H119.6L121.346 46.5533H119.633L119.309 44.5603H117.876L117.528 46.5533H115.793ZM118.044 43.4293H119.129L118.581 39.7687L118.043 43.4293H118.044Z"
                    fill="#778C61" />
                <path
                    d="M62.6309 60.3404V51.2717H66.5837V52.5476H64.4789V54.9545H66.1023V56.2426H64.4789V59.0866H66.6058V60.3404H62.6309Z"
                    fill="#E2C9B5" />
                <path
                    d="M70.3351 60.3404V51.2717H72.5516C73.3207 51.2717 73.9194 51.3702 74.3488 51.5683C74.7781 51.7664 75.0824 52.0762 75.2617 52.4979C75.441 52.9195 75.5306 53.4595 75.5306 54.1157V57.4189C75.5306 58.0907 75.441 58.6428 75.2617 59.0755C75.0824 59.5082 74.7814 59.828 74.3598 60.0327C73.9382 60.2386 73.3506 60.3404 72.5959 60.3404H70.334H70.3351ZM72.182 59.0534H72.5738C72.9168 59.0534 73.1614 58.9992 73.3074 58.8907C73.4535 58.7823 73.5443 58.6218 73.5819 58.4094C73.6195 58.1969 73.6383 57.9335 73.6383 57.6203V53.8811C73.6383 53.5679 73.614 53.3156 73.5653 53.1253C73.5166 52.935 73.4192 52.7955 73.2742 52.7059C73.1282 52.6163 72.8914 52.572 72.5638 52.572H72.1831V59.0545L72.182 59.0534Z"
                    fill="#E2C9B5" />
                <path
                    d="M76.75 60.3404V51.2717H80.7028V52.5476H78.598V54.9545H80.2214V56.2426H78.598V59.0866H80.7249V60.3404H76.75Z"
                    fill="#E2C9B5" />
                <path
                    d="M84.0028 60.4632C83.4429 60.4632 82.9759 60.3602 82.603 60.1555C82.23 59.9497 81.9478 59.641 81.7575 59.226C81.5672 58.8121 81.4565 58.2843 81.4277 57.6413L83.0179 57.3724C83.0323 57.7453 83.0722 58.0574 83.1352 58.3075C83.1983 58.5576 83.2957 58.7446 83.4263 58.8674C83.5568 58.9903 83.7195 59.0522 83.9132 59.0522C84.1522 59.0522 84.3149 58.9781 84.4001 58.8287C84.4853 58.6793 84.5285 58.5078 84.5285 58.3141C84.5285 57.9335 84.4366 57.6148 84.254 57.3569C84.0714 57.0991 83.8302 56.8401 83.5314 56.579L82.5908 55.7612C82.2544 55.4779 81.981 55.157 81.7675 54.7984C81.555 54.4399 81.4488 53.9995 81.4488 53.4771C81.4488 52.7313 81.6668 52.1581 82.1039 51.7586C82.541 51.3591 83.1397 51.1599 83.901 51.1599C84.3558 51.1599 84.7299 51.2341 85.0209 51.3834C85.3119 51.5328 85.5377 51.732 85.6981 51.9821C85.8586 52.2322 85.9704 52.5044 86.0345 52.7999C86.0976 53.0954 86.1375 53.3875 86.1518 53.6786L84.5727 53.9132C84.5572 53.6376 84.534 53.3942 84.4997 53.185C84.4665 52.9759 84.399 52.8121 84.2983 52.6926C84.1976 52.573 84.046 52.5133 83.8446 52.5133C83.6277 52.5133 83.4672 52.5941 83.3632 52.7545C83.2581 52.915 83.2061 53.092 83.2061 53.2868C83.2061 53.6077 83.2791 53.8711 83.4241 54.0758C83.5701 54.2817 83.7693 54.4952 84.0227 54.7199L84.9412 55.5255C85.3219 55.8541 85.6483 56.2293 85.9206 56.6509C86.1928 57.0725 86.3289 57.5937 86.3289 58.2123C86.3289 58.6373 86.2315 59.0224 86.0379 59.3654C85.8442 59.7085 85.5731 59.9774 85.2256 60.171C84.8781 60.3647 84.4698 60.4621 83.9995 60.4621L84.0028 60.4632Z"
                    fill="#E2C9B5" />
                <path
                    d="M87.1621 60.3404V51.2717H91.1149V52.5476H89.0101V54.9545H90.6335V56.2426H89.0101V59.0866H91.137V60.3404H87.1621Z"
                    fill="#E2C9B5" />
                <path
                    d="M92.0625 60.3404V51.2717H94.414C95.026 51.2717 95.5505 51.3403 95.9876 51.4787C96.4247 51.617 96.76 51.8616 96.9958 52.2123C97.2304 52.5631 97.3488 53.0489 97.3488 53.6675C97.3488 54.0405 97.3167 54.3713 97.2536 54.658C97.1905 54.9457 97.0776 55.1958 96.9172 55.4082C96.7567 55.6207 96.531 55.7911 96.2399 55.9173L97.4937 60.3404H95.6014L94.5601 56.2315H93.9105V60.3404H92.0636H92.0625ZM93.9094 55.1338H94.4472C94.746 55.1338 94.9806 55.0851 95.1521 54.9877C95.3237 54.8903 95.4454 54.7432 95.5162 54.5451C95.587 54.347 95.6225 54.1024 95.6225 53.8114C95.6225 53.3931 95.5461 53.0744 95.3934 52.8542C95.2407 52.634 94.9552 52.5244 94.5369 52.5244H93.9094V55.1327V55.1338Z"
                    fill="#E2C9B5" />
                <path
                    d="M99.3803 60.3404V52.6483H97.9805V51.2717H102.616V52.6483H101.239V60.3404H99.3803Z"
                    fill="#E2C9B5" />
                <path d="M103.453 60.3404V51.2717H105.289V60.3404H103.453Z" fill="#E2C9B5" />
                <path
                    d="M106.678 60.3404V51.2717H110.507V52.5255H108.525V54.9778H110.204V56.2659H108.525V60.3415H106.678V60.3404Z"
                    fill="#E2C9B5" />
                <path d="M111.412 60.3404V51.2717H113.248V60.3404H111.412Z" fill="#E2C9B5" />
                <path
                    d="M117.154 60.4633C116.482 60.4633 115.95 60.336 115.558 60.0826C115.166 59.8292 114.892 59.4762 114.735 59.0247C114.577 58.5732 114.5 58.0487 114.5 57.4511V54.1933C114.5 53.5658 114.579 53.0269 114.735 52.5754C114.892 52.1239 115.166 51.7753 115.558 51.5285C115.95 51.2818 116.482 51.1589 117.154 51.1589C117.825 51.1589 118.312 51.2674 118.682 51.4832C119.051 51.7001 119.313 52.0055 119.465 52.4017C119.618 52.7978 119.694 53.256 119.694 53.7783V54.5396H117.903V53.6886C117.903 53.4795 117.892 53.2836 117.87 53.101C117.847 52.9184 117.786 52.7691 117.685 52.6529C117.584 52.5378 117.41 52.4791 117.165 52.4791C116.919 52.4791 116.74 52.5389 116.627 52.6584C116.515 52.7779 116.444 52.9328 116.414 53.1232C116.385 53.3135 116.37 53.5249 116.37 53.7561V57.876C116.37 58.1295 116.39 58.3519 116.432 58.5422C116.473 58.7326 116.552 58.8786 116.667 58.9793C116.782 59.08 116.948 59.1309 117.165 59.1309C117.404 59.1309 117.573 59.0734 117.674 58.9572C117.774 58.8421 117.838 58.6872 117.864 58.4924C117.891 58.2988 117.903 58.0929 117.903 57.8772V56.993H119.694V57.7433C119.694 58.2733 119.62 58.7414 119.471 59.1486C119.321 59.5559 119.064 59.8768 118.698 60.1114C118.332 60.346 117.818 60.4644 117.154 60.4644V60.4633Z"
                    fill="#E2C9B5" />
                <path
                    d="M120.381 60.3404L122.139 51.2717H124.188L125.934 60.3404H124.221L123.897 58.3474H122.463L122.116 60.3404H120.381ZM122.632 57.2164H123.717L123.168 53.5558L122.631 57.2164H122.632Z"
                    fill="#E2C9B5" />
                <path
                    d="M129.337 60.4633C128.666 60.4633 128.133 60.336 127.742 60.0826C127.35 59.8292 127.075 59.4762 126.918 59.0247C126.761 58.5732 126.684 58.0487 126.684 57.4511V54.1933C126.684 53.5658 126.762 53.0269 126.918 52.5754C127.075 52.1239 127.35 51.7753 127.742 51.5285C128.133 51.2818 128.666 51.1589 129.337 51.1589C130.009 51.1589 130.496 51.2674 130.865 51.4832C131.235 51.7001 131.496 52.0055 131.649 52.4017C131.802 52.7978 131.878 53.256 131.878 53.7783V54.5396H130.086V53.6886C130.086 53.4795 130.075 53.2836 130.053 53.101C130.031 52.9184 129.969 52.7691 129.868 52.6529C129.768 52.5378 129.594 52.4791 129.348 52.4791C129.103 52.4791 128.923 52.5389 128.81 52.6584C128.699 52.7779 128.628 52.9328 128.598 53.1232C128.568 53.3135 128.554 53.5249 128.554 53.7561V57.876C128.554 58.1295 128.574 58.3519 128.616 58.5422C128.657 58.7326 128.735 58.8786 128.85 58.9793C128.965 59.08 129.131 59.1309 129.348 59.1309C129.587 59.1309 129.757 59.0734 129.857 58.9572C129.958 58.8421 130.021 58.6872 130.048 58.4924C130.074 58.2988 130.086 58.0929 130.086 57.8772V56.993H131.878V57.7433C131.878 58.2733 131.804 58.7414 131.654 59.1486C131.505 59.5559 131.247 59.8768 130.882 60.1114C130.516 60.346 130.001 60.4644 129.337 60.4644V60.4633ZM129.45 63.3416C129.308 63.3416 129.167 63.3305 129.025 63.3084C128.884 63.2863 128.745 63.252 128.611 63.2077V62.4685C128.701 62.4906 128.799 62.5116 128.908 62.5304C129.016 62.5493 129.126 62.5581 129.238 62.5581C129.431 62.5581 129.596 62.526 129.73 62.4629C129.864 62.3999 129.931 62.2969 129.931 62.1553C129.931 62.0137 129.881 61.9019 129.78 61.8189C129.679 61.737 129.552 61.6772 129.399 61.6396C129.247 61.602 129.084 61.5765 128.912 61.5611V60.3405H129.562V61.0575C130.01 61.0575 130.367 61.1505 130.636 61.3375C130.905 61.5245 131.039 61.8045 131.039 62.1774C131.039 62.453 130.966 62.6776 130.821 62.8491C130.675 63.0207 130.481 63.1457 130.239 63.2243C129.997 63.3029 129.733 63.3416 129.45 63.3416Z"
                    fill="#E2C9B5" />
                <path
                    d="M132.562 60.3404L134.321 51.2718H136.369L138.115 60.3404H136.402L136.078 58.3474H134.645L134.298 60.3404H132.562ZM136.246 50.1851C136.052 50.1851 135.877 50.1408 135.72 50.0512C135.563 49.9616 135.413 49.8741 135.271 49.7878C135.13 49.7026 134.984 49.6594 134.834 49.6594C134.677 49.6594 134.571 49.7026 134.516 49.7878C134.459 49.8741 134.432 49.9837 134.432 50.1176H133.603C133.603 49.8265 133.63 49.5676 133.687 49.3396C133.743 49.1117 133.844 48.9324 133.989 48.8018C134.135 48.6712 134.334 48.606 134.588 48.606C134.775 48.606 134.941 48.6469 135.086 48.7288C135.232 48.8107 135.374 48.8948 135.517 48.9811C135.659 49.0674 135.808 49.1095 135.965 49.1095C136.093 49.1095 136.183 49.0707 136.24 48.9922C136.296 48.9136 136.324 48.8074 136.324 48.6735H137.096C137.096 48.9125 137.08 49.1471 137.045 49.3784C137.012 49.6097 136.934 49.8022 136.811 49.9549C136.688 50.1076 136.499 50.184 136.245 50.184L136.246 50.1851ZM134.813 57.2165H135.899L135.35 53.5558L134.812 57.2165H134.813Z"
                    fill="#E2C9B5" />
                <path
                    d="M141.443 60.4633C140.779 60.4633 140.252 60.3438 139.864 60.1048C139.476 59.8657 139.198 59.5249 139.03 59.0801C138.861 58.6363 138.777 58.104 138.777 57.4843V54.1025C138.777 53.4828 138.861 52.9528 139.03 52.5123C139.198 52.0719 139.476 51.7366 139.864 51.5042C140.252 51.2729 140.778 51.1567 141.443 51.1567C142.108 51.1567 142.647 51.274 143.039 51.5097C143.431 51.7443 143.711 52.0808 143.879 52.5179C144.047 52.955 144.131 53.4828 144.131 54.1025V57.4843C144.131 58.104 144.047 58.6363 143.879 59.0801C143.711 59.5238 143.431 59.8657 143.039 60.1048C142.647 60.3438 142.115 60.4633 141.443 60.4633ZM141.443 59.131C141.682 59.131 141.857 59.0767 141.969 58.9683C142.081 58.8598 142.156 58.7149 142.192 58.5312C142.23 58.3486 142.249 58.1527 142.249 57.9436V53.6555C142.249 53.4463 142.23 53.2527 142.192 53.0734C142.155 52.8941 142.081 52.7503 141.969 52.6418C141.857 52.5334 141.681 52.4791 141.443 52.4791C141.22 52.4791 141.051 52.5334 140.94 52.6418C140.828 52.7503 140.753 52.8941 140.716 53.0734C140.678 53.2527 140.66 53.4463 140.66 53.6555V57.9436C140.66 58.1527 140.676 58.3486 140.711 58.5312C140.744 58.7138 140.817 58.8598 140.929 58.9683C141.04 59.0767 141.212 59.131 141.443 59.131Z"
                    fill="#E2C9B5" />
                <path d="M55.395 14.9019H28.8242V72.4455H55.395V14.9019Z" fill="#E2C9B5" />
                <path
                    d="M49.0525 63.6865L47.9249 58.449L46.7962 63.6865L41.5586 64.8142L46.7962 65.9429L47.9249 71.1805L49.0525 65.9429L54.2901 64.8142L49.0525 63.6865Z"
                    fill="#C0A38B" />
                <path
                    d="M33.6461 60.5075C33.3827 60.5529 33.2145 60.8129 33.2831 61.0707C33.3871 61.4614 33.5697 61.7889 33.8718 61.976C34.4749 62.3478 35.1909 61.9306 35.5107 62.3356C35.7099 62.5879 35.6158 62.9796 35.5107 63.4157C35.379 63.9612 35.1566 64.3065 34.9507 64.6551C34.0776 66.1324 34.3554 66.2275 33.9116 66.6547C33.4004 67.1471 33.2023 66.8583 31.673 67.5344C30.8187 67.9118 30.7467 68.0612 29.7939 68.454C29.0879 68.7451 28.7338 68.8911 28.2347 68.9741C27.2753 69.1335 26.5029 68.9741 25.9562 68.8546C25.715 68.8015 24.8806 68.6056 23.8371 68.0546C22.2956 67.2412 22.1052 66.6082 21.3184 66.6547C20.5848 66.6978 20.5173 67.2633 19.6795 67.2943C18.9414 67.322 18.075 66.9214 17.92 66.3349C17.7817 65.8115 18.304 65.4894 18.1602 65.1752C17.8459 64.4902 15.2177 65.6787 14.5216 64.8553C13.8831 64.0984 15.1115 61.9217 16.321 59.7771C17.5482 57.6026 18.4866 56.5182 18.0407 55.6594C17.7773 55.1526 17.1166 54.8881 16.6817 54.8195C15.8795 54.6934 15.4877 55.1792 14.1631 55.1792C13.8057 55.1792 13.2944 55.1747 13.2037 54.939C13.1672 54.8461 13.2004 54.7243 13.7636 54.0194C14.1587 53.5248 14.359 53.2758 14.4829 53.2194C15.0384 52.9693 15.4125 53.537 16.1218 53.4993C17.0137 53.4517 18.0451 52.468 17.961 51.4997C17.8868 50.652 16.9894 50.1574 16.8809 50.0998C15.6969 49.4691 14.3712 50.1308 14.2815 49.8995C14.1587 49.583 16.9197 49.0242 17.8802 46.9405C18.2686 46.0983 18.0971 45.5838 18.7201 44.382C19.0521 43.7402 19.435 43.2422 19.757 42.8814C19.8931 42.7287 20.1144 42.6889 20.297 42.7818C20.7098 42.9921 21.1845 43.1891 21.7179 43.3418C24.1591 44.0445 26.3148 43.4015 27.3151 43.022C29.3591 42.4189 30.1824 41.6099 30.552 40.9637C30.698 40.708 31.0234 40.0795 31.4362 40.0574C31.5723 40.0496 31.7261 40.1669 31.954 40.4624C32.2905 40.8995 33.324 41.9563 33.6184 42.4255C33.9448 42.9456 34.3908 43.043 34.891 42.6933C35.9102 41.9795 37.0068 41.3654 37.9275 40.5255C38.3591 40.1326 38.8239 39.8781 39.3141 39.753C39.6649 39.6634 40.0843 39.6258 40.8589 39.7564C42.0718 39.9611 43.3565 40.178 44.2684 41.1828C44.4255 41.3554 44.6933 41.9375 45.2278 43.1016C45.2278 43.1016 45.6317 43.9803 46.2271 45.9401C46.2924 46.1537 46.3875 46.4801 46.3466 46.8995C46.2979 47.4008 46.0788 47.7826 45.9869 47.9386C45.6705 48.4775 45.4657 48.43 45.3473 48.7785C45.2112 49.178 45.3695 49.5598 45.6273 50.1784C46.0024 51.0792 46.3466 51.3005 46.2271 51.6579C46.1895 51.7686 45.9482 51.9468 45.4679 52.2976C44.9047 52.7081 44.6225 52.915 44.5882 52.9372C43.8656 53.423 43.5059 53.6731 43.2293 53.7373C42.3374 53.942 41.7852 53.319 41.4698 53.6177C41.2761 53.8014 41.3326 54.181 41.4432 54.9103C41.5461 55.5908 41.6723 55.6904 41.6037 55.9759C41.4709 56.5281 40.4971 56.8601 40.3908 56.8955C38.7309 57.4566 38.2208 58.9959 35.4731 60.0139C35.0481 60.1711 34.4328 60.3669 33.6483 60.5042L33.6461 60.5075Z"
                    fill="#778C61" />
                <path
                    d="M38.1347 12.8227C40.3335 14.8622 42.736 16.6571 45.0432 18.5671C45.248 18.7364 45.5279 18.8382 45.7891 18.9146C46.5272 19.1326 46.608 19.5952 46.2782 20.1927C45.5135 21.576 44.7965 22.9924 43.9399 24.3182C42.1627 27.0681 41.2288 30.0061 41.5851 33.306C41.6802 34.1847 41.3615 34.4779 40.4818 34.4027C38.9646 34.2732 37.3888 33.8029 36.5876 33.6303C36.0941 33.524 35.3582 33.4023 34.4286 33.3901C32.7887 29.4174 32.3681 27.4532 32.3095 26.3931C32.2929 26.0954 32.2719 25.271 31.9498 24.2341C31.6986 23.4273 31.464 23.1308 31.1498 22.355C30.9738 21.919 30.8443 21.5107 30.4703 19.6759C30.1007 17.8677 29.9325 16.8275 29.6359 15.2528C29.4268 14.1462 29.2431 13.2421 29.1191 12.6468C29.2431 12.3602 29.491 12.2229 29.7743 12.2108C31.3711 12.1388 32.9392 11.8389 34.5194 11.6398C35.9026 11.4649 37.0236 12.141 38.1347 12.8227Z"
                    fill="#778C61" />
                <path
                    d="M53.3218 40.7047C51.6264 40.4214 49.9311 40.1414 48.2369 39.8526C47.3273 39.6977 46.4873 39.7497 45.7382 40.4037C45.4626 40.6438 45.2701 40.6925 45.2004 40.7146C44.7765 40.8518 44.3737 40.5254 43.8669 40.2266C42.9595 39.691 42.1406 39.4918 41.5474 39.3469C41.0915 39.2362 40.5581 39.11 39.8565 39.1576C38.9657 39.2174 38.3217 39.5217 38.1889 39.587C37.3567 39.9909 37.131 40.4513 35.47 41.746C35.2221 41.9385 34.9078 42.1776 34.5105 42.1455C34.1741 42.1189 33.9063 41.9087 33.5511 41.5058C32.689 40.5298 32.1302 39.8979 32.1922 39.1067C32.263 38.1893 33.0797 38.2037 33.4714 37.0274C33.8853 35.7858 33.2014 35.0931 33.6319 34.5486C34.1221 33.9278 35.3726 34.3682 37.4873 34.75C40.9521 35.3752 42.5766 35.2347 44.2896 35.0654C45.768 34.9204 46.9134 34.0838 48.1262 33.3634C48.9839 32.8533 48.9971 32.8688 49.2096 33.8149C49.4586 34.9237 49.6965 36.0359 49.9499 37.1447C49.9942 37.3406 49.9333 37.6427 50.2498 37.656C50.4756 37.6659 50.5707 37.4546 50.6261 37.2664C51.0366 35.8732 52.0248 35.0521 53.314 34.5232C54.5291 34.2675 55.7519 34.0429 56.9548 33.7408C57.4704 33.6113 57.6231 33.6888 57.6785 34.2332C57.7593 35.0167 57.5767 35.6331 56.9636 36.1465C56.4136 36.6069 55.899 37.1115 55.3767 37.6039C54.5656 38.3675 54.8854 38.9153 53.9935 40.0042C53.7345 40.3207 53.49 40.5553 53.3229 40.7047H53.3218Z"
                    fill="#778C61" />
                <path
                    d="M53.5053 27.4709C52.215 26.8922 52.1652 26.9165 51.52 28.1061C51.2832 28.5432 51.032 28.9836 50.72 29.3676C50.1667 30.0515 49.0966 30.1511 48.3828 29.6554C48.0287 29.4097 48.0984 29.0877 48.1703 28.7612C48.3728 27.8449 48.5831 26.9309 48.8398 25.801C47.627 26.621 46.5237 27.2695 45.5477 28.1094C44.7996 28.7524 43.9741 28.8575 43.0589 28.5665C42.6804 28.4458 42.5831 28.2754 42.7834 27.9014C44.2098 25.2367 45.6262 22.5664 47.0338 19.8918C47.2651 19.4535 47.5739 19.5376 47.9457 19.6417C49.786 20.1573 51.6307 20.6575 53.4743 21.1621C54.5898 21.4864 55.6997 21.8339 56.824 22.1249C57.4304 22.282 57.6949 22.5841 57.6794 23.2304C57.6506 24.4211 57.6617 25.6151 57.7137 26.8058C57.7447 27.503 57.4249 27.7332 56.7941 27.7841C55.6753 27.8737 54.5809 27.7929 53.5042 27.4709H53.5053Z"
                    fill="#778C61" />
                <path
                    d="M53.3041 33.9875C51.9983 34.1468 50.9692 34.6802 50.5586 36.2903C50.0717 35.301 50.0164 34.4456 49.846 33.6323C49.4742 31.8584 49.4908 31.8473 47.9515 32.7425C46.4686 33.6057 45.0577 34.6094 43.1908 34.4855C42.5357 34.4423 42.2181 34.3372 42.2458 33.6123C42.2912 32.3918 42.2757 31.1678 42.2713 29.945C42.269 29.3497 42.4118 29.0155 43.1023 29.2966C43.992 29.6584 44.7932 29.3619 45.5413 28.8738C46.099 28.5098 46.6324 28.1092 47.1846 27.7363C47.313 27.6488 47.4568 27.4928 47.6283 27.6057C47.7954 27.7152 47.7423 27.8956 47.6947 28.0594C47.0385 30.3135 47.4103 30.1221 49.4819 30.505C50.6914 30.7285 50.8906 30.5935 51.528 29.3475C51.9087 28.6038 52.2097 27.7639 53.3174 27.9576C54.1618 28.4699 55.0736 28.5397 56.0352 28.4246C57.5568 28.2431 57.6863 28.3847 57.662 29.9384C57.6531 30.5183 57.6609 31.0992 57.6675 31.6791C57.6819 32.8632 57.6819 32.8532 56.5 33.1487C55.4321 33.4154 54.3687 33.7064 53.3041 33.9875Z"
                    fill="#778C61" />
                <path
                    d="M53.294 42.4753C53.1048 43.0519 52.9366 43.6361 52.7197 44.2027C52.5083 44.7538 52.0967 44.9696 51.5223 44.745C49.5304 43.9692 47.6935 42.8682 45.7658 41.9563C45.446 41.8047 45.2811 41.4982 45.6418 41.2414C46.3058 40.77 46.9133 40.24 47.8893 40.4458C49.6754 40.822 51.4903 41.06 53.2929 41.3554C53.6127 41.7283 53.2044 42.1024 53.2929 42.4753H53.294Z"
                    fill="#778C61" />
                <path
                    d="M45.7871 42.7024C46.3338 42.9702 46.6691 43.1318 47.0033 43.2977C48.4153 43.9993 49.8262 44.7042 51.2405 45.4025C51.6909 45.6249 52.0162 45.8773 51.6112 46.4129C50.3087 48.1358 49.0062 49.8577 47.7115 51.5862C47.4514 51.9337 47.2877 51.8164 47.1018 51.5232C46.6215 50.7685 46.3017 49.944 46.0472 49.0942C45.9033 48.615 46.2065 48.2919 46.5208 48.0219C47.333 47.3214 47.4669 46.5589 46.9679 45.5873C46.5319 44.7397 46.2375 43.8201 45.7882 42.7024H45.7871Z"
                    fill="#778C61" />
                <path
                    d="M15.6279 66.0772L16.9525 65.8426C17.2546 65.7895 17.5235 66.0385 17.4948 66.3439L17.4295 67.0178C17.4085 67.2292 17.5335 67.4273 17.7338 67.4981C18.3015 67.7017 19.3959 68.0846 19.5143 68.0547C19.6405 68.0238 20.705 67.5712 21.1543 67.3797C21.2805 67.3255 21.4243 67.331 21.5461 67.3941L22.6759 67.9729C22.8629 68.068 22.9614 68.2783 22.9172 68.483L22.6848 69.5575C22.677 69.5951 22.6737 69.6328 22.6748 69.6715C22.6892 70.0832 22.77 72.5763 22.5132 72.6129C22.2333 72.6527 20.8345 73.0123 20.5136 73.1728C20.3022 73.279 19.8806 74.4863 19.6195 75.292C19.5132 75.6195 19.0982 75.7202 18.8537 75.4779C18.0691 74.6999 16.7035 73.3388 16.6748 73.2536C16.6349 73.1341 16.9547 71.0946 16.5951 71.3347C16.3539 71.4952 16.0595 71.7276 15.8913 71.8637C15.8039 71.9345 15.7452 72.0341 15.7264 72.1448L15.6689 72.4812C15.6158 72.7877 15.2804 72.9559 15.0038 72.8154C14.9097 72.7678 14.8312 72.7346 14.7969 72.7346C14.6773 72.7346 13.9569 73.4539 13.8374 73.4539C13.7179 73.4539 12.1587 73.0544 12.3181 73.0146C12.4785 72.9747 15.9964 69.5365 15.9964 69.0164C15.9964 68.6534 15.5482 67.4151 15.2782 66.6991C15.1753 66.428 15.3446 66.1303 15.6301 66.0794L15.6279 66.0772Z"
                    fill="#778C61" />
                <path
                    d="M33.2627 31.9094L32.467 29.6718C32.4604 29.653 32.4548 29.6353 32.4504 29.6165C32.3541 29.2281 31.2896 24.9389 31.3914 24.6335C31.4832 24.359 30.4762 22.3981 30.1874 21.8459C30.1376 21.7507 30.1144 21.6434 30.121 21.5361L30.1608 20.8179C30.1642 20.767 30.1608 20.7161 30.1498 20.6663L28.6005 13.0207C28.5485 12.7618 28.3316 12.5681 28.0694 12.5449L27.7794 12.5183C27.5802 12.7994 27.381 13.0805 27.1819 13.3615L28.6614 16.5973C28.72 16.7256 28.7311 16.8706 28.6935 17.0056L28.1977 18.7861C28.1247 19.0495 28.2398 19.3295 28.4766 19.4656C28.6603 19.5707 28.7743 19.7644 28.7776 19.9757L28.8827 27.379C28.8849 27.4996 28.8495 27.618 28.782 27.7187L27.1144 30.2207C27.017 30.3668 26.8676 30.4553 26.7093 30.4797C26.4548 30.5195 26.2733 30.379 26.2446 30.3557C26.0022 30.2484 25.6802 30.0735 25.3537 29.7903C24.9089 29.404 24.6533 28.9857 24.5138 28.7102C23.8078 28.75 23.1007 28.7899 22.3947 28.8297C22.5363 29.2491 23.3928 31.8109 23.5101 32.8058C23.519 32.8821 23.5334 33.0282 23.4703 33.1864C23.3464 33.4996 22.9823 33.7198 21.9952 33.9079C21.5027 34.002 18.8867 34.4612 18.6366 34.6671C18.6344 34.6693 18.6123 34.6881 18.5802 34.7124C18.4574 34.8098 18.3489 34.8795 18.2714 34.9271L16.4179 37.3982C16.4511 37.5863 16.492 37.8685 16.5119 38.2138C16.5341 38.5944 16.5274 38.9873 16.398 40.1835C16.3625 40.5089 16.3127 40.9471 16.2441 41.4694C15.9852 42.0105 15.6809 42.358 15.4584 42.5705C15.194 42.8228 14.8598 43.0319 14.1991 43.4624C13.9457 43.6273 13.7255 43.7623 13.5595 43.8619C13.4311 44.0135 13.2441 44.2691 13.1202 44.621C12.9033 45.2385 13.118 45.4753 12.9199 45.9401C12.6399 46.5985 12.0158 46.5797 12.0003 47.0201C11.987 47.3953 12.4241 47.8191 12.8402 47.8999C13.1423 47.9585 13.2851 47.8069 13.72 47.8999C13.9479 47.9486 14.1117 48.0415 14.2401 48.1002C14.5665 48.2507 14.7878 48.4665 14.9195 48.6203C16.2895 47.911 16.9181 47.0899 17.239 46.4613C17.5555 45.8405 17.5367 45.4056 18.1331 44.143C18.6333 43.0828 18.6067 43.4513 18.9188 42.7276C19.0538 42.4144 19.1634 42.1024 19.4677 41.9585C19.6956 41.8512 19.9369 41.8833 20.1007 41.9253C20.5289 42.1267 21.101 42.3591 21.7982 42.5428C22.0029 42.597 22.9391 42.8361 23.9572 42.8626C24.4043 42.8748 26.4283 42.9268 28.3549 41.7427C28.3549 41.7427 30.0524 40.6992 32.4194 36.732C32.4272 36.7187 32.436 36.701 32.4504 36.6789C32.623 36.4144 33.0934 35.6077 32.8864 34.646C32.8388 34.4236 32.7913 34.4391 32.7702 34.2676C32.716 33.8194 32.9561 33.4199 33.1752 33.1466L33.2959 32.1816C33.3069 32.0887 33.297 31.9957 33.266 31.9072L33.2627 31.9094Z"
                    fill="#778C61" />
            </g>
            <defs>
                <filter id="filter0_d_588_1447" x="0.6" y="0.211817" width="154.931" height="86.8"
                    filterUnits="userSpaceOnUse" color-interpolation-filters="sRGB">
                    <feFlood flood-opacity="0" result="BackgroundImageFix" />
                    <feColorMatrix in="SourceAlpha" type="matrix"
                        values="0 0 0 0 0 0 0 0 0 0 0 0 0 0 0 0 0 0 127 0" result="hardAlpha" />
                    <feOffset />
                    <feGaussianBlur stdDeviation="5.7" />
                    <feComposite in2="hardAlpha" operator="out" />
                    <feColorMatrix type="matrix" values="0 0 0 0 0 0 0 0 0 0 0 0 0 0 0 0 0 0 0.25 0" />
                    <feBlend mode="normal" in2="BackgroundImageFix"
                        result="effect1_dropShadow_588_1447" />
                    <feBlend mode="normal" in="SourceGraphic" in2="effect1_dropShadow_588_1447"
                        result="shape" />
                </filter>
            </defs>
        </symbol>
        <symbol viewBox="0 0 25 21" id="retract">
            <path fill-rule="evenodd" clip-rule="evenodd"
                d="M23.4012 21C23.0708 21 22.7341 20.8971 22.4355 20.6703L10.7927 11.76C10.4031 11.4618 10.1765 11.0019 10.1765 10.5189C10.1765 10.0317 10.4009 9.5739 10.7906 9.2757C11.6684 8.60157 12.8364 7.70442 14.1269 6.71314C16.8808 4.59791 20.1927 2.05406 22.4334 0.333899C22.732 0.104998 23.0687 0 23.4012 0C24.2228 0 25 0.640499 25 1.575L25 19.4271C25 20.3574 24.2249 21 23.4012 21ZM23.0588 18.6952L23.0588 2.31741L15.7362 8.00888V13.0154L23.0588 18.6952ZM13.795 11.5097V9.51765L12.5122 10.5147L13.795 11.5097ZM15.7362 1.575V5.00338L13.795 6.49438V2.31741L3.24845 10.5147L13.795 18.6952V14.5297L15.7362 16.0153V19.4271C15.7362 20.3574 14.9612 21 14.1374 21C13.807 21 13.4703 20.8971 13.1717 20.6703L1.52892 11.76C1.13927 11.4618 0.912685 11.0019 0.912685 10.5189C0.912685 10.0317 1.13715 9.5739 1.5268 9.2757L4.86316 6.71314L4.86925 6.70847C7.6219 4.59416 10.9305 2.0528 13.1696 0.333899C13.4682 0.104998 13.8049 0 14.1374 0C14.959 0 15.7362 0.640499 15.7362 1.575Z"
                fill="#738F44" />
        </symbol>
        <symbol viewBox="0 0 31 31" id="modal-button">
            <path
                d="M25.8571 0H5C2.23858 0 0 2.23858 0 5V25.8571C0 28.6185 2.23858 30.8571 5 30.8571H25.8571C28.6185 30.8571 30.8571 28.6185 30.8571 25.8571V5C30.8571 2.23858 28.6185 0 25.8571 0Z"
                fill="white" />
            <path
                d="M16.5307 20.6991C16.5307 20.2627 16.1604 19.9085 15.7041 19.9085H5.2347C4.7785 19.9085 4.4082 20.2627 4.4082 20.6991C4.4082 21.1355 4.7785 21.4897 5.2347 21.4897H15.7041C16.1604 21.4897 16.5307 21.1355 16.5307 20.6991ZM26.449 15.4285C26.449 14.992 26.0787 14.6379 25.6225 14.6379H5.2347C4.7785 14.6379 4.4082 14.992 4.4082 15.4285C4.4082 15.8649 4.7785 16.2191 5.2347 16.2191H25.6225C26.0787 16.2191 26.449 15.8649 26.449 15.4285ZM22.0409 10.1578C22.0409 9.72139 21.6706 9.36719 21.2143 9.36719H5.2347C4.7785 9.36719 4.4082 9.72139 4.4082 10.1578C4.4082 10.5942 4.7785 10.9484 5.2347 10.9484H21.2143C21.6706 10.9484 22.0409 10.5942 22.0409 10.1578Z"
                fill="black" />
        </symbol>
        <symbol viewBox="0 0 18 18" id="calendar">
            <path
                d="M12.75 2.25V0.75C12.75 0.336 13.0852 0 13.5 0C13.9148 0 14.25 0.336 14.25 0.75V2.25C14.25 2.664 13.9148 3 13.5 3C13.0852 3 12.75 2.664 12.75 2.25ZM3.75 3C4.16475 3 4.5 2.664 4.5 2.25V0.75C4.5 0.336 4.16475 0 3.75 0C3.33525 0 3 0.336 3 0.75V2.25C3 2.664 3.33525 3 3.75 3ZM13.5 12.75V10.5H12.75V13.5H15V12.75H13.5ZM9.75 13.125C9.75 14.9858 11.2642 16.5 13.125 16.5C14.9858 16.5 16.5 14.9858 16.5 13.125C16.5 11.2642 14.9858 9.75 13.125 9.75C11.2642 9.75 9.75 11.2642 9.75 13.125ZM18 13.125C18 15.8175 15.8175 18 13.125 18C10.4325 18 8.25 15.8175 8.25 13.125C8.25 10.4325 10.4325 8.25 13.125 8.25C15.8175 8.25 18 10.4325 18 13.125ZM7.32225 15.75H1.5V6H15.75V7.32225C16.2952 7.56975 16.7992 7.89 17.25 8.27325V1.5H15V2.25C15 3.237 14.0415 4.00425 13.0065 3.6705C12.3832 3.4695 12 2.83725 12 2.1825V1.5H5.25V2.25C5.25 3.237 4.2915 4.00425 3.2565 3.6705C2.63325 3.4695 2.25 2.83725 2.25 2.1825V1.5H0V17.25H8.27325C7.89 16.7992 7.56975 16.2952 7.32225 15.75Z"
                fill="currentColor" />
        </symbol>
        <symbol viewBox="0 0 21 23" id="github" fill="none">
            <path
                d="M7.72486 19.38C2.92637 20.9423 2.92637 16.5901 1.0293 16.0322M14.4204 21.6118V17.7061C14.4204 16.5901 14.532 16.1438 13.8625 15.4742C16.9871 15.1394 20.0001 13.9119 20.0001 8.77865C19.9987 7.44508 19.4784 6.16438 18.5494 5.20769C18.9851 4.04932 18.945 2.76562 18.4378 1.63672C18.4378 1.63672 17.2102 1.30194 14.532 3.08742C12.2636 2.49664 9.88168 2.49664 7.61327 3.08742C4.93504 1.30194 3.70752 1.63672 3.70752 1.63672C3.20031 2.76562 3.1602 4.04932 3.59593 5.20769C2.66687 6.16438 2.14658 7.44508 2.14522 8.77865C2.14522 13.9119 5.15823 15.1394 8.28282 15.4742C7.61327 16.1438 7.61327 16.8133 7.72486 17.7061V21.6118"
                stroke="currentColor" stroke-width="2" stroke-linecap="round"
                stroke-linejoin="round" />

        </symbol>
        <symbol viewBox="0 0 20 23" id="lattes" fill="none" xmlns="http://www.w3.org/2000/svg">
            <path
                d="M8.01861 1.00087C10.0511 0.966207 13.0676 2.15199 13.1991 2.24186C13.3306 2.33173 11.4396 2.16235 10.7103 2.23315C9.34097 2.36608 8.24327 2.78381 7.55648 3.66041C6.87257 4.53331 6.68816 5.74464 6.86789 7.24923C7.02589 8.57193 7.47282 10.1872 8.19041 12.1298L2.21984 11.1301C1.92503 9.28356 1.81075 7.93839 1.89735 6.78394C1.98702 5.58857 2.29393 4.57631 2.87593 3.41085C3.63622 2.50521 4.27486 1.95322 5.01781 1.60067C5.77149 1.24304 5.98612 1.03553 8.01861 1.00087Z"
                stroke="currentColor" stroke-width="2" />
            <path
                d="M5.60977 21.0001L2.52734 12.8284C7.04632 13.9699 11.1308 13.916 13.7284 12.6152C15.1415 11.9075 16.14 10.8143 16.4738 9.33553C16.6488 8.56078 16.659 8.01518 16.4266 6.77963C16.1942 5.54407 17.698 8.6799 18.0882 9.79329C18.4187 12.3884 17.6306 14.6775 15.5878 16.5822C13.5689 18.4647 10.3001 19.9917 5.60977 21.0001Z"
                stroke="currentColor" stroke-width="2" />
            <path
                d="M12.7677 5.50985C14.2163 6.46529 14.6091 8.0429 13.9889 8.98314C13.3688 9.92336 11.7639 10.1834 10.3153 9.22795C8.86674 8.27251 8.47394 6.69488 9.09407 5.75466C9.71419 4.81444 11.3191 4.55441 12.7677 5.50985Z"
                stroke="currentColor" stroke-width="2" />

        </symbol>
        <symbol viewBox="0 0 27 27" id="instagram" fill="none">
            <path
                d="M13.9121 5.41515C16.5821 5.41515 16.8988 5.42515 17.9538 5.47348C20.6654 5.59682 21.9288 6.88182 22.0538 9.57182C22.1004 10.6268 22.1104 10.9418 22.1104 13.6118C22.1104 16.2818 22.1004 16.5985 22.0538 17.6518C21.9288 20.9284 20.6671 21.6285 17.9538 21.7518C16.8988 21.7985 16.5838 21.8102 13.9121 21.8102C11.2421 21.8102 10.9254 21.8002 9.87211 21.7518C7.15544 21.6268 5.89711 20.3368 5.77211 17.6518C5.72544 16.5985 5.71378 16.2818 5.71378 13.6118C5.71378 10.9418 5.72544 10.6252 5.77211 9.57182C5.89544 6.88015 7.15878 5.59515 9.87211 5.47182C10.9254 5.42348 11.2421 5.41515 13.9121 5.41515ZM13.9121 3.61182C11.1954 3.61182 10.8571 3.62348 9.78878 3.67348C6.15544 3.84015 4.13878 5.85515 3.97211 9.48848C3.92378 10.5568 3.91211 10.8968 3.91211 13.6118C3.91211 16.3285 3.92378 16.6685 3.97211 17.7352C4.13878 21.3668 6.15544 23.3852 9.78878 23.5518C10.8571 23.6002 11.1954 23.6118 13.9121 23.6118C16.6288 23.6118 16.9688 23.6002 18.0371 23.5518C21.6638 23.3852 23.6888 21.9584 23.8521 18.3234C23.9004 17.2567 23.9121 16.3285 23.9121 13.6118C23.9121 10.8968 23.9004 10.5568 23.8521 9.48848C23.6888 5.86015 21.6704 3.83848 18.0371 3.67348C16.9688 3.62348 16.6288 3.61182 13.9121 3.61182ZM13.9121 8.47682C11.0771 8.47682 8.77711 10.7751 8.77711 13.6118C8.77711 16.4485 11.0771 18.7468 13.9121 18.7468C16.7471 18.7468 19.0471 16.4485 19.0471 13.6118C19.0471 10.7768 16.7471 8.47682 13.9121 8.47682ZM13.9121 16.9452C12.0704 16.9452 10.5788 15.4535 10.5788 13.6118C10.5788 11.7718 12.0704 10.2785 13.9121 10.2785C15.7521 10.2785 17.2471 11.7702 17.2471 13.6118C17.2471 15.4535 15.7521 16.9452 13.9121 16.9452ZM19.2488 7.07515C18.5871 7.07515 18.0488 7.61182 18.0488 8.27515C18.0488 8.93682 18.5854 9.47515 19.2488 9.47515C19.9121 9.47515 20.4504 8.93848 20.4504 8.27515C20.4504 7.61182 19.9138 7.07515 19.2488 7.07515Z"
                fill="currentColor" />
        </symbol>
        <symbol viewBox="0 0 54 54" id="home">
            <rect width="54" height="54" rx="8" fill="white" />
            <path
                d="M25.1304 20.3996C25.9002 19.6762 27.0998 19.6762 27.8696 20.3996L37.4946 29.4441C37.8969 29.8221 38.125 30.3496 38.125 30.9016V40C38.125 41.1046 37.2296 42 36.125 42H32.375C31.2704 42 30.375 41.1046 30.375 40V36.1739C30.375 35.0693 29.4796 34.1739 28.375 34.1739H24.625C23.5204 34.1739 22.625 35.0693 22.625 36.1739V40C22.625 41.1046 21.7296 42 20.625 42H16.875C15.7704 42 14.875 41.1046 14.875 40V30.9016C14.875 30.3496 15.1031 29.8221 15.5054 29.4441L25.1304 20.3996ZM41.1296 27.487C41.6117 26.963 41.5817 26.1484 41.0624 25.6613L27.8674 13.2828C27.0984 12.5613 25.9013 12.5609 25.1317 13.2819L11.9389 25.6417C11.419 26.1288 11.3887 26.9438 11.8711 27.4681V27.4681C12.3596 27.9992 13.1874 28.0299 13.714 27.5367L25.1317 16.8424C25.9013 16.1216 27.0983 16.1221 27.8673 16.8435L39.286 27.5549C39.8125 28.0488 40.6408 28.0183 41.1296 27.487V27.487Z"
                fill="currentColor" />
        </symbol>
        <symbol viewBox="0 0 20 21" id="question">
            <path
                d="M10 2.16667C14.595 2.16667 18.3333 5.905 18.3333 10.5C18.3333 15.095 14.595 18.8333 10 18.8333C5.405 18.8333 1.66667 15.095 1.66667 10.5C1.66667 5.905 5.405 2.16667 10 2.16667ZM10 0.5C4.4775 0.5 0 4.9775 0 10.5C0 16.0225 4.4775 20.5 10 20.5C15.5225 20.5 20 16.0225 20 10.5C20 4.9775 15.5225 0.5 10 0.5ZM11.0417 14.6667C11.0417 15.2417 10.5758 15.7083 10 15.7083C9.42583 15.7083 8.95833 15.2417 8.95833 14.6667C8.95833 14.0917 9.42583 13.625 10 13.625C10.5758 13.625 11.0417 14.0917 11.0417 14.6667ZM12.2025 6.335C11.6958 5.82167 10.94 5.53917 10.0767 5.53917C8.26 5.53917 7.085 6.83083 7.085 8.83083H8.76083C8.76083 7.5925 9.45167 7.15333 10.0425 7.15333C10.5708 7.15333 11.1317 7.50417 11.1792 8.175C11.2308 8.88083 10.8542 9.23917 10.3775 9.6925C9.20083 10.8117 9.17917 11.3533 9.18417 12.5825H10.855C10.8442 12.0292 10.88 11.58 11.6342 10.7675C12.1983 10.1592 12.9 9.4025 12.9142 8.24917C12.9233 7.47917 12.6775 6.81667 12.2025 6.335Z"
                fill="currentColor" />
        </symbol>
        <symbol viewBox="0 0 36 53" id="next">
            <path fill-rule="evenodd" clip-rule="evenodd"
                d="M18.0717 0H11.6534L11.2121 0.265769L11.4392 0.240431L12.5466 10.105L14.4412 19.3372L20.795 20.4645L21.3362 15.3731L21.3436 15.3039L21.3821 15.2458L26.485 7.53608L26.9639 7.85093L22.0694 15.2457L23.7717 15.7413L27.2872 13.7259L27.9335 13.3554L27.7031 14.062L26.8625 16.6398L28.9932 17.2507L30.598 14.8515L30.7324 14.6506L30.9535 14.749L32.913 15.6209L35.5866 15.7644L35.5835 15.8233L36 11.0789L25.5299 7.14767L18.0717 0ZM35.5386 16.3344L32.8292 16.1891L32.7761 16.1863L32.7277 16.1646L30.9409 15.3696L29.3542 17.7419L29.2378 17.9159L29.0362 17.858L26.4187 17.1075L26.1334 17.0258L26.2251 16.7444L26.927 14.592L23.9518 16.2977L23.8458 16.3585L23.7283 16.3243L21.8696 15.7833L21.3651 20.5289L23.931 20.6537L27.6317 18.9324L27.9899 18.7658L28.0378 19.1569L28.4835 22.7996L29.5241 21.2817L29.5933 21.1808L29.7144 21.1609L35.1639 20.2675L35.1831 20.384L35.5386 16.3344ZM35.1422 20.8505L29.9285 21.7053L28.5277 23.7486L28.0982 24.375L28.0061 23.6219L27.516 19.6172L24.1092 21.2018L24.0448 21.2317L23.9739 21.2283L21.3045 21.0984L21.3006 21.135L20.9975 21.0812L14.3599 19.9036L12.0959 24.4167L13.6941 27.1968L18.679 24.2702L18.8144 24.1907L18.9546 24.2616L23.1977 26.4109L25.0033 25.4778L25.0998 25.4279L25.2053 25.4544L31.055 26.92L30.9789 27.2215L31.9482 24.9454L34.996 22.5152L35.1422 20.8505ZM30.8754 27.4646L25.1708 26.0353L23.5436 26.8763L23.6882 27.3456L23.7498 27.2454L29.4793 30.7431L30.8754 27.4646ZM29.4562 30.7975L29.1872 31.2353L23.8905 28.0018L25.0153 31.6517L25.0641 31.81L24.9507 31.9309L23.526 33.4497L24.5338 36.3969L29.3307 31.0924L29.4562 30.7975ZM24.0962 36.82L24.0749 36.8272L22.9274 33.4719L22.872 33.3097L22.9894 33.1844L24.4181 31.6613L22.9608 26.9323L18.8347 24.8424L13.7351 27.8364L13.4849 27.9832L13.3406 27.7322L11.6881 24.8577L8.24034 27.4473L8.19323 27.4827L8.13593 27.4967L5.59011 28.1179L5.54063 28.13L5.48993 28.1243L0.102263 27.5218L3.40637 31.0924L2.07968 48.5684L0 52.6069L2.07968 53L6.23904 50.2481L9.71713 51.0344L14.4143 48.5684L15.9203 42.35L19.255 38.1686H22.6255L24.0962 36.82ZM0.400159 26.9797L5.50319 27.5504L7.94216 26.9552L11.5345 24.2571L13.8983 19.5451L11.9819 10.207L11.9793 10.1944L11.9778 10.1815L10.8868 0.461667L4.76892 4.14565L2.61753 24.588L0.400159 26.9797Z"
                fill="#738F44" />
        </symbol>
        <symbol viewBox="0 0 18 9" id="subtract">
            <path fill-rule="evenodd" clip-rule="evenodd"
                d="M7.89583 7.89273L8.58706 8.5437L9.27294 7.8871L17.0352 0.456191H14.143L8.57577 5.78578L2.91654 0.456191H-0.000669479L7.89583 7.89273Z"
                fill="#444444" />
        </symbol>
        <symbol viewBox="0 0 164 164" id="loading">
            <circle cx="82" cy="82" r="80" stroke="#000000" stroke-width="4" stroke-linecap="round"
                stroke-linejoin="round" stroke-dasharray="50 50" />
        </symbol>
        <symbol viewBox="0 0 266 473" id="logo-oca">
            <path d="M241.509 14.8533H101.719V317.155H241.509V14.8533Z" fill="#E2C9B5" />
            <path
                d="M208.148 271.142L202.208 243.63L196.273 271.142L168.721 277.074L196.273 283L202.208 310.512L208.148 283L235.7 277.074L208.148 271.142Z"
                fill="#C0A38B" />
            <path
                d="M126.685 254.226C125.313 254.465 124.435 255.815 124.796 257.155C125.338 259.182 126.285 260.893 127.866 261.858C131.009 263.788 134.733 261.624 136.403 263.73C137.442 265.041 136.949 267.078 136.403 269.344C135.719 272.181 134.562 273.974 133.489 275.787C128.945 283.468 130.389 283.96 128.076 286.183C125.411 288.742 124.381 287.24 116.416 290.754C111.969 292.718 111.594 293.493 106.63 295.535C102.95 297.051 101.11 297.807 98.5131 298.236C93.5201 299.064 89.4934 298.236 86.6479 297.612C85.3936 297.334 81.0448 296.315 75.6125 293.454C67.5885 289.229 66.5977 285.934 62.4979 286.178C58.6762 286.402 58.3297 289.341 53.9614 289.502C50.1202 289.643 45.6055 287.562 44.8002 284.511C44.0827 281.792 46.8013 280.12 46.0497 278.482C44.4146 274.925 30.7289 281.104 27.1074 276.82C23.7787 272.882 30.1774 261.566 36.4736 250.419C42.8625 239.117 47.7531 233.478 45.4249 229.009C44.0534 226.373 40.6125 224.998 38.3478 224.642C34.1699 223.989 32.1297 226.514 25.2332 226.514C23.3736 226.514 20.7087 226.49 20.2353 225.266C20.0449 224.779 20.2206 224.15 23.1491 220.485C25.2088 217.912 26.2533 216.62 26.8975 216.328C29.7869 215.027 31.7392 217.98 35.434 217.785C40.0805 217.537 45.4493 212.424 45.0101 207.389C44.6245 202.984 39.9487 200.41 39.3874 200.113C33.2181 196.833 26.3216 200.274 25.8579 199.075C25.2185 197.428 39.5924 194.528 44.5952 183.693C46.6158 179.317 45.7227 176.641 48.9684 170.388C50.6962 167.055 52.6924 164.462 54.3665 162.59C55.0791 161.796 56.2261 161.586 57.1827 162.074C59.3351 163.165 61.7999 164.189 64.582 164.988C77.2964 168.643 88.5124 165.3 93.725 163.326C104.365 160.188 108.655 155.982 110.578 152.628C111.34 151.298 113.033 148.032 115.181 147.916C115.889 147.877 116.689 148.486 117.875 150.021C119.627 152.297 125.006 157.785 126.543 160.227C128.247 162.931 130.565 163.438 133.167 161.62C138.472 157.907 144.182 154.714 148.98 150.348C151.225 148.305 153.646 146.98 156.199 146.332C158.024 145.869 160.211 145.669 164.242 146.351C170.558 147.418 177.25 148.544 181.994 153.764C182.814 154.666 184.205 157.692 186.992 163.74C186.992 163.74 189.095 168.312 192.195 178.498C192.531 179.609 193.029 181.305 192.819 183.489C192.566 186.096 191.423 188.08 190.945 188.894C189.3 191.691 188.236 191.448 187.616 193.261C186.904 195.337 187.734 197.325 189.076 200.537C191.028 205.221 192.824 206.371 192.199 208.228C192.004 208.803 190.75 209.729 188.246 211.552C185.313 213.691 183.844 214.759 183.668 214.875C179.905 217.4 178.031 218.701 176.591 219.033C171.949 220.095 169.074 216.859 167.43 218.409C166.419 219.364 166.717 221.333 167.293 225.13C167.83 228.668 168.484 229.185 168.128 230.671C167.439 233.537 162.363 235.267 161.812 235.452C153.168 238.367 150.513 246.369 136.207 251.667C133.996 252.486 130.795 253.505 126.704 254.216L126.685 254.226Z"
                fill="#778C61" />
            <path
                d="M150.072 6.30006C161.522 16.9053 174.032 26.2384 186.043 36.1662C187.112 37.0483 188.567 37.5747 189.924 37.9743C193.765 39.105 194.189 41.5127 192.471 44.6172C188.489 51.8108 184.76 59.175 180.299 66.0616C171.045 80.3562 166.184 95.6353 168.038 112.791C168.531 117.362 166.872 118.883 162.294 118.493C154.392 117.82 146.187 115.374 142.019 114.477C139.447 113.926 135.62 113.293 130.778 113.229C122.237 92.5746 120.051 82.3641 119.743 76.852C119.655 75.3021 119.548 71.0133 117.869 65.6278C116.561 61.4315 115.341 59.8914 113.706 55.856C112.788 53.5897 112.119 51.4648 110.167 41.9269C108.244 32.5255 107.365 27.1157 105.818 18.9279C104.73 13.1769 103.773 8.47861 103.129 5.37893C103.773 3.88757 105.067 3.17601 106.536 3.11265C114.848 2.73738 123.013 1.18266 131.247 0.144562C138.451 -0.761949 144.284 2.752 150.072 6.29519V6.30006Z"
                fill="#778C61" />
            <path
                d="M229.132 151.264C220.307 149.792 211.478 148.335 202.653 146.833C197.919 146.029 193.546 146.297 189.646 149.699C188.211 150.947 187.211 151.2 186.849 151.317C184.639 152.029 182.545 150.333 179.909 148.778C175.184 145.995 170.919 144.957 167.834 144.207C165.457 143.627 162.685 142.978 159.034 143.222C154.397 143.534 151.044 145.118 150.351 145.454C146.022 147.555 144.846 149.948 136.197 156.678C134.908 157.682 133.268 158.92 131.199 158.759C129.447 158.618 128.056 157.526 126.201 155.436C121.711 150.362 118.802 147.077 119.124 142.964C119.495 138.192 123.741 138.266 125.786 132.154C127.943 125.696 124.38 122.099 126.621 119.268C129.173 116.037 135.684 118.332 146.695 120.316C164.74 123.566 173.193 122.835 182.11 121.958C189.807 121.203 195.772 116.855 202.087 113.107C206.548 110.456 206.621 110.539 207.725 115.452C209.023 121.217 210.263 126.997 211.58 132.763C211.815 133.782 211.497 135.351 213.137 135.424C214.314 135.478 214.811 134.381 215.099 133.402C217.237 126.159 222.386 121.89 229.097 119.136C235.423 117.806 241.792 116.641 248.054 115.067C250.739 114.394 251.534 114.799 251.822 117.63C252.242 121.705 251.29 124.912 248.098 127.577C245.233 129.97 242.559 132.593 239.835 135.156C235.613 139.128 237.278 141.974 232.631 147.638C231.284 149.28 230.01 150.499 229.136 151.278L229.132 151.264Z"
                fill="#778C61" />
            <path
                d="M230.089 82.4616C223.373 79.4545 223.11 79.5764 219.752 85.7611C218.517 88.0371 217.209 90.3229 215.588 92.3211C212.704 95.8789 207.135 96.3956 203.42 93.8174C201.58 92.5404 201.937 90.8688 202.313 89.1678C203.367 84.4062 204.465 79.6543 205.797 73.7766C199.487 78.0411 193.737 81.4138 188.656 85.7757C184.761 89.1191 180.466 89.665 175.698 88.1492C173.726 87.5205 173.223 86.6384 174.263 84.6938C181.686 70.8378 189.066 56.9526 196.397 43.0479C197.598 40.767 199.208 41.2056 201.146 41.7466C210.727 44.4271 220.332 47.0248 229.933 49.6518C235.741 51.3381 241.52 53.1413 247.377 54.6571C250.535 55.4758 251.911 57.0452 251.828 60.408C251.677 66.6025 251.735 72.8068 252.009 78.9964C252.17 82.6224 250.505 83.8165 247.216 84.0797C241.393 84.5475 235.687 84.1235 230.089 82.4519V82.4616Z"
                fill="#778C61" />
            <path
                d="M229.062 116.344C222.264 117.172 216.904 119.945 214.772 128.313C212.238 123.172 211.946 118.722 211.062 114.496C209.129 105.271 209.212 105.217 201.198 109.871C193.477 114.36 186.131 119.575 176.409 118.936C172.997 118.712 171.347 118.166 171.489 114.399C171.728 108.049 171.645 101.688 171.621 95.333C171.606 92.2382 172.353 90.5032 175.95 91.9604C180.587 93.8465 184.755 92.3016 188.65 89.7624C191.554 87.8714 194.331 85.7854 197.206 83.8457C197.874 83.3924 198.621 82.5785 199.514 83.1633C200.383 83.7336 200.11 84.6742 199.861 85.5222C196.444 97.2435 198.377 96.2444 209.164 98.2377C215.46 99.4026 216.499 98.7008 219.818 92.2187C221.8 88.3539 223.367 83.9821 229.131 84.991C233.528 87.6569 238.272 88.0176 243.28 87.423C251.202 86.4775 251.875 87.2134 251.753 95.2891C251.709 98.306 251.743 101.323 251.782 104.34C251.861 110.495 251.856 110.446 245.706 111.982C240.142 113.371 234.612 114.881 229.067 116.344H229.062Z"
                fill="#778C61" />
            <path
                d="M229 160.475C228.014 163.473 227.135 166.514 226.008 169.453C224.905 172.318 222.762 173.439 219.77 172.274C209.399 168.239 199.832 162.517 189.802 157.775C188.138 156.99 187.279 155.392 189.158 154.061C192.619 151.61 195.781 148.856 200.862 149.924C210.16 151.878 219.614 153.116 229 154.656C230.664 156.596 228.536 158.535 229 160.475Z"
                fill="#778C61" />
            <path
                d="M189.914 161.655C192.76 163.044 194.507 163.887 196.244 164.749C203.6 168.395 210.94 172.06 218.306 175.696C220.653 176.856 222.342 178.167 220.238 180.95C213.459 189.907 206.675 198.86 199.934 207.848C198.582 209.651 197.728 209.042 196.762 207.521C194.263 203.598 192.598 199.314 191.266 194.888C190.519 192.398 192.096 190.717 193.731 189.313C197.962 185.672 198.66 181.71 196.059 176.656C193.789 172.25 192.257 167.464 189.919 161.655H189.914Z"
                fill="#778C61" />
            <path
                d="M32.9009 283.181L39.7974 281.957C41.369 281.68 42.7747 282.976 42.6185 284.56L42.2768 288.064C42.1695 289.161 42.8186 290.189 43.8582 290.564C46.816 291.622 52.5118 293.615 53.1268 293.459C53.7808 293.294 59.3254 290.949 61.6681 289.95C62.3271 289.668 63.0738 289.697 63.7083 290.023L69.5896 293.03C70.5609 293.528 71.0783 294.614 70.8489 295.682L69.6384 301.267C69.5945 301.462 69.5799 301.662 69.5848 301.862C69.6629 304.001 70.0777 316.965 68.7404 317.155C67.281 317.365 59.9989 319.236 58.3297 320.065C57.2266 320.616 55.0352 326.893 53.6734 331.08C53.1219 332.785 50.9646 333.307 49.6859 332.045C45.6006 327.999 38.4894 320.923 38.3429 320.479C38.1331 319.855 39.8023 309.255 37.9281 310.503C36.6737 311.336 35.1363 312.545 34.2626 313.251C33.8087 313.617 33.5061 314.139 33.4036 314.714L33.101 316.463C32.8277 318.057 31.0804 318.934 29.6356 318.203C29.1476 317.955 28.7376 317.779 28.557 317.779C27.9323 317.779 24.1838 321.522 23.5591 321.522C22.9344 321.522 14.8176 319.441 15.6474 319.236C16.4771 319.032 34.7995 301.15 34.7995 298.45C34.7995 296.564 32.4665 290.121 31.0608 286.402C30.5288 284.989 31.4074 283.444 32.896 283.181H32.9009Z"
                fill="#778C61" />
            <path
                d="M124.697 105.539L120.554 93.9051C120.519 93.8076 120.49 93.715 120.466 93.6175C119.963 91.5998 114.418 69.2977 114.95 67.7088C115.429 66.2808 110.187 56.0899 108.684 53.2144C108.425 52.7173 108.303 52.1617 108.337 51.6061L108.547 47.8728C108.562 47.6096 108.547 47.3416 108.488 47.0833L100.425 7.33326C100.152 5.98811 99.0294 4.97925 97.6579 4.85741L96.1449 4.72095C95.1101 6.18306 94.0705 7.64518 93.0358 9.10729L100.743 25.9314C101.05 26.5991 101.109 27.3496 100.909 28.0563L98.3266 37.3115C97.9459 38.681 98.5413 40.1382 99.781 40.84C100.738 41.3859 101.333 42.3948 101.348 43.4913L101.894 81.9791C101.904 82.6078 101.724 83.2219 101.372 83.7482L92.6893 96.7562C92.1817 97.5116 91.4056 97.9746 90.5759 98.1013C89.2532 98.306 88.3064 97.575 88.1551 97.458C86.8909 96.8975 85.2168 95.991 83.5183 94.5143C81.2048 92.5014 79.8724 90.3326 79.1451 88.8997C75.465 89.1093 71.7898 89.314 68.1097 89.5236C68.8467 91.707 73.3077 105.022 73.9178 110.193C73.9666 110.588 74.035 111.348 73.708 112.177C73.0637 113.809 71.17 114.95 66.0256 115.924C63.4632 116.412 49.841 118.805 48.5378 119.872C48.5232 119.882 48.4109 119.979 48.245 120.111C47.6056 120.613 47.0443 120.979 46.6392 121.227L36.9899 134.074C37.1608 135.049 37.3755 136.521 37.478 138.314C37.5903 140.293 37.561 142.335 36.8825 148.559C36.6971 150.25 36.4384 152.531 36.0821 155.246C34.735 158.058 33.1488 159.866 31.9871 160.967C30.6108 162.278 28.8683 163.365 25.4274 165.602C24.1047 166.46 22.9626 167.162 22.0987 167.683C21.43 168.473 20.4539 169.799 19.8096 171.631C18.6822 174.838 19.7999 176.071 18.77 178.493C17.3107 181.919 14.0649 181.817 13.982 184.108C13.9136 186.057 16.1881 188.26 18.3551 188.679C19.9268 188.986 20.6735 188.197 22.9333 188.679C24.1242 188.933 24.9735 189.415 25.6373 189.717C27.3406 190.497 28.4876 191.618 29.1758 192.417C36.3066 188.728 39.5816 184.459 41.2508 181.193C42.9005 177.962 42.8029 175.705 45.9022 169.141C48.5037 163.628 48.3719 165.549 49.9972 161.786C50.7 160.153 51.2711 158.535 52.8524 157.79C54.0385 157.229 55.2928 157.4 56.1469 157.614C58.3775 158.662 61.3596 159.871 64.9811 160.821C66.05 161.104 70.921 162.347 76.2216 162.483C78.5448 162.542 89.0873 162.819 99.1221 156.664C99.1221 156.664 107.961 151.239 120.28 130.614C120.319 130.546 120.368 130.453 120.446 130.336C121.344 128.962 123.794 124.765 122.716 119.765C122.467 118.61 122.218 118.688 122.111 117.796C121.832 115.462 123.077 113.39 124.219 111.967L124.849 106.952C124.907 106.469 124.854 105.982 124.693 105.524L124.697 105.539Z"
                fill="#778C61" />
            <path
                d="M59.6954 472.082C51.5884 472.082 45.1702 470.625 40.4359 467.715C35.7015 464.805 32.3094 460.648 30.2595 455.233C28.2095 449.824 27.1895 443.346 27.1895 435.797V394.609C27.1895 387.065 28.2144 380.607 30.2595 375.246C32.3094 369.885 35.7015 365.791 40.4359 362.974C45.1702 360.157 51.5884 358.744 59.6954 358.744C67.8023 358.744 74.3768 360.177 79.1599 363.037C83.9382 365.903 87.3547 369.992 89.4046 375.309C91.4546 380.627 92.4747 387.06 92.4747 394.609V435.797C92.4747 443.346 91.4497 449.824 89.4046 455.233C87.3547 460.643 83.9431 464.805 79.1599 467.715C74.3768 470.625 67.8902 472.082 59.6954 472.082ZM59.6954 455.852C62.6092 455.852 64.747 455.194 66.1136 453.874C67.4802 452.558 68.388 450.784 68.8468 448.556C69.3007 446.329 69.5301 443.941 69.5301 441.397V389.16C69.5301 386.616 69.3007 384.248 68.8468 382.069C68.388 379.886 67.4802 378.136 66.1136 376.82C64.747 375.504 62.6043 374.842 59.6954 374.842C56.9622 374.842 54.9122 375.504 53.5505 376.82C52.1839 378.136 51.2712 379.886 50.8173 382.069C50.3585 384.253 50.134 386.616 50.134 389.16V441.397C50.134 443.941 50.339 446.329 50.7489 448.556C51.1589 450.784 52.0472 452.558 53.4138 453.874C54.7805 455.194 56.8743 455.852 59.6954 455.852Z"
                fill="#778C61" />
            <path
                d="M135.132 472.082C126.937 472.082 120.451 470.537 115.667 467.442C110.884 464.352 107.541 460.058 105.628 454.556C103.714 449.054 102.758 442.669 102.758 435.393V395.701C102.758 388.064 103.714 381.499 105.628 375.997C107.541 370.494 110.884 366.244 115.667 363.242C120.446 360.24 126.937 358.744 135.132 358.744C143.327 358.744 149.267 360.06 153.777 362.696C158.281 365.333 161.469 369.061 163.338 373.881C165.202 378.702 166.139 384.297 166.139 390.657V399.931H144.288V389.565C144.288 387.021 144.152 384.633 143.878 382.406C143.605 380.178 142.853 378.36 141.623 376.952C140.393 375.543 138.28 374.837 135.274 374.837C132.267 374.837 130.085 375.568 128.719 377.02C127.352 378.477 126.488 380.363 126.122 382.678C125.756 384.998 125.575 387.567 125.575 390.384V440.573C125.575 443.663 125.824 446.368 126.327 448.688C126.825 451.008 127.782 452.777 129.197 454.005C130.607 455.233 132.633 455.848 135.274 455.848C138.187 455.848 140.257 455.146 141.487 453.732C142.717 452.324 143.488 450.438 143.81 448.069C144.127 445.705 144.288 443.21 144.288 440.568V429.793H166.139V438.931C166.139 445.389 165.227 451.091 163.406 456.047C161.581 461.004 158.443 464.913 153.981 467.778C149.52 470.644 143.234 472.077 135.132 472.077V472.082Z"
                fill="#C0A38B" />
            <path
                d="M171.061 470.649L192.507 360.177H217.501L238.811 470.649H217.916L213.953 446.373H196.47L192.233 470.649H171.061ZM198.51 432.6H211.761L205.07 388.005L198.515 432.6H198.51Z"
                fill="#778C61" />
        </symbol>
        <symbol viewBox="0 0 140 267" id="logo-oca-white">
            <path
                d="M38.1312 267C33.5202 267 29.8696 266.172 27.1768 264.518C24.484 262.865 22.5547 260.502 21.3887 257.425C20.2228 254.351 19.6426 250.67 19.6426 246.379V222.973C19.6426 218.685 20.2256 215.015 21.3887 211.969C22.5547 208.922 24.484 206.595 27.1768 204.994C29.8696 203.394 33.5202 202.59 38.1312 202.59C42.7423 202.59 46.4816 203.405 49.2022 205.03C51.9199 206.659 53.8632 208.983 55.0291 212.005C56.1951 215.026 56.7753 218.682 56.7753 222.973V246.379C56.7753 250.67 56.1923 254.351 55.0291 257.425C53.8632 260.499 51.9227 262.865 49.2022 264.518C46.4816 266.172 42.7922 267 38.1312 267ZM38.1312 257.777C39.7885 257.777 41.0044 257.403 41.7817 256.652C42.559 255.904 43.0754 254.896 43.3363 253.631C43.5945 252.365 43.725 251.008 43.725 249.562V219.876C43.725 218.43 43.5945 217.084 43.3363 215.846C43.0754 214.605 42.559 213.611 41.7817 212.863C41.0044 212.115 39.7857 211.739 38.1312 211.739C36.5766 211.739 35.4107 212.115 34.6361 212.863C33.8588 213.611 33.3397 214.605 33.0815 215.846C32.8206 217.087 32.6929 218.43 32.6929 219.876V249.562C32.6929 251.008 32.8095 252.365 33.0427 253.631C33.2759 254.896 33.7811 255.904 34.5584 256.652C35.3357 257.403 36.5266 257.777 38.1312 257.777Z"
                fill="white" />
            <path
                d="M81.0387 267C76.3776 267 72.6883 266.122 69.9677 264.363C67.2472 262.607 65.3455 260.167 64.2573 257.04C63.1691 253.913 62.625 250.285 62.625 246.15V223.593C62.625 219.253 63.1691 215.522 64.2573 212.395C65.3455 209.268 67.2472 206.853 69.9677 205.147C72.6855 203.441 76.3776 202.59 81.0387 202.59C85.6997 202.59 89.0782 203.338 91.6433 204.837C94.2056 206.335 96.0183 208.454 97.0816 211.193C98.142 213.932 98.675 217.112 98.675 220.726V225.997H86.2466V220.106C86.2466 218.66 86.1688 217.303 86.0134 216.037C85.8579 214.772 85.4304 213.738 84.7308 212.938C84.0313 212.138 82.8292 211.736 81.1192 211.736C79.4091 211.736 78.1682 212.151 77.3909 212.977C76.6136 213.805 76.1223 214.877 75.914 216.192C75.7058 217.511 75.6031 218.97 75.6031 220.571V249.094C75.6031 250.85 75.7447 252.387 76.0306 253.705C76.3138 255.024 76.8579 256.029 77.663 256.727C78.4653 257.425 79.6173 257.774 81.1192 257.774C82.7765 257.774 83.9535 257.375 84.6531 256.572C85.3527 255.772 85.7913 254.7 85.9745 253.354C86.155 252.01 86.2466 250.592 86.2466 249.091V242.967H98.675V248.16C98.675 251.83 98.1559 255.071 97.1204 257.888C96.0822 260.704 94.2972 262.926 91.7598 264.554C89.2225 266.183 85.6469 266.997 81.0387 266.997V267Z"
                fill="white" />
            <path
                d="M101.473 266.186L113.671 203.405H127.887L140.007 266.186H128.123L125.869 252.39H115.925L113.515 266.186H101.473ZM117.085 244.563H124.622L120.816 219.22L117.088 244.563H117.085Z"
                fill="white" />
            <path d="M129.414 8.43945H49.9043V180.236H129.414V8.43945Z" fill="#b1b1b1" />
            <path
                d="M110.439 154.087L107.06 138.452L103.685 154.087L88.0137 157.458L103.685 160.826L107.06 176.461L110.439 160.826L126.11 157.458L110.439 154.087Z"
                fill="white" />
            <path
                d="M64.1039 144.473C63.3239 144.609 62.8242 145.376 63.0296 146.138C63.3377 147.29 63.8763 148.262 64.7757 148.811C66.5635 149.908 68.6817 148.678 69.6311 149.874C70.2224 150.619 69.942 151.777 69.6311 153.065C69.2424 154.677 68.5845 155.696 67.9738 156.727C65.3893 161.092 66.211 161.371 64.8951 162.634C63.3794 164.088 62.7936 163.235 58.2631 165.232C55.7341 166.349 55.5203 166.789 52.6971 167.949C50.6039 168.811 49.5573 169.24 48.0805 169.484C45.2405 169.955 42.9503 169.484 41.3318 169.129C40.6184 168.971 38.1449 168.393 35.0551 166.767C30.4913 164.365 29.9277 162.493 27.5958 162.632C25.4222 162.759 25.2251 164.429 22.7405 164.521C20.5557 164.601 17.9879 163.418 17.5298 161.684C17.1217 160.139 18.668 159.189 18.2405 158.258C17.3105 156.236 9.52639 159.748 7.46655 157.314C5.57327 155.076 9.2127 148.645 12.7938 142.31C16.4277 135.887 19.2093 132.683 17.8851 130.143C17.1051 128.644 15.1479 127.863 13.8598 127.661C11.4835 127.29 10.3231 128.725 6.40054 128.725C5.34286 128.725 3.82712 128.711 3.55784 128.016C3.44958 127.739 3.54952 127.381 5.21516 125.299C6.38666 123.836 6.98074 123.102 7.34718 122.936C8.99061 122.197 10.101 123.875 12.2025 123.764C14.8453 123.623 17.899 120.718 17.6492 117.856C17.4299 115.353 14.7704 113.89 14.4511 113.721C10.9422 111.857 7.0196 113.813 6.75588 113.131C6.39221 112.195 14.5677 110.547 17.4132 104.39C18.5625 101.903 18.0545 100.382 19.9006 96.8288C20.8833 94.9343 22.0187 93.4608 22.9709 92.3973C23.3762 91.9458 24.0286 91.8267 24.5727 92.1037C25.7969 92.7241 27.1989 93.3057 28.7812 93.76C36.0129 95.8372 42.3923 93.9372 45.3571 92.8155C51.409 91.0318 53.8491 88.6415 54.9429 86.736C55.376 85.9799 56.3393 84.1241 57.5607 84.0577C57.9633 84.0355 58.4185 84.3817 59.0931 85.2542C60.0897 86.5476 63.149 89.6663 64.0234 91.054C64.9923 92.5911 66.3109 92.8792 67.7906 91.8461C70.8081 89.7356 74.0561 87.9214 76.785 85.4398C78.062 84.2793 79.4389 83.5259 80.8908 83.1575C81.9291 82.8944 83.1728 82.7808 85.4658 83.1686C89.058 83.7752 92.864 84.415 95.5624 87.3813C96.0287 87.8937 96.8199 89.6137 98.4051 93.0509C98.4051 93.0509 99.6015 95.6489 101.364 101.438C101.556 102.069 101.839 103.033 101.72 104.274C101.575 105.756 100.926 106.883 100.654 107.345C99.7181 108.935 99.113 108.797 98.7604 109.827C98.3551 111.007 98.827 112.137 99.5904 113.962C100.701 116.624 101.722 117.278 101.367 118.333C101.256 118.66 100.543 119.186 99.1185 120.222C97.4501 121.438 96.6145 122.044 96.5146 122.111C94.3742 123.545 93.3082 124.285 92.4893 124.473C89.8492 125.077 88.2141 123.238 87.2786 124.119C86.7039 124.662 86.8733 125.781 87.2008 127.938C87.5062 129.949 87.8782 130.243 87.6755 131.087C87.2841 132.716 84.397 133.699 84.0833 133.804C79.1669 135.461 77.6567 140.009 69.5201 143.019C68.2625 143.485 66.4414 144.063 64.115 144.468L64.1039 144.473Z"
                fill="white" />
            <path
                d="M77.4053 3.57834C83.918 9.60523 91.033 14.9092 97.865 20.5511C98.4729 21.0524 99.3002 21.3516 100.072 21.5787C102.257 22.2213 102.498 23.5895 101.521 25.3538C99.2558 29.4419 97.1349 33.6269 94.5975 37.5405C89.3341 45.6641 86.5691 54.3471 87.624 64.0965C87.9044 66.6945 86.9606 67.5586 84.3566 67.3371C79.8621 66.9548 75.1956 65.5644 72.8248 65.0548C71.3618 64.7418 69.1854 64.3818 66.4315 64.3458C61.5734 52.6077 60.3297 46.8052 60.1548 43.6727C60.1049 42.7919 60.0438 40.3545 59.0888 37.294C58.3448 34.9093 57.6508 34.0341 56.7208 31.7407C56.1989 30.4528 55.8186 29.2452 54.7082 23.8249C53.6144 18.4821 53.1147 15.4078 52.2347 10.7547C51.6156 7.4864 51.0715 4.8164 50.7051 3.05487C51.0715 2.20734 51.8072 1.80296 52.6428 1.76695C57.3704 1.55369 62.0148 0.670149 66.698 0.0802009C70.7955 -0.434965 74.1129 1.562 77.4053 3.57557V3.57834Z"
                fill="white" />
            <path
                d="M122.373 85.9606C117.354 85.1242 112.332 84.296 107.313 83.4429C104.62 82.9859 102.132 83.1383 99.9143 85.0715C99.0982 85.7806 98.5291 85.9246 98.3236 85.9911C97.0661 86.3955 95.8751 85.4316 94.3761 84.5481C91.6888 82.9666 89.2625 82.3766 87.5081 81.9501C86.1561 81.6205 84.5793 81.2521 82.5028 81.3906C79.8655 81.5679 77.9584 82.468 77.5642 82.6591C75.1018 83.8529 74.4328 85.2128 69.5136 89.0378C68.7807 89.6083 67.8479 90.3118 66.6709 90.2204C65.6743 90.1401 64.8831 89.5197 63.8282 88.3315C61.2742 85.4482 59.6197 83.5814 59.8029 81.2438C60.0139 78.5322 62.429 78.5738 63.5922 75.1006C64.8192 71.4307 62.7927 69.3867 64.0669 67.7775C65.5188 65.9412 69.2221 67.2457 75.4849 68.373C85.748 70.2204 90.5562 69.8049 95.6281 69.3063C100.006 68.877 103.398 66.4065 106.991 64.2766C109.528 62.7698 109.569 62.8169 110.197 65.6088C110.935 68.8854 111.64 72.1702 112.39 75.4468C112.523 76.0257 112.343 76.9175 113.276 76.9591C113.945 76.9895 114.228 76.3663 114.392 75.8096C115.607 71.6938 118.536 69.2676 122.353 67.7027C125.951 66.9466 129.574 66.2846 133.136 65.39C134.662 65.0078 135.115 65.2376 135.279 66.8468C135.517 69.1623 134.976 70.9848 133.161 72.4998C131.531 73.8598 130.01 75.3499 128.461 76.8067C126.059 79.064 127.006 80.6816 124.363 83.9C123.597 84.8333 122.872 85.5258 122.376 85.9689L122.373 85.9606Z"
                fill="white" />
            <path
                d="M122.917 46.8606C119.097 45.1517 118.947 45.221 117.037 48.7357C116.334 50.0292 115.59 51.3282 114.669 52.4638C113.028 54.4856 109.861 54.7792 107.748 53.3141C106.701 52.5884 106.904 51.6384 107.118 50.6718C107.718 47.9658 108.342 45.2653 109.1 41.925C105.511 44.3485 102.24 46.2652 99.3504 48.744C97.1351 50.6441 94.6922 50.9543 91.98 50.0929C90.8585 49.7356 90.5725 49.2343 91.1638 48.1292C95.3862 40.2549 99.5836 32.364 103.753 24.462C104.436 23.1658 105.352 23.4151 106.454 23.7225C111.904 25.2458 117.367 26.7221 122.828 28.215C126.131 29.1733 129.418 30.1981 132.749 31.0594C134.545 31.5248 135.328 32.4166 135.281 34.3277C135.195 37.848 135.228 41.3738 135.384 44.8914C135.475 46.952 134.529 47.6306 132.658 47.7802C129.346 48.0461 126.101 47.8051 122.917 46.8551V46.8606Z"
                fill="white" />
            <path
                d="M122.333 66.1156C118.466 66.5864 115.418 68.1624 114.205 72.918C112.764 69.996 112.598 67.4672 112.095 65.0659C110.996 59.8228 111.043 59.7923 106.485 62.4374C102.093 64.9883 97.915 67.9519 92.3851 67.5891C90.4446 67.4617 89.5063 67.1515 89.5868 65.0105C89.7228 61.4016 89.6756 57.7871 89.6618 54.1754C89.6534 52.4166 90.0782 51.4306 92.1241 52.2587C94.7614 53.3306 97.1322 52.4526 99.3475 51.0096C100.999 49.935 102.579 48.7495 104.214 47.6472C104.594 47.3896 105.019 46.9271 105.527 47.2594C106.021 47.5835 105.866 48.118 105.724 48.6C103.781 55.2611 104.88 54.6933 111.015 55.8261C114.596 56.4881 115.188 56.0893 117.075 52.4055C118.203 50.2092 119.094 47.7247 122.372 48.2981C124.873 49.8131 127.572 50.018 130.42 49.6801C134.926 49.1428 135.309 49.561 135.239 54.1505C135.214 55.8649 135.234 57.5794 135.256 59.2938C135.3 62.7919 135.298 62.7642 131.8 63.6367C128.635 64.4261 125.49 65.2847 122.336 66.1156H122.333Z"
                fill="white" />
            <path
                d="M122.298 91.1952C121.737 92.8986 121.237 94.6269 120.596 96.297C119.969 97.9256 118.75 98.5626 117.048 97.9007C111.149 95.6073 105.708 92.3557 100.003 89.6608C99.0564 89.2149 98.5678 88.3064 99.6366 87.5503C101.605 86.1571 103.404 84.5922 106.294 85.1988C111.582 86.3094 116.959 87.0129 122.298 87.8882C123.244 88.9905 122.034 90.0929 122.298 91.1952Z"
                fill="white" />
            <path
                d="M100.066 91.8657C101.685 92.6551 102.679 93.1343 103.667 93.6245C107.851 95.6962 112.026 97.7791 116.215 99.8453C117.55 100.504 118.511 101.249 117.314 102.831C113.458 107.922 109.599 113.01 105.766 118.117C104.997 119.142 104.511 118.796 103.961 117.931C102.54 115.702 101.593 113.267 100.835 110.752C100.411 109.337 101.307 108.382 102.237 107.584C104.644 105.515 105.041 103.263 103.561 100.391C102.271 97.8871 101.399 95.1672 100.069 91.8657H100.066Z"
                fill="white" />
            <path
                d="M10.7613 160.929L14.6839 160.233C15.5778 160.075 16.3773 160.812 16.2885 161.712L16.0941 163.704C16.0331 164.327 16.4023 164.911 16.9936 165.125C18.6759 165.726 21.9155 166.858 22.2653 166.77C22.6373 166.676 25.7909 165.343 27.1235 164.776C27.4982 164.615 27.923 164.632 28.2839 164.817L31.629 166.526C32.1815 166.809 32.4757 167.426 32.3452 168.033L31.6568 171.207C31.6318 171.318 31.6235 171.431 31.6262 171.545C31.6707 172.761 31.9066 180.128 31.146 180.236C30.3159 180.355 26.174 181.419 25.2246 181.89C24.5972 182.203 23.3508 185.77 22.5762 188.149C22.2626 189.119 21.0355 189.415 20.3082 188.698C17.9846 186.399 13.9399 182.377 13.8566 182.125C13.7372 181.771 14.6867 175.746 13.6206 176.456C12.9072 176.929 12.0327 177.616 11.5358 178.018C11.2776 178.225 11.1055 178.522 11.0472 178.849L10.8751 179.843C10.7197 180.749 9.72582 181.247 8.9041 180.832C8.6265 180.69 8.39331 180.591 8.29059 180.591C7.93526 180.591 5.80323 182.718 5.4479 182.718C5.09256 182.718 0.475955 181.535 0.947887 181.419C1.41982 181.303 11.8412 171.14 11.8412 169.606C11.8412 168.534 10.5142 164.873 9.71472 162.759C9.41212 161.956 9.91182 161.078 10.7585 160.929H10.7613Z"
                fill="white" />
            <path
                d="M62.9732 59.9754L60.6163 53.3641C60.5969 53.3087 60.5803 53.256 60.5664 53.2006C60.2804 52.054 57.1268 39.3798 57.4294 38.4769C57.7015 37.6653 54.72 31.8739 53.8649 30.2398C53.7178 29.9572 53.6484 29.6415 53.6678 29.3258L53.7872 27.2042C53.7955 27.0546 53.7872 26.9023 53.7539 26.7555L49.1678 4.16572C49.0124 3.40128 48.3739 2.82795 47.5938 2.7587L46.7332 2.68115C46.1447 3.51207 45.5534 4.34298 44.9649 5.17389L49.3483 14.7349C49.5232 15.1144 49.5565 15.5409 49.4427 15.9425L47.9741 21.2022C47.7576 21.9805 48.0963 22.8086 48.8014 23.2075C49.3455 23.5177 49.6842 24.091 49.6925 24.7142L50.0034 46.5866C50.009 46.9439 49.9063 47.2929 49.7064 47.592L44.7678 54.9843C44.4791 55.4136 44.0377 55.6768 43.5657 55.7488C42.8134 55.8651 42.2749 55.4497 42.1888 55.3832C41.4698 55.0647 40.5176 54.5495 39.5515 53.7103C38.2357 52.5664 37.4778 51.3339 37.0642 50.5196C34.971 50.6387 32.8806 50.755 30.7875 50.8741C31.2067 52.1149 33.744 59.6818 34.091 62.6204C34.1188 62.8448 34.1576 63.2769 33.9716 63.7477C33.6052 64.6756 32.5281 65.3237 29.6021 65.8776C28.1447 66.1546 20.3966 67.5145 19.6554 68.1211C19.6471 68.1266 19.5833 68.182 19.4889 68.2568C19.1252 68.5421 18.806 68.7498 18.5755 68.891L13.0872 76.192C13.1844 76.7459 13.3066 77.5824 13.3649 78.6017C13.4287 79.7262 13.412 80.8867 13.0262 84.4236C12.9207 85.3847 12.7736 86.6809 12.5709 88.2236C11.8047 89.8217 10.9025 90.8493 10.2418 91.4753C9.45893 92.2203 8.46787 92.838 6.51074 94.1093C5.75842 94.5967 5.10882 94.9956 4.61746 95.2919C4.23714 95.7406 3.68192 96.494 3.31548 97.5354C2.67421 99.3579 3.30993 100.059 2.72418 101.435C1.89413 103.382 0.0480477 103.324 0.000854544 104.626C-0.0380104 105.734 1.25564 106.986 2.48821 107.224C3.38211 107.398 3.80685 106.95 5.09217 107.224C5.76953 107.368 6.25257 107.642 6.63011 107.814C7.59896 108.257 8.25134 108.894 8.64276 109.348C12.6986 107.252 14.5613 104.825 15.5108 102.97C16.4491 101.133 16.3935 99.8509 18.1564 96.1201C19.636 92.9875 19.561 94.0788 20.4855 91.9406C20.8852 91.0127 21.21 90.0932 22.1095 89.6694C22.7841 89.3509 23.4975 89.4478 23.9833 89.5697C25.252 90.1652 26.9482 90.8521 29.008 91.3922C29.616 91.5528 32.3865 92.2591 35.4013 92.3366C36.7227 92.3699 42.719 92.5278 48.4266 89.0296C48.4266 89.0296 53.4541 85.9469 60.4609 74.2255C60.4831 74.1867 60.5109 74.1341 60.5553 74.0676C61.0661 73.2866 62.4597 70.9019 61.8461 68.0601C61.7046 67.4037 61.563 67.448 61.5019 66.9412C61.3437 65.6145 62.0516 64.4374 62.7012 63.6286L63.0593 60.7786C63.0926 60.5044 63.0621 60.2274 62.9705 59.967L62.9732 59.9754Z"
                fill="white" />
        </symbol>
        <symbol id="next-slide" viewBox="0 0 36 36" fill="none"
            xmlns="http://www.w3.org/2000/svg">
            <g filter="url(#filter0_b_516_8288)">
                <circle cx="17.8185" cy="17.8182" r="17.8182"
                    transform="rotate(180 17.8185 17.8182)" fill="white" fill-opacity="0.5" />
            </g>
            <path d="M14.9043 25.2695L22.6795 17.4943L14.9043 9.71907" stroke="#444444"
                stroke-width="2" stroke-linecap="round" stroke-linejoin="round" />
            <defs>
                <filter id="filter0_b_516_8288" x="-40" y="-40" width="115.637" height="115.636"
                    filterUnits="userSpaceOnUse" color-interpolation-filters="sRGB">
                    <feFlood flood-opacity="0" result="BackgroundImageFix" />
                    <feGaussianBlur in="BackgroundImageFix" stdDeviation="20" />
                    <feComposite in2="SourceAlpha" operator="in"
                        result="effect1_backgroundBlur_516_8288" />
                    <feBlend mode="normal" in="SourceGraphic" in2="effect1_backgroundBlur_516_8288"
                        result="shape" />
                </filter>
            </defs>
        </symbol>


        <symbol id="previous-slide" viewBox="0 0 36 36" fill="none"
            xmlns="http://www.w3.org/2000/svg">
            <g filter="url(#filter0_b_516_8287)">
                <circle cx="17.8182" cy="17.8182" r="17.8182" fill="white" fill-opacity="0.5" />
            </g>
            <path d="M20.7324 10.3669L12.9572 18.1422L20.7324 25.9174" stroke="#444444"
                stroke-width="2" stroke-linecap="round" stroke-linejoin="round" />
            <defs>
                <filter id="filter0_b_516_8287" x="-40" y="-40" width="115.637" height="115.636"
                    filterUnits="userSpaceOnUse" color-interpolation-filters="sRGB">
                    <feFlood flood-opacity="0" result="BackgroundImageFix" />
                    <feGaussianBlur in="BackgroundImageFix" stdDeviation="20" />
                    <feComposite in2="SourceAlpha" operator="in"
                        result="effect1_backgroundBlur_516_8287" />
                    <feBlend mode="normal" in="SourceGraphic" in2="effect1_backgroundBlur_516_8287"
                        result="shape" />
                </filter>
            </defs>
        </symbol>
        <symbol viewBox="0 0 23 22" id="linkedin" fill="none">
            <path
                d="M1.57031 3.50012C1.57031 2.83708 1.8337 2.2012 2.30255 1.73235C2.77139 1.26351 3.40727 1.00012 4.07031 1.00012H19.0703C19.7334 1.00012 20.3692 1.26351 20.8381 1.73235C21.3069 2.2012 21.5703 2.83708 21.5703 3.50012V18.5001C21.5703 19.1632 21.3069 19.799 20.8381 20.2679C20.3692 20.7367 19.7334 21.0001 19.0703 21.0001H4.07031C3.40727 21.0001 2.77139 20.7367 2.30255 20.2679C1.8337 19.799 1.57031 19.1632 1.57031 18.5001V3.50012Z"
                stroke="currentColor" stroke-width="2" stroke-linecap="round"
                stroke-linejoin="round" />
            <path d="M6.56836 9.75037V16.0004" stroke="currentColor" stroke-width="2"
                stroke-linecap="round" stroke-linejoin="round" />
            <path d="M6.56836 6.00037V6.01287" stroke="currentColor" stroke-width="2"
                stroke-linecap="round" stroke-linejoin="round" />
            <path d="M11.5703 16.0004V9.75037" stroke="currentColor" stroke-width="2"
                stroke-linecap="round" stroke-linejoin="round" />
            <path
                d="M16.5703 16.0004V12.2504C16.5703 11.5873 16.3069 10.9514 15.8381 10.4826C15.3692 10.0138 14.7334 9.75037 14.0703 9.75037C13.4073 9.75037 12.7714 10.0138 12.3025 10.4826C11.8337 10.9514 11.5703 11.5873 11.5703 12.2504"
                stroke="currentColor" stroke-width="2" stroke-linecap="round"
                stroke-linejoin="round" />
        </symbol>
        <symbol id="arrow-head" viewBox="0 0 11 7" fill="none">
            <path d="M1.46875 1.61182L5.46875 5.61182L9.46875 1.61182" stroke="currentColor"
                stroke-width="2" stroke-linecap="round" stroke-linejoin="round" />
        </symbol>
        <symbol id="link-arrow" viewBox="0 0 10 11" fill="none" xmlns="http://www.w3.org/2000/svg">
            <path
                d="M9.80752 1.44019C9.80752 1.09501 9.5277 0.815186 9.18252 0.815184L3.55751 0.815169C3.21234 0.815183 2.93252 1.095 2.93251 1.44017C2.93254 1.78538 3.21234 2.06517 3.5575 2.06517L8.55752 2.06518L8.55752 7.06518C8.55752 7.41036 8.83734 7.69018 9.18252 7.69019C9.5277 7.69018 9.80752 7.41036 9.80752 7.06518L9.80752 1.44019ZM0.78563 8.9532C0.541546 9.19728 0.541554 9.593 0.78563 9.83708C1.02971 10.0812 1.42543 10.0812 1.66951 9.83708L0.78563 8.9532ZM8.74058 0.998244L0.78563 8.9532L1.66951 9.83708L9.62446 1.88213L8.74058 0.998244Z"
                fill="white" fill-opacity="1" />
        </symbol>

        <symbol viewBox="0 0 15 15" id="expand" fill="none" xmlns="http://www.w3.org/2000/svg">
            <path d="M11 1H14.3333V4.33333" stroke="currentColor" stroke-width="1.25"
                stroke-linecap="round" stroke-linejoin="round" />
            <path d="M9.33203 6L14.332 1" stroke="currentColor" stroke-width="1.25"
                stroke-linecap="round" stroke-linejoin="round" />
            <path d="M4.33333 14.3333H1V11" stroke="currentColor" stroke-width="1.25"
                stroke-linecap="round" stroke-linejoin="round" />
            <path d="M1 14.3333L6 9.33325" stroke="currentColor" stroke-width="1.25"
                stroke-linecap="round" stroke-linejoin="round" />
            <path d="M11 14.3333H14.3333V11" stroke="currentColor" stroke-width="1.25"
                stroke-linecap="round" stroke-linejoin="round" />
            <path d="M9.33203 9.33325L14.332 14.3333" stroke="currentColor" stroke-width="1.25"
                stroke-linecap="round" stroke-linejoin="round" />
            <path d="M4.33333 1H1V4.33333" stroke="currentColor" stroke-width="1.25"
                stroke-linecap="round" stroke-linejoin="round" />
            <path d="M1 1L6 6" stroke="currentColor" stroke-width="1.25" stroke-linecap="round"
                stroke-linejoin="round" />
        </symbol>


    </defs>
</svg>