<!-- sprite.svg -->
<svg xmlns="http://www.w3.org/2000/svg" xmlns:xlink="http://www.w3.org/1999/xlink">
    <defs>
        <symbol viewBox="0 0 157 76" id="logo-oca-full">
            <path d="M63.1286 25.2654C62.3401 25.2654 61.7146 25.1235 61.2533 24.8397C60.7921 24.5558 60.4622 24.1511 60.2625 23.6228C60.0628 23.0958 59.9629 22.4638 59.9629 21.7279V17.712C59.9629 16.9761 60.0628 16.3466 60.2625 15.8236C60.4622 15.3006 60.7921 14.9025 61.2533 14.6265C61.7146 14.3518 62.3388 14.2139 63.1286 14.2139C63.9183 14.2139 64.5583 14.3532 65.0235 14.6331C65.4887 14.9117 65.8211 15.3111 66.0209 15.8302C66.2206 16.3493 66.3205 16.9761 66.3205 17.712V21.7279C66.3205 22.4638 66.2206 23.0958 66.0209 23.6228C65.8211 24.1498 65.4887 24.5558 65.0235 24.8397C64.5583 25.1235 63.9262 25.2654 63.1286 25.2654ZM63.1286 23.6833C63.4124 23.6833 63.62 23.6189 63.7527 23.4901C63.8855 23.3613 63.9748 23.1891 64.0182 22.971C64.0629 22.7542 64.0852 22.5216 64.0852 22.2732V17.1811C64.0852 16.9327 64.0629 16.7028 64.0182 16.4899C63.9735 16.277 63.8855 16.1062 63.7527 15.9774C63.62 15.8486 63.4111 15.7842 63.1286 15.7842C62.8631 15.7842 62.6634 15.8486 62.5306 15.9774C62.3979 16.1062 62.3086 16.277 62.2652 16.4899C62.2205 16.7028 62.1982 16.9327 62.1982 17.1811V22.2732C62.1982 22.5216 62.2179 22.7542 62.2586 22.971C62.298 23.1878 62.3848 23.3613 62.5175 23.4901C62.6502 23.6189 62.8539 23.6833 63.1286 23.6833Z" fill="#778C61"/>
            <path d="M67.7826 25.1194V14.3503H70.508C70.9771 14.3503 71.4121 14.3898 71.8116 14.4699C72.2111 14.5501 72.5633 14.692 72.8681 14.8957C73.1743 15.0994 73.4082 15.3806 73.5725 15.7393C73.7367 16.0981 73.8182 16.5659 73.8182 17.1415C73.8182 17.5764 73.7565 17.9457 73.6316 18.2519C73.5068 18.5581 73.3307 18.7999 73.0994 18.976C72.8681 19.1534 72.5856 19.2729 72.2479 19.3347C72.6644 19.3965 73.014 19.5384 73.2978 19.7605C73.5817 19.9826 73.7946 20.2743 73.9365 20.6383C74.0784 21.0023 74.1494 21.4412 74.1494 21.955C74.1494 22.4964 74.081 22.9656 73.9431 23.3637C73.8051 23.7632 73.604 24.0904 73.3386 24.348C73.0731 24.6056 72.7446 24.7974 72.3543 24.9262C71.964 25.055 71.512 25.1194 70.9982 25.1194H67.7812H67.7826ZM69.9771 18.6974H70.5225C70.9035 18.6974 71.1913 18.6422 71.3871 18.5318C71.5816 18.4214 71.717 18.2532 71.7932 18.0259C71.8681 17.7998 71.9062 17.5226 71.9062 17.1954C71.9062 16.8682 71.851 16.604 71.7406 16.4043C71.6302 16.2045 71.462 16.0613 71.236 15.9719C71.01 15.8839 70.7235 15.8392 70.3779 15.8392H69.9784V18.6974H69.9771ZM69.9771 23.5766H70.5882C71.1375 23.5766 71.5159 23.44 71.7249 23.164C71.9325 22.8893 72.0376 22.4767 72.0376 21.9274C72.0376 21.5017 71.989 21.1626 71.8917 20.9103C71.7945 20.658 71.6368 20.4714 71.42 20.3518C71.2032 20.2322 70.9127 20.1718 70.5487 20.1718H69.9771V23.5753V23.5766Z" fill="#778C61"/>
            <path d="M78.2063 25.2654C77.5414 25.2654 76.9869 25.1432 76.544 24.9001C76.1012 24.6556 75.7661 24.289 75.54 23.7962C75.314 23.3048 75.1826 22.6779 75.1484 21.9144L77.0368 21.5951C77.0539 22.038 77.1012 22.4085 77.1761 22.7055C77.251 23.0025 77.3666 23.2246 77.5217 23.3705C77.6768 23.5163 77.8699 23.5899 78.0999 23.5899C78.3837 23.5899 78.5769 23.5019 78.6781 23.3245C78.7793 23.1471 78.8305 22.9434 78.8305 22.7134C78.8305 22.2614 78.7215 21.8829 78.5046 21.5767C78.2878 21.2705 78.0013 20.963 77.6465 20.6529L76.5296 19.6818C76.1301 19.3454 75.8055 18.9643 75.5519 18.5385C75.2996 18.1128 75.1734 17.5897 75.1734 16.9695C75.1734 16.0838 75.4323 15.4031 75.9513 14.9287C76.4704 14.4543 77.1813 14.2178 78.0854 14.2178C78.6255 14.2178 79.0697 14.3058 79.4153 14.4832C79.7609 14.6606 80.029 14.8972 80.2195 15.1941C80.4101 15.4911 80.5428 15.8144 80.619 16.1653C80.6939 16.5161 80.7412 16.8631 80.7583 17.2087L78.8831 17.4872C78.8647 17.16 78.8371 16.8709 78.7964 16.6226C78.7569 16.3742 78.6768 16.1797 78.5572 16.0378C78.4376 15.8959 78.2576 15.8249 78.0184 15.8249C77.7609 15.8249 77.5703 15.9208 77.4468 16.1114C77.322 16.3019 77.2602 16.5122 77.2602 16.7435C77.2602 17.1246 77.3469 17.4373 77.5191 17.6804C77.6925 17.9248 77.9291 18.1785 78.23 18.4452L79.3207 19.4019C79.7727 19.7922 80.1604 20.2377 80.4837 20.7383C80.8069 21.239 80.9686 21.8579 80.9686 22.5925C80.9686 23.0971 80.8529 23.5544 80.623 23.9618C80.393 24.3692 80.071 24.6885 79.6584 24.9185C79.2458 25.1484 78.7609 25.2641 78.2024 25.2641L78.2063 25.2654Z" fill="#778C61"/>
            <path d="M81.9551 25.1194V14.3503H86.649V15.8655H84.1496V18.7237H86.0774V20.2533H84.1496V23.6305H86.6753V25.1194H81.9551Z" fill="#778C61"/>
            <path d="M87.7793 25.1194V14.3503H90.5718C91.2984 14.3503 91.9213 14.4318 92.4404 14.5961C92.9595 14.7603 93.3576 15.0508 93.6375 15.4673C93.9161 15.8839 94.0567 16.4608 94.0567 17.1954C94.0567 17.6382 94.0186 18.0311 93.9437 18.3715C93.8688 18.7131 93.7348 19.0101 93.5442 19.2624C93.3537 19.5147 93.0856 19.7171 92.74 19.8669L94.2289 25.1194H91.9818L90.7452 20.2401H89.9738V25.1194H87.7806H87.7793ZM89.9738 18.9365H90.6125C90.9673 18.9365 91.2459 18.8787 91.4496 18.7631C91.6533 18.6474 91.7978 18.4727 91.8819 18.2374C91.966 18.0022 92.0081 17.7118 92.0081 17.3662C92.0081 16.8695 91.9174 16.491 91.736 16.2295C91.5547 15.968 91.2157 15.8379 90.7189 15.8379H89.9738V18.9352V18.9365Z" fill="#778C61"/>
            <path d="M96.979 25.1194L94.9316 14.3503H96.8331L98.1091 21.796L99.3063 14.3503H101.288L99.2406 25.1194H96.9803H96.979Z" fill="#778C61"/>
            <path d="M101.459 25.1194L103.547 14.3503H105.979L108.053 25.1194H106.019L105.634 22.7527H103.932L103.519 25.1194H101.459ZM104.132 21.4097H105.421L104.769 17.0626L104.131 21.4097H104.132Z" fill="#778C61"/>
            <path d="M109.612 25.1194V15.9851H107.949V14.3503H113.454V15.9851H111.819V25.1194H109.612Z" fill="#778C61"/>
            <path d="M117.347 25.2653C116.559 25.2653 115.933 25.1234 115.472 24.8395C115.011 24.5557 114.681 24.1509 114.481 23.6227C114.282 23.0957 114.182 22.4636 114.182 21.7278V17.7119C114.182 16.976 114.282 16.3465 114.481 15.8235C114.681 15.3005 115.011 14.9023 115.472 14.6264C115.933 14.3517 116.558 14.2137 117.347 14.2137C118.137 14.2137 118.777 14.353 119.242 14.6329C119.707 14.9115 120.04 15.311 120.24 15.8301C120.439 16.3492 120.539 16.976 120.539 17.7119V21.7278C120.539 22.4636 120.439 23.0957 120.24 23.6227C120.04 24.1496 119.707 24.5557 119.242 24.8395C118.777 25.1234 118.145 25.2653 117.347 25.2653ZM117.347 23.6831C117.631 23.6831 117.839 23.6187 117.972 23.49C118.104 23.3612 118.194 23.189 118.237 22.9709C118.282 22.7541 118.304 22.5215 118.304 22.2731V17.181C118.304 16.9326 118.282 16.7026 118.237 16.4898C118.192 16.2769 118.104 16.106 117.972 15.9773C117.839 15.8485 117.63 15.7841 117.347 15.7841C117.082 15.7841 116.882 15.8485 116.749 15.9773C116.617 16.106 116.527 16.2769 116.484 16.4898C116.439 16.7026 116.417 16.9326 116.417 17.181V22.2731C116.417 22.5215 116.437 22.7541 116.477 22.9709C116.517 23.1877 116.604 23.3612 116.736 23.49C116.869 23.6187 117.073 23.6831 117.347 23.6831ZM116.722 13.5396L117.546 10.8799H119.58L117.945 13.5396H116.722Z" fill="#778C61"/>
            <path d="M122.002 25.1194V14.3503H124.794C125.521 14.3503 126.144 14.4318 126.663 14.5961C127.182 14.7603 127.58 15.0508 127.86 15.4673C128.139 15.8839 128.279 16.4608 128.279 17.1954C128.279 17.6382 128.241 18.0311 128.166 18.3715C128.091 18.7131 127.957 19.0101 127.767 19.2624C127.576 19.5147 127.308 19.7171 126.963 19.8669L128.452 25.1194H126.204L124.968 20.2401H124.196V25.1194H122.003H122.002ZM124.196 18.9365H124.835C125.19 18.9365 125.469 18.8787 125.672 18.7631C125.876 18.6474 126.02 18.4727 126.105 18.2374C126.189 18.0022 126.231 17.7118 126.231 17.3662C126.231 16.8695 126.14 16.491 125.959 16.2295C125.777 15.968 125.438 15.8379 124.942 15.8379H124.196V18.9352V18.9365Z" fill="#778C61"/>
            <path d="M129.74 25.1194V14.3503H131.92V25.1194H129.74Z" fill="#778C61"/>
            <path d="M136.574 25.2654C135.785 25.2654 135.16 25.1235 134.699 24.8397C134.237 24.5558 133.908 24.1511 133.708 23.6228C133.508 23.0958 133.408 22.4638 133.408 21.7279V17.712C133.408 16.9761 133.508 16.3466 133.708 15.8236C133.908 15.3006 134.237 14.9025 134.699 14.6265C135.16 14.3518 135.784 14.2139 136.574 14.2139C137.364 14.2139 138.004 14.3532 138.469 14.6331C138.934 14.9117 139.266 15.3111 139.466 15.8302C139.666 16.3493 139.766 16.9761 139.766 17.712V21.7279C139.766 22.4638 139.666 23.0958 139.466 23.6228C139.266 24.1498 138.934 24.5558 138.469 24.8397C138.004 25.1235 137.372 25.2654 136.574 25.2654ZM136.574 23.6833C136.858 23.6833 137.065 23.6189 137.198 23.4901C137.331 23.3613 137.42 23.1891 137.463 22.971C137.508 22.7542 137.531 22.5216 137.531 22.2732V17.1811C137.531 16.9327 137.508 16.7028 137.463 16.4899C137.419 16.277 137.331 16.1062 137.198 15.9774C137.065 15.8486 136.856 15.7842 136.574 15.7842C136.308 15.7842 136.109 15.8486 135.976 15.9774C135.843 16.1062 135.754 16.277 135.71 16.4899C135.666 16.7028 135.643 16.9327 135.643 17.1811V22.2732C135.643 22.5216 135.663 22.7542 135.704 22.971C135.743 23.1878 135.83 23.3613 135.963 23.4901C136.096 23.6189 136.299 23.6833 136.574 23.6833Z" fill="#778C61"/>
            <path d="M60.1244 41.4931V30.7241H62.7565C63.6698 30.7241 64.3807 30.8411 64.8906 31.0763C65.4005 31.3115 65.7618 31.6795 65.9747 32.1801C66.1876 32.6808 66.294 33.3221 66.294 34.1014V38.0239C66.294 38.8216 66.1876 39.4773 65.9747 39.9911C65.7618 40.5049 65.4044 40.8847 64.9037 41.1278C64.4031 41.3723 63.7053 41.4931 62.8091 41.4931H60.123H60.1244ZM62.3176 39.9635H62.7828C63.1901 39.9635 63.4806 39.8991 63.654 39.7704C63.8275 39.6416 63.9352 39.451 63.9799 39.1987C64.0246 38.9464 64.0469 38.6337 64.0469 38.2618V33.8214C64.0469 33.4496 64.018 33.1499 63.9602 32.9239C63.9024 32.6979 63.7868 32.5323 63.6146 32.4259C63.4411 32.3194 63.1599 32.2669 62.771 32.2669H62.3189V39.9649L62.3176 39.9635Z" fill="#778C61"/>
            <path d="M67.0918 41.4931L69.1799 30.7241H71.6123L73.6859 41.4931H71.6517L71.2667 39.1265H69.5649L69.1523 41.4931H67.0918ZM69.7634 37.7835H71.0525L70.4007 33.4364L69.762 37.7835H69.7634Z" fill="#778C61"/>
            <path d="M81.0125 41.639C80.2149 41.639 79.5828 41.4879 79.1176 41.187C78.6524 40.886 78.3265 40.4668 78.1399 39.9307C77.9533 39.3945 77.8613 38.7717 77.8613 38.062V34.1933C77.8613 33.4482 77.9546 32.8083 78.1399 32.2721C78.3265 31.736 78.6524 31.322 79.1176 31.029C79.5828 30.736 80.2149 30.5901 81.0125 30.5901C81.8102 30.5901 82.3884 30.7189 82.8273 30.9751C83.2662 31.2327 83.5763 31.5954 83.7577 32.0658C83.939 32.5363 84.0297 33.0803 84.0297 33.7006V34.6047H81.9022V33.5941C81.9022 33.3457 81.889 33.1132 81.8628 32.8963C81.8365 32.6795 81.7629 32.5021 81.6433 32.3641C81.5237 32.2275 81.3174 32.1578 81.0257 32.1578C80.7339 32.1578 80.5211 32.2288 80.387 32.3707C80.2543 32.5126 80.1702 32.6966 80.1347 32.9226C80.0992 33.1486 80.0821 33.3996 80.0821 33.6743V38.5667C80.0821 38.8676 80.1058 39.1317 80.1557 39.3577C80.2044 39.5838 80.2977 39.7572 80.4343 39.8768C80.571 39.9964 80.7681 40.0568 81.0257 40.0568C81.3095 40.0568 81.5106 39.9885 81.6302 39.8505C81.7497 39.7139 81.8246 39.5299 81.8562 39.2986C81.8877 39.0686 81.9022 38.8242 81.9022 38.568V37.518H84.0297V38.409C84.0297 39.0384 83.9417 39.5943 83.7642 40.0779C83.5868 40.5615 83.2807 40.9425 82.847 41.2211C82.412 41.4997 81.801 41.6403 81.0125 41.6403V41.639Z" fill="#778C61"/>
            <path d="M84.8418 41.4931L86.9299 30.7241H89.3623L91.4359 41.4931H89.4017L89.0167 39.1265H87.3149L86.9023 41.4931H84.8418ZM87.5134 37.7835H88.8025L88.1507 33.4364L87.512 37.7835H87.5134Z" fill="#778C61"/>
            <path d="M91.9941 41.4931L94.0822 30.7241H96.5146L98.5883 41.4931H96.5541L96.169 39.1265H94.4673L94.0546 41.4931H91.9941ZM94.667 37.7835H95.9561L95.3044 33.4364L94.6657 37.7835H94.667Z" fill="#778C61"/>
            <path d="M100.145 41.4931V32.3589H98.4824V30.7241H103.987V32.3589H102.352V41.4931H100.145Z" fill="#778C61"/>
            <path d="M104.984 41.4931V30.7241H107.164V41.4931H104.984Z" fill="#778C61"/>
            <path d="M108.812 41.4931V30.7241H110.342L112.735 36.3353V30.7241H114.543V41.4931H113.081L110.688 35.5363V41.4931H108.812Z" fill="#778C61"/>
            <path d="M118.93 41.6521C118.204 41.6521 117.627 41.4996 117.202 41.1934C116.776 40.8873 116.473 40.4536 116.292 39.8912C116.11 39.3287 116.02 38.6743 116.02 37.9305V34.3273C116.02 33.5559 116.113 32.891 116.298 32.3325C116.485 31.774 116.811 31.3443 117.276 31.0434C117.741 30.7424 118.373 30.5913 119.171 30.5913C119.968 30.5913 120.552 30.7201 120.999 30.9763C121.445 31.2339 121.767 31.5966 121.962 32.067C122.156 32.5375 122.255 33.096 122.255 33.7425V34.368H120.114V33.6098C120.114 33.3259 120.096 33.0763 120.062 32.8581C120.026 32.6413 119.945 32.4705 119.816 32.3456C119.687 32.2221 119.481 32.159 119.198 32.159C118.916 32.159 118.692 32.2339 118.56 32.3851C118.427 32.5362 118.343 32.728 118.307 32.9633C118.272 33.1985 118.253 33.4482 118.253 33.7149V38.4877C118.253 38.7886 118.28 39.0593 118.334 39.2985C118.386 39.5377 118.486 39.7243 118.633 39.857C118.78 39.9897 118.989 40.0567 119.265 40.0567C119.541 40.0567 119.753 39.9858 119.904 39.8439C120.055 39.7019 120.159 39.5088 120.217 39.2657C120.275 39.0226 120.303 38.7453 120.303 38.4352V37.2919H119.254V35.962H122.285V41.4931H120.849L120.716 40.5219C120.574 40.8505 120.361 41.1199 120.077 41.3327C119.794 41.5456 119.413 41.6521 118.934 41.6521H118.93Z" fill="#778C61"/>
            <path d="M123.252 41.4931L125.34 30.7241H127.772L129.846 41.4931H127.812L127.427 39.1265H125.725L125.312 41.4931H123.252ZM125.925 37.7835H127.214L126.562 33.4364L125.924 37.7835H125.925Z" fill="#778C61"/>
            <path d="M60.123 57.8655V47.0964H64.817V48.6116H62.3176V51.4698H64.2454V52.9994H62.3176V56.3766H64.8433V57.8655H60.123Z" fill="#E2C9B5"/>
            <path d="M69.2708 57.8655V47.0964H71.903C72.8163 47.0964 73.5272 47.2134 74.0371 47.4486C74.5469 47.6838 74.9083 48.0518 75.1212 48.5525C75.3341 49.0531 75.4405 49.6944 75.4405 50.4737V54.3962C75.4405 55.1939 75.3341 55.8496 75.1212 56.3635C74.9083 56.8773 74.5509 57.257 74.0502 57.5001C73.5495 57.7446 72.8518 57.8655 71.9555 57.8655H69.2695H69.2708ZM71.4641 56.3372H71.9293C72.3366 56.3372 72.627 56.2728 72.8005 56.144C72.974 56.0152 73.0817 55.8247 73.1264 55.5724C73.1711 55.3201 73.1934 55.0073 73.1934 54.6354V50.1951C73.1934 49.8232 73.1645 49.5236 73.1067 49.2975C73.0489 49.0715 72.9332 48.9059 72.7611 48.7995C72.5876 48.6931 72.3064 48.6405 71.9174 48.6405H71.4654V56.3385L71.4641 56.3372Z" fill="#E2C9B5"/>
            <path d="M76.8887 57.8655V47.0964H81.5826V48.6116H79.0832V51.4698H81.011V52.9994H79.0832V56.3766H81.6089V57.8655H76.8887Z" fill="#E2C9B5"/>
            <path d="M85.5032 58.0112C84.8383 58.0112 84.2837 57.889 83.8409 57.6459C83.398 57.4015 83.0629 57.0349 82.8369 56.5421C82.6109 56.0506 82.4795 55.4238 82.4453 54.6603L84.3337 54.341C84.3508 54.7838 84.3981 55.1544 84.473 55.4514C84.5479 55.7484 84.6635 55.9704 84.8186 56.1163C84.9736 56.2622 85.1668 56.3358 85.3968 56.3358C85.6806 56.3358 85.8738 56.2477 85.975 56.0703C86.0762 55.8929 86.1274 55.6892 86.1274 55.4593C86.1274 55.0072 86.0183 54.6288 85.8015 54.3226C85.5847 54.0164 85.2982 53.7089 84.9434 53.3988L83.8264 52.4276C83.4269 52.0912 83.1024 51.7101 82.8487 51.2844C82.5964 50.8586 82.4703 50.3356 82.4703 49.7153C82.4703 48.8296 82.7292 48.1489 83.2482 47.6745C83.7673 47.2002 84.4782 46.9636 85.3823 46.9636C85.9224 46.9636 86.3666 47.0517 86.7122 47.2291C87.0578 47.4065 87.3259 47.643 87.5164 47.94C87.707 48.237 87.8397 48.5602 87.9159 48.9111C87.9908 49.262 88.0381 49.6089 88.0552 49.9545L86.18 50.2331C86.1616 49.9059 86.134 49.6168 86.0932 49.3684C86.0538 49.1201 85.9737 48.9256 85.8541 48.7836C85.7345 48.6417 85.5545 48.5708 85.3153 48.5708C85.0577 48.5708 84.8672 48.6667 84.7437 48.8572C84.6188 49.0478 84.5571 49.258 84.5571 49.4893C84.5571 49.8704 84.6438 50.1832 84.8159 50.4263C84.9894 50.6707 85.2259 50.9243 85.5269 51.1911L86.6176 52.1477C87.0696 52.538 87.4573 52.9835 87.7806 53.4842C88.1038 53.9848 88.2655 54.6038 88.2655 55.3384C88.2655 55.843 88.1498 56.3003 87.9198 56.7077C87.6899 57.115 87.3679 57.4343 86.9553 57.6643C86.5427 57.8943 86.0578 58.0099 85.4993 58.0099L85.5032 58.0112Z" fill="#E2C9B5"/>
            <path d="M89.252 57.8655V47.0964H93.9459V48.6116H91.4465V51.4698H93.3743V52.9994H91.4465V56.3766H93.9722V57.8655H89.252Z" fill="#E2C9B5"/>
            <path d="M95.0762 57.8655V47.0964H97.8686C98.5953 47.0964 99.2182 47.1779 99.7373 47.3422C100.256 47.5064 100.655 47.7968 100.934 48.2134C101.213 48.63 101.354 49.2069 101.354 49.9415C101.354 50.3843 101.316 50.7772 101.241 51.1176C101.166 51.4592 101.032 51.7562 100.841 52.0085C100.651 52.2608 100.382 52.4632 100.037 52.613L101.526 57.8655H99.2787L98.0421 52.9862H97.2707V57.8655H95.0775H95.0762ZM97.2694 51.6826H97.908C98.2629 51.6826 98.5414 51.6248 98.7451 51.5092C98.9488 51.3935 99.0934 51.2188 99.1775 50.9835C99.2616 50.7483 99.3036 50.4579 99.3036 50.1123C99.3036 49.6156 99.2129 49.2371 99.0316 48.9756C98.8503 48.7141 98.5112 48.584 98.0145 48.584H97.2694V51.6813V51.6826Z" fill="#E2C9B5"/>
            <path d="M103.758 57.8655V48.7312H102.096V47.0964H107.6V48.7312H105.966V57.8655H103.758Z" fill="#E2C9B5"/>
            <path d="M108.598 57.8655V47.0964H110.778V57.8655H108.598Z" fill="#E2C9B5"/>
            <path d="M112.426 57.8655V47.0964H116.973V48.5853H114.619V51.4973H116.614V53.027H114.619V57.8668H112.426V57.8655Z" fill="#E2C9B5"/>
            <path d="M118.051 57.8655V47.0964H120.231V57.8655H118.051Z" fill="#E2C9B5"/>
            <path d="M124.872 58.0113C124.074 58.0113 123.442 57.8602 122.977 57.5593C122.512 57.2584 122.186 56.8392 121.999 56.303C121.813 55.7669 121.721 55.144 121.721 54.4344V50.5657C121.721 49.8206 121.814 49.1806 121.999 48.6444C122.186 48.1083 122.512 47.6944 122.977 47.4013C123.442 47.1083 124.074 46.9624 124.872 46.9624C125.67 46.9624 126.248 47.0912 126.687 47.3474C127.126 47.605 127.436 47.9677 127.617 48.4381C127.798 48.9086 127.889 49.4526 127.889 50.0729V50.977H125.762V49.9664C125.762 49.7181 125.748 49.4855 125.722 49.2686C125.696 49.0518 125.622 48.8744 125.503 48.7364C125.383 48.5998 125.177 48.5301 124.885 48.5301C124.593 48.5301 124.38 48.6011 124.246 48.743C124.114 48.8849 124.03 49.0689 123.994 49.2949C123.959 49.5209 123.942 49.7719 123.942 50.0466V54.939C123.942 55.2399 123.965 55.504 124.015 55.7301C124.064 55.9561 124.157 56.1295 124.294 56.2491C124.43 56.3687 124.627 56.4292 124.885 56.4292C125.169 56.4292 125.37 56.3608 125.49 56.2228C125.609 56.0862 125.684 55.9022 125.716 55.6709C125.747 55.441 125.762 55.1965 125.762 54.9403V53.8903H127.889V54.7813C127.889 55.4107 127.801 55.9666 127.624 56.4502C127.446 56.9338 127.14 57.3149 126.706 57.5934C126.271 57.872 125.66 58.0126 124.872 58.0126V58.0113Z" fill="#E2C9B5"/>
            <path d="M128.701 57.8655L130.789 47.0964H133.222L135.295 57.8655H133.261L132.876 55.4988H131.174L130.762 57.8655H128.701ZM131.374 54.1558H132.663L132.011 49.8087L131.373 54.1558H131.374Z" fill="#E2C9B5"/>
            <path d="M139.337 58.0113C138.539 58.0113 137.907 57.8602 137.442 57.5593C136.977 57.2584 136.651 56.8392 136.464 56.303C136.278 55.7669 136.186 55.144 136.186 54.4344V50.5657C136.186 49.8206 136.279 49.1806 136.464 48.6444C136.651 48.1083 136.977 47.6944 137.442 47.4013C137.907 47.1083 138.539 46.9624 139.337 46.9624C140.134 46.9624 140.713 47.0912 141.152 47.3474C141.59 47.605 141.901 47.9677 142.082 48.4381C142.263 48.9086 142.354 49.4526 142.354 50.0729V50.977H140.226V49.9664C140.226 49.7181 140.213 49.4855 140.187 49.2686C140.161 49.0518 140.087 48.8744 139.968 48.7364C139.848 48.5998 139.642 48.5301 139.35 48.5301C139.058 48.5301 138.845 48.6011 138.711 48.743C138.579 48.8849 138.494 49.0689 138.459 49.2949C138.423 49.5209 138.406 49.7719 138.406 50.0466V54.939C138.406 55.2399 138.43 55.504 138.48 55.7301C138.529 55.9561 138.622 56.1295 138.759 56.2491C138.895 56.3687 139.092 56.4292 139.35 56.4292C139.634 56.4292 139.835 56.3608 139.954 56.2228C140.074 56.0862 140.149 55.9022 140.18 55.6709C140.212 55.441 140.226 55.1965 140.226 54.9403V53.8903H142.354V54.7813C142.354 55.4107 142.266 55.9666 142.088 56.4502C141.911 56.9338 141.605 57.3149 141.171 57.5934C140.736 57.872 140.125 58.0126 139.337 58.0126V58.0113ZM139.471 61.4293C139.303 61.4293 139.134 61.4162 138.966 61.3899C138.798 61.3636 138.634 61.3229 138.475 61.2703V60.3925C138.581 60.4188 138.698 60.4437 138.827 60.4661C138.956 60.4884 139.086 60.4989 139.218 60.4989C139.448 60.4989 139.644 60.4608 139.803 60.3859C139.962 60.311 140.042 60.1888 140.042 60.0206C140.042 59.8524 139.982 59.7197 139.862 59.6211C139.743 59.5239 139.592 59.4529 139.41 59.4082C139.229 59.3635 139.036 59.3333 138.832 59.3149V57.8655H139.604V58.717C140.136 58.717 140.56 58.8274 140.879 59.0495C141.199 59.2715 141.358 59.604 141.358 60.0469C141.358 60.3741 141.271 60.6408 141.099 60.8445C140.925 61.0482 140.696 61.1967 140.408 61.29C140.12 61.3833 139.807 61.4293 139.471 61.4293Z" fill="#E2C9B5"/>
            <path d="M143.166 57.8654L145.254 47.0963H147.687L149.76 57.8654H147.726L147.341 55.4987H145.639L145.227 57.8654H143.166ZM147.541 45.8059C147.309 45.8059 147.102 45.7533 146.915 45.6469C146.729 45.5404 146.551 45.4366 146.383 45.3341C146.215 45.2329 146.041 45.1817 145.864 45.1817C145.677 45.1817 145.551 45.2329 145.485 45.3341C145.418 45.4366 145.386 45.5667 145.386 45.7257H144.401C144.401 45.3801 144.434 45.0726 144.501 44.8019C144.568 44.5312 144.688 44.3183 144.86 44.1633C145.033 44.0082 145.27 43.9307 145.571 43.9307C145.793 43.9307 145.99 43.9793 146.162 44.0765C146.336 44.1738 146.505 44.2736 146.675 44.3761C146.843 44.4786 147.02 44.5286 147.207 44.5286C147.358 44.5286 147.466 44.4826 147.533 44.3893C147.6 44.296 147.633 44.1698 147.633 44.0108H148.55C148.55 44.2947 148.53 44.5733 148.489 44.8479C148.45 45.1226 148.357 45.3512 148.211 45.5325C148.065 45.7139 147.84 45.8046 147.539 45.8046L147.541 45.8059ZM145.839 54.1557H147.128L146.476 49.8086L145.838 54.1557H145.839Z" fill="#E2C9B5"/>
            <path d="M153.711 58.0113C152.922 58.0113 152.297 57.8694 151.835 57.5855C151.374 57.3017 151.044 56.8969 150.845 56.3687C150.645 55.8417 150.545 55.2096 150.545 54.4737V50.4578C150.545 49.722 150.645 49.0925 150.845 48.5695C151.044 48.0465 151.374 47.6483 151.835 47.3723C152.297 47.0977 152.921 46.9597 153.711 46.9597C154.5 46.9597 155.14 47.099 155.606 47.3789C156.071 47.6575 156.403 48.057 156.603 48.5761C156.803 49.0951 156.903 49.722 156.903 50.4578V54.4737C156.903 55.2096 156.803 55.8417 156.603 56.3687C156.403 56.8956 156.071 57.3017 155.606 57.5855C155.14 57.8694 154.508 58.0113 153.711 58.0113ZM153.711 56.4291C153.994 56.4291 154.202 56.3647 154.335 56.2359C154.467 56.1071 154.557 55.935 154.6 55.7169C154.645 55.5 154.667 55.2674 154.667 55.0191V49.927C154.667 49.6786 154.645 49.4486 154.6 49.2357C154.556 49.0229 154.467 48.852 154.335 48.7232C154.202 48.5945 153.993 48.5301 153.711 48.5301C153.445 48.5301 153.245 48.5945 153.113 48.7232C152.98 48.852 152.891 49.0229 152.847 49.2357C152.803 49.4486 152.78 49.6786 152.78 49.927V55.0191C152.78 55.2674 152.8 55.5 152.841 55.7169C152.88 55.9337 152.967 56.1071 153.1 56.2359C153.232 56.3647 153.436 56.4291 153.711 56.4291Z" fill="#E2C9B5"/>
            <path d="M51.5274 3.90698H19.9746V72.24H51.5274V3.90698Z" fill="#E2C9B5"/>
            <path d="M43.9967 61.839L42.6577 55.6194L41.3173 61.839L35.0977 63.1781L41.3173 64.5185L42.6577 70.7381L43.9967 64.5185L50.2163 63.1781L43.9967 61.839Z" fill="#C0A38B"/>
            <path d="M25.7036 58.0636C25.3908 58.1175 25.1911 58.4263 25.2726 58.7325C25.3961 59.1964 25.6129 59.5853 25.9717 59.8074C26.6878 60.249 27.5381 59.7535 27.9178 60.2345C28.1544 60.5341 28.0427 60.9993 27.9178 61.5171C27.7615 62.1649 27.4973 62.5749 27.2529 62.9889C26.2161 64.7432 26.5459 64.8562 26.019 65.3634C25.4119 65.9482 25.1766 65.6052 23.3606 66.4081C22.3461 66.8562 22.2606 67.0336 21.1292 67.5001C20.2908 67.8458 19.8703 68.0192 19.2776 68.1178C18.1383 68.307 17.2211 68.1178 16.5719 67.9759C16.2855 67.9128 15.2946 67.6802 14.0554 67.0258C12.2249 66.0599 11.9989 65.3082 11.0645 65.3634C10.1933 65.4147 10.1131 66.0862 9.11837 66.123C8.24186 66.1558 7.21293 65.6801 7.02895 64.9837C6.86469 64.3621 7.48494 63.9797 7.31411 63.6065C6.94091 62.7931 3.81993 64.2044 2.99336 63.2267C2.23513 62.3279 3.69377 59.743 5.13008 57.1963C6.58741 54.6141 7.70177 53.3263 7.17219 52.3066C6.85943 51.7047 6.07492 51.3906 5.55848 51.3092C4.60576 51.1594 4.14057 51.7362 2.56759 51.7362C2.14314 51.7362 1.53603 51.731 1.42827 51.4511C1.3849 51.3407 1.42433 51.1961 2.0932 50.3591C2.56234 49.7717 2.80019 49.476 2.94737 49.409C3.60704 49.112 4.05121 49.7861 4.89354 49.7414C5.95271 49.6849 7.17744 48.5167 7.07757 47.3669C6.98953 46.3603 5.9238 45.7729 5.79501 45.7045C4.38893 44.9555 2.81464 45.7413 2.7082 45.4667C2.56234 45.0909 5.84101 44.4272 6.98164 41.9528C7.44289 40.9528 7.23921 40.3417 7.97904 38.9146C8.37327 38.1524 8.82795 37.5611 9.21035 37.1327C9.37199 36.9513 9.63481 36.904 9.85163 37.0144C10.3418 37.2641 10.9055 37.498 11.5389 37.6793C14.4378 38.5138 16.9977 37.7503 18.1856 37.2996C20.6128 36.5834 21.5905 35.6228 22.0294 34.8553C22.2028 34.5518 22.5892 33.8054 23.0793 33.7791C23.241 33.7699 23.4236 33.9092 23.6943 34.2601C24.0938 34.7791 25.3212 36.0341 25.6707 36.5913C26.0584 37.2089 26.588 37.3245 27.1819 36.9093C28.3922 36.0617 29.6945 35.3324 30.7878 34.335C31.3003 33.8685 31.8522 33.5662 32.4344 33.4177C32.851 33.3113 33.349 33.2666 34.2689 33.4217C35.7091 33.6648 37.2348 33.9223 38.3176 35.1155C38.5042 35.3205 38.8222 36.0118 39.4569 37.3942C39.4569 37.3942 39.9366 38.4376 40.6436 40.7648C40.7211 41.0185 40.8341 41.4061 40.7855 41.9042C40.7277 42.4995 40.4675 42.9528 40.3584 43.1381C39.9826 43.7781 39.7395 43.7216 39.5988 44.1355C39.4372 44.6099 39.6251 45.0633 39.9313 45.7978C40.3768 46.8675 40.7855 47.1303 40.6436 47.5548C40.5989 47.6862 40.3124 47.8978 39.7421 48.3143C39.0732 48.8019 38.7381 49.0476 38.6974 49.0739C37.8393 49.6508 37.4122 49.9478 37.0837 50.024C36.0245 50.2671 35.3688 49.5272 34.9942 49.8821C34.7643 50.1002 34.8313 50.5509 34.9627 51.4169C35.0849 52.2251 35.2347 52.3434 35.1533 52.6824C34.9956 53.3381 33.8392 53.7324 33.713 53.7744C31.7419 54.4407 31.1361 56.2686 27.8732 57.4775C27.3685 57.6641 26.6379 57.8967 25.7062 58.0597L25.7036 58.0636Z" fill="#778C61"/>
            <path d="M31.036 1.43795C33.6471 3.85983 36.5 5.99129 39.2399 8.25942C39.483 8.46048 39.8155 8.58138 40.1256 8.67205C41.0021 8.93093 41.0981 9.48022 40.7065 10.1898C39.7984 11.8325 38.9469 13.5145 37.9298 15.0888C35.8193 18.3543 34.7102 21.8432 35.1334 25.7619C35.2464 26.8053 34.8679 27.1535 33.8232 27.0642C32.0216 26.9104 30.1503 26.3519 29.1989 26.1469C28.6128 26.0208 27.739 25.8762 26.6351 25.8618C24.6876 21.1441 24.1883 18.8116 24.1186 17.5527C24.0989 17.1992 24.0739 16.2202 23.6915 14.9889C23.3932 14.0309 23.1146 13.6788 22.7414 12.7576C22.5325 12.2398 22.3788 11.7549 21.9346 9.57615C21.4957 7.42891 21.2959 6.19366 20.9438 4.3237C20.6954 3.00961 20.4773 1.93599 20.3301 1.229C20.4773 0.888653 20.7716 0.725705 21.108 0.71125C23.0043 0.625834 24.8663 0.269714 26.7429 0.0331761C28.3855 -0.174451 29.7167 0.628462 31.036 1.43795Z" fill="#778C61"/>
            <path d="M49.0676 34.5479C47.0544 34.2115 45.0412 33.8791 43.0294 33.5361C41.9492 33.3521 40.9518 33.4139 40.0621 34.1905C39.7349 34.4757 39.5063 34.5335 39.4235 34.5598C38.9202 34.7227 38.4418 34.3351 37.84 33.9802C36.7624 33.3442 35.79 33.1077 35.0856 32.9355C34.5442 32.8041 33.9108 32.6543 33.0777 32.7108C32.0198 32.7818 31.255 33.1432 31.0974 33.2207C30.1091 33.7003 29.8411 34.247 27.8686 35.7845C27.5743 36.0132 27.2011 36.297 26.7293 36.2589C26.3298 36.2274 26.0118 35.9777 25.59 35.4993C24.5663 34.3403 23.9027 33.59 23.9763 32.6504C24.0604 31.561 25.0302 31.5781 25.4954 30.1812C25.9868 28.7068 25.1747 27.8842 25.6859 27.2376C26.268 26.5004 27.753 27.0234 30.2642 27.4768C34.3787 28.2192 36.3077 28.0524 38.342 27.8513C40.0976 27.6792 41.4577 26.6857 42.8979 25.8302C43.9164 25.2244 43.9321 25.2428 44.1844 26.3664C44.4801 27.6831 44.7626 29.0038 45.0636 30.3205C45.1161 30.5531 45.0439 30.9118 45.4197 30.9276C45.6878 30.9394 45.8008 30.6884 45.8665 30.465C46.354 28.8106 47.5275 27.8355 49.0584 27.2074C50.5013 26.9038 51.9534 26.6371 53.3818 26.2783C53.9942 26.1246 54.1755 26.2166 54.2412 26.8631C54.3372 27.7935 54.1203 28.5254 53.3923 29.1352C52.7392 29.6818 52.1282 30.2811 51.5079 30.8658C50.5447 31.7726 50.9244 32.423 49.8653 33.7161C49.5578 34.0919 49.2674 34.3705 49.0689 34.5479H49.0676Z" fill="#778C61"/>
            <path d="M49.2847 18.8327C47.7525 18.1454 47.6933 18.1743 46.9272 19.587C46.646 20.1061 46.3477 20.6291 45.9771 21.0851C45.3201 21.8972 44.0494 22.0154 43.2018 21.4267C42.7813 21.135 42.864 20.7526 42.9495 20.3649C43.1899 19.2769 43.4396 18.1914 43.7445 16.8497C42.3042 17.8235 40.9941 18.5935 39.835 19.5909C38.9467 20.3544 37.9664 20.4793 36.8796 20.1336C36.4302 19.9904 36.3146 19.788 36.5524 19.3439C38.2463 16.1795 39.9283 13.0086 41.5999 9.83244C41.8745 9.31206 42.2412 9.41193 42.6827 9.53545C44.868 10.1478 47.0586 10.7418 49.2479 11.341C50.5725 11.7261 51.8906 12.1387 53.2257 12.4843C53.9458 12.6709 54.2599 13.0296 54.2415 13.7971C54.2073 15.211 54.2205 16.6289 54.2822 18.0429C54.319 18.8708 53.9393 19.1441 53.1902 19.2046C51.8617 19.311 50.562 19.2151 49.2834 18.8327H49.2847Z" fill="#778C61"/>
            <path d="M49.0517 26.5714C47.5011 26.7606 46.279 27.394 45.7914 29.306C45.2132 28.1312 45.1475 27.1154 44.9452 26.1495C44.5036 24.043 44.5233 24.0299 42.6954 25.093C40.9345 26.118 39.2591 27.3099 37.0422 27.1627C36.2642 27.1115 35.8871 26.9866 35.9199 26.1259C35.9738 24.6764 35.9554 23.223 35.9502 21.771C35.9475 21.064 36.1171 20.6671 36.9371 21.0009C37.9936 21.4306 38.945 21.0784 39.8333 20.4989C40.4956 20.0666 41.129 19.5909 41.7848 19.148C41.9372 19.0442 42.108 18.8589 42.3117 18.993C42.5101 19.1231 42.4471 19.3373 42.3906 19.5317C41.6113 22.2086 42.0528 21.9812 44.5128 22.4359C45.9491 22.7013 46.1857 22.541 46.9426 21.0614C47.3946 20.1783 47.7521 19.1809 49.0675 19.4108C50.0701 20.0193 51.153 20.1021 52.2949 19.9654C54.1018 19.7499 54.2555 19.9181 54.2266 21.7631C54.2161 22.4517 54.2253 23.1416 54.2332 23.8302C54.2503 25.2362 54.2503 25.2244 52.8468 25.5753C51.5787 25.892 50.3159 26.2376 49.0517 26.5714Z" fill="#778C61"/>
            <path d="M49.0367 36.6505C48.8119 37.3352 48.6122 38.029 48.3546 38.7018C48.1036 39.3563 47.6148 39.6125 46.9328 39.3457C44.5674 38.4246 42.386 37.117 40.0968 36.0342C39.7171 35.8542 39.5213 35.4902 39.9497 35.1853C40.7381 34.6255 41.4596 33.9961 42.6186 34.2405C44.7395 34.6873 46.8947 34.9698 49.0353 35.3207C49.4151 35.7635 48.9302 36.2077 49.0353 36.6505H49.0367Z" fill="#778C61"/>
            <path d="M40.123 36.9199C40.7722 37.2379 41.1704 37.4298 41.5672 37.6269C43.244 38.46 44.9195 39.2971 46.5989 40.1263C47.1338 40.3905 47.5201 40.6901 47.0391 41.3261C45.4924 43.3721 43.9458 45.4169 42.4083 47.4695C42.0995 47.8821 41.905 47.7428 41.6842 47.3946C41.1139 46.4984 40.7341 45.5194 40.4319 44.5101C40.261 43.9411 40.6211 43.5574 40.9943 43.2368C41.9588 42.405 42.1178 41.4996 41.5252 40.3458C41.0074 39.3392 40.6579 38.2472 40.1244 36.9199H40.123Z" fill="#778C61"/>
            <path d="M4.31121 64.6775L5.88419 64.3989C6.24293 64.3358 6.56226 64.6315 6.52809 64.9942L6.45056 65.7945C6.42559 66.0455 6.57409 66.2807 6.81194 66.3648C7.48607 66.6066 8.78571 67.0613 8.92632 67.0258C9.07613 66.989 10.3403 66.4515 10.8738 66.2242C11.0236 66.1598 11.1945 66.1664 11.339 66.2413L12.6807 66.9285C12.9028 67.0416 13.0197 67.2912 12.9672 67.5343L12.6912 68.8103C12.682 68.855 12.6781 68.8997 12.6794 68.9457C12.6965 69.4345 12.7924 72.3952 12.4875 72.4386C12.1551 72.4859 10.494 72.9129 10.1129 73.1035C9.86196 73.2296 9.36129 74.6633 9.05116 75.62C8.92501 76.009 8.43222 76.1285 8.1418 75.8408C7.21011 74.9169 5.58851 73.3006 5.55435 73.1994C5.50704 73.0575 5.88681 70.6356 5.45973 70.9208C5.17326 71.1113 4.82371 71.3873 4.62397 71.5489C4.52015 71.633 4.45051 71.7513 4.42817 71.8827L4.35983 72.2822C4.29676 72.6462 3.89858 72.8459 3.57006 72.679C3.45836 72.6225 3.36506 72.5831 3.32432 72.5831C3.1824 72.5831 2.32692 73.4373 2.185 73.4373C2.04308 73.4373 0.191517 72.9629 0.380747 72.9156C0.571291 72.8683 4.74881 68.7854 4.74881 68.1677C4.74881 67.7367 4.2166 66.2662 3.89596 65.416C3.77375 65.0941 3.9748 64.7406 4.31384 64.6801L4.31121 64.6775Z" fill="#778C61"/>
            <path d="M25.2494 24.1036L24.3046 21.4465C24.2967 21.4241 24.2901 21.4031 24.2849 21.3808C24.1705 20.9195 22.9064 15.8261 23.0273 15.4634C23.1363 15.1375 21.9405 12.8089 21.5975 12.1532C21.5384 12.0402 21.5108 11.9127 21.5187 11.7852L21.566 10.9324C21.5699 10.8719 21.566 10.8115 21.5529 10.7524L19.7131 1.67326C19.6514 1.36576 19.3938 1.13579 19.0824 1.1082L18.7381 1.07666C18.5015 1.41044 18.265 1.74422 18.0284 2.078L19.7854 5.92042C19.855 6.07286 19.8682 6.245 19.8235 6.40532L19.2348 8.51971C19.1481 8.83246 19.2847 9.16493 19.5659 9.32656C19.7841 9.4514 19.9194 9.68137 19.9234 9.93236L20.0482 18.7237C20.0508 18.8669 20.0088 19.0075 19.9286 19.1271L17.9483 22.0983C17.8326 22.2717 17.6552 22.3769 17.4673 22.4058C17.1651 22.4531 16.9496 22.2862 16.9154 22.2586C16.6276 22.1311 16.2452 21.9235 15.8576 21.5871C15.3293 21.1285 15.0257 20.6317 14.8602 20.3045C14.0218 20.3518 13.1821 20.3991 12.3437 20.4465C12.5119 20.9445 13.529 23.9866 13.6683 25.168C13.6788 25.2587 13.6959 25.4321 13.621 25.6201C13.4738 25.9919 13.0415 26.2534 11.8693 26.4768C11.2845 26.5885 8.17798 27.1339 7.88099 27.3783C7.87836 27.3809 7.85208 27.4033 7.81397 27.4322C7.66811 27.5478 7.53933 27.6306 7.44734 27.6871L5.24623 30.6215C5.28565 30.8449 5.33427 31.18 5.35792 31.59C5.38421 32.042 5.37632 32.5085 5.22257 33.9291C5.18052 34.3154 5.12139 34.8358 5.03991 35.4561C4.73241 36.0987 4.37104 36.5113 4.1069 36.7636C3.79284 37.0632 3.39598 37.3116 2.61146 37.8228C2.31053 38.0186 2.04903 38.1789 1.85191 38.2971C1.69948 38.4772 1.4774 38.7807 1.33022 39.1986C1.07265 39.9319 1.32759 40.2131 1.09237 40.765C0.759899 41.5469 0.0187479 41.5246 0.000350519 42.0476C-0.0154186 42.4931 0.50365 42.9964 0.99775 43.0923C1.3565 43.1619 1.52602 42.9819 2.04246 43.0923C2.31316 43.1501 2.50765 43.2605 2.66008 43.3301C3.04774 43.5089 3.31056 43.7651 3.46694 43.9478C5.09379 43.1054 5.8402 42.1304 6.22129 41.384C6.59712 40.6467 6.57478 40.1303 7.28308 38.6309C7.87705 37.372 7.84551 37.8096 8.21609 36.9502C8.37641 36.5783 8.5065 36.2077 8.86788 36.0369C9.13858 35.9094 9.42506 35.9475 9.61954 35.9975C10.1281 36.2366 10.8075 36.5126 11.6354 36.7307C11.8785 36.7951 12.9902 37.079 14.1992 37.1105C14.7301 37.125 17.1335 37.1867 19.4214 35.7806C19.4214 35.7806 21.4372 34.5415 24.2481 29.8304C24.2573 29.8146 24.2678 29.7936 24.2849 29.7673C24.4899 29.4533 25.0484 28.4953 24.8026 27.3533C24.7461 27.0892 24.6896 27.1076 24.6646 26.9039C24.6002 26.3717 24.8854 25.8973 25.1456 25.5727L25.2888 24.4269C25.302 24.3165 25.2901 24.2061 25.2534 24.101L25.2494 24.1036Z" fill="#778C61"/>
        </symbol>
        <symbol viewBox="0 0 25 21" id="retract">
            <path fill-rule="evenodd" clip-rule="evenodd" d="M23.4012 21C23.0708 21 22.7341 20.8971 22.4355 20.6703L10.7927 11.76C10.4031 11.4618 10.1765 11.0019 10.1765 10.5189C10.1765 10.0317 10.4009 9.5739 10.7906 9.2757C11.6684 8.60157 12.8364 7.70442 14.1269 6.71314C16.8808 4.59791 20.1927 2.05406 22.4334 0.333899C22.732 0.104998 23.0687 0 23.4012 0C24.2228 0 25 0.640499 25 1.575L25 19.4271C25 20.3574 24.2249 21 23.4012 21ZM23.0588 18.6952L23.0588 2.31741L15.7362 8.00888V13.0154L23.0588 18.6952ZM13.795 11.5097V9.51765L12.5122 10.5147L13.795 11.5097ZM15.7362 1.575V5.00338L13.795 6.49438V2.31741L3.24845 10.5147L13.795 18.6952V14.5297L15.7362 16.0153V19.4271C15.7362 20.3574 14.9612 21 14.1374 21C13.807 21 13.4703 20.8971 13.1717 20.6703L1.52892 11.76C1.13927 11.4618 0.912685 11.0019 0.912685 10.5189C0.912685 10.0317 1.13715 9.5739 1.5268 9.2757L4.86316 6.71314L4.86925 6.70847C7.6219 4.59416 10.9305 2.0528 13.1696 0.333899C13.4682 0.104998 13.8049 0 14.1374 0C14.959 0 15.7362 0.640499 15.7362 1.575Z" fill="#738F44"/>
        </symbol>
        <symbol viewBox="0 0 31 31" id="modal-button">
            <path d="M25.8571 0H5C2.23858 0 0 2.23858 0 5V25.8571C0 28.6185 2.23858 30.8571 5 30.8571H25.8571C28.6185 30.8571 30.8571 28.6185 30.8571 25.8571V5C30.8571 2.23858 28.6185 0 25.8571 0Z" fill="white"/>
            <path d="M16.5307 20.6991C16.5307 20.2627 16.1604 19.9085 15.7041 19.9085H5.2347C4.7785 19.9085 4.4082 20.2627 4.4082 20.6991C4.4082 21.1355 4.7785 21.4897 5.2347 21.4897H15.7041C16.1604 21.4897 16.5307 21.1355 16.5307 20.6991ZM26.449 15.4285C26.449 14.992 26.0787 14.6379 25.6225 14.6379H5.2347C4.7785 14.6379 4.4082 14.992 4.4082 15.4285C4.4082 15.8649 4.7785 16.2191 5.2347 16.2191H25.6225C26.0787 16.2191 26.449 15.8649 26.449 15.4285ZM22.0409 10.1578C22.0409 9.72139 21.6706 9.36719 21.2143 9.36719H5.2347C4.7785 9.36719 4.4082 9.72139 4.4082 10.1578C4.4082 10.5942 4.7785 10.9484 5.2347 10.9484H21.2143C21.6706 10.9484 22.0409 10.5942 22.0409 10.1578Z" fill="black"/>
        </symbol>
        <symbol viewBox="0 0 18 18" id="calendar">
            <path d="M12.75 2.25V0.75C12.75 0.336 13.0852 0 13.5 0C13.9148 0 14.25 0.336 14.25 0.75V2.25C14.25 2.664 13.9148 3 13.5 3C13.0852 3 12.75 2.664 12.75 2.25ZM3.75 3C4.16475 3 4.5 2.664 4.5 2.25V0.75C4.5 0.336 4.16475 0 3.75 0C3.33525 0 3 0.336 3 0.75V2.25C3 2.664 3.33525 3 3.75 3ZM13.5 12.75V10.5H12.75V13.5H15V12.75H13.5ZM9.75 13.125C9.75 14.9858 11.2642 16.5 13.125 16.5C14.9858 16.5 16.5 14.9858 16.5 13.125C16.5 11.2642 14.9858 9.75 13.125 9.75C11.2642 9.75 9.75 11.2642 9.75 13.125ZM18 13.125C18 15.8175 15.8175 18 13.125 18C10.4325 18 8.25 15.8175 8.25 13.125C8.25 10.4325 10.4325 8.25 13.125 8.25C15.8175 8.25 18 10.4325 18 13.125ZM7.32225 15.75H1.5V6H15.75V7.32225C16.2952 7.56975 16.7992 7.89 17.25 8.27325V1.5H15V2.25C15 3.237 14.0415 4.00425 13.0065 3.6705C12.3832 3.4695 12 2.83725 12 2.1825V1.5H5.25V2.25C5.25 3.237 4.2915 4.00425 3.2565 3.6705C2.63325 3.4695 2.25 2.83725 2.25 2.1825V1.5H0V17.25H8.27325C7.89 16.7992 7.56975 16.2952 7.32225 15.75Z" fill="#444444"/>
        </symbol>
    </defs>
</svg>