<svg width="36" height="53" viewBox="0 0 36 53" fill="none" xmlns="http://www.w3.org/2000/svg">
<path fill-rule="evenodd" clip-rule="evenodd" d="M18.0717 0H11.6534L11.2121 0.265769L11.4392 0.240431L12.5466 10.105L14.4412 19.3372L20.795 20.4645L21.3362 15.3731L21.3436 15.3039L21.3821 15.2458L26.485 7.53608L26.9639 7.85093L22.0694 15.2457L23.7717 15.7413L27.2872 13.7259L27.9335 13.3554L27.7031 14.062L26.8625 16.6398L28.9932 17.2507L30.598 14.8515L30.7324 14.6506L30.9535 14.749L32.913 15.6209L35.5866 15.7644L35.5835 15.8233L36 11.0789L25.5299 7.14767L18.0717 0ZM35.5386 16.3344L32.8292 16.1891L32.7761 16.1863L32.7277 16.1646L30.9409 15.3696L29.3542 17.7419L29.2378 17.9159L29.0362 17.858L26.4187 17.1075L26.1334 17.0258L26.2251 16.7444L26.927 14.592L23.9518 16.2977L23.8458 16.3585L23.7283 16.3243L21.8696 15.7833L21.3651 20.5289L23.931 20.6537L27.6317 18.9324L27.9899 18.7658L28.0378 19.1569L28.4835 22.7996L29.5241 21.2817L29.5933 21.1808L29.7144 21.1609L35.1639 20.2675L35.1831 20.384L35.5386 16.3344ZM35.1422 20.8505L29.9285 21.7053L28.5277 23.7486L28.0982 24.375L28.0061 23.6219L27.516 19.6172L24.1092 21.2018L24.0448 21.2317L23.9739 21.2283L21.3045 21.0984L21.3006 21.135L20.9975 21.0812L14.3599 19.9036L12.0959 24.4167L13.6941 27.1968L18.679 24.2702L18.8144 24.1907L18.9546 24.2616L23.1977 26.4109L25.0033 25.4778L25.0998 25.4279L25.2053 25.4544L31.055 26.92L30.9789 27.2215L31.9482 24.9454L34.996 22.5152L35.1422 20.8505ZM30.8754 27.4646L25.1708 26.0353L23.5436 26.8763L23.6882 27.3456L23.7498 27.2454L29.4793 30.7431L30.8754 27.4646ZM29.4562 30.7975L29.1872 31.2353L23.8905 28.0018L25.0153 31.6517L25.0641 31.81L24.9507 31.9309L23.526 33.4497L24.5338 36.3969L29.3307 31.0924L29.4562 30.7975ZM24.0962 36.82L24.0749 36.8272L22.9274 33.4719L22.872 33.3097L22.9894 33.1844L24.4181 31.6613L22.9608 26.9323L18.8347 24.8424L13.7351 27.8364L13.4849 27.9832L13.3406 27.7322L11.6881 24.8577L8.24034 27.4473L8.19323 27.4827L8.13593 27.4967L5.59011 28.1179L5.54063 28.13L5.48993 28.1243L0.102263 27.5218L3.40637 31.0924L2.07968 48.5684L0 52.6069L2.07968 53L6.23904 50.2481L9.71713 51.0344L14.4143 48.5684L15.9203 42.35L19.255 38.1686H22.6255L24.0962 36.82ZM0.400159 26.9797L5.50319 27.5504L7.94216 26.9552L11.5345 24.2571L13.8983 19.5451L11.9819 10.207L11.9793 10.1944L11.9778 10.1815L10.8868 0.461667L4.76892 4.14565L2.61753 24.588L0.400159 26.9797Z" fill="#738F44"/>
</svg>
